<svg data-v-423bf9ae="" xmlns="http://www.w3.org/2000/svg" viewBox="0 0 933.5889786367718 720" class="iconAboveSlogan"><!----><!----><!----><g data-v-423bf9ae="" id="8e0893a3-43bf-4d46-9ae9-12272cbbac09" fill="#120A0A" transform="matrix(3.931848155293183,0,0,3.931848155293183,325.247954747288,629.955110344513)"><path d="M6.33 13.58L0.49 13.58L0.49 13.02L0.49 13.02Q0.95 13.01 1.24 12.94L1.24 12.94L1.24 12.94Q1.53 12.88 1.69 12.71L1.69 12.71L1.69 12.71Q1.85 12.53 1.90 12.23L1.90 12.23L1.90 12.23Q1.96 11.93 1.96 11.42L1.96 11.42L1.96 4.96L1.96 4.96Q1.96 4.47 1.92 4.16L1.92 4.16L1.92 4.16Q1.88 3.86 1.74 3.69L1.74 3.69L1.74 3.69Q1.60 3.51 1.35 3.45L1.35 3.45L1.35 3.45Q1.11 3.39 0.71 3.36L0.71 3.36L0.71 2.80L6.03 2.80L6.03 2.80Q7.38 2.80 8.51 3.22L8.51 3.22L8.51 3.22Q9.65 3.64 10.47 4.38L10.47 4.38L10.47 4.38Q11.30 5.12 11.76 6.15L11.76 6.15L11.76 6.15Q12.22 7.17 12.22 8.37L12.22 8.37L12.22 8.37Q12.22 9.52 11.79 10.48L11.79 10.48L11.79 10.48Q11.35 11.44 10.58 12.12L10.58 12.12L10.58 12.12Q9.80 12.81 8.71 13.20L8.71 13.20L8.71 13.20Q7.63 13.58 6.33 13.58L6.33 13.58ZM6.01 3.65L4.26 3.65L4.26 3.65Q4.02 3.65 4.02 3.89L4.02 3.89L4.02 11.13L4.02 11.13Q4.02 11.94 4.52 12.33L4.52 12.33L4.52 12.33Q5.03 12.73 6.08 12.73L6.08 12.73L6.08 12.73Q7.91 12.73 8.90 11.62L8.90 11.62L8.90 11.62Q9.88 10.51 9.88 8.40L9.88 8.40L9.88 8.40Q9.88 7.28 9.62 6.40L9.62 6.40L9.62 6.40Q9.35 5.52 8.85 4.91L8.85 4.91L8.85 4.91Q8.34 4.30 7.62 3.98L7.62 3.98L7.62 3.98Q6.90 3.65 6.01 3.65L6.01 3.65ZM16.46 6.02L16.46 11.28L16.46 11.28Q16.46 11.84 16.51 12.18L16.51 12.18L16.51 12.18Q16.55 12.52 16.67 12.70L16.67 12.70L16.67 12.70Q16.80 12.88 17.04 12.94L17.04 12.94L17.04 12.94Q17.28 13.01 17.68 13.02L17.68 13.02L17.68 13.58L13.27 13.58L13.27 13.02L13.27 13.02Q13.66 13.01 13.91 12.93L13.91 12.93L13.91 12.93Q14.15 12.85 14.29 12.68L14.29 12.68L14.29 12.68Q14.42 12.50 14.47 12.19L14.47 12.19L14.47 12.19Q14.52 11.87 14.52 11.38L14.52 11.38L14.52 9.66L14.52 9.66Q14.52 8.85 14.49 8.32L14.49 8.32L14.49 8.32Q14.46 7.80 14.42 7.60L14.42 7.60L14.42 7.60Q14.35 7.25 14.11 7.14L14.11 7.14L14.11 7.14Q13.86 7.03 13.22 7.03L13.22 7.03L13.22 6.55L16.46 6.02ZM14.41 3.05L14.41 3.05L14.41 3.05Q14.41 2.59 14.72 2.28L14.72 2.28L14.72 2.28Q15.04 1.96 15.48 1.96L15.48 1.96L15.48 1.96Q15.95 1.96 16.26 2.28L16.26 2.28L16.26 2.28Q16.58 2.59 16.58 3.05L16.58 3.05L16.58 3.05Q16.58 3.50 16.26 3.81L16.26 3.81L16.26 3.81Q15.95 4.13 15.48 4.13L15.48 4.13L15.48 4.13Q15.04 4.13 14.72 3.81L14.72 3.81L14.72 3.81Q14.41 3.50 14.41 3.05ZM22.74 10.92L22.74 9.59L22.74 9.59Q21.56 10.12 20.97 10.58L20.97 10.58L20.97 10.58Q20.37 11.03 20.37 11.52L20.37 11.52L20.37 11.52Q20.37 11.93 20.59 12.17L20.59 12.17L20.59 12.17Q20.82 12.40 21.15 12.40L21.15 12.40L21.15 12.40Q21.49 12.40 21.78 12.29L21.78 12.29L21.78 12.29Q22.08 12.17 22.29 11.97L22.29 11.97L22.29 11.97Q22.50 11.77 22.62 11.50L22.62 11.50L22.62 11.50Q22.74 11.23 22.74 10.92L22.74 10.92ZM20.76 9.70L22.74 8.85L22.74 8.26L22.74 8.26Q22.74 7.45 22.45 7.08L22.45 7.08L22.45 7.08Q22.16 6.71 21.56 6.71L21.56 6.71L21.56 6.71Q21.15 6.71 20.94 6.92L20.94 6.92L20.94 6.92Q20.73 7.14 20.55 7.64L20.55 7.64L20.55 7.64Q20.43 7.99 20.20 8.19L20.20 8.19L20.20 8.19Q19.96 8.39 19.56 8.39L19.56 8.39L19.56 8.39Q19.17 8.39 18.96 8.15L18.96 8.15L18.96 8.15Q18.75 7.91 18.75 7.48L18.75 7.48L18.75 7.48Q18.75 6.80 19.48 6.41L19.48 6.41L19.48 6.41Q20.22 6.02 21.70 6.02L21.70 6.02L21.70 6.02Q23.27 6.02 23.94 6.59L23.94 6.59L23.94 6.59Q24.61 7.15 24.61 8.48L24.61 8.48L24.61 11.55L24.61 11.55Q24.61 12.74 25.09 12.74L25.09 12.74L25.09 12.74Q25.35 12.74 25.58 12.56L25.58 12.56L25.79 12.96L25.79 12.96Q25.59 13.31 25.18 13.52L25.18 13.52L25.18 13.52Q24.77 13.72 24.25 13.72L24.25 13.72L24.25 13.72Q23.60 13.72 23.27 13.33L23.27 13.33L23.27 13.33Q22.93 12.94 22.93 12.22L22.93 12.22L22.86 12.22L22.86 12.22Q22.46 12.95 21.81 13.33L21.81 13.33L21.81 13.33Q21.17 13.71 20.34 13.71L20.34 13.71L20.34 13.71Q19.46 13.71 18.93 13.21L18.93 13.21L18.93 13.21Q18.40 12.71 18.40 11.91L18.40 11.91L18.40 11.91Q18.40 11.30 18.94 10.76L18.94 10.76L18.94 10.76Q19.49 10.22 20.76 9.70L20.76 9.70ZM29.15 12.07L29.15 12.07L29.15 12.07Q29.53 12.10 29.81 12.12L29.81 12.12L29.81 12.12Q30.10 12.15 30.36 12.19L30.36 12.19L30.36 12.19Q30.62 12.22 30.88 12.26L30.88 12.26L30.88 12.26Q31.14 12.29 31.43 12.33L31.43 12.33L31.43 12.33Q32.52 12.49 33.15 13.15L33.15 13.15L33.15 13.15Q33.77 13.82 33.77 14.80L33.77 14.80L33.77 14.80Q33.77 15.99 32.79 16.60L32.79 16.60L32.79 16.60Q31.81 17.22 29.90 17.22L29.90 17.22L29.90 17.22Q28.15 17.22 27.21 16.71L27.21 16.71L27.21 16.71Q26.26 16.20 26.26 15.26L26.26 15.26L26.26 15.26Q26.26 14.53 26.64 14.16L26.64 14.16L26.64 14.16Q27.02 13.79 27.59 13.79L27.59 13.79L27.59 13.79Q27.96 13.79 28.30 13.94L28.30 13.94L28.30 13.94Q28.64 14.08 28.88 14.36L28.88 14.36L28.88 14.36Q28.52 14.43 28.29 14.69L28.29 14.69L28.29 14.69Q28.06 14.95 28.06 15.30L28.06 15.30L28.06 15.30Q28.06 15.86 28.55 16.16L28.55 16.16L28.55 16.16Q29.05 16.46 30.02 16.46L30.02 16.46L30.02 16.46Q32.12 16.46 32.12 15.13L32.12 15.13L32.12 15.13Q32.12 14.66 31.80 14.31L31.80 14.31L31.80 14.31Q31.49 13.97 30.90 13.90L30.90 13.90L28.45 13.57L28.45 13.57Q26.89 13.36 26.89 12.18L26.89 12.18L26.89 12.18Q26.89 11.61 27.27 11.24L27.27 11.24L27.27 11.24Q27.64 10.88 28.32 10.74L28.32 10.74L28.32 10.68L28.32 10.68Q28.00 10.56 27.74 10.33L27.74 10.33L27.74 10.33Q27.48 10.11 27.29 9.81L27.29 9.81L27.29 9.81Q27.09 9.52 26.99 9.18L26.99 9.18L26.99 9.18Q26.88 8.83 26.88 8.47L26.88 8.47L26.88 8.47Q26.88 7.95 27.10 7.50L27.10 7.50L27.10 7.50Q27.31 7.04 27.70 6.72L27.70 6.72L27.70 6.72Q28.08 6.40 28.61 6.21L28.61 6.21L28.61 6.21Q29.13 6.02 29.75 6.02L29.75 6.02L29.75 6.02Q30.35 6.02 30.93 6.20L30.93 6.20L30.93 6.20Q31.50 6.38 31.91 6.71L31.91 6.71L31.91 6.71Q32.23 6.51 32.47 6.38L32.47 6.38L32.47 6.38Q32.70 6.24 32.91 6.17L32.91 6.17L32.91 6.17Q33.11 6.09 33.28 6.05L33.28 6.05L33.28 6.05Q33.45 6.02 33.61 6.02L33.61 6.02L33.61 6.02Q34.15 6.02 34.48 6.26L34.48 6.26L34.48 6.26Q34.80 6.50 34.80 6.89L34.80 6.89L34.80 6.89Q34.80 7.18 34.62 7.37L34.62 7.37L34.62 7.37Q34.44 7.56 34.15 7.56L34.15 7.56L34.15 7.56Q33.94 7.56 33.81 7.47L33.81 7.47L33.81 7.47Q33.68 7.38 33.57 7.26L33.57 7.26L33.57 7.26Q33.45 7.14 33.32 7.05L33.32 7.05L33.32 7.05Q33.19 6.96 32.98 6.96L32.98 6.96L32.98 6.96Q32.69 6.96 32.42 7.34L32.42 7.34L32.42 7.34Q32.56 7.57 32.62 7.85L32.62 7.85L32.62 7.85Q32.68 8.12 32.68 8.48L32.68 8.48L32.68 8.48Q32.68 9.02 32.51 9.46L32.51 9.46L32.51 9.46Q32.34 9.91 31.98 10.25L31.98 10.25L31.98 10.25Q31.63 10.60 31.07 10.84L31.07 10.84L31.07 10.84Q30.51 11.07 29.71 11.16L29.71 11.16L29.71 11.16Q29.04 11.23 28.78 11.34L28.78 11.34L28.78 11.34Q28.52 11.45 28.52 11.68L28.52 11.68L28.52 11.68Q28.52 12.01 29.15 12.07ZM29.82 10.36L29.82 10.36L29.82 10.36Q30.27 10.36 30.52 9.88L30.52 9.88L30.52 9.88Q30.77 9.41 30.77 8.55L30.77 8.55L30.77 8.55Q30.77 7.69 30.52 7.22L30.52 7.22L30.52 7.22Q30.27 6.75 29.81 6.75L29.81 6.75L29.81 6.75Q29.33 6.75 29.05 7.22L29.05 7.22L29.05 7.22Q28.77 7.70 28.77 8.53L28.77 8.53L28.77 8.53Q28.77 9.37 29.06 9.86L29.06 9.86L29.06 9.86Q29.34 10.36 29.82 10.36ZM38.09 9.37L38.09 11.30L38.09 11.30Q38.09 11.87 38.13 12.20L38.13 12.20L38.13 12.20Q38.16 12.53 38.28 12.71L38.28 12.71L38.28 12.71Q38.40 12.88 38.65 12.94L38.65 12.94L38.65 12.94Q38.89 12.99 39.31 13.02L39.31 13.02L39.31 13.58L34.90 13.58L34.90 13.02L34.90 13.02Q35.31 12.99 35.55 12.94L35.55 12.94L35.55 12.94Q35.80 12.88 35.93 12.71L35.93 12.71L35.93 12.71Q36.06 12.54 36.11 12.24L36.11 12.24L36.11 12.24Q36.15 11.93 36.15 11.40L36.15 11.40L36.15 9.65L36.15 9.65Q36.15 8.82 36.12 8.31L36.12 8.31L36.12 8.31Q36.09 7.80 36.05 7.62L36.05 7.62L36.05 7.62Q36.01 7.43 35.94 7.31L35.94 7.31L35.94 7.31Q35.87 7.20 35.73 7.13L35.73 7.13L35.73 7.13Q35.59 7.07 35.38 7.05L35.38 7.05L35.38 7.05Q35.17 7.03 34.85 7.03L34.85 7.03L34.85 6.55L37.55 6.02L37.73 7.25L37.79 7.25L37.79 7.25Q38.25 6.66 38.88 6.34L38.88 6.34L38.88 6.34Q39.51 6.02 40.26 6.02L40.26 6.02L40.26 6.02Q41.16 6.02 41.71 6.26L41.71 6.26L41.71 6.26Q42.27 6.51 42.70 7.08L42.70 7.08L42.70 7.08Q42.94 7.41 43.12 7.92L43.12 7.92L43.12 7.92Q43.30 8.43 43.30 9.32L43.30 9.32L43.30 11.30L43.30 11.30Q43.30 11.87 43.34 12.20L43.34 12.20L43.34 12.20Q43.37 12.53 43.49 12.71L43.49 12.71L43.49 12.71Q43.61 12.88 43.85 12.94L43.85 12.94L43.85 12.94Q44.09 12.99 44.49 13.02L44.49 13.02L44.49 13.58L40.11 13.58L40.11 13.02L40.11 13.02Q40.53 13.01 40.78 12.94L40.78 12.94L40.78 12.94Q41.02 12.88 41.15 12.71L41.15 12.71L41.15 12.71Q41.27 12.54 41.31 12.23L41.31 12.23L41.31 12.23Q41.36 11.91 41.36 11.40L41.36 11.40L41.36 9.49L41.36 9.49Q41.36 8.78 41.27 8.29L41.27 8.29L41.27 8.29Q41.19 7.80 41.00 7.50L41.00 7.50L41.00 7.50Q40.81 7.20 40.50 7.06L40.50 7.06L40.50 7.06Q40.19 6.93 39.73 6.93L39.73 6.93L39.73 6.93Q39.28 6.93 38.96 7.18L38.96 7.18L38.96 7.18Q38.64 7.43 38.40 7.88L38.40 7.88L38.40 7.88Q38.28 8.13 38.19 8.53L38.19 8.53L38.19 8.53Q38.09 8.93 38.09 9.37L38.09 9.37ZM49.27 6.02L49.27 6.02L49.27 6.02Q50.11 6.02 50.86 6.31L50.86 6.31L50.86 6.31Q51.60 6.59 52.17 7.10L52.17 7.10L52.17 7.10Q52.74 7.60 53.07 8.29L53.07 8.29L53.07 8.29Q53.40 8.99 53.40 9.81L53.40 9.81L53.40 9.81Q53.40 10.67 53.07 11.38L53.07 11.38L53.07 11.38Q52.74 12.10 52.17 12.61L52.17 12.61L52.17 12.61Q51.60 13.13 50.86 13.43L50.86 13.43L50.86 13.43Q50.11 13.72 49.27 13.72L49.27 13.72L49.27 13.72Q48.44 13.72 47.70 13.43L47.70 13.43L47.70 13.43Q46.96 13.15 46.40 12.63L46.40 12.63L46.40 12.63Q45.84 12.11 45.51 11.39L45.51 11.39L45.51 11.39Q45.19 10.67 45.19 9.81L45.19 9.81L45.19 9.81Q45.19 8.99 45.51 8.29L45.51 8.29L45.51 8.29Q45.84 7.59 46.40 7.08L46.40 7.08L46.40 7.08Q46.96 6.58 47.70 6.30L47.70 6.30L47.70 6.30Q48.44 6.02 49.27 6.02ZM49.27 6.83L49.27 6.83L49.27 6.83Q48.85 6.83 48.50 7.05L48.50 7.05L48.50 7.05Q48.15 7.27 47.90 7.66L47.90 7.66L47.90 7.66Q47.66 8.05 47.52 8.60L47.52 8.60L47.52 8.60Q47.39 9.16 47.39 9.83L47.39 9.83L47.39 9.83Q47.39 10.53 47.52 11.09L47.52 11.09L47.52 11.09Q47.66 11.65 47.90 12.04L47.90 12.04L47.90 12.04Q48.15 12.43 48.49 12.65L48.49 12.65L48.49 12.65Q48.83 12.87 49.27 12.87L49.27 12.87L49.27 12.87Q49.70 12.87 50.06 12.65L50.06 12.65L50.06 12.65Q50.41 12.43 50.67 12.03L50.67 12.03L50.67 12.03Q50.92 11.63 51.06 11.07L51.06 11.07L51.06 11.07Q51.20 10.51 51.20 9.83L51.20 9.83L51.20 9.83Q51.20 9.16 51.06 8.61L51.06 8.61L51.06 8.61Q50.92 8.06 50.67 7.67L50.67 7.67L50.67 7.67Q50.41 7.27 50.06 7.05L50.06 7.05L50.06 7.05Q49.70 6.83 49.27 6.83ZM55.41 13.09L55.10 13.58L54.67 13.58L54.67 11.03L55.26 11.03L55.26 11.03Q55.50 12.04 55.94 12.50L55.94 12.50L55.94 12.50Q56.39 12.96 57.11 12.96L57.11 12.96L57.11 12.96Q57.62 12.96 57.91 12.75L57.91 12.75L57.91 12.75Q58.20 12.53 58.20 12.15L58.20 12.15L58.20 12.15Q58.20 11.76 57.85 11.39L57.85 11.39L57.85 11.39Q57.50 11.02 56.71 10.60L56.71 10.60L56.71 10.60Q55.65 10.02 55.19 9.46L55.19 9.46L55.19 9.46Q54.73 8.89 54.73 8.18L54.73 8.18L54.73 8.18Q54.73 7.71 54.90 7.31L54.90 7.31L54.90 7.31Q55.08 6.92 55.38 6.62L55.38 6.62L55.38 6.62Q55.68 6.33 56.10 6.17L56.10 6.17L56.10 6.17Q56.52 6.01 57.01 6.01L57.01 6.01L57.01 6.01Q57.44 6.01 57.87 6.13L57.87 6.13L57.87 6.13Q58.30 6.26 58.62 6.48L58.62 6.48L58.87 6.15L59.23 6.15L59.23 8.26L58.69 8.26L58.69 8.26Q58.37 7.46 58.02 7.11L58.02 7.11L58.02 7.11Q57.68 6.76 57.19 6.76L57.19 6.76L57.19 6.76Q56.80 6.76 56.57 6.97L56.57 6.97L56.57 6.97Q56.34 7.18 56.34 7.53L56.34 7.53L56.34 7.53Q56.34 7.92 56.68 8.27L56.68 8.27L56.68 8.27Q57.02 8.62 57.82 9.04L57.82 9.04L57.82 9.04Q58.38 9.35 58.79 9.65L58.79 9.65L58.79 9.65Q59.19 9.94 59.44 10.24L59.44 10.24L59.44 10.24Q59.70 10.54 59.82 10.87L59.82 10.87L59.82 10.87Q59.93 11.20 59.93 11.58L59.93 11.58L59.93 11.58Q59.93 12.07 59.75 12.46L59.75 12.46L59.75 12.46Q59.57 12.85 59.23 13.13L59.23 13.13L59.23 13.13Q58.90 13.41 58.43 13.57L58.43 13.57L58.43 13.57Q57.96 13.72 57.39 13.72L57.39 13.72L57.39 13.72Q56.78 13.72 56.27 13.56L56.27 13.56L56.27 13.56Q55.75 13.40 55.41 13.09L55.41 13.09ZM64.04 6.02L64.04 11.28L64.04 11.28Q64.04 11.84 64.08 12.18L64.08 12.18L64.08 12.18Q64.12 12.52 64.25 12.70L64.25 12.70L64.25 12.70Q64.37 12.88 64.61 12.94L64.61 12.94L64.61 12.94Q64.85 13.01 65.25 13.02L65.25 13.02L65.25 13.58L60.84 13.58L60.84 13.02L60.84 13.02Q61.24 13.01 61.48 12.93L61.48 12.93L61.48 12.93Q61.73 12.85 61.86 12.68L61.86 12.68L61.86 12.68Q61.99 12.50 62.04 12.19L62.04 12.19L62.04 12.19Q62.09 11.87 62.09 11.38L62.09 11.38L62.09 9.66L62.09 9.66Q62.09 8.85 62.06 8.32L62.06 8.32L62.06 8.32Q62.03 7.80 61.99 7.60L61.99 7.60L61.99 7.60Q61.92 7.25 61.68 7.14L61.68 7.14L61.68 7.14Q61.43 7.03 60.79 7.03L60.79 7.03L60.79 6.55L64.04 6.02ZM61.98 3.05L61.98 3.05L61.98 3.05Q61.98 2.59 62.29 2.28L62.29 2.28L62.29 2.28Q62.61 1.96 63.06 1.96L63.06 1.96L63.06 1.96Q63.52 1.96 63.83 2.28L63.83 2.28L63.83 2.28Q64.15 2.59 64.15 3.05L64.15 3.05L64.15 3.05Q64.15 3.50 63.83 3.81L63.83 3.81L63.83 3.81Q63.52 4.13 63.06 4.13L63.06 4.13L63.06 4.13Q62.61 4.13 62.29 3.81L62.29 3.81L62.29 3.81Q61.98 3.50 61.98 3.05ZM66.99 13.09L66.68 13.58L66.25 13.58L66.25 11.03L66.84 11.03L66.84 11.03Q67.07 12.04 67.52 12.50L67.52 12.50L67.52 12.50Q67.97 12.96 68.68 12.96L68.68 12.96L68.68 12.96Q69.20 12.96 69.49 12.75L69.49 12.75L69.49 12.75Q69.78 12.53 69.78 12.15L69.78 12.15L69.78 12.15Q69.78 11.76 69.43 11.39L69.43 11.39L69.43 11.39Q69.08 11.02 68.29 10.60L68.29 10.60L68.29 10.60Q67.23 10.02 66.77 9.46L66.77 9.46L66.77 9.46Q66.30 8.89 66.30 8.18L66.30 8.18L66.30 8.18Q66.30 7.71 66.48 7.31L66.48 7.31L66.48 7.31Q66.65 6.92 66.95 6.62L66.95 6.62L66.95 6.62Q67.26 6.33 67.68 6.17L67.68 6.17L67.68 6.17Q68.10 6.01 68.59 6.01L68.59 6.01L68.59 6.01Q69.02 6.01 69.45 6.13L69.45 6.13L69.45 6.13Q69.87 6.26 70.20 6.48L70.20 6.48L70.45 6.15L70.81 6.15L70.81 8.26L70.27 8.26L70.27 8.26Q69.94 7.46 69.60 7.11L69.60 7.11L69.60 7.11Q69.26 6.76 68.77 6.76L68.77 6.76L68.77 6.76Q68.38 6.76 68.15 6.97L68.15 6.97L68.15 6.97Q67.91 7.18 67.91 7.53L67.91 7.53L67.91 7.53Q67.91 7.92 68.26 8.27L68.26 8.27L68.26 8.27Q68.60 8.62 69.40 9.04L69.40 9.04L69.40 9.04Q69.96 9.35 70.36 9.65L70.36 9.65L70.36 9.65Q70.77 9.94 71.02 10.24L71.02 10.24L71.02 10.24Q71.27 10.54 71.39 10.87L71.39 10.87L71.39 10.87Q71.51 11.20 71.51 11.58L71.51 11.58L71.51 11.58Q71.51 12.07 71.33 12.46L71.33 12.46L71.33 12.46Q71.15 12.85 70.81 13.13L70.81 13.13L70.81 13.13Q70.48 13.41 70.01 13.57L70.01 13.57L70.01 13.57Q69.54 13.72 68.96 13.72L68.96 13.72L68.96 13.72Q68.36 13.72 67.84 13.56L67.84 13.56L67.84 13.56Q67.33 13.40 66.99 13.09L66.99 13.09Z"></path></g><!----><g data-v-423bf9ae="" id="608dea7a-5dfd-47ab-b186-3275aa5fadee" transform="matrix(2.6345177544487846,0,0,2.6345177544487846,0.20564767061273415,0.6685357432900219)" stroke="none" fill="#0A07D6"><path d="M122.121 227.824a9.278 9.278 0 0 0 9.295 9.283h18.565c5.14 0 9.298-4.152 9.298-9.283v-19.656H307.92v19.656a9.279 9.279 0 0 0 9.288 9.283h18.574c5.14 0 9.297-4.152 9.297-9.283v-19.656h9.289v-26.797H112.831v26.797h9.29v19.656zM354.367 128.898s-3.502-1.162-9.759-2.906l-29.864-79.693s-62.02-10.318-81.133-10.318c-19.126 0-81.14 10.318-81.14 10.318l-29.873 79.693c-6.267 1.744-9.768 2.906-9.768 2.906v47.316h241.536v-47.316zm-205.95 36.973c-8.653 0-15.657-7.008-15.657-15.654 0-8.648 7.004-15.658 15.657-15.658 8.64 0 15.653 7.01 15.653 15.658 0 8.646-7.013 15.654-15.653 15.654zm-3.621-46.291l21.294-56.693c14.22-2.287 53.173-8.314 67.521-8.314 14.335 0 53.296 6.027 67.506 8.299l21.256 56.709s-56.331-9.254-88.774-9.254c-32.455-.001-88.803 9.253-88.803 9.253zm173.985 46.291c-8.64 0-15.649-7.008-15.649-15.654 0-8.648 7.01-15.658 15.649-15.658 8.653 0 15.655 7.01 15.655 15.658.001 8.646-7.001 15.654-15.655 15.654zM.966 104.045v-.002l.003.005v.003a.016.016 0 0 1 .004.007c1.157 2.695 2.883 4.502 4.601 5.94 2.209 1.8 4.586 3.125 7.066 4.256.942.43 1.899.835 2.869 1.224 10.455 4.076 22.665 5.962 22.943 6.031.431.07.859.104 1.282.104a8 8 0 0 0 1.264-15.899c-.002 0-.347-.056-1.062-.186-2.495-.443-9.049-1.74-14.947-3.652-2.218-.711-4.341-1.525-6.029-2.322a23.137 23.137 0 0 1-1.49-.764 14.256 14.256 0 0 1-1.18-.733c.87-4.629 1.896-8.58 3.005-11.943l5.024 13.428c.421.146.845.291 1.281.431a82.9 82.9 0 0 0 2.352.721L21.537 83.55l33.529-12.546 3.859 10.314H72.88v3H60.049l12.532 33.496-33.529 12.545-2.69-7.189c-2.99-.545-7.1-1.39-11.526-2.58v104.107c0 6.83 5.537 12.363 12.363 12.363 6.828 0 12.365-5.533 12.365-12.363v-90.271h4.635v90.271c0 6.83 5.537 12.363 12.363 12.363 6.828 0 12.365-5.533 12.365-12.363V112.911a48.02 48.02 0 0 1-4.571 1.084l-.713-1.906c6.562-1.156 12.334-3.741 16.926-6.17a73.614 73.614 0 0 0 1.608-.89c5.167-2.93 8.476-5.57 8.71-5.749.018-.014.032-.03.05-.045.137-.111.266-.229.393-.348.07-.065.145-.128.211-.195.104-.103.199-.213.297-.321.082-.091.166-.179.243-.272.069-.085.132-.176.198-.264.092-.122.186-.242.27-.368.049-.072.09-.148.136-.223.09-.145.181-.289.261-.438.053-.098.096-.2.145-.3.062-.128.127-.254.182-.385.078-.185.144-.374.207-.565.016-.048.037-.095.052-.144.15-.48.255-.977.312-1.486l.002-.01a8.14 8.14 0 0 0 .04-.628c.002-.053.007-.105.009-.158.002-.161-.008-.323-.016-.486-.006-.106-.007-.211-.016-.317-.012-.124-.031-.249-.049-.374-.02-.144-.037-.287-.064-.43-.006-.028-.007-.057-.013-.085-.085-.342-1.883-9.385-6.328-19.03-2.255-4.83-5.144-9.862-9.301-14.115-4.071-4.206-10.005-7.802-17.187-7.784-.332 0-.657.026-.979.066h-14.33l-2.482 14.41h-2.5l-2.48-14.409H33.818a7.989 7.989 0 0 0-1.463-.05c-1.367.044-8.041.968-14.947 7.643C10.484 64.819 3.689 76.637.174 97.265c-.11.643-.176 1.331-.174 2.04-.006 1.628.351 3.21.904 4.572.023.056.038.112.062.168zm23.869-24.932l-3.337 1.248c1.105-2.487 2.238-4.521 3.337-6.182v4.934zM86.766 89.63a58.66 58.66 0 0 1-4.21 2.428c-4.431 2.366-10.021 4.405-14.683 4.611l-.732-1.959c3.225-.006 7.484-1.149 11.786-3.103V72.186c2.51 3.509 4.777 8.348 6.272 12.625a84.23 84.23 0 0 1 1.567 4.819zM49.803 44.714c11.252 1.821 21.896-5.042 25.114-15.657a62.402 62.402 0 0 1-6.182-1.673c-11.087-3.61-19.134-9.486-18.262-13.26.95 3.66 9.329 7.711 19.996 9.438 8.05 1.303 15.293.943 19.247-.676 1.805-.739 2.925-1.739 3.123-2.963.633-3.907-8.358-8.613-20.08-10.511-.4-.065-.794-.116-1.191-.172A22.412 22.412 0 0 0 56.993.293c-12.266-1.986-23.82 6.349-25.806 18.615-1.986 12.268 6.349 23.82 18.616 25.806z"></path></g><!----><g data-v-423bf9ae="" id="2ca3081e-f0eb-4400-af05-cd79c79fcf8e" fill="#000000" transform="matrix(0.5919443522232204,0,0,0.5919443522232204,362.631895014993,736.4526636641167)"><path d="M2.04 16.24L2.04 16.24L2.04 16.24Q1.37 16.04 1.11 15.85L1.11 15.85L1.11 15.85Q0.85 15.65 0.85 15.36L0.85 15.36L0.85 15.36Q0.85 15.13 0.98 14.73L0.98 14.73L0.98 14.73Q1.11 14.32 1.35 13.77L1.35 13.77L1.35 13.77Q1.60 13.22 1.94 12.54L1.94 12.54L1.94 12.54Q2.28 11.87 2.72 11.10L2.72 11.10L2.72 11.10Q2.35 11.09 2.06 11.08L2.06 11.08L2.06 11.08Q1.78 11.07 1.60 11.07L1.60 11.07L1.60 11.07Q1.68 10.86 2.07 10.71L2.07 10.71L2.07 10.71Q2.46 10.56 3.11 10.44L3.11 10.44L3.11 10.44Q3.65 9.53 4.28 8.71L4.28 8.71L4.28 8.71Q4.90 7.88 5.53 7.19L5.53 7.19L5.53 7.19Q6.16 6.50 6.79 5.97L6.79 5.97L6.79 5.97Q7.42 5.45 7.99 5.14L7.99 5.14L7.99 5.14Q8.01 5.04 8.02 4.97L8.02 4.97L8.02 4.97Q8.02 4.90 8.02 4.87L8.02 4.87L8.02 4.87Q8.22 4.87 8.55 4.97L8.55 4.97L8.55 4.97Q8.88 5.07 9.19 5.21L9.19 5.21L9.19 5.21Q9.51 5.35 9.75 5.49L9.75 5.49L9.75 5.49Q10.00 5.64 10.02 5.74L10.02 5.74L10.02 5.74Q9.56 6.55 9.11 8.17L9.11 8.17L9.11 8.17Q8.67 9.79 8.37 12.04L8.37 12.04L8.37 12.04Q8.30 12.60 8.25 13.31L8.25 13.31L8.25 13.31Q8.20 14.03 8.20 14.91L8.20 14.91L8.20 14.91Q8.20 15.22 8.20 15.54L8.20 15.54L8.20 15.54Q8.20 15.86 8.23 16.21L8.23 16.21L8.23 16.21Q8.20 16.23 8.18 16.23L8.18 16.23L8.18 16.23Q8.15 16.23 8.06 16.23L8.06 16.23L8.06 16.23Q7.87 16.23 7.61 16.16L7.61 16.16L7.61 16.16Q7.35 16.10 7.11 16.01L7.11 16.01L7.11 16.01Q6.86 15.92 6.69 15.81L6.69 15.81L6.69 15.81Q6.51 15.69 6.47 15.61L6.47 15.61L6.47 15.61Q6.45 15.43 6.45 15.25L6.45 15.25L6.45 15.25Q6.45 15.08 6.45 14.88L6.45 14.88L6.45 14.88Q6.45 14.01 6.52 13.12L6.52 13.12L6.52 13.12Q6.58 12.22 6.73 11.27L6.73 11.27L6.73 11.27Q6.54 11.26 6.22 11.23L6.22 11.23L6.22 11.23Q5.89 11.21 5.50 11.20L5.50 11.20L5.50 11.20Q5.10 11.19 4.64 11.16L4.64 11.16L4.64 11.16Q4.19 11.14 3.75 11.13L3.75 11.13L3.75 11.13Q3.42 11.76 3.12 12.38L3.12 12.38L3.12 12.38Q2.83 13.01 2.62 13.64L2.62 13.64L2.62 13.64Q2.38 14.31 2.23 14.98L2.23 14.98L2.23 14.98Q2.09 15.65 2.04 16.24ZM7.45 7.83L7.45 7.83L7.45 7.83Q7.50 7.63 7.58 7.29L7.58 7.29L7.58 7.29Q7.66 6.94 7.73 6.57L7.73 6.57L7.73 6.57Q7.38 6.69 6.95 7.03L6.95 7.03L6.95 7.03Q6.52 7.36 6.07 7.86L6.07 7.86L6.07 7.86Q5.61 8.36 5.15 8.98L5.15 8.98L5.15 8.98Q4.68 9.60 4.24 10.30L4.24 10.30L4.24 10.30Q5.42 10.21 6.92 10.18L6.92 10.18L6.92 10.18Q7.03 9.59 7.16 9.01L7.16 9.01L7.16 9.01Q7.29 8.43 7.45 7.83ZM16.95 14.28L16.95 14.28L16.95 14.28Q16.95 13.66 17.25 12.55L17.25 12.55L17.25 12.55Q17.54 11.44 18.07 9.95L18.07 9.95L18.07 9.95Q18.94 7.59 19.70 6.01L19.70 6.01L19.70 6.01Q20.47 4.44 21.20 3.56L21.20 3.56L21.20 3.56Q21.36 3.58 21.61 3.70L21.61 3.70L21.61 3.70Q21.85 3.81 22.09 3.94L22.09 3.94L22.09 3.94Q22.33 4.07 22.52 4.21L22.52 4.21L22.52 4.21Q22.71 4.35 22.76 4.44L22.76 4.44L22.76 4.44Q21.67 5.73 20.85 7.21L20.85 7.21L20.85 7.21Q20.02 8.69 19.33 10.61L19.33 10.61L19.33 10.61Q18.75 12.26 18.44 13.59L18.44 13.59L18.44 13.59Q18.13 14.91 18.13 15.79L18.13 15.79L18.13 15.79Q18.13 16.03 18.13 16.09L18.13 16.09L18.13 16.09Q18.13 16.14 18.14 16.20L18.14 16.20L18.14 16.20Q17.95 16.17 17.81 16.10L17.81 16.10L17.81 16.10Q17.67 16.03 17.63 15.93L17.63 15.93L17.63 15.93Q17.60 15.86 17.47 15.73L17.47 15.73L17.47 15.73Q17.35 15.60 17.25 15.53L17.25 15.53L17.25 15.53Q17.12 15.44 17.04 15.09L17.04 15.09L17.04 15.09Q16.95 14.73 16.95 14.28ZM27.26 14.28L27.26 14.28L27.26 14.28Q27.26 13.66 27.55 12.55L27.55 12.55L27.55 12.55Q27.85 11.44 28.38 9.95L28.38 9.95L28.38 9.95Q29.25 7.59 30.01 6.01L30.01 6.01L30.01 6.01Q30.77 4.44 31.50 3.56L31.50 3.56L31.50 3.56Q31.67 3.58 31.91 3.70L31.91 3.70L31.91 3.70Q32.16 3.81 32.40 3.94L32.40 3.94L32.40 3.94Q32.63 4.07 32.82 4.21L32.82 4.21L32.82 4.21Q33.01 4.35 33.07 4.44L33.07 4.44L33.07 4.44Q31.98 5.73 31.15 7.21L31.15 7.21L31.15 7.21Q30.32 8.69 29.64 10.61L29.64 10.61L29.64 10.61Q29.05 12.26 28.74 13.59L28.74 13.59L28.74 13.59Q28.43 14.91 28.43 15.79L28.43 15.79L28.43 15.79Q28.43 16.03 28.43 16.09L28.43 16.09L28.43 16.09Q28.43 16.14 28.45 16.20L28.45 16.20L28.45 16.20Q28.25 16.17 28.11 16.10L28.11 16.10L28.11 16.10Q27.97 16.03 27.93 15.93L27.93 15.93L27.93 15.93Q27.90 15.86 27.78 15.73L27.78 15.73L27.78 15.73Q27.65 15.60 27.55 15.53L27.55 15.53L27.55 15.53Q27.43 15.44 27.34 15.09L27.34 15.09L27.34 15.09Q27.26 14.73 27.26 14.28ZM50.74 6.69L50.74 6.69L50.74 6.69Q50.18 6.69 49.88 6.38L49.88 6.38L49.88 6.38Q49.57 6.06 49.57 5.61L49.57 5.61L49.57 5.61Q49.57 5.50 49.61 5.35L49.61 5.35L49.61 5.35Q49.64 5.19 49.70 5.08L49.70 5.08L49.70 5.08Q49.88 5.17 50.24 5.20L50.24 5.20L50.24 5.20Q50.60 5.24 51.07 5.24L51.07 5.24L51.07 5.24Q51.79 5.24 52.69 5.17L52.69 5.17L52.69 5.17Q53.59 5.11 54.42 5.04L54.42 5.04L54.42 5.04Q55.24 4.97 55.87 4.91L55.87 4.91L55.87 4.91Q56.50 4.84 56.69 4.84L56.69 4.84L56.69 4.84Q57.20 4.84 57.44 5.23L57.44 5.23L57.44 5.23Q57.67 5.61 57.78 6.26L57.78 6.26L57.78 6.26Q57.41 6.23 57.06 6.21L57.06 6.21L57.06 6.21Q56.70 6.19 56.45 6.19L56.45 6.19L56.45 6.19Q56.00 6.19 55.55 6.22L55.55 6.22L55.55 6.22Q55.09 6.24 54.63 6.30L54.63 6.30L54.63 6.30Q54.43 6.71 54.19 7.26L54.19 7.26L54.19 7.26Q53.96 7.81 53.73 8.41L53.73 8.41L53.73 8.41Q53.49 9.02 53.28 9.61L53.28 9.61L53.28 9.61Q53.07 10.21 52.92 10.68L52.92 10.68L52.92 10.68Q52.61 11.61 52.38 12.39L52.38 12.39L52.38 12.39Q52.15 13.17 51.98 13.85L51.98 13.85L51.98 13.85Q51.80 14.53 51.67 15.15L51.67 15.15L51.67 15.15Q51.55 15.76 51.45 16.35L51.45 16.35L51.45 16.35Q50.51 16.21 49.88 15.18L49.88 15.18L49.88 15.18Q49.99 14.74 50.16 14.23L50.16 14.23L50.16 14.23Q50.32 13.72 50.53 13.07L50.53 13.07L50.53 13.07Q50.75 12.42 51.04 11.59L51.04 11.59L51.04 11.59Q51.34 10.77 51.72 9.72L51.72 9.72L51.72 9.72Q51.86 9.32 52.01 8.90L52.01 8.90L52.01 8.90Q52.16 8.47 52.31 8.05L52.31 8.05L52.31 8.05Q52.46 7.63 52.58 7.24L52.58 7.24L52.58 7.24Q52.70 6.85 52.78 6.52L52.78 6.52L52.78 6.52Q52.19 6.59 51.67 6.64L51.67 6.64L51.67 6.64Q51.14 6.69 50.74 6.69ZM66.84 13.01L66.84 13.01L66.84 13.01Q66.51 14.03 66.19 14.87L66.19 14.87L66.19 14.87Q65.87 15.71 65.51 16.41L65.51 16.41L65.51 16.41Q65.14 17.12 64.72 17.72L64.72 17.72L64.72 17.72Q64.30 18.31 63.80 18.84L63.80 18.84L63.80 18.84Q63.15 19.52 62.47 19.87L62.47 19.87L62.47 19.87Q61.78 20.23 61.10 20.23L61.10 20.23L61.10 20.23Q60.75 20.23 60.40 20.15L60.40 20.15L60.40 20.15Q60.06 20.08 59.76 19.94L59.76 19.94L59.76 19.94Q59.46 19.81 59.23 19.64L59.23 19.64L59.23 19.64Q59.00 19.46 58.90 19.26L58.90 19.26L58.90 19.26Q58.90 19.10 59.09 18.97L59.09 18.97L59.09 18.97Q59.26 19.12 59.37 19.21L59.37 19.21L59.37 19.21Q59.49 19.29 59.59 19.35L59.59 19.35L59.59 19.35Q59.70 19.40 59.82 19.42L59.82 19.42L59.82 19.42Q59.93 19.43 60.09 19.43L60.09 19.43L60.09 19.43Q60.89 19.43 61.65 18.96L61.65 18.96L61.65 18.96Q62.41 18.49 63.09 17.63L63.09 17.63L63.09 17.63Q63.77 16.77 64.33 15.55L64.33 15.55L64.33 15.55Q64.89 14.32 65.28 12.81L65.28 12.81L65.28 12.81Q65.10 13.09 64.83 13.50L64.83 13.50L64.83 13.50Q64.57 13.90 64.25 14.30L64.25 14.30L64.25 14.30Q63.92 14.70 63.58 15.02L63.58 15.02L63.58 15.02Q63.24 15.34 62.92 15.46L62.92 15.46L62.92 15.46Q62.69 15.44 62.45 15.37L62.45 15.37L62.45 15.37Q62.20 15.29 61.99 15.15L61.99 15.15L61.99 15.15Q61.77 15.01 61.60 14.81L61.60 14.81L61.60 14.81Q61.43 14.62 61.38 14.36L61.38 14.36L61.38 14.36Q61.38 13.96 61.40 13.71L61.40 13.71L61.40 13.71Q61.43 13.47 61.50 13.17L61.50 13.17L61.50 13.17Q61.63 12.64 61.87 11.97L61.87 11.97L61.87 11.97Q62.12 11.30 62.45 10.65L62.45 10.65L62.45 10.65Q62.78 10.00 63.18 9.43L63.18 9.43L63.18 9.43Q63.57 8.86 64.01 8.54L64.01 8.54L64.01 8.54Q64.12 8.54 64.29 8.56L64.29 8.56L64.29 8.56Q64.46 8.58 64.64 8.64L64.64 8.64L64.64 8.64Q64.82 8.69 64.99 8.77L64.99 8.77L64.99 8.77Q65.16 8.85 65.28 8.97L65.28 8.97L65.28 8.97Q65.13 9.11 64.61 9.91L64.61 9.91L64.61 9.91Q64.09 10.71 63.46 12.21L63.46 12.21L63.46 12.21Q63.39 12.36 63.29 12.66L63.29 12.66L63.29 12.66Q63.20 12.95 63.11 13.27L63.11 13.27L63.11 13.27Q63.01 13.59 62.94 13.90L62.94 13.90L62.94 13.90Q62.87 14.21 62.87 14.39L62.87 14.39L62.87 14.39Q62.87 14.50 62.91 14.56L62.91 14.56L62.91 14.56Q62.94 14.62 62.97 14.64L62.97 14.64L62.97 14.64Q63.22 14.60 63.64 14.23L63.64 14.23L63.64 14.23Q64.06 13.86 64.60 13.08L64.60 13.08L64.60 13.08Q64.93 12.57 65.21 12.07L65.21 12.07L65.21 12.07Q65.49 11.58 65.77 11.07L65.77 11.07L65.77 11.07Q66.04 10.57 66.33 10.04L66.33 10.04L66.33 10.04Q66.63 9.51 66.96 8.95L66.96 8.95L66.96 8.95Q67.14 8.95 67.35 8.99L67.35 8.99L67.35 8.99Q67.56 9.03 67.76 9.09L67.76 9.09L67.76 9.09Q67.96 9.16 68.10 9.23L68.10 9.23L68.10 9.23Q68.25 9.31 68.32 9.39L68.32 9.39L68.32 9.39Q67.89 10.32 67.51 11.20L67.51 11.20L67.51 11.20Q67.13 12.08 66.84 13.01ZM74.40 19.81L74.40 19.81L74.40 19.81Q74.20 19.75 74.17 19.39L74.17 19.39L74.17 19.39Q74.12 19.21 74.09 18.96L74.09 18.96L74.09 18.96Q74.07 18.70 74.07 18.38L74.07 18.38L74.07 18.38Q74.07 18.09 74.17 17.58L74.17 17.58L74.17 17.58Q74.27 17.07 74.45 16.42L74.45 16.42L74.45 16.42Q74.62 15.78 74.87 15.03L74.87 15.03L74.87 15.03Q75.12 14.28 75.43 13.51L75.43 13.51L75.43 13.51Q75.81 12.54 76.09 11.84L76.09 11.84L76.09 11.84Q76.37 11.13 76.56 10.61L76.56 10.61L76.56 10.61Q76.75 10.09 76.87 9.76L76.87 9.76L76.87 9.76Q76.99 9.42 77.06 9.18L77.06 9.18L77.06 9.18Q77.11 9.02 77.22 8.78L77.22 8.78L77.22 8.78Q77.34 8.54 77.48 8.29L77.48 8.29L77.48 8.29Q77.63 8.05 77.78 7.83L77.78 7.83L77.78 7.83Q77.94 7.62 78.06 7.50L78.06 7.50L78.06 7.50Q78.55 7.57 78.99 7.76L78.99 7.76L78.99 7.76Q79.42 7.94 79.52 8.11L79.52 8.11L79.52 8.11Q79.32 8.29 79.07 8.67L79.07 8.67L79.07 8.67Q78.82 9.06 78.58 9.51L78.58 9.51L78.58 9.51Q78.34 9.97 78.15 10.44L78.15 10.44L78.15 10.44Q77.95 10.92 77.85 11.28L77.85 11.28L77.85 11.28Q77.99 11.05 78.22 10.77L78.22 10.77L78.22 10.77Q78.44 10.49 78.90 10.00L78.90 10.00L78.90 10.00Q79.42 9.46 79.88 9.18L79.88 9.18L79.88 9.18Q80.33 8.89 80.67 8.89L80.67 8.89L80.67 8.89Q81.20 8.89 81.54 9.18L81.54 9.18L81.54 9.18Q81.89 9.48 81.89 9.94L81.89 9.94L81.89 9.94Q81.89 10.95 81.55 11.94L81.55 11.94L81.55 11.94Q81.21 12.92 80.58 13.72L80.58 13.72L80.58 13.72Q80.35 14.03 80.02 14.31L80.02 14.31L80.02 14.31Q79.70 14.59 79.35 14.80L79.35 14.80L79.35 14.80Q79.00 15.02 78.67 15.15L78.67 15.15L78.67 15.15Q78.33 15.27 78.06 15.27L78.06 15.27L78.06 15.27Q77.81 15.27 77.62 15.17L77.62 15.17L77.62 15.17Q77.43 15.06 77.36 14.91L77.36 14.91L77.36 14.91Q77.91 14.59 78.43 14.01L78.43 14.01L78.43 14.01Q78.95 13.44 79.39 12.69L79.39 12.69L79.39 12.69Q79.83 11.94 80.16 11.07L80.16 11.07L80.16 11.07Q80.49 10.21 80.65 9.31L80.65 9.31L80.65 9.31Q80.12 9.59 79.70 9.92L79.70 9.92L79.70 9.92Q79.27 10.25 78.85 10.78L78.85 10.78L78.85 10.78Q78.34 11.40 78.05 11.77L78.05 11.77L78.05 11.77Q77.76 12.15 77.57 12.42L77.57 12.42L77.57 12.42Q77.38 12.68 77.26 12.91L77.26 12.91L77.26 12.91Q77.14 13.15 77 13.48L77 13.48L77 13.48Q76.80 13.93 76.55 14.67L76.55 14.67L76.55 14.67Q76.29 15.40 76.01 16.31L76.01 16.31L76.01 16.31Q75.74 17.22 75.47 18.25L75.47 18.25L75.47 18.25Q75.19 19.28 74.94 20.30L74.94 20.30L74.94 20.30Q74.79 20.27 74.68 20.08L74.68 20.08L74.68 20.08Q74.56 19.95 74.52 19.89L74.52 19.89L74.52 19.89Q74.47 19.84 74.40 19.81ZM94.40 9.38L94.40 9.38L94.40 9.38Q94.35 10.25 94.09 10.87L94.09 10.87L94.09 10.87Q93.84 11.49 93.37 11.96L93.37 11.96L93.37 11.96Q92.90 12.43 92.23 12.81L92.23 12.81L92.23 12.81Q91.56 13.19 90.66 13.54L90.66 13.54L90.66 13.54Q90.66 13.62 90.66 13.71L90.66 13.71L90.66 13.71Q90.65 13.80 90.65 13.90L90.65 13.90L90.65 13.90Q90.65 14.08 90.68 14.28L90.68 14.28L90.68 14.28Q90.71 14.48 90.78 14.64L90.78 14.64L90.78 14.64Q90.85 14.81 90.97 14.92L90.97 14.92L90.97 14.92Q91.10 15.02 91.29 15.02L91.29 15.02L91.29 15.02Q91.67 15.02 92.04 14.85L92.04 14.85L92.04 14.85Q92.40 14.69 92.73 14.44L92.73 14.44L92.73 14.44Q93.06 14.20 93.34 13.91L93.34 13.91L93.34 13.91Q93.63 13.62 93.86 13.38L93.86 13.38L93.86 13.38Q94.00 13.51 94.09 13.62L94.09 13.62L94.09 13.62Q93.46 14.46 92.72 15.02L92.72 15.02L92.72 15.02Q91.97 15.57 91.29 15.72L91.29 15.72L91.29 15.72Q90.33 15.61 89.79 15.02L89.79 15.02L89.79 15.02Q89.25 14.42 89.25 13.58L89.25 13.58L89.25 13.58Q89.25 13.01 89.41 12.41L89.41 12.41L89.41 12.41Q89.57 11.82 89.86 11.26L89.86 11.26L89.86 11.26Q90.15 10.71 90.53 10.22L90.53 10.22L90.53 10.22Q90.92 9.73 91.36 9.37L91.36 9.37L91.36 9.37Q91.80 9.00 92.27 8.79L92.27 8.79L92.27 8.79Q92.74 8.58 93.20 8.58L93.20 8.58L93.20 8.58Q93.84 8.67 94.40 9.38ZM93.44 9.84L93.44 9.84L93.44 9.84Q93.06 9.90 92.65 10.15L92.65 10.15L92.65 10.15Q92.25 10.40 91.89 10.82L91.89 10.82L91.89 10.82Q91.53 11.24 91.24 11.80L91.24 11.80L91.24 11.80Q90.94 12.36 90.78 13.01L90.78 13.01L90.78 13.01Q91.90 12.45 92.64 11.63L92.64 11.63L92.64 11.63Q93.38 10.81 93.44 9.84ZM114.03 15.67L114.03 15.67L114.03 15.67Q113.23 15.58 112.76 14.97L112.76 14.97L112.76 14.97Q112.28 14.35 112.28 13.40L112.28 13.40L112.28 13.40Q112.28 12.84 112.45 12.24L112.45 12.24L112.45 12.24Q112.62 11.63 112.92 11.07L112.92 11.07L112.92 11.07Q113.23 10.50 113.65 10.00L113.65 10.00L113.65 10.00Q114.07 9.49 114.56 9.13L114.56 9.13L114.56 9.13Q115.33 8.55 116.00 8.55L116.00 8.55L116.00 8.55Q116.45 8.79 116.89 9.55L116.89 9.55L116.89 9.55Q116.96 9.55 117.01 9.54L117.01 9.54L117.01 9.54Q117.07 9.53 117.14 9.53L117.14 9.53L117.14 9.53Q117.88 9.53 117.88 10.85L117.88 10.85L117.88 10.85Q117.88 11.73 117.59 12.52L117.59 12.52L117.59 12.52Q117.31 13.31 116.80 13.96L116.80 13.96L116.80 13.96Q116.28 14.60 115.58 15.04L115.58 15.04L115.58 15.04Q114.87 15.48 114.03 15.67ZM114.74 11.26L114.74 11.26L114.74 11.26Q114.51 11.58 114.30 11.96L114.30 11.96L114.30 11.96Q114.09 12.33 113.93 12.72L113.93 12.72L113.93 12.72Q113.78 13.10 113.69 13.46L113.69 13.46L113.69 13.46Q113.61 13.82 113.61 14.10L113.61 14.10L113.61 14.10Q113.61 14.43 113.72 14.74L113.72 14.74L113.72 14.74Q113.83 15.05 113.97 15.09L113.97 15.09L113.97 15.09Q114.60 14.95 115.13 14.57L115.13 14.57L115.13 14.57Q115.65 14.18 116.04 13.61L116.04 13.61L116.04 13.61Q116.42 13.03 116.64 12.31L116.64 12.31L116.64 12.31Q116.86 11.58 116.86 10.75L116.86 10.75L116.86 10.75Q116.86 10.39 116.82 10.18L116.82 10.18L116.82 10.18Q116.77 9.97 116.68 9.81L116.68 9.81L116.68 9.81Q116.06 10.00 115.58 10.40L115.58 10.40L115.58 10.40Q115.09 10.81 114.74 11.26ZM126.11 19.22L126.11 19.22L126.11 19.22Q125.76 19.08 125.69 18.69L125.69 18.69L125.69 18.69Q125.64 18.31 125.22 18.07L125.22 18.07L125.22 18.07Q125.33 17.36 125.47 16.63L125.47 16.63L125.47 16.63Q125.61 15.90 125.83 14.97L125.83 14.97L125.83 14.97Q126.04 14.04 126.37 12.80L126.37 12.80L126.37 12.80Q126.70 11.56 127.20 9.80L127.20 9.80L127.20 9.80Q126.74 9.80 126.48 9.81L126.48 9.81L126.48 9.81Q126.21 9.83 125.96 9.87L125.96 9.87L125.96 9.87Q125.90 9.81 125.87 9.72L125.87 9.72L125.87 9.72Q125.83 9.62 125.83 9.53L125.83 9.53L125.83 9.53Q125.97 9.48 126.41 9.39L126.41 9.39L126.41 9.39Q126.84 9.30 127.36 9.23L127.36 9.23L127.36 9.23Q127.69 8.16 128.13 7.32L128.13 7.32L128.13 7.32Q128.56 6.47 129.07 5.87L129.07 5.87L129.07 5.87Q129.57 5.26 130.13 4.94L130.13 4.94L130.13 4.94Q130.69 4.62 131.26 4.62L131.26 4.62L131.26 4.62Q131.43 4.62 131.59 4.64L131.59 4.64L131.59 4.64Q131.74 4.66 131.82 4.66L131.82 4.66L131.82 4.66Q131.95 4.56 132.16 4.49L132.16 4.49L132.16 4.49Q132.37 4.41 132.52 4.41L132.52 4.41L132.52 4.41Q132.69 4.41 132.96 4.59L132.96 4.59L132.96 4.59Q132.85 4.79 132.72 5.12L132.72 5.12L132.72 5.12Q132.59 5.46 132.51 5.78L132.51 5.78L132.51 5.78Q132.16 6.82 131.77 7.13L131.77 7.13L131.77 7.13Q131.61 7.13 131.60 6.72L131.60 6.72L131.60 6.72Q131.59 6.43 131.52 6.15L131.52 6.15L131.52 6.15Q131.46 6.02 131.44 5.92L131.44 5.92L131.44 5.92Q131.42 5.82 131.42 5.67L131.42 5.67L131.42 5.67Q131.42 5.59 131.43 5.47L131.43 5.47L131.43 5.47Q131.45 5.35 131.49 5.07L131.49 5.07L131.49 5.07Q131.25 5.07 130.96 5.36L130.96 5.36L130.96 5.36Q130.68 5.66 130.36 6.20L130.36 6.20L130.36 6.20Q130.05 6.73 129.72 7.48L129.72 7.48L129.72 7.48Q129.40 8.22 129.11 9.11L129.11 9.11L130.28 9.07L130.28 9.07Q130.35 9.14 130.40 9.39L130.40 9.39L130.40 9.39Q130.45 9.63 130.47 9.90L130.47 9.90L128.93 9.81L128.93 9.81Q128.39 11.40 127.93 12.84L127.93 12.84L127.93 12.84Q127.47 14.28 127.11 15.50L127.11 15.50L127.11 15.50Q126.74 16.72 126.48 17.68L126.48 17.68L126.48 17.68Q126.22 18.63 126.11 19.22ZM148.23 10.22L148.23 10.22L148.23 10.22Q148.23 9.97 148.27 9.74L148.27 9.74L148.27 9.74Q148.30 9.52 148.41 9.36L148.41 9.36L148.41 9.36Q148.53 9.20 148.72 9.11L148.72 9.11L148.72 9.11Q148.92 9.02 149.24 9.02L149.24 9.02L149.24 9.02Q149.44 9.02 149.68 9.06L149.68 9.06L149.68 9.06Q149.93 9.10 150.04 9.21L150.04 9.21L150.04 9.21Q149.98 9.45 149.95 9.63L149.95 9.63L149.95 9.63Q149.91 9.81 149.89 10.03L149.89 10.03L149.89 10.03Q149.87 10.25 149.86 10.55L149.86 10.55L149.86 10.55Q149.84 10.85 149.83 11.33L149.83 11.33L149.83 11.33Q149.80 12.28 149.74 13.03L149.74 13.03L149.74 13.03Q149.67 13.78 149.45 14.52L149.45 14.52L149.45 14.52Q149.45 14.57 149.49 14.57L149.49 14.57L149.49 14.57Q149.70 14.42 149.97 14.13L149.97 14.13L149.97 14.13Q150.23 13.83 150.53 13.46L150.53 13.46L150.53 13.46Q150.82 13.09 151.12 12.67L151.12 12.67L151.12 12.67Q151.41 12.25 151.66 11.84L151.66 11.84L151.66 11.84Q152.00 11.26 152.40 10.37L152.40 10.37L152.40 10.37Q152.81 9.49 153.08 8.48L153.08 8.48L153.08 8.48Q153.16 8.48 153.29 8.52L153.29 8.52L153.29 8.52Q153.43 8.55 153.56 8.60L153.56 8.60L153.56 8.60Q153.69 8.65 153.80 8.71L153.80 8.71L153.80 8.71Q153.90 8.76 153.94 8.81L153.94 8.81L153.94 8.81Q153.92 9.41 153.66 10.04L153.66 10.04L153.66 10.04Q153.40 10.67 153.03 11.26L153.03 11.26L153.03 11.26Q152.67 11.84 152.26 12.36L152.26 12.36L152.26 12.36Q151.86 12.88 151.52 13.26L151.52 13.26L151.52 13.26Q150.85 14.04 150.17 14.66L150.17 14.66L150.17 14.66Q149.49 15.27 148.55 15.85L148.55 15.85L148.55 15.85Q148.19 15.71 147.98 15.48L147.98 15.48L147.98 15.48Q147.77 15.25 147.77 14.99L147.77 14.99L147.77 14.99Q147.77 14.83 147.85 14.61L147.85 14.61L147.85 14.61Q147.92 14.39 148.02 14.05L148.02 14.05L148.02 14.05Q148.12 13.71 148.20 13.19L148.20 13.19L148.20 13.19Q148.27 12.67 148.27 11.87L148.27 11.87L148.27 11.87Q148.27 11.41 148.25 10.94L148.25 10.94L148.25 10.94Q148.23 10.47 148.23 10.22ZM165.75 9.38L165.75 9.38L165.75 9.38Q165.69 10.25 165.44 10.87L165.44 10.87L165.44 10.87Q165.19 11.49 164.72 11.96L164.72 11.96L164.72 11.96Q164.25 12.43 163.58 12.81L163.58 12.81L163.58 12.81Q162.90 13.19 162.01 13.54L162.01 13.54L162.01 13.54Q162.01 13.62 162.00 13.71L162.00 13.71L162.00 13.71Q161.99 13.80 161.99 13.90L161.99 13.90L161.99 13.90Q161.99 14.08 162.02 14.28L162.02 14.28L162.02 14.28Q162.05 14.48 162.12 14.64L162.12 14.64L162.12 14.64Q162.19 14.81 162.32 14.92L162.32 14.92L162.32 14.92Q162.44 15.02 162.64 15.02L162.64 15.02L162.64 15.02Q163.02 15.02 163.38 14.85L163.38 14.85L163.38 14.85Q163.74 14.69 164.07 14.44L164.07 14.44L164.07 14.44Q164.40 14.20 164.69 13.91L164.69 13.91L164.69 13.91Q164.98 13.62 165.20 13.38L165.20 13.38L165.20 13.38Q165.34 13.51 165.44 13.62L165.44 13.62L165.44 13.62Q164.81 14.46 164.06 15.02L164.06 15.02L164.06 15.02Q163.31 15.57 162.64 15.72L162.64 15.72L162.64 15.72Q161.67 15.61 161.13 15.02L161.13 15.02L161.13 15.02Q160.59 14.42 160.59 13.58L160.59 13.58L160.59 13.58Q160.59 13.01 160.75 12.41L160.75 12.41L160.75 12.41Q160.92 11.82 161.20 11.26L161.20 11.26L161.20 11.26Q161.49 10.71 161.88 10.22L161.88 10.22L161.88 10.22Q162.26 9.73 162.70 9.37L162.70 9.37L162.70 9.37Q163.14 9.00 163.61 8.79L163.61 8.79L163.61 8.79Q164.08 8.58 164.54 8.58L164.54 8.58L164.54 8.58Q165.19 8.67 165.75 9.38ZM164.78 9.84L164.78 9.84L164.78 9.84Q164.40 9.90 164.00 10.15L164.00 10.15L164.00 10.15Q163.59 10.40 163.23 10.82L163.23 10.82L163.23 10.82Q162.88 11.24 162.58 11.80L162.58 11.80L162.58 11.80Q162.29 12.36 162.12 13.01L162.12 13.01L162.12 13.01Q163.24 12.45 163.98 11.63L163.98 11.63L163.98 11.63Q164.72 10.81 164.78 9.84ZM173.38 14.94L173.38 14.94L173.38 14.94Q173.38 14.45 173.47 13.78L173.47 13.78L173.47 13.78Q173.57 13.12 173.76 12.36L173.76 12.36L173.76 12.36Q173.95 11.61 174.21 10.78L174.21 10.78L174.21 10.78Q174.47 9.95 174.79 9.13L174.79 9.13L174.79 9.13Q175.07 8.39 175.44 7.63L175.44 7.63L175.44 7.63Q175.81 6.87 176.25 6.15L176.25 6.15L176.25 6.15Q176.68 5.42 177.15 4.76L177.15 4.76L177.15 4.76Q177.62 4.10 178.09 3.56L178.09 3.56L178.09 3.56Q178.32 3.56 178.58 3.61L178.58 3.61L178.58 3.61Q178.84 3.67 179.08 3.76L179.08 3.76L179.08 3.76Q179.33 3.85 179.53 3.98L179.53 3.98L179.53 3.98Q179.73 4.10 179.86 4.23L179.86 4.23L179.86 4.23Q178.81 5.31 177.97 6.40L177.97 6.40L177.97 6.40Q177.13 7.50 176.64 8.47L176.64 8.47L176.64 8.47Q176.37 9.00 176.16 9.46L176.16 9.46L176.16 9.46Q175.94 9.93 175.76 10.38L175.76 10.38L175.76 10.38Q175.57 10.84 175.43 11.29L175.43 11.29L175.43 11.29Q175.28 11.75 175.15 12.25L175.15 12.25L175.15 12.25Q177.84 8.82 179.14 8.82L179.14 8.82L179.14 8.82Q179.51 8.82 179.93 9.06L179.93 9.06L179.93 9.06Q180.35 9.30 180.67 9.70L180.67 9.70L180.67 9.70Q180.24 10.18 179.77 10.85L179.77 10.85L179.77 10.85Q179.31 11.52 178.93 12.20L178.93 12.20L178.93 12.20Q178.54 12.88 178.30 13.46L178.30 13.46L178.30 13.46Q178.05 14.04 178.05 14.32L178.05 14.32L178.05 14.32Q178.05 14.46 178.09 14.51L178.09 14.51L178.09 14.51Q178.14 14.56 178.28 14.56L178.28 14.56L178.28 14.56Q178.49 14.56 178.61 14.50L178.61 14.50L178.61 14.50Q178.74 14.45 178.77 14.45L178.77 14.45L178.77 14.45Q178.84 14.56 178.85 14.60L178.85 14.60L178.85 14.60Q178.86 14.64 178.86 14.67L178.86 14.67L178.86 14.67Q178.86 14.73 178.70 14.83L178.70 14.83L178.70 14.83Q178.53 14.94 178.30 15.04L178.30 15.04L178.30 15.04Q178.07 15.15 177.84 15.23L177.84 15.23L177.84 15.23Q177.62 15.32 177.51 15.32L177.51 15.32L177.51 15.32Q177.37 15.32 177.23 15.24L177.23 15.24L177.23 15.24Q177.09 15.16 176.98 15.04L176.98 15.04L176.98 15.04Q176.88 14.91 176.81 14.76L176.81 14.76L176.81 14.76Q176.75 14.60 176.75 14.43L176.75 14.43L176.75 14.43Q176.75 14.22 176.87 13.81L176.87 13.81L176.87 13.81Q176.99 13.40 177.20 12.85L177.20 12.85L177.20 12.85Q177.41 12.29 177.70 11.63L177.70 11.63L177.70 11.63Q178.00 10.98 178.33 10.29L178.33 10.29L178.33 10.29Q178.33 10.23 178.28 10.23L178.28 10.23L178.28 10.23Q178.23 10.23 178.06 10.35L178.06 10.35L178.06 10.35Q177.88 10.46 177.73 10.57L177.73 10.57L177.73 10.57Q177.23 10.95 176.72 11.50L176.72 11.50L176.72 11.50Q176.20 12.05 175.72 12.71L175.72 12.71L175.72 12.71Q175.24 13.37 174.81 14.11L174.81 14.11L174.81 14.11Q174.38 14.84 174.08 15.58L174.08 15.58L174.08 15.58Q174.03 15.68 173.95 15.76L173.95 15.76L173.95 15.76Q173.87 15.85 173.81 15.85L173.81 15.85L173.81 15.85Q173.77 15.85 173.69 15.75L173.69 15.75L173.69 15.75Q173.61 15.65 173.55 15.51L173.55 15.51L173.55 15.51Q173.49 15.36 173.43 15.20L173.43 15.20L173.43 15.20Q173.38 15.05 173.38 14.94ZM187.64 14.24L187.64 14.24L187.64 14.24Q187.64 14.11 187.66 13.92L187.66 13.92L187.66 13.92Q187.68 13.73 187.74 13.42L187.74 13.42L187.74 13.42Q187.80 13.10 187.89 12.66L187.89 12.66L187.89 12.66Q187.98 12.21 188.12 11.58L188.12 11.58L188.12 11.58Q188.15 11.44 188.24 11.13L188.24 11.13L188.24 11.13Q188.34 10.82 188.50 10.48L188.50 10.48L188.50 10.48Q188.66 10.14 188.90 9.81L188.90 9.81L188.90 9.81Q189.13 9.49 189.45 9.34L189.45 9.34L189.45 9.34Q189.69 9.39 190.08 9.63L190.08 9.63L190.08 9.63Q190.47 9.86 190.75 10.26L190.75 10.26L190.75 10.26Q190.43 10.63 190.21 10.99L190.21 10.99L190.21 10.99Q189.99 11.35 189.82 11.75L189.82 11.75L189.82 11.75Q189.64 12.14 189.50 12.56L189.50 12.56L189.50 12.56Q189.35 12.98 189.17 13.44L189.17 13.44L189.17 13.44Q189.01 13.83 188.89 14.25L188.89 14.25L188.89 14.25Q188.76 14.66 188.75 14.97L188.75 14.97L188.75 14.97Q188.75 15.22 188.74 15.32L188.74 15.32L188.74 15.32Q188.73 15.43 188.66 15.43L188.66 15.43L188.66 15.43Q188.61 15.43 188.44 15.36L188.44 15.36L188.44 15.36Q188.27 15.29 188.10 15.14L188.10 15.14L188.10 15.14Q187.92 14.99 187.78 14.77L187.78 14.77L187.78 14.77Q187.64 14.55 187.64 14.24ZM190.32 8.16L190.32 8.16L190.32 8.16Q190.32 8.08 190.36 7.91L190.36 7.91L190.36 7.91Q190.29 7.84 190.24 7.70L190.24 7.70L190.24 7.70Q190.19 7.56 190.19 7.45L190.19 7.45L190.19 7.45Q190.19 7.32 190.23 7.11L190.23 7.11L190.23 7.11Q190.26 6.89 190.32 6.64L190.32 6.64L190.32 6.64Q190.37 6.38 190.46 6.11L190.46 6.11L190.46 6.11Q190.54 5.84 190.62 5.61L190.62 5.61L190.62 5.61Q190.79 5.61 191.04 5.71L191.04 5.71L191.04 5.71Q191.28 5.80 191.53 5.94L191.53 5.94L191.53 5.94Q191.79 6.09 192.00 6.27L192.00 6.27L192.00 6.27Q192.21 6.44 192.32 6.59L192.32 6.59L192.32 6.59Q192.16 6.75 191.91 7.02L191.91 7.02L191.91 7.02Q191.66 7.29 191.42 7.59L191.42 7.59L191.42 7.59Q191.18 7.90 190.99 8.16L190.99 8.16L190.99 8.16Q190.79 8.43 190.74 8.54L190.74 8.54L190.74 8.54Q190.57 8.51 190.44 8.39L190.44 8.39L190.44 8.39Q190.32 8.27 190.32 8.16ZM198.02 12.71L198.02 12.71L198.02 12.71Q198.02 11.91 198.34 11.16L198.34 11.16L198.34 11.16Q198.67 10.42 199.21 9.84L199.21 9.84L199.21 9.84Q199.75 9.25 200.45 8.90L200.45 8.90L200.45 8.90Q201.14 8.54 201.88 8.54L201.88 8.54L201.88 8.54Q202.61 8.54 203 8.90L203 8.90L203 8.90Q203.39 9.27 203.39 9.94L203.39 9.94L203.39 9.94Q203.39 10.26 203.30 10.56L203.30 10.56L203.30 10.56Q203.21 10.86 203.06 11.10L203.06 11.10L203.06 11.10Q202.92 11.34 202.72 11.49L202.72 11.49L202.72 11.49Q202.52 11.63 202.33 11.63L202.33 11.63L202.33 11.63Q202.16 11.63 201.99 11.53L201.99 11.53L201.99 11.53Q201.81 11.42 201.70 11.26L201.70 11.26L201.70 11.26Q202.64 10.40 202.64 9.70L202.64 9.70L202.64 9.70Q202.64 9.30 202.31 9.30L202.31 9.30L202.31 9.30Q202.03 9.30 201.61 9.56L201.61 9.56L201.61 9.56Q201.19 9.83 200.80 10.26L200.80 10.26L200.80 10.26Q200.20 10.93 199.89 11.75L199.89 11.75L199.89 11.75Q199.57 12.57 199.57 13.47L199.57 13.47L199.57 13.47Q199.57 14.60 200.07 14.83L200.07 14.83L200.07 14.83Q200.28 14.80 200.56 14.70L200.56 14.70L200.56 14.70Q200.84 14.60 201.17 14.44L201.17 14.44L201.17 14.44Q201.49 14.28 201.83 14.07L201.83 14.07L201.83 14.07Q202.17 13.86 202.50 13.62L202.50 13.62L202.50 13.62Q202.55 13.66 202.59 13.75L202.59 13.75L202.59 13.75Q202.64 13.83 202.64 13.90L202.64 13.90L202.64 13.90Q202.40 14.20 202.09 14.48L202.09 14.48L202.09 14.48Q201.78 14.76 201.45 14.99L201.45 14.99L201.45 14.99Q201.11 15.22 200.80 15.38L200.80 15.38L200.80 15.38Q200.48 15.54 200.24 15.58L200.24 15.58L200.24 15.58Q199.78 15.54 199.37 15.29L199.37 15.29L199.37 15.29Q198.97 15.05 198.67 14.66L198.67 14.66L198.67 14.66Q198.37 14.27 198.19 13.76L198.19 13.76L198.19 13.76Q198.02 13.26 198.02 12.71ZM215.64 9.52L215.64 9.52L215.64 9.52Q215.78 9.52 215.97 9.57L215.97 9.57L215.97 9.57Q216.16 9.62 216.31 9.70L216.31 9.70L216.31 9.70Q216.47 9.77 216.57 9.86L216.57 9.86L216.57 9.86Q216.68 9.94 216.68 10.01L216.68 10.01L216.68 10.01Q216.40 10.60 216.16 11.19L216.16 11.19L216.16 11.19Q215.92 11.79 215.75 12.33L215.75 12.33L215.75 12.33Q215.59 12.88 215.50 13.36L215.50 13.36L215.50 13.36Q215.40 13.83 215.40 14.18L215.40 14.18L215.40 14.18Q215.40 14.57 215.49 14.83L215.49 14.83L215.49 14.83Q215.57 15.09 215.77 15.20L215.77 15.20L215.77 15.20Q215.60 15.32 215.33 15.39L215.33 15.39L215.33 15.39Q215.07 15.46 214.86 15.46L214.86 15.46L214.86 15.46Q214.10 15.46 214.10 14.42L214.10 14.42L214.10 14.42Q214.10 13.62 214.63 12.24L214.63 12.24L214.63 12.24Q214.35 12.88 213.99 13.45L213.99 13.45L213.99 13.45Q213.63 14.01 213.25 14.45L213.25 14.45L213.25 14.45Q212.87 14.88 212.49 15.15L212.49 15.15L212.49 15.15Q212.10 15.43 211.78 15.48L211.78 15.48L211.78 15.48Q211.26 15.46 210.94 14.99L210.94 14.99L210.94 14.99Q210.62 14.52 210.62 13.79L210.62 13.79L210.62 13.79Q210.62 13.01 210.95 12.14L210.95 12.14L210.95 12.14Q211.29 11.27 211.81 10.53L211.81 10.53L211.81 10.53Q212.34 9.79 212.95 9.29L212.95 9.29L212.95 9.29Q213.57 8.79 214.14 8.76L214.14 8.76L214.14 8.76Q214.28 8.81 214.46 8.93L214.46 8.93L214.46 8.93Q214.63 9.06 214.80 9.23L214.80 9.23L214.80 9.23Q214.96 9.39 215.07 9.57L215.07 9.57L215.07 9.57Q215.18 9.74 215.19 9.87L215.19 9.87L215.19 9.87Q214.63 9.95 214.04 10.42L214.04 10.42L214.04 10.42Q213.44 10.88 212.96 11.53L212.96 11.53L212.96 11.53Q212.48 12.18 212.17 12.92L212.17 12.92L212.17 12.92Q211.86 13.66 211.86 14.31L211.86 14.31L211.86 14.31Q211.86 14.57 212.06 14.64L212.06 14.64L212.06 14.64Q212.46 14.56 213.00 13.95L213.00 13.95L213.00 13.95Q213.53 13.34 214.28 12.07L214.28 12.07L214.28 12.07Q214.42 11.82 214.60 11.51L214.60 11.51L214.60 11.51Q214.77 11.20 214.96 10.86L214.96 10.86L214.96 10.86Q215.14 10.53 215.31 10.18L215.31 10.18L215.31 10.18Q215.49 9.84 215.64 9.52ZM224.38 14.28L224.38 14.28L224.38 14.28Q224.38 13.66 224.67 12.55L224.67 12.55L224.67 12.55Q224.97 11.44 225.50 9.95L225.50 9.95L225.50 9.95Q226.37 7.59 227.13 6.01L227.13 6.01L227.13 6.01Q227.89 4.44 228.62 3.56L228.62 3.56L228.62 3.56Q228.79 3.58 229.03 3.70L229.03 3.70L229.03 3.70Q229.28 3.81 229.52 3.94L229.52 3.94L229.52 3.94Q229.75 4.07 229.94 4.21L229.94 4.21L229.94 4.21Q230.13 4.35 230.19 4.44L230.19 4.44L230.19 4.44Q229.10 5.73 228.27 7.21L228.27 7.21L228.27 7.21Q227.44 8.69 226.76 10.61L226.76 10.61L226.76 10.61Q226.17 12.26 225.86 13.59L225.86 13.59L225.86 13.59Q225.55 14.91 225.55 15.79L225.55 15.79L225.55 15.79Q225.55 16.03 225.55 16.09L225.55 16.09L225.55 16.09Q225.55 16.14 225.57 16.20L225.57 16.20L225.57 16.20Q225.37 16.17 225.23 16.10L225.23 16.10L225.23 16.10Q225.09 16.03 225.05 15.93L225.05 15.93L225.05 15.93Q225.02 15.86 224.90 15.73L224.90 15.73L224.90 15.73Q224.77 15.60 224.67 15.53L224.67 15.53L224.67 15.53Q224.55 15.44 224.46 15.09L224.46 15.09L224.46 15.09Q224.38 14.73 224.38 14.28ZM246.02 14.45L246.02 14.45L246.02 14.45Q246.23 13.99 246.53 13.26L246.53 13.26L246.53 13.26Q246.82 12.53 247.14 11.68L247.14 11.68L247.14 11.68Q247.46 10.84 247.80 9.95L247.80 9.95L247.80 9.95Q248.14 9.06 248.43 8.26L248.43 8.26L248.43 8.26Q248.72 7.46 248.94 6.83L248.94 6.83L248.94 6.83Q249.16 6.20 249.26 5.87L249.26 5.87L249.26 5.87Q248.37 6.23 247.74 6.97L247.74 6.97L247.74 6.97Q247.11 7.71 246.79 8.83L246.79 8.83L246.79 8.83Q246.47 8.72 246.20 8.43L246.20 8.43L246.20 8.43Q245.94 8.15 245.85 7.71L245.85 7.71L245.85 7.71Q245.99 7.07 246.38 6.54L246.38 6.54L246.38 6.54Q246.76 6.01 247.35 5.63L247.35 5.63L247.35 5.63Q247.94 5.25 248.71 5.05L248.71 5.05L248.71 5.05Q249.48 4.84 250.36 4.84L250.36 4.84L250.36 4.84Q251.48 4.84 252.42 5.17L252.42 5.17L252.42 5.17Q253.36 5.50 254.03 6.09L254.03 6.09L254.03 6.09Q254.70 6.68 255.08 7.50L255.08 7.50L255.08 7.50Q255.46 8.33 255.46 9.34L255.46 9.34L255.46 9.34Q255.46 10.71 254.95 11.96L254.95 11.96L254.95 11.96Q254.45 13.20 253.59 14.15L253.59 14.15L253.59 14.15Q252.73 15.11 251.59 15.67L251.59 15.67L251.59 15.67Q250.46 16.24 249.21 16.24L249.21 16.24L249.21 16.24Q248.07 16.24 247.25 15.79L247.25 15.79L247.25 15.79Q246.43 15.33 246.02 14.45ZM250.96 5.54L250.96 5.54L250.96 5.54Q250.26 5.54 249.63 5.74L249.63 5.74L249.63 5.74Q250.25 5.96 250.66 6.21L250.66 6.21L250.66 6.21Q251.06 6.45 251.22 6.59L251.22 6.59L251.22 6.59Q251.10 6.75 250.89 7.14L250.89 7.14L250.89 7.14Q250.67 7.53 250.38 8.09L250.38 8.09L250.38 8.09Q250.10 8.65 249.77 9.32L249.77 9.32L249.77 9.32Q249.45 9.98 249.14 10.68L249.14 10.68L249.14 10.68Q248.35 12.46 247.99 13.48L247.99 13.48L247.99 13.48Q247.63 14.50 247.63 14.90L247.63 14.90L247.63 14.90Q247.83 14.97 248.11 14.99L248.11 14.99L248.11 14.99Q248.39 15.02 248.71 15.02L248.71 15.02L248.71 15.02Q249.84 15.02 250.86 14.50L250.86 14.50L250.86 14.50Q251.87 13.97 252.64 13.09L252.64 13.09L252.64 13.09Q253.40 12.21 253.84 11.04L253.84 11.04L253.84 11.04Q254.28 9.87 254.28 8.58L254.28 8.58L254.28 8.58Q254.28 7.14 253.39 6.34L253.39 6.34L253.39 6.34Q252.49 5.54 250.96 5.54ZM262.85 14.24L262.85 14.24L262.85 14.24Q262.85 14.11 262.87 13.92L262.87 13.92L262.87 13.92Q262.89 13.73 262.95 13.42L262.95 13.42L262.95 13.42Q263.00 13.10 263.10 12.66L263.10 12.66L263.10 12.66Q263.19 12.21 263.33 11.58L263.33 11.58L263.33 11.58Q263.35 11.44 263.45 11.13L263.45 11.13L263.45 11.13Q263.55 10.82 263.71 10.48L263.71 10.48L263.71 10.48Q263.87 10.14 264.10 9.81L264.10 9.81L264.10 9.81Q264.33 9.49 264.66 9.34L264.66 9.34L264.66 9.34Q264.89 9.39 265.29 9.63L265.29 9.63L265.29 9.63Q265.68 9.86 265.96 10.26L265.96 10.26L265.96 10.26Q265.64 10.63 265.42 10.99L265.42 10.99L265.42 10.99Q265.20 11.35 265.03 11.75L265.03 11.75L265.03 11.75Q264.85 12.14 264.70 12.56L264.70 12.56L264.70 12.56Q264.56 12.98 264.38 13.44L264.38 13.44L264.38 13.44Q264.22 13.83 264.10 14.25L264.10 14.25L264.10 14.25Q263.97 14.66 263.96 14.97L263.96 14.97L263.96 14.97Q263.96 15.22 263.95 15.32L263.95 15.32L263.95 15.32Q263.94 15.43 263.87 15.43L263.87 15.43L263.87 15.43Q263.82 15.43 263.65 15.36L263.65 15.36L263.65 15.36Q263.48 15.29 263.31 15.14L263.31 15.14L263.31 15.14Q263.13 14.99 262.99 14.77L262.99 14.77L262.99 14.77Q262.85 14.55 262.85 14.24ZM265.52 8.16L265.52 8.16L265.52 8.16Q265.52 8.08 265.57 7.91L265.57 7.91L265.57 7.91Q265.50 7.84 265.45 7.70L265.45 7.70L265.45 7.70Q265.40 7.56 265.40 7.45L265.40 7.45L265.40 7.45Q265.40 7.32 265.43 7.11L265.43 7.11L265.43 7.11Q265.47 6.89 265.52 6.64L265.52 6.64L265.52 6.64Q265.58 6.38 265.66 6.11L265.66 6.11L265.66 6.11Q265.75 5.84 265.83 5.61L265.83 5.61L265.83 5.61Q266 5.61 266.25 5.71L266.25 5.71L266.25 5.71Q266.49 5.80 266.74 5.94L266.74 5.94L266.74 5.94Q266.99 6.09 267.20 6.27L267.20 6.27L267.20 6.27Q267.41 6.44 267.53 6.59L267.53 6.59L267.53 6.59Q267.37 6.75 267.12 7.02L267.12 7.02L267.12 7.02Q266.87 7.29 266.63 7.59L266.63 7.59L266.63 7.59Q266.39 7.90 266.20 8.16L266.20 8.16L266.20 8.16Q266 8.43 265.94 8.54L265.94 8.54L265.94 8.54Q265.78 8.51 265.65 8.39L265.65 8.39L265.65 8.39Q265.52 8.27 265.52 8.16ZM277.97 9.52L277.97 9.52L277.97 9.52Q278.11 9.52 278.30 9.57L278.30 9.57L278.30 9.57Q278.49 9.62 278.64 9.70L278.64 9.70L278.64 9.70Q278.80 9.77 278.90 9.86L278.90 9.86L278.90 9.86Q279.01 9.94 279.01 10.01L279.01 10.01L279.01 10.01Q278.73 10.60 278.49 11.19L278.49 11.19L278.49 11.19Q278.25 11.79 278.08 12.33L278.08 12.33L278.08 12.33Q277.91 12.88 277.82 13.36L277.82 13.36L277.82 13.36Q277.73 13.83 277.73 14.18L277.73 14.18L277.73 14.18Q277.73 14.57 277.82 14.83L277.82 14.83L277.82 14.83Q277.90 15.09 278.10 15.20L278.10 15.20L278.10 15.20Q277.93 15.32 277.66 15.39L277.66 15.39L277.66 15.39Q277.40 15.46 277.19 15.46L277.19 15.46L277.19 15.46Q276.43 15.46 276.43 14.42L276.43 14.42L276.43 14.42Q276.43 13.62 276.96 12.24L276.96 12.24L276.96 12.24Q276.68 12.88 276.32 13.45L276.32 13.45L276.32 13.45Q275.95 14.01 275.58 14.45L275.58 14.45L275.58 14.45Q275.20 14.88 274.81 15.15L274.81 15.15L274.81 15.15Q274.43 15.43 274.11 15.48L274.11 15.48L274.11 15.48Q273.59 15.46 273.27 14.99L273.27 14.99L273.27 14.99Q272.94 14.52 272.94 13.79L272.94 13.79L272.94 13.79Q272.94 13.01 273.28 12.14L273.28 12.14L273.28 12.14Q273.62 11.27 274.14 10.53L274.14 10.53L274.14 10.53Q274.67 9.79 275.28 9.29L275.28 9.29L275.28 9.29Q275.90 8.79 276.47 8.76L276.47 8.76L276.47 8.76Q276.61 8.81 276.79 8.93L276.79 8.93L276.79 8.93Q276.96 9.06 277.12 9.23L277.12 9.23L277.12 9.23Q277.28 9.39 277.40 9.57L277.40 9.57L277.40 9.57Q277.51 9.74 277.52 9.87L277.52 9.87L277.52 9.87Q276.96 9.95 276.37 10.42L276.37 10.42L276.37 10.42Q275.77 10.88 275.29 11.53L275.29 11.53L275.29 11.53Q274.81 12.18 274.50 12.92L274.50 12.92L274.50 12.92Q274.19 13.66 274.19 14.31L274.19 14.31L274.19 14.31Q274.19 14.57 274.39 14.64L274.39 14.64L274.39 14.64Q274.79 14.56 275.32 13.95L275.32 13.95L275.32 13.95Q275.86 13.34 276.61 12.07L276.61 12.07L276.61 12.07Q276.75 11.82 276.93 11.51L276.93 11.51L276.93 11.51Q277.10 11.20 277.28 10.86L277.28 10.86L277.28 10.86Q277.47 10.53 277.64 10.18L277.64 10.18L277.64 10.18Q277.82 9.84 277.97 9.52ZM283.81 19.35L283.81 19.35L283.81 19.35Q283.81 19.26 283.86 19.19L283.86 19.19L283.86 19.19Q283.92 19.12 283.99 19.05L283.99 19.05L283.99 19.05Q284.16 19.21 284.28 19.29L284.28 19.29L284.28 19.29Q284.40 19.38 284.50 19.43L284.50 19.43L284.50 19.43Q284.61 19.49 284.72 19.50L284.72 19.50L284.72 19.50Q284.83 19.52 284.98 19.52L284.98 19.52L284.98 19.52Q285.71 19.52 286.37 19.13L286.37 19.13L286.37 19.13Q287.03 18.75 287.61 18.02L287.61 18.02L287.61 18.02Q288.19 17.29 288.67 16.24L288.67 16.24L288.67 16.24Q289.14 15.19 289.51 13.86L289.51 13.86L289.51 13.86Q289.34 14.03 289.09 14.23L289.09 14.23L289.09 14.23Q288.85 14.43 288.58 14.62L288.58 14.62L288.58 14.62Q288.32 14.80 288.06 14.95L288.06 14.95L288.06 14.95Q287.80 15.11 287.62 15.18L287.62 15.18L287.62 15.18Q287.38 15.13 287.17 14.97L287.17 14.97L287.17 14.97Q286.97 14.81 286.82 14.57L286.82 14.57L286.82 14.57Q286.66 14.34 286.58 14.04L286.58 14.04L286.58 14.04Q286.50 13.73 286.50 13.40L286.50 13.40L286.50 13.40Q286.50 12.85 286.70 12.28L286.70 12.28L286.70 12.28Q286.90 11.70 287.24 11.15L287.24 11.15L287.24 11.15Q287.57 10.60 288.03 10.11L288.03 10.11L288.03 10.11Q288.48 9.62 288.99 9.25L288.99 9.25L288.99 9.25Q289.51 8.89 290.03 8.67L290.03 8.67L290.03 8.67Q290.56 8.46 291.06 8.46L291.06 8.46L291.06 8.46Q291.55 8.46 291.79 8.66L291.79 8.66L291.79 8.66Q292.04 8.86 292.15 9.35L292.15 9.35L292.15 9.35Q292.00 9.27 291.76 9.27L291.76 9.27L291.76 9.27Q291.42 9.27 290.98 9.53L290.98 9.53L290.98 9.53Q290.54 9.80 290.09 10.23L290.09 10.23L290.09 10.23Q289.63 10.65 289.18 11.21L289.18 11.21L289.18 11.21Q288.74 11.76 288.39 12.33L288.39 12.33L288.39 12.33Q288.05 12.91 287.83 13.45L287.83 13.45L287.83 13.45Q287.62 14 287.62 14.43L287.62 14.43L287.62 14.43Q287.62 14.53 287.63 14.55L287.63 14.55L287.63 14.55Q287.64 14.57 287.67 14.57L287.67 14.57L287.67 14.57Q287.80 14.57 288.01 14.43L288.01 14.43L288.01 14.43Q288.23 14.29 288.50 14.08L288.50 14.08L288.50 14.08Q288.78 13.86 289.07 13.57L289.07 13.57L289.07 13.57Q289.37 13.29 289.63 12.99L289.63 12.99L289.63 12.99Q290.23 12.32 290.73 11.49L290.73 11.49L290.73 11.49Q291.23 10.65 291.52 9.87L291.52 9.87L291.52 9.87Q291.90 9.90 292.19 10.00L292.19 10.00L292.19 10.00Q292.49 10.09 292.60 10.21L292.60 10.21L292.60 10.21Q292.12 11.30 291.84 12.04L291.84 12.04L291.84 12.04Q291.55 12.78 291.34 13.36L291.34 13.36L291.34 13.36Q290.96 14.36 290.63 15.20L290.63 15.20L290.63 15.20Q290.30 16.03 289.96 16.74L289.96 16.74L289.96 16.74Q289.62 17.44 289.22 18.05L289.22 18.05L289.22 18.05Q288.82 18.66 288.32 19.22L288.32 19.22L288.32 19.22Q288.08 19.49 287.78 19.69L287.78 19.69L287.78 19.69Q287.48 19.89 287.16 20.03L287.16 20.03L287.16 20.03Q286.85 20.17 286.54 20.24L286.54 20.24L286.54 20.24Q286.24 20.31 285.99 20.31L285.99 20.31L285.99 20.31Q285.66 20.31 285.31 20.24L285.31 20.24L285.31 20.24Q284.96 20.16 284.65 20.03L284.65 20.03L284.65 20.03Q284.35 19.89 284.13 19.72L284.13 19.72L284.13 19.72Q283.91 19.54 283.81 19.35ZM302.20 8.39L302.20 8.39L302.20 8.39Q302.57 8.50 302.89 8.88L302.89 8.88L302.89 8.88Q303.21 9.27 303.37 9.73L303.37 9.73L303.37 9.73Q303.21 10.11 302.89 10.64L302.89 10.64L302.89 10.64Q302.57 11.17 302.25 11.72L302.25 11.72L302.25 11.72Q301.92 12.28 301.66 12.78L301.66 12.78L301.66 12.78Q301.41 13.27 301.36 13.59L301.36 13.59L301.36 13.59Q301.59 13.36 301.86 13.04L301.86 13.04L301.86 13.04Q302.13 12.73 302.39 12.41L302.39 12.41L302.39 12.41Q302.65 12.10 302.88 11.84L302.88 11.84L302.88 11.84Q303.10 11.58 303.23 11.45L303.23 11.45L303.23 11.45Q303.49 11.17 303.86 10.80L303.86 10.80L303.86 10.80Q304.22 10.43 304.62 10.10L304.62 10.10L304.62 10.10Q305.02 9.77 305.42 9.54L305.42 9.54L305.42 9.54Q305.83 9.31 306.17 9.31L306.17 9.31L306.17 9.31Q306.53 9.31 306.77 9.55L306.77 9.55L306.77 9.55Q307.02 9.80 307.16 10.07L307.16 10.07L307.16 10.07Q307.16 10.09 307.05 10.14L307.05 10.14L307.05 10.14Q306.95 10.19 306.75 10.42L306.75 10.42L306.75 10.42Q306.56 10.67 306.31 11.11L306.31 11.11L306.31 11.11Q306.07 11.55 305.84 12.06L305.84 12.06L305.84 12.06Q305.61 12.57 305.45 13.10L305.45 13.10L305.45 13.10Q305.30 13.64 305.30 14.07L305.30 14.07L305.30 14.07Q305.30 14.42 305.39 14.52L305.39 14.52L305.39 14.52Q305.48 14.62 305.65 14.62L305.65 14.62L305.65 14.62Q305.80 14.62 305.97 14.55L305.97 14.55L305.97 14.55Q306.14 14.48 306.24 14.48L306.24 14.48L306.24 14.48Q306.29 14.50 306.33 14.60L306.33 14.60L306.33 14.60Q306.36 14.69 306.36 14.76L306.36 14.76L306.36 14.76Q306.25 14.85 306.10 14.95L306.10 14.95L306.10 14.95Q305.94 15.05 305.77 15.13L305.77 15.13L305.77 15.13Q305.61 15.22 305.44 15.27L305.44 15.27L305.44 15.27Q305.28 15.33 305.16 15.33L305.16 15.33L305.16 15.33Q304.75 15.33 304.49 15.21L304.49 15.21L304.49 15.21Q304.23 15.09 304.09 14.90L304.09 14.90L304.09 14.90Q303.94 14.70 303.88 14.43L303.88 14.43L303.88 14.43Q303.83 14.15 303.83 13.85L303.83 13.85L303.83 13.85Q303.83 13.68 303.86 13.47L303.86 13.47L303.86 13.47Q303.88 13.26 303.97 12.97L303.97 12.97L303.97 12.97Q304.05 12.68 304.21 12.29L304.21 12.29L304.21 12.29Q304.36 11.89 304.60 11.33L304.60 11.33L304.60 11.33Q304.57 11.33 304.22 11.52L304.22 11.52L304.22 11.52Q303.87 11.72 303.46 12.12L303.46 12.12L303.46 12.12Q302.81 12.75 302.28 13.37L302.28 13.37L302.28 13.37Q301.76 13.99 301.21 14.74L301.21 14.74L301.21 14.74Q300.90 15.18 300.67 15.48L300.67 15.48L300.67 15.48Q300.44 15.78 300.27 15.88L300.27 15.88L300.27 15.88Q299.98 15.71 299.84 15.41L299.84 15.41L299.84 15.41Q299.70 15.11 299.63 14.78L299.63 14.78L299.63 14.78Q299.63 14.52 299.70 14.11L299.70 14.11L299.70 14.11Q299.78 13.71 299.91 13.21L299.91 13.21L299.91 13.21Q300.05 12.71 300.24 12.17L300.24 12.17L300.24 12.17Q300.44 11.62 300.68 11.07L300.68 11.07L300.68 11.07Q301.21 9.84 301.65 9.14L301.65 9.14L301.65 9.14Q302.09 8.44 302.20 8.39ZM316.15 15.67L316.15 15.67L316.15 15.67Q315.35 15.58 314.87 14.97L314.87 14.97L314.87 14.97Q314.40 14.35 314.40 13.40L314.40 13.40L314.40 13.40Q314.40 12.84 314.57 12.24L314.57 12.24L314.57 12.24Q314.73 11.63 315.04 11.07L315.04 11.07L315.04 11.07Q315.35 10.50 315.77 10.00L315.77 10.00L315.77 10.00Q316.19 9.49 316.68 9.13L316.68 9.13L316.68 9.13Q317.45 8.55 318.12 8.55L318.12 8.55L318.12 8.55Q318.57 8.79 319.00 9.55L319.00 9.55L319.00 9.55Q319.07 9.55 319.13 9.54L319.13 9.54L319.13 9.54Q319.19 9.53 319.26 9.53L319.26 9.53L319.26 9.53Q320.00 9.53 320.00 10.85L320.00 10.85L320.00 10.85Q320.00 11.73 319.71 12.52L319.71 12.52L319.71 12.52Q319.42 13.31 318.91 13.96L318.91 13.96L318.91 13.96Q318.40 14.60 317.69 15.04L317.69 15.04L317.69 15.04Q316.99 15.48 316.15 15.67ZM316.86 11.26L316.86 11.26L316.86 11.26Q316.62 11.58 316.41 11.96L316.41 11.96L316.41 11.96Q316.20 12.33 316.05 12.72L316.05 12.72L316.05 12.72Q315.90 13.10 315.81 13.46L315.81 13.46L315.81 13.46Q315.73 13.82 315.73 14.10L315.73 14.10L315.73 14.10Q315.73 14.43 315.84 14.74L315.84 14.74L315.84 14.74Q315.95 15.05 316.09 15.09L316.09 15.09L316.09 15.09Q316.72 14.95 317.25 14.57L317.25 14.57L317.25 14.57Q317.77 14.18 318.16 13.61L318.16 13.61L318.16 13.61Q318.54 13.03 318.76 12.31L318.76 12.31L318.76 12.31Q318.98 11.58 318.98 10.75L318.98 10.75L318.98 10.75Q318.98 10.39 318.93 10.18L318.93 10.18L318.93 10.18Q318.89 9.97 318.79 9.81L318.79 9.81L318.79 9.81Q318.18 10.00 317.69 10.40L317.69 10.40L317.69 10.40Q317.21 10.81 316.86 11.26ZM332.50 9.60L332.50 9.60L332.50 9.60Q332.49 9.87 332.41 10.16L332.41 10.16L332.41 10.16Q332.33 10.44 332.22 10.68L332.22 10.68L332.22 10.68Q332.11 10.91 331.98 11.06L331.98 11.06L331.98 11.06Q331.86 11.21 331.74 11.21L331.74 11.21L331.74 11.21Q331.59 11.20 331.56 11.00L331.56 11.00L331.56 11.00Q331.56 10.96 331.60 10.87L331.60 10.87L331.60 10.87Q331.63 10.78 331.67 10.67L331.67 10.67L331.67 10.67Q331.72 10.56 331.75 10.44L331.75 10.44L331.75 10.44Q331.79 10.33 331.79 10.25L331.79 10.25L331.79 10.25Q331.79 10.05 331.69 9.92L331.69 9.92L331.69 9.92Q331.60 9.79 331.45 9.79L331.45 9.79L331.45 9.79Q330.89 9.79 330.60 10.49L330.60 10.49L330.60 10.49Q330.30 11.19 330.30 12.54L330.30 12.54L330.30 12.54Q330.30 12.68 330.32 12.71L330.32 12.71L330.32 12.71Q330.61 12.70 330.84 12.69L330.84 12.69L330.84 12.69Q331.07 12.68 331.30 12.68L331.30 12.68L331.30 12.68Q331.31 12.71 331.31 12.80L331.31 12.80L331.31 12.80Q331.31 12.92 331.25 12.98L331.25 12.98L331.25 12.98Q330.93 13.05 330.74 13.10L330.74 13.10L330.74 13.10Q330.55 13.15 330.46 13.19L330.46 13.19L330.46 13.19Q330.36 13.23 330.34 13.28L330.34 13.28L330.34 13.28Q330.32 13.33 330.32 13.41L330.32 13.41L330.32 13.41Q330.32 13.52 330.32 13.64L330.32 13.64L330.32 13.64Q330.33 13.75 330.33 13.92L330.33 13.92L330.33 13.92Q330.33 15.09 329.69 15.81L329.69 15.81L329.69 15.81Q329.06 16.52 327.92 16.63L327.92 16.63L327.92 16.63Q327.73 16.62 327.52 16.52L327.52 16.52L327.52 16.52Q327.31 16.42 327.12 16.27L327.12 16.27L327.12 16.27Q326.93 16.11 326.79 15.93L326.79 15.93L326.79 15.93Q326.65 15.74 326.59 15.54L326.59 15.54L326.59 15.54Q326.59 15.01 326.82 14.53L326.82 14.53L326.82 14.53Q327.04 14.04 327.42 13.67L327.42 13.67L327.42 13.67Q327.81 13.30 328.33 13.07L328.33 13.07L328.33 13.07Q328.86 12.84 329.48 12.80L329.48 12.80L329.48 12.80Q329.48 12.45 329.41 12.11L329.41 12.11L329.41 12.11Q329.34 11.77 329.26 11.46L329.26 11.46L329.26 11.46Q329.18 11.14 329.11 10.84L329.11 10.84L329.11 10.84Q329.04 10.54 329.04 10.25L329.04 10.25L329.04 10.25Q329.04 9.87 329.20 9.50L329.20 9.50L329.20 9.50Q329.35 9.13 329.60 8.81L329.60 8.81L329.60 8.81Q329.85 8.50 330.19 8.27L330.19 8.27L330.19 8.27Q330.53 8.05 330.89 7.97L330.89 7.97L330.89 7.97Q331.04 8.01 331.30 8.21L331.30 8.21L331.30 8.21Q331.56 8.41 331.81 8.67L331.81 8.67L331.81 8.67Q332.07 8.92 332.26 9.18L332.26 9.18L332.26 9.18Q332.46 9.44 332.50 9.60ZM327.88 15.99L327.88 15.99L327.88 15.99Q328.22 15.85 328.52 15.58L328.52 15.58L328.52 15.58Q328.82 15.32 329.04 14.98L329.04 14.98L329.04 14.98Q329.27 14.64 329.40 14.27L329.40 14.27L329.40 14.27Q329.53 13.89 329.53 13.52L329.53 13.52L329.53 13.52Q329.25 13.57 328.92 13.78L328.92 13.78L328.92 13.78Q328.58 14 328.29 14.30L328.29 14.30L328.29 14.30Q327.99 14.60 327.80 14.92L327.80 14.92L327.80 14.92Q327.60 15.25 327.60 15.48L327.60 15.48L327.60 15.48Q327.60 15.79 327.88 15.99ZM339.53 14.24L339.53 14.24L339.53 14.24Q339.53 14.11 339.55 13.92L339.55 13.92L339.55 13.92Q339.57 13.73 339.63 13.42L339.63 13.42L339.63 13.42Q339.68 13.10 339.77 12.66L339.77 12.66L339.77 12.66Q339.86 12.21 340.00 11.58L340.00 11.58L340.00 11.58Q340.03 11.44 340.13 11.13L340.13 11.13L340.13 11.13Q340.23 10.82 340.39 10.48L340.39 10.48L340.39 10.48Q340.55 10.14 340.78 9.81L340.78 9.81L340.78 9.81Q341.01 9.49 341.33 9.34L341.33 9.34L341.33 9.34Q341.57 9.39 341.96 9.63L341.96 9.63L341.96 9.63Q342.36 9.86 342.64 10.26L342.64 10.26L342.64 10.26Q342.31 10.63 342.10 10.99L342.10 10.99L342.10 10.99Q341.88 11.35 341.70 11.75L341.70 11.75L341.70 11.75Q341.53 12.14 341.38 12.56L341.38 12.56L341.38 12.56Q341.24 12.98 341.05 13.44L341.05 13.44L341.05 13.44Q340.90 13.83 340.77 14.25L340.77 14.25L340.77 14.25Q340.65 14.66 340.63 14.97L340.63 14.97L340.63 14.97Q340.63 15.22 340.63 15.32L340.63 15.32L340.63 15.32Q340.62 15.43 340.55 15.43L340.55 15.43L340.55 15.43Q340.49 15.43 340.33 15.36L340.33 15.36L340.33 15.36Q340.16 15.29 339.98 15.14L339.98 15.14L339.98 15.14Q339.81 14.99 339.67 14.77L339.67 14.77L339.67 14.77Q339.53 14.55 339.53 14.24ZM342.20 8.16L342.20 8.16L342.20 8.16Q342.20 8.08 342.24 7.91L342.24 7.91L342.24 7.91Q342.17 7.84 342.12 7.70L342.12 7.70L342.12 7.70Q342.08 7.56 342.08 7.45L342.08 7.45L342.08 7.45Q342.08 7.32 342.11 7.11L342.11 7.11L342.11 7.11Q342.15 6.89 342.20 6.64L342.20 6.64L342.20 6.64Q342.26 6.38 342.34 6.11L342.34 6.11L342.34 6.11Q342.43 5.84 342.51 5.61L342.51 5.61L342.51 5.61Q342.68 5.61 342.92 5.71L342.92 5.71L342.92 5.71Q343.17 5.80 343.42 5.94L343.42 5.94L343.42 5.94Q343.67 6.09 343.88 6.27L343.88 6.27L343.88 6.27Q344.09 6.44 344.20 6.59L344.20 6.59L344.20 6.59Q344.05 6.75 343.80 7.02L343.80 7.02L343.80 7.02Q343.55 7.29 343.31 7.59L343.31 7.59L343.31 7.59Q343.07 7.90 342.87 8.16L342.87 8.16L342.87 8.16Q342.68 8.43 342.62 8.54L342.62 8.54L342.62 8.54Q342.45 8.51 342.33 8.39L342.33 8.39L342.33 8.39Q342.20 8.27 342.20 8.16ZM354.65 9.60L354.65 9.60L354.65 9.60Q354.63 9.87 354.56 10.16L354.56 10.16L354.56 10.16Q354.48 10.44 354.37 10.68L354.37 10.68L354.37 10.68Q354.26 10.91 354.13 11.06L354.13 11.06L354.13 11.06Q354.00 11.21 353.89 11.21L353.89 11.21L353.89 11.21Q353.74 11.20 353.71 11.00L353.71 11.00L353.71 11.00Q353.71 10.96 353.74 10.87L353.74 10.87L353.74 10.87Q353.78 10.78 353.82 10.67L353.82 10.67L353.82 10.67Q353.86 10.56 353.90 10.44L353.90 10.44L353.90 10.44Q353.93 10.33 353.93 10.25L353.93 10.25L353.93 10.25Q353.93 10.05 353.84 9.92L353.84 9.92L353.84 9.92Q353.75 9.79 353.60 9.79L353.60 9.79L353.60 9.79Q353.04 9.79 352.74 10.49L352.74 10.49L352.74 10.49Q352.45 11.19 352.45 12.54L352.45 12.54L352.45 12.54Q352.45 12.68 352.46 12.71L352.46 12.71L352.46 12.71Q352.76 12.70 352.99 12.69L352.99 12.69L352.99 12.69Q353.22 12.68 353.44 12.68L353.44 12.68L353.44 12.68Q353.46 12.71 353.46 12.80L353.46 12.80L353.46 12.80Q353.46 12.92 353.40 12.98L353.40 12.98L353.40 12.98Q353.08 13.05 352.89 13.10L352.89 13.10L352.89 13.10Q352.70 13.15 352.60 13.19L352.60 13.19L352.60 13.19Q352.51 13.23 352.48 13.28L352.48 13.28L352.48 13.28Q352.46 13.33 352.46 13.41L352.46 13.41L352.46 13.41Q352.46 13.52 352.47 13.64L352.47 13.64L352.47 13.64Q352.48 13.75 352.48 13.92L352.48 13.92L352.48 13.92Q352.48 15.09 351.84 15.81L351.84 15.81L351.84 15.81Q351.20 16.52 350.07 16.63L350.07 16.63L350.07 16.63Q349.87 16.62 349.66 16.52L349.66 16.52L349.66 16.52Q349.45 16.42 349.26 16.27L349.26 16.27L349.26 16.27Q349.08 16.11 348.94 15.93L348.94 15.93L348.94 15.93Q348.80 15.74 348.74 15.54L348.74 15.54L348.74 15.54Q348.74 15.01 348.96 14.53L348.96 14.53L348.96 14.53Q349.19 14.04 349.57 13.67L349.57 13.67L349.57 13.67Q349.96 13.30 350.48 13.07L350.48 13.07L350.48 13.07Q351.01 12.84 351.62 12.80L351.62 12.80L351.62 12.80Q351.62 12.45 351.55 12.11L351.55 12.11L351.55 12.11Q351.48 11.77 351.41 11.46L351.41 11.46L351.41 11.46Q351.33 11.14 351.26 10.84L351.26 10.84L351.26 10.84Q351.19 10.54 351.19 10.25L351.19 10.25L351.19 10.25Q351.19 9.87 351.34 9.50L351.34 9.50L351.34 9.50Q351.50 9.13 351.75 8.81L351.75 8.81L351.75 8.81Q352.00 8.50 352.34 8.27L352.34 8.27L352.34 8.27Q352.67 8.05 353.04 7.97L353.04 7.97L353.04 7.97Q353.19 8.01 353.45 8.21L353.45 8.21L353.45 8.21Q353.71 8.41 353.96 8.67L353.96 8.67L353.96 8.67Q354.21 8.92 354.41 9.18L354.41 9.18L354.41 9.18Q354.61 9.44 354.65 9.60ZM350.03 15.99L350.03 15.99L350.03 15.99Q350.36 15.85 350.66 15.58L350.66 15.58L350.66 15.58Q350.97 15.32 351.19 14.98L351.19 14.98L351.19 14.98Q351.41 14.64 351.55 14.27L351.55 14.27L351.55 14.27Q351.68 13.89 351.68 13.52L351.68 13.52L351.68 13.52Q351.40 13.57 351.06 13.78L351.06 13.78L351.06 13.78Q350.73 14 350.43 14.30L350.43 14.30L350.43 14.30Q350.14 14.60 349.94 14.92L349.94 14.92L349.94 14.92Q349.75 15.25 349.75 15.48L349.75 15.48L349.75 15.48Q349.75 15.79 350.03 15.99Z"></path></g></svg>