<svg data-v-fde0c5aa="" xmlns="http://www.w3.org/2000/svg" viewBox="0 0 300 300" class="font"><!----><defs data-v-fde0c5aa=""><!----></defs><rect data-v-fde0c5aa="" fill="#2B81A3" x="0" y="0" width="300px" height="300px" class="logo-background-square"></rect><defs data-v-fde0c5aa=""><!----></defs><g data-v-fde0c5aa="" id="6bcc59b5-2b9f-4295-811f-3605bdb5070e" fill="#120A0A" transform="matrix(3.0977187660534717,0,0,3.0977187660534717,38.48211777509165,120.29287803798024)"><path d="M6.33 13.58L0.49 13.58L0.49 13.02L0.49 13.02Q0.95 13.01 1.24 12.94L1.24 12.94L1.24 12.94Q1.53 12.88 1.69 12.71L1.69 12.71L1.69 12.71Q1.85 12.53 1.90 12.23L1.90 12.23L1.90 12.23Q1.96 11.93 1.96 11.42L1.96 11.42L1.96 4.96L1.96 4.96Q1.96 4.47 1.92 4.16L1.92 4.16L1.92 4.16Q1.88 3.86 1.74 3.69L1.74 3.69L1.74 3.69Q1.60 3.51 1.35 3.45L1.35 3.45L1.35 3.45Q1.11 3.39 0.71 3.36L0.71 3.36L0.71 2.80L6.03 2.80L6.03 2.80Q7.38 2.80 8.51 3.22L8.51 3.22L8.51 3.22Q9.65 3.64 10.47 4.38L10.47 4.38L10.47 4.38Q11.30 5.12 11.76 6.15L11.76 6.15L11.76 6.15Q12.22 7.17 12.22 8.37L12.22 8.37L12.22 8.37Q12.22 9.52 11.79 10.48L11.79 10.48L11.79 10.48Q11.35 11.44 10.58 12.12L10.58 12.12L10.58 12.12Q9.80 12.81 8.71 13.20L8.71 13.20L8.71 13.20Q7.63 13.58 6.33 13.58L6.33 13.58ZM6.01 3.65L4.26 3.65L4.26 3.65Q4.02 3.65 4.02 3.89L4.02 3.89L4.02 11.13L4.02 11.13Q4.02 11.94 4.52 12.33L4.52 12.33L4.52 12.33Q5.03 12.73 6.08 12.73L6.08 12.73L6.08 12.73Q7.91 12.73 8.90 11.62L8.90 11.62L8.90 11.62Q9.88 10.51 9.88 8.40L9.88 8.40L9.88 8.40Q9.88 7.28 9.62 6.40L9.62 6.40L9.62 6.40Q9.35 5.52 8.85 4.91L8.85 4.91L8.85 4.91Q8.34 4.30 7.62 3.98L7.62 3.98L7.62 3.98Q6.90 3.65 6.01 3.65L6.01 3.65ZM16.46 6.02L16.46 11.28L16.46 11.28Q16.46 11.84 16.51 12.18L16.51 12.18L16.51 12.18Q16.55 12.52 16.67 12.70L16.67 12.70L16.67 12.70Q16.80 12.88 17.04 12.94L17.04 12.94L17.04 12.94Q17.28 13.01 17.68 13.02L17.68 13.02L17.68 13.58L13.27 13.58L13.27 13.02L13.27 13.02Q13.66 13.01 13.91 12.93L13.91 12.93L13.91 12.93Q14.15 12.85 14.29 12.68L14.29 12.68L14.29 12.68Q14.42 12.50 14.47 12.19L14.47 12.19L14.47 12.19Q14.52 11.87 14.52 11.38L14.52 11.38L14.52 9.66L14.52 9.66Q14.52 8.85 14.49 8.32L14.49 8.32L14.49 8.32Q14.46 7.80 14.42 7.60L14.42 7.60L14.42 7.60Q14.35 7.25 14.11 7.14L14.11 7.14L14.11 7.14Q13.86 7.03 13.22 7.03L13.22 7.03L13.22 6.55L16.46 6.02ZM14.41 3.05L14.41 3.05L14.41 3.05Q14.41 2.59 14.72 2.28L14.72 2.28L14.72 2.28Q15.04 1.96 15.48 1.96L15.48 1.96L15.48 1.96Q15.95 1.96 16.26 2.28L16.26 2.28L16.26 2.28Q16.58 2.59 16.58 3.05L16.58 3.05L16.58 3.05Q16.58 3.50 16.26 3.81L16.26 3.81L16.26 3.81Q15.95 4.13 15.48 4.13L15.48 4.13L15.48 4.13Q15.04 4.13 14.72 3.81L14.72 3.81L14.72 3.81Q14.41 3.50 14.41 3.05ZM22.74 10.92L22.74 9.59L22.74 9.59Q21.56 10.12 20.97 10.58L20.97 10.58L20.97 10.58Q20.37 11.03 20.37 11.52L20.37 11.52L20.37 11.52Q20.37 11.93 20.59 12.17L20.59 12.17L20.59 12.17Q20.82 12.40 21.15 12.40L21.15 12.40L21.15 12.40Q21.49 12.40 21.78 12.29L21.78 12.29L21.78 12.29Q22.08 12.17 22.29 11.97L22.29 11.97L22.29 11.97Q22.50 11.77 22.62 11.50L22.62 11.50L22.62 11.50Q22.74 11.23 22.74 10.92L22.74 10.92ZM20.76 9.70L22.74 8.85L22.74 8.26L22.74 8.26Q22.74 7.45 22.45 7.08L22.45 7.08L22.45 7.08Q22.16 6.71 21.56 6.71L21.56 6.71L21.56 6.71Q21.15 6.71 20.94 6.92L20.94 6.92L20.94 6.92Q20.73 7.14 20.55 7.64L20.55 7.64L20.55 7.64Q20.43 7.99 20.20 8.19L20.20 8.19L20.20 8.19Q19.96 8.39 19.56 8.39L19.56 8.39L19.56 8.39Q19.17 8.39 18.96 8.15L18.96 8.15L18.96 8.15Q18.75 7.91 18.75 7.48L18.75 7.48L18.75 7.48Q18.75 6.80 19.48 6.41L19.48 6.41L19.48 6.41Q20.22 6.02 21.70 6.02L21.70 6.02L21.70 6.02Q23.27 6.02 23.94 6.59L23.94 6.59L23.94 6.59Q24.61 7.15 24.61 8.48L24.61 8.48L24.61 11.55L24.61 11.55Q24.61 12.74 25.09 12.74L25.09 12.74L25.09 12.74Q25.35 12.74 25.58 12.56L25.58 12.56L25.79 12.96L25.79 12.96Q25.59 13.31 25.18 13.52L25.18 13.52L25.18 13.52Q24.77 13.72 24.25 13.72L24.25 13.72L24.25 13.72Q23.60 13.72 23.27 13.33L23.27 13.33L23.27 13.33Q22.93 12.94 22.93 12.22L22.93 12.22L22.86 12.22L22.86 12.22Q22.46 12.95 21.81 13.33L21.81 13.33L21.81 13.33Q21.17 13.71 20.34 13.71L20.34 13.71L20.34 13.71Q19.46 13.71 18.93 13.21L18.93 13.21L18.93 13.21Q18.40 12.71 18.40 11.91L18.40 11.91L18.40 11.91Q18.40 11.30 18.94 10.76L18.94 10.76L18.94 10.76Q19.49 10.22 20.76 9.70L20.76 9.70ZM29.15 12.07L29.15 12.07L29.15 12.07Q29.53 12.10 29.81 12.12L29.81 12.12L29.81 12.12Q30.10 12.15 30.36 12.19L30.36 12.19L30.36 12.19Q30.62 12.22 30.88 12.26L30.88 12.26L30.88 12.26Q31.14 12.29 31.43 12.33L31.43 12.33L31.43 12.33Q32.52 12.49 33.15 13.15L33.15 13.15L33.15 13.15Q33.77 13.82 33.77 14.80L33.77 14.80L33.77 14.80Q33.77 15.99 32.79 16.60L32.79 16.60L32.79 16.60Q31.81 17.22 29.90 17.22L29.90 17.22L29.90 17.22Q28.15 17.22 27.21 16.71L27.21 16.71L27.21 16.71Q26.26 16.20 26.26 15.26L26.26 15.26L26.26 15.26Q26.26 14.53 26.64 14.16L26.64 14.16L26.64 14.16Q27.02 13.79 27.59 13.79L27.59 13.79L27.59 13.79Q27.96 13.79 28.30 13.94L28.30 13.94L28.30 13.94Q28.64 14.08 28.88 14.36L28.88 14.36L28.88 14.36Q28.52 14.43 28.29 14.69L28.29 14.69L28.29 14.69Q28.06 14.95 28.06 15.30L28.06 15.30L28.06 15.30Q28.06 15.86 28.55 16.16L28.55 16.16L28.55 16.16Q29.05 16.46 30.02 16.46L30.02 16.46L30.02 16.46Q32.12 16.46 32.12 15.13L32.12 15.13L32.12 15.13Q32.12 14.66 31.80 14.31L31.80 14.31L31.80 14.31Q31.49 13.97 30.90 13.90L30.90 13.90L28.45 13.57L28.45 13.57Q26.89 13.36 26.89 12.18L26.89 12.18L26.89 12.18Q26.89 11.61 27.27 11.24L27.27 11.24L27.27 11.24Q27.64 10.88 28.32 10.74L28.32 10.74L28.32 10.68L28.32 10.68Q28.00 10.56 27.74 10.33L27.74 10.33L27.74 10.33Q27.48 10.11 27.29 9.81L27.29 9.81L27.29 9.81Q27.09 9.52 26.99 9.18L26.99 9.18L26.99 9.18Q26.88 8.83 26.88 8.47L26.88 8.47L26.88 8.47Q26.88 7.95 27.10 7.50L27.10 7.50L27.10 7.50Q27.31 7.04 27.70 6.72L27.70 6.72L27.70 6.72Q28.08 6.40 28.61 6.21L28.61 6.21L28.61 6.21Q29.13 6.02 29.75 6.02L29.75 6.02L29.75 6.02Q30.35 6.02 30.93 6.20L30.93 6.20L30.93 6.20Q31.50 6.38 31.91 6.71L31.91 6.71L31.91 6.71Q32.23 6.51 32.47 6.38L32.47 6.38L32.47 6.38Q32.70 6.24 32.91 6.17L32.91 6.17L32.91 6.17Q33.11 6.09 33.28 6.05L33.28 6.05L33.28 6.05Q33.45 6.02 33.61 6.02L33.61 6.02L33.61 6.02Q34.15 6.02 34.48 6.26L34.48 6.26L34.48 6.26Q34.80 6.50 34.80 6.89L34.80 6.89L34.80 6.89Q34.80 7.18 34.62 7.37L34.62 7.37L34.62 7.37Q34.44 7.56 34.15 7.56L34.15 7.56L34.15 7.56Q33.94 7.56 33.81 7.47L33.81 7.47L33.81 7.47Q33.68 7.38 33.57 7.26L33.57 7.26L33.57 7.26Q33.45 7.14 33.32 7.05L33.32 7.05L33.32 7.05Q33.19 6.96 32.98 6.96L32.98 6.96L32.98 6.96Q32.69 6.96 32.42 7.34L32.42 7.34L32.42 7.34Q32.56 7.57 32.62 7.85L32.62 7.85L32.62 7.85Q32.68 8.12 32.68 8.48L32.68 8.48L32.68 8.48Q32.68 9.02 32.51 9.46L32.51 9.46L32.51 9.46Q32.34 9.91 31.98 10.25L31.98 10.25L31.98 10.25Q31.63 10.60 31.07 10.84L31.07 10.84L31.07 10.84Q30.51 11.07 29.71 11.16L29.71 11.16L29.71 11.16Q29.04 11.23 28.78 11.34L28.78 11.34L28.78 11.34Q28.52 11.45 28.52 11.68L28.52 11.68L28.52 11.68Q28.52 12.01 29.15 12.07ZM29.82 10.36L29.82 10.36L29.82 10.36Q30.27 10.36 30.52 9.88L30.52 9.88L30.52 9.88Q30.77 9.41 30.77 8.55L30.77 8.55L30.77 8.55Q30.77 7.69 30.52 7.22L30.52 7.22L30.52 7.22Q30.27 6.75 29.81 6.75L29.81 6.75L29.81 6.75Q29.33 6.75 29.05 7.22L29.05 7.22L29.05 7.22Q28.77 7.70 28.77 8.53L28.77 8.53L28.77 8.53Q28.77 9.37 29.06 9.86L29.06 9.86L29.06 9.86Q29.34 10.36 29.82 10.36ZM38.09 9.37L38.09 11.30L38.09 11.30Q38.09 11.87 38.13 12.20L38.13 12.20L38.13 12.20Q38.16 12.53 38.28 12.71L38.28 12.71L38.28 12.71Q38.40 12.88 38.65 12.94L38.65 12.94L38.65 12.94Q38.89 12.99 39.31 13.02L39.31 13.02L39.31 13.58L34.90 13.58L34.90 13.02L34.90 13.02Q35.31 12.99 35.55 12.94L35.55 12.94L35.55 12.94Q35.80 12.88 35.93 12.71L35.93 12.71L35.93 12.71Q36.06 12.54 36.11 12.24L36.11 12.24L36.11 12.24Q36.15 11.93 36.15 11.40L36.15 11.40L36.15 9.65L36.15 9.65Q36.15 8.82 36.12 8.31L36.12 8.31L36.12 8.31Q36.09 7.80 36.05 7.62L36.05 7.62L36.05 7.62Q36.01 7.43 35.94 7.31L35.94 7.31L35.94 7.31Q35.87 7.20 35.73 7.13L35.73 7.13L35.73 7.13Q35.59 7.07 35.38 7.05L35.38 7.05L35.38 7.05Q35.17 7.03 34.85 7.03L34.85 7.03L34.85 6.55L37.55 6.02L37.73 7.25L37.79 7.25L37.79 7.25Q38.25 6.66 38.88 6.34L38.88 6.34L38.88 6.34Q39.51 6.02 40.26 6.02L40.26 6.02L40.26 6.02Q41.16 6.02 41.71 6.26L41.71 6.26L41.71 6.26Q42.27 6.51 42.70 7.08L42.70 7.08L42.70 7.08Q42.94 7.41 43.12 7.92L43.12 7.92L43.12 7.92Q43.30 8.43 43.30 9.32L43.30 9.32L43.30 11.30L43.30 11.30Q43.30 11.87 43.34 12.20L43.34 12.20L43.34 12.20Q43.37 12.53 43.49 12.71L43.49 12.71L43.49 12.71Q43.61 12.88 43.85 12.94L43.85 12.94L43.85 12.94Q44.09 12.99 44.49 13.02L44.49 13.02L44.49 13.58L40.11 13.58L40.11 13.02L40.11 13.02Q40.53 13.01 40.78 12.94L40.78 12.94L40.78 12.94Q41.02 12.88 41.15 12.71L41.15 12.71L41.15 12.71Q41.27 12.54 41.31 12.23L41.31 12.23L41.31 12.23Q41.36 11.91 41.36 11.40L41.36 11.40L41.36 9.49L41.36 9.49Q41.36 8.78 41.27 8.29L41.27 8.29L41.27 8.29Q41.19 7.80 41.00 7.50L41.00 7.50L41.00 7.50Q40.81 7.20 40.50 7.06L40.50 7.06L40.50 7.06Q40.19 6.93 39.73 6.93L39.73 6.93L39.73 6.93Q39.28 6.93 38.96 7.18L38.96 7.18L38.96 7.18Q38.64 7.43 38.40 7.88L38.40 7.88L38.40 7.88Q38.28 8.13 38.19 8.53L38.19 8.53L38.19 8.53Q38.09 8.93 38.09 9.37L38.09 9.37ZM49.27 6.02L49.27 6.02L49.27 6.02Q50.11 6.02 50.86 6.31L50.86 6.31L50.86 6.31Q51.60 6.59 52.17 7.10L52.17 7.10L52.17 7.10Q52.74 7.60 53.07 8.29L53.07 8.29L53.07 8.29Q53.40 8.99 53.40 9.81L53.40 9.81L53.40 9.81Q53.40 10.67 53.07 11.38L53.07 11.38L53.07 11.38Q52.74 12.10 52.17 12.61L52.17 12.61L52.17 12.61Q51.60 13.13 50.86 13.43L50.86 13.43L50.86 13.43Q50.11 13.72 49.27 13.72L49.27 13.72L49.27 13.72Q48.44 13.72 47.70 13.43L47.70 13.43L47.70 13.43Q46.96 13.15 46.40 12.63L46.40 12.63L46.40 12.63Q45.84 12.11 45.51 11.39L45.51 11.39L45.51 11.39Q45.19 10.67 45.19 9.81L45.19 9.81L45.19 9.81Q45.19 8.99 45.51 8.29L45.51 8.29L45.51 8.29Q45.84 7.59 46.40 7.08L46.40 7.08L46.40 7.08Q46.96 6.58 47.70 6.30L47.70 6.30L47.70 6.30Q48.44 6.02 49.27 6.02ZM49.27 6.83L49.27 6.83L49.27 6.83Q48.85 6.83 48.50 7.05L48.50 7.05L48.50 7.05Q48.15 7.27 47.90 7.66L47.90 7.66L47.90 7.66Q47.66 8.05 47.52 8.60L47.52 8.60L47.52 8.60Q47.39 9.16 47.39 9.83L47.39 9.83L47.39 9.83Q47.39 10.53 47.52 11.09L47.52 11.09L47.52 11.09Q47.66 11.65 47.90 12.04L47.90 12.04L47.90 12.04Q48.15 12.43 48.49 12.65L48.49 12.65L48.49 12.65Q48.83 12.87 49.27 12.87L49.27 12.87L49.27 12.87Q49.70 12.87 50.06 12.65L50.06 12.65L50.06 12.65Q50.41 12.43 50.67 12.03L50.67 12.03L50.67 12.03Q50.92 11.63 51.06 11.07L51.06 11.07L51.06 11.07Q51.20 10.51 51.20 9.83L51.20 9.83L51.20 9.83Q51.20 9.16 51.06 8.61L51.06 8.61L51.06 8.61Q50.92 8.06 50.67 7.67L50.67 7.67L50.67 7.67Q50.41 7.27 50.06 7.05L50.06 7.05L50.06 7.05Q49.70 6.83 49.27 6.83ZM55.41 13.09L55.10 13.58L54.67 13.58L54.67 11.03L55.26 11.03L55.26 11.03Q55.50 12.04 55.94 12.50L55.94 12.50L55.94 12.50Q56.39 12.96 57.11 12.96L57.11 12.96L57.11 12.96Q57.62 12.96 57.91 12.75L57.91 12.75L57.91 12.75Q58.20 12.53 58.20 12.15L58.20 12.15L58.20 12.15Q58.20 11.76 57.85 11.39L57.85 11.39L57.85 11.39Q57.50 11.02 56.71 10.60L56.71 10.60L56.71 10.60Q55.65 10.02 55.19 9.46L55.19 9.46L55.19 9.46Q54.73 8.89 54.73 8.18L54.73 8.18L54.73 8.18Q54.73 7.71 54.90 7.31L54.90 7.31L54.90 7.31Q55.08 6.92 55.38 6.62L55.38 6.62L55.38 6.62Q55.68 6.33 56.10 6.17L56.10 6.17L56.10 6.17Q56.52 6.01 57.01 6.01L57.01 6.01L57.01 6.01Q57.44 6.01 57.87 6.13L57.87 6.13L57.87 6.13Q58.30 6.26 58.62 6.48L58.62 6.48L58.87 6.15L59.23 6.15L59.23 8.26L58.69 8.26L58.69 8.26Q58.37 7.46 58.02 7.11L58.02 7.11L58.02 7.11Q57.68 6.76 57.19 6.76L57.19 6.76L57.19 6.76Q56.80 6.76 56.57 6.97L56.57 6.97L56.57 6.97Q56.34 7.18 56.34 7.53L56.34 7.53L56.34 7.53Q56.34 7.92 56.68 8.27L56.68 8.27L56.68 8.27Q57.02 8.62 57.82 9.04L57.82 9.04L57.82 9.04Q58.38 9.35 58.79 9.65L58.79 9.65L58.79 9.65Q59.19 9.94 59.44 10.24L59.44 10.24L59.44 10.24Q59.70 10.54 59.82 10.87L59.82 10.87L59.82 10.87Q59.93 11.20 59.93 11.58L59.93 11.58L59.93 11.58Q59.93 12.07 59.75 12.46L59.75 12.46L59.75 12.46Q59.57 12.85 59.23 13.13L59.23 13.13L59.23 13.13Q58.90 13.41 58.43 13.57L58.43 13.57L58.43 13.57Q57.96 13.72 57.39 13.72L57.39 13.72L57.39 13.72Q56.78 13.72 56.27 13.56L56.27 13.56L56.27 13.56Q55.75 13.40 55.41 13.09L55.41 13.09ZM64.04 6.02L64.04 11.28L64.04 11.28Q64.04 11.84 64.08 12.18L64.08 12.18L64.08 12.18Q64.12 12.52 64.25 12.70L64.25 12.70L64.25 12.70Q64.37 12.88 64.61 12.94L64.61 12.94L64.61 12.94Q64.85 13.01 65.25 13.02L65.25 13.02L65.25 13.58L60.84 13.58L60.84 13.02L60.84 13.02Q61.24 13.01 61.48 12.93L61.48 12.93L61.48 12.93Q61.73 12.85 61.86 12.68L61.86 12.68L61.86 12.68Q61.99 12.50 62.04 12.19L62.04 12.19L62.04 12.19Q62.09 11.87 62.09 11.38L62.09 11.38L62.09 9.66L62.09 9.66Q62.09 8.85 62.06 8.32L62.06 8.32L62.06 8.32Q62.03 7.80 61.99 7.60L61.99 7.60L61.99 7.60Q61.92 7.25 61.68 7.14L61.68 7.14L61.68 7.14Q61.43 7.03 60.79 7.03L60.79 7.03L60.79 6.55L64.04 6.02ZM61.98 3.05L61.98 3.05L61.98 3.05Q61.98 2.59 62.29 2.28L62.29 2.28L62.29 2.28Q62.61 1.96 63.06 1.96L63.06 1.96L63.06 1.96Q63.52 1.96 63.83 2.28L63.83 2.28L63.83 2.28Q64.15 2.59 64.15 3.05L64.15 3.05L64.15 3.05Q64.15 3.50 63.83 3.81L63.83 3.81L63.83 3.81Q63.52 4.13 63.06 4.13L63.06 4.13L63.06 4.13Q62.61 4.13 62.29 3.81L62.29 3.81L62.29 3.81Q61.98 3.50 61.98 3.05ZM66.99 13.09L66.68 13.58L66.25 13.58L66.25 11.03L66.84 11.03L66.84 11.03Q67.07 12.04 67.52 12.50L67.52 12.50L67.52 12.50Q67.97 12.96 68.68 12.96L68.68 12.96L68.68 12.96Q69.20 12.96 69.49 12.75L69.49 12.75L69.49 12.75Q69.78 12.53 69.78 12.15L69.78 12.15L69.78 12.15Q69.78 11.76 69.43 11.39L69.43 11.39L69.43 11.39Q69.08 11.02 68.29 10.60L68.29 10.60L68.29 10.60Q67.23 10.02 66.77 9.46L66.77 9.46L66.77 9.46Q66.30 8.89 66.30 8.18L66.30 8.18L66.30 8.18Q66.30 7.71 66.48 7.31L66.48 7.31L66.48 7.31Q66.65 6.92 66.95 6.62L66.95 6.62L66.95 6.62Q67.26 6.33 67.68 6.17L67.68 6.17L67.68 6.17Q68.10 6.01 68.59 6.01L68.59 6.01L68.59 6.01Q69.02 6.01 69.45 6.13L69.45 6.13L69.45 6.13Q69.87 6.26 70.20 6.48L70.20 6.48L70.45 6.15L70.81 6.15L70.81 8.26L70.27 8.26L70.27 8.26Q69.94 7.46 69.60 7.11L69.60 7.11L69.60 7.11Q69.26 6.76 68.77 6.76L68.77 6.76L68.77 6.76Q68.38 6.76 68.15 6.97L68.15 6.97L68.15 6.97Q67.91 7.18 67.91 7.53L67.91 7.53L67.91 7.53Q67.91 7.92 68.26 8.27L68.26 8.27L68.26 8.27Q68.60 8.62 69.40 9.04L69.40 9.04L69.40 9.04Q69.96 9.35 70.36 9.65L70.36 9.65L70.36 9.65Q70.77 9.94 71.02 10.24L71.02 10.24L71.02 10.24Q71.27 10.54 71.39 10.87L71.39 10.87L71.39 10.87Q71.51 11.20 71.51 11.58L71.51 11.58L71.51 11.58Q71.51 12.07 71.33 12.46L71.33 12.46L71.33 12.46Q71.15 12.85 70.81 13.13L70.81 13.13L70.81 13.13Q70.48 13.41 70.01 13.57L70.01 13.57L70.01 13.57Q69.54 13.72 68.96 13.72L68.96 13.72L68.96 13.72Q68.36 13.72 67.84 13.56L67.84 13.56L67.84 13.56Q67.33 13.40 66.99 13.09L66.99 13.09Z"></path></g><!----><!----></svg>