<svg data-v-423bf9ae="" xmlns="http://www.w3.org/2000/svg" viewBox="0 0 232.34041990075613 173" class="iconAbove"><!----><!----><!----><g data-v-423bf9ae="" id="aa828e64-f8b7-414b-bae9-2755e7dd840f" fill="#022239" transform="matrix(5.550416065768061,0,0,5.550416065768061,-1.5541134415223326,97.1483100293305)"><path d="M0.28 13.33L0.28 13.33L0.28 13.33Q0.28 13.13 0.49 13.06L0.49 13.06L0.49 13.06Q0.94 12.89 1.27 12.31L1.27 12.31L1.27 12.31Q1.61 11.73 2.94 8.83L2.94 8.83L2.94 8.83Q4.31 5.87 5.36 3.63L5.36 3.63L5.36 3.63Q5.46 3.42 5.54 3.36L5.54 3.36L5.54 3.36Q5.61 3.30 5.78 3.30L5.78 3.30L5.78 3.30Q5.91 3.30 5.95 3.36L5.95 3.36L5.95 3.36Q5.99 3.42 6.13 3.82L6.13 3.82L6.13 3.82Q6.22 4.06 6.28 4.23L6.28 4.23L6.28 4.23Q6.34 4.40 6.48 4.77L6.48 4.77L6.48 4.77Q6.62 5.15 6.79 5.56L6.79 5.56L6.79 5.56Q7.24 6.66 8.34 9.22L8.34 9.22L8.34 9.22Q9.44 11.77 9.53 11.98L9.53 11.98L9.53 11.98Q9.77 12.46 10.07 12.71L10.07 12.71L10.07 12.71Q10.36 12.95 10.58 12.97L10.58 12.97L10.58 12.97Q10.79 12.99 10.94 13.04L10.94 13.04L10.94 13.04Q11.09 13.09 11.09 13.26L11.09 13.26L11.09 13.26Q11.09 13.47 10.71 13.47L10.71 13.47L10.71 13.47Q10.56 13.47 10.11 13.43L10.11 13.43L10.11 13.43Q9.66 13.38 9.45 13.38L9.45 13.38L9.45 13.38Q9.18 13.38 8.76 13.41L8.76 13.41L8.76 13.41Q8.34 13.44 8.15 13.44L8.15 13.44L8.15 13.44Q7.71 13.44 7.59 13.40L7.59 13.40L7.59 13.40Q7.48 13.37 7.48 13.24L7.48 13.24L7.48 13.24Q7.48 13.15 7.59 13.08L7.59 13.08L7.59 13.08Q7.70 13.02 7.83 13.00L7.83 13.00L7.83 13.00Q7.95 12.98 8.06 12.87L8.06 12.87L8.06 12.87Q8.18 12.77 8.18 12.59L8.18 12.59L8.18 12.59Q8.18 12.28 7.83 11.33L7.83 11.33L7.83 11.33Q7.48 10.37 7.24 9.93L7.24 9.93L7.24 9.93Q7.11 9.69 6.66 9.69L6.66 9.69L6.66 9.69Q6.59 9.69 6.05 9.70L6.05 9.70L6.05 9.70Q5.50 9.72 4.97 9.72L4.97 9.72L4.23 9.72L4.23 9.72Q3.60 9.72 3.44 9.79L3.44 9.79L3.44 9.79Q3.28 9.86 3.15 10.12L3.15 10.12L3.15 10.12Q3.07 10.30 2.87 10.70L2.87 10.70L2.87 10.70Q2.67 11.10 2.60 11.26L2.60 11.26L2.60 11.26Q2.53 11.41 2.43 11.65L2.43 11.65L2.43 11.65Q2.32 11.90 2.29 12.05L2.29 12.05L2.29 12.05Q2.25 12.19 2.25 12.31L2.25 12.31L2.25 12.31Q2.25 12.63 2.42 12.80L2.42 12.80L2.42 12.80Q2.58 12.96 2.77 12.98L2.77 12.98L2.77 12.98Q2.97 13.01 3.13 13.06L3.13 13.06L3.13 13.06Q3.29 13.12 3.29 13.26L3.29 13.26L3.29 13.26Q3.29 13.36 3.25 13.40L3.25 13.40L3.25 13.40Q3.21 13.45 3.05 13.45L3.05 13.45L3.05 13.45Q2.97 13.45 2.57 13.45L2.57 13.45L2.57 13.45Q2.17 13.44 1.89 13.44L1.89 13.44L1.89 13.44Q1.58 13.44 1.20 13.47L1.20 13.47L1.20 13.47Q0.81 13.50 0.69 13.50L0.69 13.50L0.69 13.50Q0.28 13.50 0.28 13.33ZM3.79 8.71L3.79 8.71L3.79 8.71Q3.79 8.89 3.92 8.93L3.92 8.93L3.92 8.93Q4.05 8.97 4.51 8.97L4.51 8.97L4.94 8.97L6.27 8.96L6.27 8.96Q6.82 8.96 6.82 8.74L6.82 8.74L6.82 8.74Q6.82 8.55 6.13 7.01L6.13 7.01L6.13 7.01Q5.45 5.46 5.26 5.46L5.26 5.46L5.26 5.46Q5.14 5.46 4.47 7.01L4.47 7.01L4.47 7.01Q3.79 8.55 3.79 8.71ZM11.23 10.71L11.23 10.71L11.23 10.71Q11.23 9.35 12.13 8.33L12.13 8.33L12.13 8.33Q13.03 7.31 14.63 7.31L14.63 7.31L14.63 7.31Q14.99 7.31 15.59 7.51L15.59 7.51L15.59 7.51Q16.18 7.71 16.23 7.71L16.23 7.71L16.23 7.71Q16.30 7.71 16.30 7.21L16.30 7.21L16.30 7.21Q16.30 6.15 16.31 5.82L16.31 5.82L16.31 5.82Q16.32 5.49 16.32 5.40L16.32 5.40L16.32 5.40Q16.32 4.96 16.31 4.75L16.31 4.75L16.31 4.75Q16.30 4.54 16.23 4.28L16.23 4.28L16.23 4.28Q16.17 4.03 16.01 3.93L16.01 3.93L16.01 3.93Q15.85 3.84 15.58 3.84L15.58 3.84L15.43 3.84L15.43 3.84Q15.22 3.84 15.18 3.82L15.18 3.82L15.18 3.82Q15.13 3.81 15.13 3.72L15.13 3.72L15.13 3.71L15.13 3.71Q15.13 3.61 15.27 3.56L15.27 3.56L15.27 3.56Q15.41 3.51 15.84 3.38L15.84 3.38L15.84 3.38Q16.27 3.25 16.72 3.04L16.72 3.04L16.72 3.04Q16.76 3.02 16.88 2.96L16.88 2.96L16.88 2.96Q17.01 2.90 17.10 2.86L17.10 2.86L17.10 2.86Q17.19 2.83 17.26 2.83L17.26 2.83L17.26 2.83Q17.43 2.83 17.43 3.11L17.43 3.11L17.43 3.11Q17.43 3.15 17.34 4.30L17.34 4.30L17.34 4.30Q17.25 5.45 17.25 6.15L17.25 6.15L17.25 6.15Q17.25 7.59 17.23 9.27L17.23 9.27L17.23 9.27Q17.22 10.95 17.22 11.26L17.22 11.26L17.22 11.26Q17.22 12.21 17.31 12.53L17.31 12.53L17.31 12.53Q17.40 12.85 17.71 12.95L17.71 12.95L17.71 12.95Q17.75 12.96 17.95 13.00L17.95 13.00L17.95 13.00Q18.14 13.03 18.23 13.08L18.23 13.08L18.23 13.08Q18.31 13.13 18.31 13.24L18.31 13.24L18.31 13.24Q18.31 13.41 17.23 13.50L17.23 13.50L17.23 13.50Q17.01 13.51 16.72 13.57L16.72 13.57L16.72 13.57Q16.42 13.64 16.35 13.64L16.35 13.64L16.35 13.64Q16.20 13.64 16.20 13.48L16.20 13.48L16.20 13.48Q16.20 13.44 16.18 13.27L16.18 13.27L16.18 13.27Q16.16 13.10 16.16 12.96L16.16 12.96L16.16 12.96Q16.16 12.73 16.03 12.73L16.03 12.73L16.03 12.73Q15.99 12.73 15.83 12.87L15.83 12.87L15.83 12.87Q15.67 13.01 15.46 13.18L15.46 13.18L15.46 13.18Q15.25 13.36 14.85 13.50L14.85 13.50L14.85 13.50Q14.45 13.64 13.99 13.64L13.99 13.64L13.99 13.64Q12.68 13.64 11.96 12.77L11.96 12.77L11.96 12.77Q11.23 11.91 11.23 10.71ZM12.24 10.05L12.24 10.05L12.24 10.05Q12.24 11.12 12.89 12.01L12.89 12.01L12.89 12.01Q13.54 12.91 14.56 12.91L14.56 12.91L14.56 12.91Q15.19 12.91 15.71 12.59L15.71 12.59L15.71 12.59Q16.23 12.26 16.23 11.80L16.23 11.80L16.24 9.41L16.24 9.41Q16.24 8.55 15.85 8.33L15.85 8.33L15.85 8.33Q14.81 7.71 14.18 7.71L14.18 7.71L14.18 7.71Q13.27 7.71 12.75 8.38L12.75 8.38L12.75 8.38Q12.24 9.04 12.24 10.05ZM19.03 8.01L19.03 8.01L19.03 8.01Q19.03 7.88 19.19 7.82L19.19 7.82L19.19 7.82Q19.36 7.76 19.70 7.69L19.70 7.69L19.70 7.69Q20.03 7.62 20.26 7.52L20.26 7.52L20.26 7.52Q20.34 7.49 20.44 7.43L20.44 7.43L20.44 7.43Q20.54 7.38 20.59 7.36L20.59 7.36L20.59 7.36Q20.64 7.34 20.71 7.32L20.71 7.32L20.71 7.32Q20.79 7.31 20.87 7.31L20.87 7.31L20.87 7.31Q21.04 7.31 21.04 7.71L21.04 7.71L21.04 7.71Q21.04 7.81 21.01 8.04L21.01 8.04L21.01 8.04Q20.97 8.26 20.97 8.30L20.97 8.30L20.97 8.30Q20.97 8.47 21.06 8.47L21.06 8.47L21.06 8.47Q21.07 8.47 21.15 8.36L21.15 8.36L21.15 8.36Q21.22 8.26 21.36 8.11L21.36 8.11L21.36 8.11Q21.49 7.97 21.69 7.82L21.69 7.82L21.69 7.82Q21.88 7.67 22.21 7.57L22.21 7.57L22.21 7.57Q22.54 7.46 22.95 7.46L22.95 7.46L22.95 7.46Q23.46 7.46 23.84 7.64L23.84 7.64L23.84 7.64Q24.22 7.81 24.37 8.02L24.37 8.02L24.37 8.02Q24.51 8.22 24.61 8.39L24.61 8.39L24.61 8.39Q24.71 8.57 24.74 8.57L24.74 8.57L24.74 8.57Q24.75 8.57 25.00 8.28L25.00 8.28L25.00 8.28Q25.24 7.99 25.70 7.71L25.70 7.71L25.70 7.71Q26.15 7.42 26.66 7.42L26.66 7.42L26.66 7.42Q27.68 7.42 28.23 8.02L28.23 8.02L28.23 8.02Q28.78 8.62 28.88 9.52L28.88 9.52L28.88 9.52Q28.97 10.35 28.97 11.30L28.97 11.30L28.97 11.75L28.97 11.75Q28.97 12.38 29.04 12.66L29.04 12.66L29.04 12.66Q29.11 12.94 29.36 13.02L29.36 13.02L29.36 13.02Q29.37 13.02 29.48 13.04L29.48 13.04L29.48 13.04Q29.60 13.06 29.67 13.08L29.67 13.08L29.67 13.08Q29.75 13.09 29.82 13.15L29.82 13.15L29.82 13.15Q29.89 13.20 29.89 13.29L29.89 13.29L29.89 13.29Q29.89 13.50 29.43 13.50L29.43 13.50L29.43 13.50Q29.34 13.50 29.00 13.47L29.00 13.47L29.00 13.47Q28.66 13.44 28.50 13.44L28.50 13.44L28.50 13.44Q28.29 13.44 27.96 13.47L27.96 13.47L27.96 13.47Q27.64 13.50 27.50 13.50L27.50 13.50L27.50 13.50Q27.16 13.50 27.16 13.36L27.16 13.36L27.16 13.36Q27.16 13.20 27.45 13.09L27.45 13.09L27.45 13.09Q27.75 12.98 27.80 12.85L27.80 12.85L27.80 12.85Q27.86 12.70 27.86 12.21L27.86 12.21L27.86 11.98L27.86 11.98Q27.86 11.51 27.85 11.15L27.85 11.15L27.85 11.15Q27.85 10.79 27.85 10.49L27.85 10.49L27.85 10.49Q27.85 10.19 27.82 9.97L27.82 9.97L27.82 9.97Q27.80 9.74 27.80 9.58L27.80 9.58L27.80 9.58Q27.80 9.42 27.76 9.29L27.76 9.29L27.76 9.29Q27.72 9.16 27.71 9.09L27.71 9.09L27.71 9.09Q27.71 9.02 27.64 8.92L27.64 8.92L27.64 8.92Q27.57 8.82 27.55 8.79L27.55 8.79L27.55 8.79Q27.54 8.76 27.45 8.65L27.45 8.65L27.45 8.65Q27.36 8.54 27.33 8.51L27.33 8.51L27.33 8.51Q26.96 8.08 26.28 8.08L26.28 8.08L26.28 8.08Q25.96 8.08 25.61 8.25L25.61 8.25L25.61 8.25Q25.26 8.41 25.05 8.59L25.05 8.59L25.05 8.59Q24.84 8.76 24.84 8.83L24.84 8.83L24.84 8.83Q24.84 8.88 24.86 9.03L24.86 9.03L24.86 9.03Q24.88 9.18 24.90 9.58L24.90 9.58L24.90 9.58Q24.92 9.98 24.92 10.61L24.92 10.61L24.92 11.80L24.92 11.80Q24.92 12.45 25.10 12.75L25.10 12.75L25.10 12.75Q25.28 13.05 25.89 13.13L25.89 13.13L25.89 13.13Q26.03 13.15 26.08 13.22L26.08 13.22L26.08 13.22Q26.14 13.30 26.14 13.36L26.14 13.36L26.14 13.36Q26.14 13.51 25.87 13.51L25.87 13.51L25.87 13.51Q25.77 13.51 25.42 13.47L25.42 13.47L25.42 13.47Q25.07 13.44 24.85 13.44L24.85 13.44L24.85 13.44Q24.71 13.44 24.16 13.47L24.16 13.47L24.16 13.47Q23.62 13.51 23.58 13.51L23.58 13.51L23.58 13.51Q23.27 13.51 23.27 13.33L23.27 13.33L23.27 13.33Q23.27 13.23 23.32 13.18L23.32 13.18L23.32 13.18Q23.38 13.13 23.59 13.05L23.59 13.05L23.59 13.05Q23.67 13.02 23.72 12.99L23.72 12.99L23.72 12.99Q23.77 12.96 23.84 12.75L23.84 12.75L23.84 12.75Q23.91 12.54 23.91 12.18L23.91 12.18L23.91 12.18Q23.91 12.12 23.91 12.07L23.91 12.07L23.91 12.07Q23.91 12.01 23.92 11.92L23.92 11.92L23.92 11.92Q23.93 11.83 23.93 11.50L23.93 11.50L23.93 11.50Q23.93 11.17 23.93 10.65L23.93 10.65L23.93 10.65Q23.93 10.35 23.92 10.16L23.92 10.16L23.92 10.16Q23.91 9.97 23.91 9.91L23.91 9.91L23.91 9.91Q23.91 9.86 23.90 9.82L23.90 9.82L23.90 9.82Q23.90 9.79 23.90 9.77L23.90 9.77L23.90 9.77Q23.90 9.03 23.52 8.58L23.52 8.58L23.52 8.58Q23.14 8.13 22.47 8.13L22.47 8.13L22.47 8.13Q21.88 8.13 21.42 8.44L21.42 8.44L21.42 8.44Q20.96 8.75 20.96 9.16L20.96 9.16L20.96 9.35L20.96 11.98L20.96 11.98Q20.96 12.49 21.14 12.75L21.14 12.75L21.14 12.75Q21.32 13.02 21.55 13.05L21.55 13.05L21.55 13.05Q21.77 13.09 21.95 13.13L21.95 13.13L21.95 13.13Q22.13 13.17 22.13 13.27L22.13 13.27L22.13 13.27Q22.13 13.40 22.09 13.44L22.09 13.44L22.09 13.44Q22.05 13.48 21.84 13.48L21.84 13.48L21.84 13.48Q21.78 13.48 21.40 13.46L21.40 13.46L21.40 13.46Q21.01 13.44 20.66 13.44L20.66 13.44L20.66 13.44Q20.34 13.44 19.98 13.46L19.98 13.46L19.98 13.46Q19.61 13.48 19.56 13.48L19.56 13.48L19.56 13.48Q19.22 13.48 19.22 13.27L19.22 13.27L19.22 13.27Q19.22 13.17 19.30 13.13L19.30 13.13L19.30 13.13Q19.38 13.09 19.47 13.08L19.47 13.08L19.47 13.08Q19.57 13.06 19.68 12.96L19.68 12.96L19.68 12.96Q19.80 12.85 19.87 12.66L19.87 12.66L19.87 12.66Q19.98 12.26 19.98 10.53L19.98 10.53L19.98 10.53Q19.98 10.26 19.97 9.69L19.97 9.69L19.97 9.69Q19.96 9.11 19.96 8.82L19.96 8.82L19.96 8.82Q19.96 8.48 19.82 8.34L19.82 8.34L19.82 8.34Q19.67 8.20 19.49 8.21L19.49 8.21L19.49 8.21Q19.32 8.22 19.17 8.18L19.17 8.18L19.17 8.18Q19.03 8.15 19.03 8.01ZM30.67 8.11L30.67 8.11L30.67 8.11Q30.67 8.04 30.71 7.99L30.71 7.99L30.71 7.99Q30.74 7.95 30.85 7.90L30.85 7.90L30.85 7.90Q30.95 7.85 31.07 7.82L31.07 7.82L31.07 7.82Q31.18 7.78 31.39 7.71L31.39 7.71L31.39 7.71Q31.61 7.63 31.81 7.55L31.81 7.55L31.81 7.55Q31.96 7.48 32.09 7.42L32.09 7.42L32.09 7.42Q32.23 7.36 32.27 7.34L32.27 7.34L32.27 7.34Q32.31 7.32 32.37 7.31L32.37 7.31L32.37 7.31Q32.42 7.29 32.51 7.29L32.51 7.29L32.51 7.29Q32.72 7.29 32.72 7.56L32.72 7.56L32.72 7.56Q32.72 7.63 32.68 7.87L32.68 7.87L32.68 7.87Q32.63 8.11 32.63 8.23L32.63 8.23L32.63 12.07L32.63 12.07Q32.63 12.49 32.77 12.73L32.77 12.73L32.77 12.73Q32.90 12.96 33.05 13.02L33.05 13.02L33.05 13.02Q33.19 13.08 33.42 13.09L33.42 13.09L33.42 13.09Q33.59 13.10 33.64 13.11L33.64 13.11L33.64 13.11Q33.70 13.12 33.77 13.16L33.77 13.16L33.77 13.16Q33.84 13.20 33.84 13.30L33.84 13.30L33.84 13.30Q33.84 13.54 33.60 13.54L33.60 13.54L33.60 13.54Q33.57 13.54 33.50 13.53L33.50 13.53L33.50 13.53Q33.43 13.52 33.39 13.52L33.39 13.52L33.39 13.52Q33.08 13.52 32.87 13.51L32.87 13.51L32.87 13.51Q32.66 13.50 32.40 13.50L32.40 13.50L32.40 13.50Q32.06 13.50 31.77 13.51L31.77 13.51L31.77 13.51Q31.47 13.52 31.40 13.52L31.40 13.52L31.40 13.52Q30.84 13.52 30.84 13.34L30.84 13.34L30.84 13.34Q30.84 13.15 31.05 13.08L31.05 13.08L31.05 13.08Q31.07 13.08 31.11 13.06L31.11 13.06L31.11 13.06Q31.43 12.95 31.50 12.78L31.50 12.78L31.50 12.78Q31.63 12.50 31.63 10.56L31.63 10.56L31.63 9.32L31.63 9.32Q31.63 8.92 31.53 8.68L31.53 8.68L31.53 8.68Q31.43 8.44 31.35 8.39L31.35 8.39L31.35 8.39Q31.26 8.33 31.06 8.29L31.06 8.29L31.06 8.29Q30.86 8.26 30.81 8.25L30.81 8.25L30.81 8.25Q30.67 8.19 30.67 8.11ZM31.47 5.18L31.47 5.18L31.47 5.18Q31.47 5.01 31.72 4.71L31.72 4.71L31.72 4.71Q31.96 4.41 32.17 4.41L32.17 4.41L32.17 4.41Q32.40 4.41 32.61 4.70L32.61 4.70L32.61 4.70Q32.82 4.98 32.82 5.21L32.82 5.21L32.82 5.21Q32.82 5.43 32.55 5.70L32.55 5.70L32.55 5.70Q32.28 5.98 32.16 5.98L32.16 5.98L32.16 5.98Q31.88 5.98 31.67 5.68L31.67 5.68L31.67 5.68Q31.47 5.39 31.47 5.18ZM34.58 7.98L34.58 7.98L34.58 7.98Q34.58 7.90 34.67 7.85L34.67 7.85L34.67 7.85Q34.76 7.81 34.97 7.78L34.97 7.78L34.97 7.78Q35.18 7.76 35.27 7.73L35.27 7.73L35.27 7.73Q35.53 7.66 35.82 7.54L35.82 7.54L35.82 7.54Q36.11 7.42 36.28 7.34L36.28 7.34L36.28 7.34Q36.46 7.25 36.51 7.25L36.51 7.25L36.54 7.25L36.54 7.25Q36.67 7.25 36.67 7.42L36.67 7.42L36.67 7.42Q36.67 7.45 36.65 7.67L36.65 7.67L36.65 7.67Q36.64 7.90 36.64 8.02L36.64 8.02L36.64 8.02Q36.64 8.39 36.71 8.39L36.71 8.39L36.71 8.39Q36.75 8.39 36.81 8.31L36.81 8.31L36.81 8.31Q36.86 8.23 37.01 8.08L37.01 8.08L37.01 8.08Q37.16 7.94 37.37 7.81L37.37 7.81L37.37 7.81Q38.00 7.42 38.58 7.42L38.58 7.42L38.58 7.42Q39.14 7.42 39.59 7.59L39.59 7.59L39.59 7.59Q40.04 7.77 40.29 8.03L40.29 8.03L40.29 8.03Q40.54 8.29 40.71 8.62L40.71 8.62L40.71 8.62Q40.88 8.96 40.94 9.24L40.94 9.24L40.94 9.24Q40.99 9.52 40.99 9.77L40.99 9.77L40.99 9.77Q40.99 9.83 40.99 9.90L40.99 9.90L40.99 9.90Q40.99 9.98 41.00 10.10L41.00 10.10L41.00 10.10Q41.01 10.22 41.01 10.65L41.01 10.65L41.01 10.65Q41.01 11.09 41.01 11.77L41.01 11.77L41.01 12.08L41.01 12.08Q41.01 12.61 41.15 12.82L41.15 12.82L41.15 12.82Q41.30 13.02 41.86 13.10L41.86 13.10L41.86 13.10Q42.14 13.15 42.14 13.31L42.14 13.31L42.14 13.31Q42.14 13.45 41.86 13.45L41.86 13.45L41.86 13.45Q41.54 13.45 41.19 13.42L41.19 13.42L41.19 13.42Q40.84 13.38 40.71 13.38L40.71 13.38L40.71 13.38Q40.52 13.38 40.10 13.41L40.10 13.41L40.10 13.41Q39.69 13.44 39.63 13.44L39.63 13.44L39.63 13.44Q39.35 13.44 39.35 13.26L39.35 13.26L39.35 13.26Q39.35 13.19 39.40 13.15L39.40 13.15L39.40 13.15Q39.45 13.10 39.52 13.09L39.52 13.09L39.52 13.09Q39.58 13.08 39.63 13.06L39.63 13.06L39.70 13.05L39.70 13.05Q40.01 12.95 40.01 12.11L40.01 12.11L40.01 10.22L40.01 10.22Q40.01 9.14 39.48 8.59L39.48 8.59L39.48 8.59Q38.95 8.04 38.21 8.04L38.21 8.04L38.21 8.04Q37.60 8.04 37.16 8.36L37.16 8.36L37.16 8.36Q36.71 8.68 36.64 8.89L36.64 8.89L36.64 8.89Q36.51 9.24 36.51 11.10L36.51 11.10L36.51 11.63L36.51 11.63Q36.51 12.33 36.66 12.67L36.66 12.67L36.66 12.67Q36.81 13.01 37.31 13.05L37.31 13.05L37.31 13.05Q37.45 13.05 37.67 13.10L37.67 13.10L37.67 13.10Q37.88 13.15 37.88 13.26L37.88 13.26L37.88 13.26Q37.88 13.44 37.62 13.44L37.62 13.44L37.62 13.44Q37.38 13.44 37.16 13.41L37.16 13.41L37.16 13.41Q36.93 13.38 36.60 13.38L36.60 13.38L36.60 13.38Q36.23 13.38 35.63 13.41L35.63 13.41L35.03 13.44L35.03 13.44Q34.82 13.44 34.82 13.30L34.82 13.30L34.82 13.30Q34.82 13.19 34.89 13.16L34.89 13.16L34.89 13.16Q34.96 13.13 35.06 13.12L35.06 13.12L35.06 13.12Q35.17 13.10 35.27 13.03L35.27 13.03L35.27 13.03Q35.38 12.96 35.46 12.69L35.46 12.69L35.46 12.69Q35.55 12.42 35.56 11.96L35.56 11.96L35.56 11.96Q35.59 11.17 35.59 10.91L35.59 10.91L35.59 8.89L35.59 8.89Q35.59 8.44 35.43 8.29L35.43 8.29L35.43 8.29Q35.27 8.13 34.99 8.13L34.99 8.13L34.85 8.13L34.85 8.13Q34.58 8.13 34.58 7.98Z"></path></g><!----><g data-v-423bf9ae="" id="6940b5ab-9aeb-4db2-a285-e624a20e9738" transform="matrix(1.0533332824707031,0,0,1.0533332824707031,64.10368298689173,-2.0666617075603426)" stroke="none" fill="#000000"><path d="M67.8 18.8v11.1h-.1c-1.6.1-3.2.4-4.7.9-1.7.6-3.3 1.4-4.9 2.4-1.6 1-3.1 2.3-4.4 3.7-1.1 1.1-2.1 2.4-2.9 3.6H35.1V11c-8.6 5.8-16.5 9-24.8 9.8v19.8h24.8v28.5c.6-.2 1.1-.5 1.6-.6 1.7-.8 3.4-1.6 5.1-2.3 2.2-1.1 4.1-2.4 5.9-3.7.4 1.4 1.2 3.7 2.6 5.6.2.6.3 1.2.6 1.8l-.9.6c-1 .6-2 1.2-3.1 1.9-.5.3-.9.6-1.4.8-1.9 1.1-3.7 1.9-5.6 2.6l-2.3.9c-.6.3-1.4.5-2.3.5-.6 0-1.2-.2-1.9-.3-9-3.3-15.9-7.6-21.5-13.2C7.3 59 4.6 54.3 3.4 49c-.5-2.3-.8-4.5-.6-6.5V19c0-4.8 3.4-5.6 5.4-5.8 7.6-.5 15.1-3.4 23.5-9.2.9-.6 2-1.4 3.6-1.4s2.6.8 3.7 1.6c6.2 4.4 11.8 7 17.6 8.3 1.6.3 3.3.6 5 .8l1.2.2c3.2.3 5 2.3 5 5.3zm10.9 23.5s-.9-1.8-3.4-3.2c-1.6-1-3.9-1.7-7-1.5-1 0-1.9.2-2.8.5-1.1.4-2.1.9-3.1 1.6-1.1.7-2.2 1.6-3.1 2.6-1.5 1.5-2.8 3.5-3.4 6-.5 2.1-.5 4.3.3 6.6-1.1-.1-2.4.5-1.2 4.9.9 3.2 1.7 4.1 2.4 4.1.3 1.8.9 3.9 1.9 5.7v4.2c0 .2-.1.4-.3.5-1.5.7-8.3 4.2-15.1 9.4-2.3 1.8-3.7 4.6-3.7 7.5v4.4c0 1 .8 1.8 1.8 1.8h53.4c1 0 1.8-.8 1.8-1.8v-4.4c0-2.9-1.3-5.7-3.7-7.5-6.7-5.2-13.5-8.7-15-9.4-.2-.1-.3-.3-.3-.5V69c.7-1.5 1.2-3.1 1.4-4.5.6.4 1.7.2 2.9-4 1-3.4.4-4.6-.5-4.8 2.8-13-3.3-13.4-3.3-13.4z"></path></g><!----></svg>