<svg data-v-423bf9ae="" xmlns="http://www.w3.org/2000/svg" viewBox="0 0 NaN NaN" class="iconAbove"><!----><!----><!----><g data-v-423bf9ae="" id="6b75f7a3-f3c9-4eb0-b934-f1cf4202bfdd" fill="black" transform="matrix(Infinity,0,0,Infinity,0,0)"><path d=""></path></g><!----><g data-v-423bf9ae="" id="61fdc8ba-a081-46d5-835d-8063cfb581c0" transform="matrix(1.2666666666666666,0,0,1.2666666666666666,-17.066666666666663,-8.066666666666663)" stroke="none" fill="black"><style>.st2{fill:none;stroke:#000;stroke-width:.1;stroke-miterlimit:10}</style><path d="M76.1 61.1H62.9c-1.1 0-2-.9-2-2s.9-2 2-2h13.2c1.1 0 2 .9 2 2s-.8 2-2 2zM31.5 37.7v13h65v-13h-65zM72.9 45h-37v-1.6h37V45zm6.5 0h-2.1v-2.1h2.1V45zm6.7 0H84v-2.1h2.1V45zm6 0H90v-2.1h2.1V45z"></path><path d="M31.5 52.3v37.9h65V52.3h-65zm16 5.5c3.2 0 5.8 2.6 5.8 5.8 0 3.2-2.6 5.8-5.8 5.8-3.2 0-5.8-2.6-5.8-5.8.1-3.2 2.7-5.8 5.8-5.8zm11 25.3H36.2v-4c0-4.6 3.8-8.4 8.4-8.4h5.5c4.6 0 8.4 3.8 8.4 8.4v4zm29.4 0h-25c-.5 0-.8-.4-.8-.8s.4-.8.8-.8h25c.5 0 .8.4.8.8s-.4.8-.8.8zm0-7.7h-25c-.5 0-.8-.4-.8-.8 0-.5.4-.8.8-.8h25c.5 0 .8.4.8.8s-.4.8-.8.8zm0-7.8h-25c-.5 0-.8-.4-.8-.8 0-.5.4-.8.8-.8h25c.5 0 .8.4.8.8 0 .5-.4.8-.8.8z"></path><path d="M64 121C32.6 121 7 95.4 7 64S32.6 7 64 7s57 25.6 57 57-25.6 57-57 57zM64 9.9C34.2 9.9 9.9 34.2 9.9 64s24.3 54.1 54.1 54.1 54.1-24.3 54.1-54.1S93.8 9.9 64 9.9z"></path></g><!----></svg>