<svg data-v-423bf9ae="" xmlns="http://www.w3.org/2000/svg" viewBox="0 0 376.6541684834013 60" class="font"><!----><!----><!----><g data-v-423bf9ae="" id="27b5f131-3542-4bdb-b97e-ae9d2b3ecc4b" fill="black" transform="matrix(5.607476235685528,0,0,5.607476235685528,-2.5794350306926788,-0.8411210813458041)"><path d="M4.66 5.97L3.18 6.03L3.18 9.54L4.03 9.71L4.03 9.71Q4.54 9.77 4.96 9.77L4.96 9.77L4.96 9.77Q6.03 9.77 6.70 9.22L6.70 9.22L6.70 9.22Q7.38 8.66 7.38 7.74L7.38 7.74L7.38 7.74Q7.38 6.83 6.67 6.40L6.67 6.40L6.67 6.40Q5.96 5.97 4.66 5.97L4.66 5.97ZM5.22 10.72L2.31 10.64L0.46 10.68L0.46 10.20L1.32 10.04L1.43 8.20L1.43 3.82L1.32 1.98L0.46 1.83L0.46 1.35L2.31 1.38L5.25 1.31L5.25 1.31Q6.71 1.31 7.52 1.82L7.52 1.82L7.52 1.82Q8.33 2.32 8.33 3.35L8.33 3.35L8.33 3.35Q8.33 4.00 7.90 4.56L7.90 4.56L7.90 4.56Q7.47 5.12 6.26 5.30L6.26 5.30L6.26 5.30Q7.82 5.30 8.56 5.90L8.56 5.90L8.56 5.90Q9.31 6.49 9.31 7.49L9.31 7.49L9.31 7.49Q9.31 9.01 8.19 9.87L8.19 9.87L8.19 9.87Q7.07 10.72 5.22 10.72L5.22 10.72ZM3.18 2.31L3.18 5.09L4.21 5.11L4.21 5.11Q5.22 5.11 5.81 4.72L5.81 4.72L5.81 4.72Q6.41 4.33 6.41 3.55L6.41 3.55L6.41 3.55Q6.41 2.87 5.94 2.51L5.94 2.51L5.94 2.51Q5.47 2.16 4.61 2.16L4.61 2.16L4.61 2.16Q4.46 2.16 4.27 2.17L4.27 2.17L4.27 2.17Q4.09 2.18 3.90 2.21L3.90 2.21L3.90 2.21Q3.72 2.24 3.56 2.25L3.56 2.25L3.56 2.25Q3.40 2.26 3.18 2.31L3.18 2.31ZM10.01 1.12L10.01 1.12L10.01 1.12Q10.01 0.73 10.29 0.44L10.29 0.44L10.29 0.44Q10.58 0.15 10.97 0.15L10.97 0.15L10.97 0.15Q11.37 0.15 11.65 0.44L11.65 0.44L11.65 0.44Q11.94 0.73 11.94 1.12L11.94 1.12L11.94 1.12Q11.94 1.53 11.65 1.81L11.65 1.81L11.65 1.81Q11.37 2.10 10.97 2.10L10.97 2.10L10.97 2.10Q10.58 2.10 10.29 1.81L10.29 1.81L10.29 1.81Q10.01 1.53 10.01 1.12ZM11.80 5.09L11.80 7.94L11.80 7.94Q11.80 8.35 11.81 8.72L11.81 8.72L11.81 8.72Q11.82 9.08 11.87 9.53L11.87 9.53L11.87 9.53Q11.91 9.98 11.94 10.04L11.94 10.04L12.69 10.20L12.69 10.68L10.97 10.64L9.26 10.68L9.26 10.20L10.01 10.04L10.08 9.39L10.08 9.39Q10.10 9.09 10.13 8.70L10.13 8.70L10.13 8.70Q10.15 8.32 10.15 7.94L10.15 7.94L10.15 6.41L10.15 6.21L10.15 6.03L10.15 5.89L10.15 5.89Q10.15 5.35 10.10 4.98L10.10 4.98L10.10 4.98Q10.10 4.72 10.08 4.52L10.08 4.52L10.08 4.52Q10.06 4.31 10.02 4.21L10.02 4.21L9.14 4.04L9.14 3.55L9.14 3.55Q9.46 3.51 9.73 3.49L9.73 3.49L9.73 3.49Q10.00 3.46 10.22 3.41L10.22 3.41L11.32 3.17L11.93 3.17L11.82 4.22L11.80 5.09ZM14.17 1.22L13.29 1.05L13.29 0.56L15.44 0.20L16.06 0.20L15.95 1.25L15.93 2.12L15.93 6.23L18.44 4.00L17.92 3.87L17.92 3.40L20.71 3.40L20.71 3.87L19.96 4.04L17.23 6.21L17.23 6.21Q17.54 6.53 18.13 7.17L18.13 7.17L18.13 7.17Q18.43 7.49 19.03 8.15L19.03 8.15L19.03 8.15Q19.29 8.44 19.92 9.09L19.92 9.09L19.92 9.09Q20.66 9.85 20.87 10.07L20.87 10.07L21.40 10.20L21.40 10.68L21.40 10.68Q21.13 10.68 20.88 10.68L20.88 10.68L20.88 10.68Q20.64 10.68 20.31 10.71L20.31 10.71L19.23 10.82L17.60 8.91L15.93 6.98L15.93 7.94L15.93 7.94Q15.93 8.35 15.94 8.72L15.94 8.72L15.94 8.72Q15.95 9.08 16.00 9.53L16.00 9.53L16.00 9.53Q16.05 9.98 16.07 10.04L16.07 10.04L16.82 10.20L16.82 10.68L15.12 10.64L13.40 10.68L13.40 10.20L14.15 10.04L14.23 9.39L14.23 9.39Q14.25 9.09 14.27 8.70L14.27 8.70L14.27 8.70Q14.30 8.32 14.30 7.94L14.30 7.94L14.30 3.42L14.30 3.22L14.30 3.05L14.30 2.91L14.30 2.91Q14.30 2.67 14.29 2.43L14.29 2.43L14.29 2.43Q14.27 2.19 14.24 1.99L14.24 1.99L14.17 1.22ZM27.68 8.42L28.20 8.92L28.20 8.92Q27.95 9.28 27.62 9.60L27.62 9.60L27.62 9.60Q27.29 9.93 26.81 10.23L26.81 10.23L26.81 10.23Q25.87 10.84 24.81 10.84L24.81 10.84L24.81 10.84Q23.09 10.84 22.11 9.85L22.11 9.85L22.11 9.85Q21.14 8.86 21.14 7.11L21.14 7.11L21.14 7.11Q21.14 5.50 22.29 4.36L22.29 4.36L22.29 4.36Q23.45 3.22 25.08 3.22L25.08 3.22L25.08 3.22Q26.43 3.22 27.26 4.02L27.26 4.02L27.26 4.02Q28.08 4.83 28.08 6.08L28.08 6.08L28.08 6.49L22.97 6.49L22.97 6.49Q22.97 8.03 23.53 8.84L23.53 8.84L23.53 8.84Q24.08 9.65 25.27 9.65L25.27 9.65L25.27 9.65Q26.09 9.65 26.73 9.21L26.73 9.21L26.73 9.21Q27.37 8.77 27.68 8.42L27.68 8.42ZM23.02 5.79L23.02 5.79L26.32 5.64L26.32 5.48L26.32 5.48Q26.32 4.77 25.99 4.38L25.99 4.38L25.99 4.38Q25.65 4.00 24.97 4.00L24.97 4.00L24.97 4.00Q24.08 4.00 23.51 4.67L23.51 4.67L23.51 4.67Q23.17 5.10 23.02 5.79ZM38.34 3.38L39.52 3.38L41.33 9.51L42.76 4.00L42.10 3.86L42.10 3.38L43.31 3.42L44.55 3.38L44.55 3.85L44.06 4.00L44.06 4.00Q43.75 4.83 43.30 6.12L43.30 6.12L43.30 6.12Q42.92 7.21 42.86 7.40L42.86 7.40L41.81 10.79L41.03 10.76L40.25 10.79L38.66 5.62L37.13 10.79L36.35 10.76L35.58 10.79L35.58 10.79Q34.99 8.92 34.48 7.39L34.48 7.39L34.48 7.39Q34.05 6.10 33.78 5.29L33.78 5.29L33.78 5.29Q33.65 4.91 33.31 4.00L33.31 4.00L32.67 3.86L32.67 3.38L34.26 3.42L35.84 3.38L35.84 3.85L35.21 4.00L35.21 4.00Q35.36 4.63 35.54 5.36L35.54 5.36L35.54 5.36Q35.72 6.08 35.91 6.74L35.91 6.74L35.91 6.74Q36.32 8.22 36.71 9.47L36.71 9.47L36.71 9.47Q37.11 7.92 37.54 6.43L37.54 6.43L37.54 6.43Q37.94 5.04 38.34 3.38L38.34 3.38ZM49.77 6.87L49.77 6.87L49.28 6.87L49.28 6.87Q48.64 6.87 48.11 7.02L48.11 7.02L48.11 7.02Q47.58 7.17 47.19 7.45L47.19 7.45L47.19 7.45Q46.44 7.91 46.44 8.69L46.44 8.69L46.44 8.69Q46.44 9.04 46.79 9.35L46.79 9.35L46.79 9.35Q47.14 9.65 47.71 9.65L47.71 9.65L47.71 9.65Q48.66 9.65 49.21 8.85L49.21 8.85L49.21 8.85Q49.77 8.04 49.77 6.87ZM49.94 9.04L49.94 9.04L49.94 9.04Q49.24 10.23 48.51 10.54L48.51 10.54L48.51 10.54Q47.77 10.85 47.00 10.85L47.00 10.85L47.00 10.85Q45.98 10.85 45.34 10.28L45.34 10.28L45.34 10.28Q44.70 9.70 44.70 8.89L44.70 8.89L44.70 8.89Q44.70 7.58 46.05 6.83L46.05 6.83L46.05 6.83Q47.39 6.09 49.77 6.09L49.77 6.09L49.77 5.35L49.77 5.35Q49.77 4.65 49.42 4.41L49.42 4.41L49.42 4.41Q49.07 4.17 48.27 4.17L48.27 4.17L48.27 4.17Q47.46 4.17 46.93 4.36L46.93 4.36L46.93 4.36Q46.63 4.47 46.44 4.55L46.44 4.55L46.44 4.55Q46.41 4.56 46.36 4.59L46.36 4.59L46.36 5.28L45.88 5.43L45.18 3.85L46.16 3.54L46.16 3.54Q47.12 3.22 48.60 3.22L48.60 3.22L48.60 3.22Q50.89 3.22 51.22 4.58L51.22 4.58L51.22 4.58Q51.54 5.93 51.54 9.58L51.54 9.58L51.54 9.81L52.27 10.18L52.27 10.68L51.27 10.66L50.85 10.65L50.07 10.69L50.07 10.69Q50.04 10.63 50.02 10.53L50.02 10.53L50.02 10.53Q49.99 10.43 49.99 10.21L49.99 10.21L49.99 10.21Q49.99 9.97 49.98 9.68L49.98 9.68L49.98 9.68Q49.97 9.39 49.94 9.04ZM59.50 8.40L59.50 8.40L59.50 8.40Q59.50 9.38 58.50 10.12L58.50 10.12L58.50 10.12Q57.49 10.85 56.07 10.85L56.07 10.85L56.07 10.85Q55.14 10.85 54.37 10.63L54.37 10.63L54.37 10.63Q53.61 10.41 52.90 9.98L52.90 9.98L52.90 9.98Q53.03 9.83 53.21 9.61L53.21 9.61L53.21 9.61Q53.38 9.39 53.51 9.21L53.51 9.21L53.51 9.21Q53.64 9.03 53.78 8.81L53.78 8.81L53.78 8.81Q53.88 8.65 54.01 8.40L54.01 8.40L54.45 8.63L54.28 9.31L54.28 9.31Q54.50 9.50 55.02 9.71L55.02 9.71L55.02 9.71Q55.52 9.89 56.30 9.89L56.30 9.89L56.30 9.89Q56.97 9.89 57.42 9.61L57.42 9.61L57.42 9.61Q57.87 9.33 57.87 8.81L57.87 8.81L57.87 8.81Q57.87 8.29 57.32 8.04L57.32 8.04L57.32 8.04Q57.06 7.92 56.68 7.79L56.68 7.79L56.68 7.79Q56.30 7.65 55.85 7.51L55.85 7.51L55.85 7.51Q54.89 7.27 54.15 6.81L54.15 6.81L54.15 6.81Q53.40 6.35 53.40 5.39L53.40 5.39L53.40 5.39Q53.40 4.47 54.37 3.84L54.37 3.84L54.37 3.84Q55.33 3.22 56.61 3.22L56.61 3.22L56.61 3.22Q57.33 3.22 58.06 3.35L58.06 3.35L58.06 3.35Q58.37 3.41 58.64 3.47L58.64 3.47L58.64 3.47Q58.91 3.54 59.15 3.62L59.15 3.62L58.56 5.23L58.07 5.15L58.07 4.58L58.07 4.58Q57.78 4.41 57.26 4.25L57.26 4.25L57.26 4.25Q56.75 4.09 56.31 4.09L56.31 4.09L56.31 4.09Q55.64 4.09 55.30 4.36L55.30 4.36L55.30 4.36Q54.95 4.61 54.95 5.05L54.95 5.05L54.95 5.05Q54.95 5.39 55.36 5.67L55.36 5.67L55.36 5.67Q55.76 5.93 56.77 6.17L56.77 6.17L56.77 6.17Q58.30 6.51 58.90 7.04L58.90 7.04L58.90 7.04Q59.50 7.57 59.50 8.40ZM66.74 5.43L66.74 7.94L66.74 7.94Q66.74 8.35 66.75 8.72L66.75 8.72L66.75 8.72Q66.76 9.08 66.81 9.53L66.81 9.53L66.81 9.53Q66.85 9.98 66.88 10.04L66.88 10.04L67.63 10.20L67.63 10.68L65.93 10.64L65.11 10.68L65.11 10.20L65.10 10.04L65.10 6.43L65.10 6.43Q65.10 5.40 64.79 4.90L64.79 4.90L64.79 4.90Q64.52 4.40 63.77 4.40L63.77 4.40L63.77 4.40Q63.02 4.40 62.55 5.04L62.55 5.04L62.55 5.04Q62.14 5.67 62.14 6.73L62.14 6.73L62.14 7.94L62.14 7.94Q62.14 8.42 62.15 8.75L62.15 8.75L62.15 8.75Q62.16 9.08 62.21 9.39L62.21 9.39L62.28 10.04L63.03 10.20L63.03 10.68L61.33 10.64L59.61 10.68L59.61 10.20L60.36 10.04L60.43 9.39L60.43 9.39Q60.46 9.09 60.48 8.70L60.48 8.70L60.48 8.70Q60.50 8.32 60.50 7.94L60.50 7.94L60.50 3.42L60.50 3.22L60.50 3.05L60.50 2.91L60.50 2.91Q60.50 2.36 60.46 1.99L60.46 1.99L60.46 1.99Q60.46 1.73 60.43 1.53L60.43 1.53L60.43 1.53Q60.41 1.32 60.37 1.22L60.37 1.22L59.49 1.05L59.49 0.56L61.65 0.20L62.27 0.20L62.16 1.25L62.14 2.12L62.14 4.48L62.14 4.48Q62.67 3.84 63.29 3.53L63.29 3.53L63.29 3.53Q63.91 3.22 64.61 3.22L64.61 3.22L64.61 3.22Q65.58 3.22 66.16 3.82L66.16 3.82L66.16 3.82Q66.74 4.43 66.74 5.43L66.74 5.43Z"></path></g><!----><!----></svg>