<svg data-v-423bf9ae="" xmlns="http://www.w3.org/2000/svg" viewBox="0 0 584.030568180657 194" class="iconAboveSlogan"><!----><!----><!----><g data-v-423bf9ae="" id="133179f8-92fd-41f5-8605-89b062316e78" fill="#000000" transform="matrix(5.102040717026833,0,0,5.102040717026833,-2.8061240934079024,93.00000381469727)"><path d="M3.18 11.86L3.19 11.93L6.05 11.93L6.05 11.93Q6.40 11.93 6.66 11.87L6.66 11.87L6.66 11.87Q6.93 11.80 7.13 11.62L7.13 11.62L7.13 11.62Q7.34 11.44 7.50 11.12L7.50 11.12L7.50 11.12Q7.67 10.81 7.83 10.32L7.83 10.32L8.44 10.32L7.88 13.58L0.55 13.58L0.55 12.94L0.55 12.94Q2.21 11.51 3.28 10.46L3.28 10.46L3.28 10.46Q4.34 9.42 4.95 8.60L4.95 8.60L4.95 8.60Q5.56 7.78 5.79 7.09L5.79 7.09L5.79 7.09Q6.02 6.40 6.02 5.66L6.02 5.66L6.02 5.66Q6.02 4.63 5.56 4.05L5.56 4.05L5.56 4.05Q5.10 3.46 4.30 3.46L4.30 3.46L4.30 3.46Q3.92 3.46 3.59 3.59L3.59 3.59L3.59 3.59Q3.26 3.72 3.03 3.96L3.03 3.96L3.03 3.96Q2.80 4.20 2.67 4.54L2.67 4.54L2.67 4.54Q2.53 4.87 2.53 5.26L2.53 5.26L2.53 5.26Q2.53 5.96 2.89 6.37L2.89 6.37L2.89 6.37Q3.25 6.78 3.86 6.78L3.86 6.78L3.86 6.78Q3.79 7.18 3.48 7.42L3.48 7.42L3.48 7.42Q3.16 7.66 2.72 7.66L2.72 7.66L2.72 7.66Q2.28 7.66 1.91 7.50L1.91 7.50L1.91 7.50Q1.54 7.35 1.27 7.07L1.27 7.07L1.27 7.07Q0.99 6.79 0.84 6.41L0.84 6.41L0.84 6.41Q0.69 6.02 0.69 5.56L0.69 5.56L0.69 5.56Q0.69 4.93 0.97 4.40L0.97 4.40L0.97 4.40Q1.26 3.88 1.78 3.49L1.78 3.49L1.78 3.49Q2.30 3.09 3.00 2.88L3.00 2.88L3.00 2.88Q3.71 2.66 4.54 2.66L4.54 2.66L4.54 2.66Q5.36 2.66 6.05 2.88L6.05 2.88L6.05 2.88Q6.73 3.11 7.23 3.51L7.23 3.51L7.23 3.51Q7.73 3.91 8.00 4.46L8.00 4.46L8.00 4.46Q8.27 5.01 8.27 5.68L8.27 5.68L8.27 5.68Q8.27 6.52 7.89 7.32L7.89 7.32L7.89 7.32Q7.50 8.12 6.83 8.88L6.83 8.88L6.83 8.88Q6.15 9.63 5.21 10.37L5.21 10.37L5.21 10.37Q4.28 11.12 3.18 11.86L3.18 11.86ZM9.23 10.67L9.23 9.83L14.34 2.66L15.67 2.66L15.67 9.79L15.67 9.79Q16.17 9.77 16.49 9.71L16.49 9.71L16.49 9.71Q16.81 9.65 17.00 9.50L17.00 9.50L17.00 9.50Q17.18 9.35 17.25 9.10L17.25 9.10L17.25 9.10Q17.32 8.85 17.32 8.44L17.32 8.44L17.84 8.44L17.84 11.84L17.32 11.84L17.32 11.84Q17.32 11.47 17.25 11.23L17.25 11.23L17.25 11.23Q17.18 10.99 17.00 10.86L17.00 10.86L17.00 10.86Q16.81 10.72 16.49 10.68L16.49 10.68L16.49 10.68Q16.17 10.63 15.67 10.61L15.67 10.61L15.67 11.05L15.67 11.05Q15.67 11.54 15.71 11.90L15.71 11.90L15.71 11.90Q15.76 12.26 15.90 12.51L15.90 12.51L15.90 12.51Q16.04 12.75 16.30 12.88L16.30 12.88L16.30 12.88Q16.56 13.01 16.97 13.02L16.97 13.02L16.97 13.58L12.17 13.58L12.17 13.02L12.17 13.02Q12.66 13.01 12.96 12.87L12.96 12.87L12.96 12.87Q13.26 12.74 13.42 12.50L13.42 12.50L13.42 12.50Q13.58 12.26 13.64 11.93L13.64 11.93L13.64 11.93Q13.69 11.59 13.69 11.14L13.69 11.14L13.69 10.67L9.23 10.67ZM13.69 9.79L13.69 5.25L13.64 5.25L10.42 9.79L13.69 9.79ZM24.78 2.80L19.73 13.58L18.73 13.58L23.93 2.80L24.78 2.80ZM30.94 4.47L28.28 4.47L28.28 4.47Q27.71 4.47 27.34 4.49L27.34 4.49L27.34 4.49Q26.98 4.52 26.75 4.61L26.75 4.61L26.75 4.61Q26.53 4.70 26.40 4.88L26.40 4.88L26.40 4.88Q26.28 5.05 26.15 5.33L26.15 5.33L25.91 5.88L25.35 5.88L26.39 1.96L26.98 1.96L26.98 1.96Q26.95 2.09 26.93 2.18L26.93 2.18L26.93 2.18Q26.91 2.28 26.91 2.37L26.91 2.37L26.91 2.37Q26.91 2.62 27.15 2.71L27.15 2.71L27.15 2.71Q27.38 2.80 28.03 2.80L28.03 2.80L32.48 2.80L32.48 3.36L32.48 3.36Q31.95 4.45 31.56 5.26L31.56 5.26L31.56 5.26Q31.18 6.06 30.88 6.71L30.88 6.71L30.88 6.71Q30.59 7.35 30.35 7.92L30.35 7.92L30.35 7.92Q30.11 8.48 29.88 9.11L29.88 9.11L29.88 9.11Q29.65 9.73 29.39 10.47L29.39 10.47L29.39 10.47Q29.12 11.21 28.78 12.22L28.78 12.22L28.78 12.22Q28.50 13.03 28.17 13.38L28.17 13.38L28.17 13.38Q27.83 13.72 27.34 13.72L27.34 13.72L27.34 13.72Q26.92 13.72 26.68 13.49L26.68 13.49L26.68 13.49Q26.45 13.26 26.45 12.84L26.45 12.84L26.45 12.84Q26.45 12.66 26.50 12.45L26.50 12.45L26.50 12.45Q26.54 12.25 26.71 11.92L26.71 11.92L26.71 11.92Q26.87 11.59 27.17 11.07L27.17 11.07L27.17 11.07Q27.48 10.54 27.99 9.70L27.99 9.70L27.99 9.70Q28.62 8.67 29.03 7.97L29.03 7.97L29.03 7.97Q29.44 7.28 29.75 6.73L29.75 6.73L29.75 6.73Q30.06 6.17 30.32 5.66L30.32 5.66L30.32 5.66Q30.59 5.15 30.94 4.47L30.94 4.47ZM44.11 10.96L44.17 10.96L47.40 2.80L51.49 2.80L51.49 3.36L51.49 3.36Q51.03 3.36 50.74 3.45L50.74 3.45L50.74 3.45Q50.46 3.54 50.30 3.78L50.30 3.78L50.30 3.78Q50.15 4.02 50.10 4.43L50.10 4.43L50.10 4.43Q50.05 4.84 50.05 5.47L50.05 5.47L50.05 10.91L50.05 10.91Q50.05 11.61 50.11 12.01L50.11 12.01L50.11 12.01Q50.16 12.42 50.33 12.64L50.33 12.64L50.33 12.64Q50.50 12.87 50.81 12.94L50.81 12.94L50.81 12.94Q51.13 13.01 51.65 13.02L51.65 13.02L51.65 13.58L46.38 13.58L46.38 13.02L46.38 13.02Q46.90 13.01 47.22 12.93L47.22 12.93L47.22 12.93Q47.53 12.85 47.70 12.64L47.70 12.64L47.70 12.64Q47.88 12.43 47.94 12.05L47.94 12.05L47.94 12.05Q47.99 11.66 47.99 11.00L47.99 11.00L47.99 4.45L47.92 4.45L44.16 13.72L43.12 13.72L39.23 4.45L39.17 4.45L39.17 10.91L39.17 10.91Q39.17 11.61 39.23 12.01L39.23 12.01L39.23 12.01Q39.28 12.42 39.45 12.64L39.45 12.64L39.45 12.64Q39.62 12.87 39.94 12.94L39.94 12.94L39.94 12.94Q40.25 13.01 40.77 13.02L40.77 13.02L40.77 13.58L36.46 13.58L36.46 13.02L36.46 13.02Q36.97 13.01 37.30 12.93L37.30 12.93L37.30 12.93Q37.62 12.85 37.79 12.64L37.79 12.64L37.79 12.64Q37.97 12.43 38.02 12.05L38.02 12.05L38.02 12.05Q38.08 11.66 38.08 11.00L38.08 11.00L38.08 5.38L38.08 5.38Q38.08 4.79 38.02 4.40L38.02 4.40L38.02 4.40Q37.97 4.00 37.81 3.77L37.81 3.77L37.81 3.77Q37.66 3.54 37.37 3.45L37.37 3.45L37.37 3.45Q37.09 3.36 36.61 3.36L36.61 3.36L36.61 2.80L40.85 2.80L44.11 10.96ZM58.93 11.79L59.32 12.28L59.32 12.28Q58.04 13.72 56.14 13.72L56.14 13.72L56.14 13.72Q55.27 13.72 54.57 13.45L54.57 13.45L54.57 13.45Q53.86 13.17 53.35 12.68L53.35 12.68L53.35 12.68Q52.85 12.18 52.57 11.49L52.57 11.49L52.57 11.49Q52.29 10.81 52.29 9.97L52.29 9.97L52.29 9.97Q52.29 9.10 52.58 8.38L52.58 8.38L52.58 8.38Q52.88 7.66 53.42 7.13L53.42 7.13L53.42 7.13Q53.96 6.61 54.69 6.31L54.69 6.31L54.69 6.31Q55.43 6.02 56.31 6.02L56.31 6.02L56.31 6.02Q57.79 6.02 58.62 6.82L58.62 6.82L58.62 6.82Q59.44 7.62 59.44 9.06L59.44 9.06L59.44 9.06Q59.44 9.28 59.37 9.33L59.37 9.33L59.37 9.33Q59.30 9.38 58.98 9.38L58.98 9.38L54.47 9.38L54.47 9.38Q54.42 9.51 54.42 9.84L54.42 9.84L54.42 9.84Q54.42 11.21 55.01 12.01L55.01 12.01L55.01 12.01Q55.61 12.81 56.63 12.81L56.63 12.81L56.63 12.81Q57.22 12.81 57.80 12.54L57.80 12.54L57.80 12.54Q58.38 12.28 58.93 11.79L58.93 11.79ZM54.57 8.60L56.60 8.60L56.60 8.60Q57.16 8.60 57.32 8.53L57.32 8.53L57.32 8.53Q57.48 8.47 57.48 8.23L57.48 8.23L57.48 8.23Q57.48 7.62 57.13 7.22L57.13 7.22L57.13 7.22Q56.78 6.83 56.25 6.83L56.25 6.83L56.25 6.83Q55.65 6.83 55.18 7.33L55.18 7.33L55.18 7.33Q54.71 7.83 54.57 8.60L54.57 8.60ZM66.98 11.89L67.34 12.42L67.34 12.42Q66.81 13.01 66.02 13.33L66.02 13.33L66.02 13.33Q65.23 13.65 64.30 13.65L64.30 13.65L64.30 13.65Q63.45 13.65 62.75 13.38L62.75 13.38L62.75 13.38Q62.05 13.10 61.54 12.61L61.54 12.61L61.54 12.61Q61.04 12.12 60.77 11.43L60.77 11.43L60.77 11.43Q60.49 10.74 60.49 9.90L60.49 9.90L60.49 9.90Q60.49 9.03 60.79 8.32L60.79 8.32L60.79 8.32Q61.08 7.60 61.61 7.09L61.61 7.09L61.61 7.09Q62.15 6.58 62.89 6.30L62.89 6.30L62.89 6.30Q63.63 6.02 64.53 6.02L64.53 6.02L64.53 6.02Q65.16 6.02 65.69 6.15L65.69 6.15L65.69 6.15Q66.23 6.27 66.62 6.50L66.62 6.50L66.62 6.50Q67.00 6.72 67.23 7.02L67.23 7.02L67.23 7.02Q67.45 7.32 67.45 7.67L67.45 7.67L67.45 7.67Q67.45 8.08 67.22 8.32L67.22 8.32L67.22 8.32Q66.99 8.55 66.60 8.55L66.60 8.55L66.60 8.55Q66.28 8.55 66.03 8.39L66.03 8.39L66.03 8.39Q65.79 8.22 65.55 7.84L65.55 7.84L65.55 7.84Q65.34 7.50 65.19 7.31L65.19 7.31L65.19 7.31Q65.04 7.11 64.92 7.01L64.92 7.01L64.92 7.01Q64.79 6.90 64.67 6.87L64.67 6.87L64.67 6.87Q64.54 6.83 64.36 6.83L64.36 6.83L64.36 6.83Q63.55 6.83 63.10 7.59L63.10 7.59L63.10 7.59Q62.65 8.34 62.65 9.70L62.65 9.70L62.65 9.70Q62.65 11.16 63.19 11.94L63.19 11.94L63.19 11.94Q63.73 12.73 64.74 12.73L64.74 12.73L64.74 12.73Q65.31 12.73 65.88 12.51L65.88 12.51L65.88 12.51Q66.46 12.29 66.98 11.89L66.98 11.89ZM71.26 9.42L71.26 11.28L71.26 11.28Q71.26 11.86 71.29 12.19L71.29 12.19L71.29 12.19Q71.33 12.52 71.45 12.70L71.45 12.70L71.45 12.70Q71.57 12.88 71.81 12.94L71.81 12.94L71.81 12.94Q72.06 12.99 72.48 13.02L72.48 13.02L72.48 13.58L68.07 13.58L68.07 13.02L68.07 13.02Q68.49 12.99 68.74 12.94L68.74 12.94L68.74 12.94Q68.99 12.88 69.12 12.71L69.12 12.71L69.12 12.71Q69.24 12.54 69.28 12.23L69.28 12.23L69.28 12.23Q69.31 11.91 69.31 11.38L69.31 11.38L69.31 5.63L69.31 5.63Q69.31 4.79 69.29 4.30L69.29 4.30L69.29 4.30Q69.27 3.82 69.22 3.57L69.22 3.57L69.22 3.57Q69.17 3.39 69.12 3.28L69.12 3.28L69.12 3.28Q69.06 3.18 68.94 3.12L68.94 3.12L68.94 3.12Q68.82 3.05 68.62 3.03L68.62 3.03L68.62 3.03Q68.42 3.01 68.11 3.01L68.11 3.01L68.11 2.49L71.23 1.96L71.23 7.13L71.29 7.13L71.29 7.13Q71.72 6.55 72.26 6.29L72.26 6.29L72.26 6.29Q72.80 6.02 73.56 6.02L73.56 6.02L73.56 6.02Q74.93 6.02 75.68 6.86L75.68 6.86L75.68 6.86Q76.05 7.28 76.26 7.88L76.26 7.88L76.26 7.88Q76.47 8.47 76.47 9.11L76.47 9.11L76.47 11.28L76.47 11.28Q76.47 11.87 76.50 12.20L76.50 12.20L76.50 12.20Q76.52 12.53 76.64 12.71L76.64 12.71L76.64 12.71Q76.76 12.88 77 12.94L77 12.94L77 12.94Q77.24 12.99 77.66 13.02L77.66 13.02L77.66 13.58L73.28 13.58L73.28 13.02L73.28 13.02Q73.70 13.01 73.94 12.94L73.94 12.94L73.94 12.94Q74.19 12.88 74.32 12.71L74.32 12.71L74.32 12.71Q74.45 12.54 74.49 12.23L74.49 12.23L74.49 12.23Q74.52 11.91 74.52 11.38L74.52 11.38L74.52 9.66L74.52 9.66Q74.52 8.18 74.20 7.56L74.20 7.56L74.20 7.56Q73.88 6.94 73.09 6.94L73.09 6.94L73.09 6.94Q72.25 6.94 71.76 7.56L71.76 7.56L71.76 7.56Q71.53 7.88 71.39 8.36L71.39 8.36L71.39 8.36Q71.26 8.83 71.26 9.42L71.26 9.42ZM82.66 10.92L82.66 9.59L82.66 9.59Q81.48 10.12 80.88 10.58L80.88 10.58L80.88 10.58Q80.29 11.03 80.29 11.52L80.29 11.52L80.29 11.52Q80.29 11.93 80.51 12.17L80.51 12.17L80.51 12.17Q80.74 12.40 81.07 12.40L81.07 12.40L81.07 12.40Q81.41 12.40 81.70 12.29L81.70 12.29L81.70 12.29Q82.00 12.17 82.21 11.97L82.21 11.97L82.21 11.97Q82.42 11.77 82.54 11.50L82.54 11.50L82.54 11.50Q82.66 11.23 82.66 10.92L82.66 10.92ZM80.68 9.70L82.66 8.85L82.66 8.26L82.66 8.26Q82.66 7.45 82.37 7.08L82.37 7.08L82.37 7.08Q82.08 6.71 81.48 6.71L81.48 6.71L81.48 6.71Q81.07 6.71 80.86 6.92L80.86 6.92L80.86 6.92Q80.65 7.14 80.47 7.64L80.47 7.64L80.47 7.64Q80.35 7.99 80.11 8.19L80.11 8.19L80.11 8.19Q79.88 8.39 79.48 8.39L79.48 8.39L79.48 8.39Q79.09 8.39 78.88 8.15L78.88 8.15L78.88 8.15Q78.67 7.91 78.67 7.48L78.67 7.48L78.67 7.48Q78.67 6.80 79.40 6.41L79.40 6.41L79.40 6.41Q80.14 6.02 81.62 6.02L81.62 6.02L81.62 6.02Q83.19 6.02 83.86 6.59L83.86 6.59L83.86 6.59Q84.53 7.15 84.53 8.48L84.53 8.48L84.53 11.55L84.53 11.55Q84.53 12.74 85.01 12.74L85.01 12.74L85.01 12.74Q85.27 12.74 85.50 12.56L85.50 12.56L85.71 12.96L85.71 12.96Q85.51 13.31 85.10 13.52L85.10 13.52L85.10 13.52Q84.69 13.72 84.17 13.72L84.17 13.72L84.17 13.72Q83.52 13.72 83.19 13.33L83.19 13.33L83.19 13.33Q82.85 12.94 82.85 12.22L82.85 12.22L82.78 12.22L82.78 12.22Q82.38 12.95 81.73 13.33L81.73 13.33L81.73 13.33Q81.09 13.71 80.26 13.71L80.26 13.71L80.26 13.71Q79.38 13.71 78.85 13.21L78.85 13.21L78.85 13.21Q78.32 12.71 78.32 11.91L78.32 11.91L78.32 11.91Q78.32 11.30 78.86 10.76L78.86 10.76L78.86 10.76Q79.41 10.22 80.68 9.70L80.68 9.70ZM89.47 9.37L89.47 11.30L89.47 11.30Q89.47 11.87 89.51 12.20L89.51 12.20L89.51 12.20Q89.54 12.53 89.66 12.71L89.66 12.71L89.66 12.71Q89.78 12.88 90.03 12.94L90.03 12.94L90.03 12.94Q90.27 12.99 90.69 13.02L90.69 13.02L90.69 13.58L86.28 13.58L86.28 13.02L86.28 13.02Q86.69 12.99 86.93 12.94L86.93 12.94L86.93 12.94Q87.18 12.88 87.31 12.71L87.31 12.71L87.31 12.71Q87.44 12.54 87.49 12.24L87.49 12.24L87.49 12.24Q87.53 11.93 87.53 11.40L87.53 11.40L87.53 9.65L87.53 9.65Q87.53 8.82 87.50 8.31L87.50 8.31L87.50 8.31Q87.47 7.80 87.43 7.62L87.43 7.62L87.43 7.62Q87.39 7.43 87.32 7.31L87.32 7.31L87.32 7.31Q87.25 7.20 87.11 7.13L87.11 7.13L87.11 7.13Q86.97 7.07 86.76 7.05L86.76 7.05L86.76 7.05Q86.55 7.03 86.23 7.03L86.23 7.03L86.23 6.55L88.93 6.02L89.11 7.25L89.17 7.25L89.17 7.25Q89.63 6.66 90.26 6.34L90.26 6.34L90.26 6.34Q90.89 6.02 91.64 6.02L91.64 6.02L91.64 6.02Q92.54 6.02 93.09 6.26L93.09 6.26L93.09 6.26Q93.65 6.51 94.08 7.08L94.08 7.08L94.08 7.08Q94.32 7.41 94.50 7.92L94.50 7.92L94.50 7.92Q94.68 8.43 94.68 9.32L94.68 9.32L94.68 11.30L94.68 11.30Q94.68 11.87 94.72 12.20L94.72 12.20L94.72 12.20Q94.75 12.53 94.87 12.71L94.87 12.71L94.87 12.71Q94.99 12.88 95.23 12.94L95.23 12.94L95.23 12.94Q95.47 12.99 95.87 13.02L95.87 13.02L95.87 13.58L91.49 13.58L91.49 13.02L91.49 13.02Q91.91 13.01 92.15 12.94L92.15 12.94L92.15 12.94Q92.40 12.88 92.53 12.71L92.53 12.71L92.53 12.71Q92.65 12.54 92.69 12.23L92.69 12.23L92.69 12.23Q92.74 11.91 92.74 11.40L92.74 11.40L92.74 9.49L92.74 9.49Q92.74 8.78 92.65 8.29L92.65 8.29L92.65 8.29Q92.57 7.80 92.38 7.50L92.38 7.50L92.38 7.50Q92.19 7.20 91.88 7.06L91.88 7.06L91.88 7.06Q91.57 6.93 91.11 6.93L91.11 6.93L91.11 6.93Q90.66 6.93 90.34 7.18L90.34 7.18L90.34 7.18Q90.02 7.43 89.78 7.88L89.78 7.88L89.78 7.88Q89.66 8.13 89.56 8.53L89.56 8.53L89.56 8.53Q89.47 8.93 89.47 9.37L89.47 9.37ZM99.65 6.02L99.65 11.28L99.65 11.28Q99.65 11.84 99.69 12.18L99.69 12.18L99.69 12.18Q99.74 12.52 99.86 12.70L99.86 12.70L99.86 12.70Q99.99 12.88 100.23 12.94L100.23 12.94L100.23 12.94Q100.46 13.01 100.87 13.02L100.87 13.02L100.87 13.58L96.46 13.58L96.46 13.02L96.46 13.02Q96.85 13.01 97.10 12.93L97.10 12.93L97.10 12.93Q97.34 12.85 97.47 12.68L97.47 12.68L97.47 12.68Q97.61 12.50 97.66 12.19L97.66 12.19L97.66 12.19Q97.71 11.87 97.71 11.38L97.71 11.38L97.71 9.66L97.71 9.66Q97.71 8.85 97.68 8.32L97.68 8.32L97.68 8.32Q97.65 7.80 97.61 7.60L97.61 7.60L97.61 7.60Q97.54 7.25 97.29 7.14L97.29 7.14L97.29 7.14Q97.05 7.03 96.40 7.03L96.40 7.03L96.40 6.55L99.65 6.02ZM97.59 3.05L97.59 3.05L97.59 3.05Q97.59 2.59 97.91 2.28L97.91 2.28L97.91 2.28Q98.22 1.96 98.67 1.96L98.67 1.96L98.67 1.96Q99.13 1.96 99.45 2.28L99.45 2.28L99.45 2.28Q99.76 2.59 99.76 3.05L99.76 3.05L99.76 3.05Q99.76 3.50 99.45 3.81L99.45 3.81L99.45 3.81Q99.13 4.13 98.67 4.13L98.67 4.13L98.67 4.13Q98.22 4.13 97.91 3.81L97.91 3.81L97.91 3.81Q97.59 3.50 97.59 3.05ZM108.14 11.89L108.50 12.42L108.50 12.42Q107.97 13.01 107.18 13.33L107.18 13.33L107.18 13.33Q106.39 13.65 105.46 13.65L105.46 13.65L105.46 13.65Q104.61 13.65 103.91 13.38L103.91 13.38L103.91 13.38Q103.21 13.10 102.70 12.61L102.70 12.61L102.70 12.61Q102.20 12.12 101.93 11.43L101.93 11.43L101.93 11.43Q101.65 10.74 101.65 9.90L101.65 9.90L101.65 9.90Q101.65 9.03 101.95 8.32L101.95 8.32L101.95 8.32Q102.24 7.60 102.77 7.09L102.77 7.09L102.77 7.09Q103.31 6.58 104.05 6.30L104.05 6.30L104.05 6.30Q104.79 6.02 105.69 6.02L105.69 6.02L105.69 6.02Q106.32 6.02 106.85 6.15L106.85 6.15L106.85 6.15Q107.39 6.27 107.78 6.50L107.78 6.50L107.78 6.50Q108.16 6.72 108.39 7.02L108.39 7.02L108.39 7.02Q108.61 7.32 108.61 7.67L108.61 7.67L108.61 7.67Q108.61 8.08 108.38 8.32L108.38 8.32L108.38 8.32Q108.15 8.55 107.76 8.55L107.76 8.55L107.76 8.55Q107.44 8.55 107.19 8.39L107.19 8.39L107.19 8.39Q106.95 8.22 106.71 7.84L106.71 7.84L106.71 7.84Q106.50 7.50 106.35 7.31L106.35 7.31L106.35 7.31Q106.20 7.11 106.08 7.01L106.08 7.01L106.08 7.01Q105.95 6.90 105.83 6.87L105.83 6.87L105.83 6.87Q105.70 6.83 105.52 6.83L105.52 6.83L105.52 6.83Q104.71 6.83 104.26 7.59L104.26 7.59L104.26 7.59Q103.81 8.34 103.81 9.70L103.81 9.70L103.81 9.70Q103.81 11.16 104.35 11.94L104.35 11.94L104.35 11.94Q104.89 12.73 105.90 12.73L105.90 12.73L105.90 12.73Q106.47 12.73 107.04 12.51L107.04 12.51L107.04 12.51Q107.62 12.29 108.14 11.89L108.14 11.89ZM110.50 13.09L110.19 13.58L109.76 13.58L109.76 11.03L110.35 11.03L110.35 11.03Q110.59 12.04 111.03 12.50L111.03 12.50L111.03 12.50Q111.48 12.96 112.20 12.96L112.20 12.96L112.20 12.96Q112.71 12.96 113.00 12.75L113.00 12.75L113.00 12.75Q113.29 12.53 113.29 12.15L113.29 12.15L113.29 12.15Q113.29 11.76 112.94 11.39L112.94 11.39L112.94 11.39Q112.59 11.02 111.80 10.60L111.80 10.60L111.80 10.60Q110.74 10.02 110.28 9.46L110.28 9.46L110.28 9.46Q109.82 8.89 109.82 8.18L109.82 8.18L109.82 8.18Q109.82 7.71 109.99 7.31L109.99 7.31L109.99 7.31Q110.17 6.92 110.47 6.62L110.47 6.62L110.47 6.62Q110.77 6.33 111.19 6.17L111.19 6.17L111.19 6.17Q111.61 6.01 112.10 6.01L112.10 6.01L112.10 6.01Q112.53 6.01 112.96 6.13L112.96 6.13L112.96 6.13Q113.39 6.26 113.71 6.48L113.71 6.48L113.96 6.15L114.32 6.15L114.32 8.26L113.78 8.26L113.78 8.26Q113.46 7.46 113.11 7.11L113.11 7.11L113.11 7.11Q112.77 6.76 112.28 6.76L112.28 6.76L112.28 6.76Q111.89 6.76 111.66 6.97L111.66 6.97L111.66 6.97Q111.43 7.18 111.43 7.53L111.43 7.53L111.43 7.53Q111.43 7.92 111.77 8.27L111.77 8.27L111.77 8.27Q112.11 8.62 112.91 9.04L112.91 9.04L112.91 9.04Q113.47 9.35 113.88 9.65L113.88 9.65L113.88 9.65Q114.28 9.94 114.53 10.24L114.53 10.24L114.53 10.24Q114.79 10.54 114.90 10.87L114.90 10.87L114.90 10.87Q115.02 11.20 115.02 11.58L115.02 11.58L115.02 11.58Q115.02 12.07 114.84 12.46L114.84 12.46L114.84 12.46Q114.66 12.85 114.32 13.13L114.32 13.13L114.32 13.13Q113.99 13.41 113.52 13.57L113.52 13.57L113.52 13.57Q113.05 13.72 112.48 13.72L112.48 13.72L112.48 13.72Q111.87 13.72 111.36 13.56L111.36 13.56L111.36 13.56Q110.84 13.40 110.50 13.09L110.50 13.09Z"></path></g><!----><g data-v-423bf9ae="" id="9e396556-ee26-4d3d-a6cc-f35c24d1979b" transform="matrix(1.7485234649237875,0,0,1.7485234649237875,213.8893116598694,-33.421052207182996)" stroke="none" fill="#00558D"><path d="M23.516 55.958a7.387 7.387 0 0 0-7.389 7.388 7.39 7.39 0 1 0 7.389-7.388zm0 10.997a3.608 3.608 0 0 1-3.608-3.609 3.607 3.607 0 1 1 7.215 0 3.608 3.608 0 0 1-3.607 3.609zM58.156 55.958a7.387 7.387 0 0 0-7.389 7.388c0 4.081 3.307 7.389 7.389 7.389s7.389-3.308 7.389-7.389a7.387 7.387 0 0 0-7.389-7.388zm0 10.997a3.61 3.61 0 1 1 0-7.219 3.61 3.61 0 0 1 0 7.219z"></path><path d="M74.676 60.199a1.46 1.46 0 0 1 0-2.918h1.281a22.75 22.75 0 0 0-1.088-3.851c-.822.113-1.658.192-2.514.192-6.615 0-12.393-3.525-15.604-8.792H45.28v-14.2c3.724.249 6.638 1.16 8.921 2.599a18.183 18.183 0 0 1 1.916-6.277c-3.467-1.484-7.729-2.306-13.005-2.306-16.924 0-23.544 8.031-26.048 19.899-.329-.014-.65-.047-.983-.047-8.291 0-12.559 5.35-13.964 12.783h2.789a1.459 1.459 0 1 1 0 2.918H1.718a36.559 36.559 0 0 0-.146 3.18h11.875l-.002-.033c0-5.563 4.507-10.07 10.071-10.07 5.561 0 10.07 4.508 10.07 10.07l-.002.033H48.085l-.002-.033c0-5.563 4.512-10.07 10.072-10.07 5.563 0 10.07 4.508 10.07 10.07v.033H76.5c0-1.086-.049-2.147-.141-3.18h-1.683zm-32.87-15.368H24.922c1.604-8.168 5.898-13.816 16.884-14.233v14.233z"></path><path d="M72.355 51.408c-8.859 0-16.07-7.211-16.07-16.073 0-8.86 7.211-16.069 16.07-16.069 8.865 0 16.072 7.209 16.072 16.069.001 8.862-7.206 16.073-16.072 16.073zm0-28.39c-6.791 0-12.316 5.527-12.316 12.317 0 6.796 5.525 12.32 12.316 12.32 6.795 0 12.318-5.524 12.318-12.32.001-6.79-5.523-12.317-12.318-12.317z"></path><path d="M76.891 30.805a1.776 1.776 0 0 1 0-2.517l1.486-1.489a3.365 3.365 0 0 0-3.666.727l-.26.263a3.366 3.366 0 0 0-.729 3.667l-5.248 5.247a3.363 3.363 0 0 0-3.668.729l-.26.259a3.373 3.373 0 0 0-.73 3.669l1.49-1.49a1.78 1.78 0 1 1 2.518 2.518l-1.488 1.49a3.365 3.365 0 0 0 3.666-.729l.26-.262a3.365 3.365 0 0 0 .73-3.667l5.248-5.246a3.369 3.369 0 0 0 3.666-.729l.262-.26a3.377 3.377 0 0 0 .729-3.669l-1.49 1.49a1.783 1.783 0 0 1-2.516-.001z"></path></g><!----><g data-v-423bf9ae="" id="e7e6d623-60a5-4875-965e-c5e29451e5fc" fill="#022239" transform="matrix(1.6240513531228753,0,0,1.6240513531228753,73.85748614289031,192.82054453493333)"><path d="M7.10 15.68L6.38 13.24L2.18 13.24L1.47 15.68L0.21 15.68L3.18 5.88L5.39 5.88L8.36 15.68L7.10 15.68ZM4.37 6.38L4.20 6.38L2.51 12.15L6.06 12.15L4.37 6.38ZM18.94 5.88L21.77 15.18L21.94 15.18L21.94 5.88L23.11 5.88L23.11 15.68L20.76 15.68L17.93 6.38L17.77 6.38L17.77 15.68L16.59 15.68L16.59 5.88L18.94 5.88ZM34.83 15.68L34.83 12.24L34.58 12.24L31.51 5.88L32.83 5.88L35.34 11.23L35.50 11.23L38.01 5.88L39.33 5.88L36.26 12.24L36.01 12.24L36.01 15.68L34.83 15.68ZM47.54 6.97L47.54 5.88L54.43 5.88L54.43 6.97L51.58 6.97L51.58 15.68L50.40 15.68L50.40 6.97L47.54 6.97ZM63.45 6.97L63.45 5.88L69.66 5.88L69.66 6.97L67.14 6.97L67.14 14.59L69.66 14.59L69.66 15.68L63.45 15.68L63.45 14.59L65.97 14.59L65.97 6.97L63.45 6.97ZM78.48 15.68L78.48 5.88L80.72 5.88L82.04 15.18L82.21 15.18L83.52 5.88L85.76 5.88L85.76 15.68L84.67 15.68L84.67 6.38L84.50 6.38L83.19 15.68L81.06 15.68L79.74 6.38L79.58 6.38L79.58 15.68L78.48 15.68ZM94.72 15.68L94.72 5.88L100.66 5.88L100.66 6.97L95.90 6.97L95.90 10.22L100.58 10.22L100.58 11.31L95.90 11.31L95.90 14.59L100.74 14.59L100.74 15.68L94.72 15.68ZM112.28 14.90L112.28 14.90L112.28 14.90Q112.28 14.49 112.57 14.20L112.57 14.20L112.57 14.20Q112.85 13.92 113.26 13.92L113.26 13.92L113.26 13.92Q113.67 13.92 113.95 14.20L113.95 14.20L113.95 14.20Q114.24 14.49 114.24 14.90L114.24 14.90L114.24 16.27L114.24 16.27Q114.24 16.74 113.94 17.05L113.94 17.05L113.94 17.05Q113.64 17.36 113.16 17.36L113.16 17.36L112.45 17.36L112.45 16.60L113.11 16.60L113.11 16.60Q113.48 16.60 113.48 16.18L113.48 16.18L113.48 15.83L113.48 15.83Q113.37 15.88 113.25 15.88L113.25 15.88L113.25 15.88Q112.85 15.88 112.57 15.59L112.57 15.59L112.57 15.59Q112.28 15.30 112.28 14.90ZM147.21 15.68L146.50 13.24L142.30 13.24L141.58 15.68L140.32 15.68L143.29 5.88L145.50 5.88L148.47 15.68L147.21 15.68ZM144.48 6.38L144.31 6.38L142.62 12.15L146.17 12.15L144.48 6.38ZM159.05 5.88L161.88 15.18L162.05 15.18L162.05 5.88L163.23 5.88L163.23 15.68L160.87 15.68L158.05 6.38L157.88 6.38L157.88 15.68L156.70 15.68L156.70 5.88L159.05 5.88ZM174.94 15.68L174.94 12.24L174.69 12.24L171.63 5.88L172.94 5.88L175.45 11.23L175.62 11.23L178.12 5.88L179.44 5.88L176.37 12.24L176.12 12.24L176.12 15.68L174.94 15.68ZM195.23 5.88L194.24 15.68L192.09 15.68L191.18 6.38L191.02 6.38L190.11 15.68L187.96 15.68L186.97 5.88L188.03 5.88L188.97 15.18L189.14 15.18L190.02 5.88L192.18 5.88L193.06 15.18L193.23 15.18L194.17 5.88L195.23 5.88ZM203.41 15.68L203.41 5.88L204.58 5.88L204.58 10.22L208.75 10.22L208.75 5.88L209.93 5.88L209.93 15.68L208.75 15.68L208.75 11.31L204.58 11.31L204.58 15.68L203.41 15.68ZM219.27 15.68L219.27 5.88L225.20 5.88L225.20 6.97L220.44 6.97L220.44 10.22L225.12 10.22L225.12 11.31L220.44 11.31L220.44 14.59L225.29 14.59L225.29 15.68L219.27 15.68ZM240.87 12.15L240.87 15.68L239.69 15.68L239.69 12.40L239.69 12.40Q239.69 12.04 239.53 11.84L239.53 11.84L239.53 11.84Q239.36 11.65 238.94 11.65L238.94 11.65L235.89 11.65L235.89 15.68L234.71 15.68L234.71 5.88L238.21 5.88L238.21 5.88Q238.97 5.88 239.53 6.10L239.53 6.10L239.53 6.10Q240.09 6.31 240.46 6.68L240.46 6.68L240.46 6.68Q240.83 7.04 241.02 7.53L241.02 7.53L241.02 7.53Q241.21 8.01 241.21 8.54L241.21 8.54L241.21 8.96L241.21 8.96Q241.21 9.51 240.91 10.05L240.91 10.05L240.91 10.05Q240.60 10.60 239.97 10.89L239.97 10.89L239.97 11.06L239.97 11.06Q240.39 11.13 240.63 11.40L240.63 11.40L240.63 11.40Q240.87 11.66 240.87 12.15L240.87 12.15ZM235.89 6.97L235.89 10.56L238.07 10.56L238.07 10.56Q239.06 10.56 239.55 10.13L239.55 10.13L239.55 10.13Q240.03 9.70 240.03 8.88L240.03 8.88L240.03 8.62L240.03 8.62Q240.03 7.88 239.55 7.43L239.55 7.43L239.55 7.43Q239.06 6.97 238.07 6.97L238.07 6.97L235.89 6.97ZM250.40 15.68L250.40 5.88L256.34 5.88L256.34 6.97L251.58 6.97L251.58 10.22L256.26 10.22L256.26 11.31L251.58 11.31L251.58 14.59L256.42 14.59L256.42 15.68L250.40 15.68ZM267.96 14.90L267.96 14.90L267.96 14.90Q267.96 14.49 268.25 14.20L268.25 14.20L268.25 14.20Q268.53 13.92 268.94 13.92L268.94 13.92L268.94 13.92Q269.35 13.92 269.63 14.20L269.63 14.20L269.63 14.20Q269.92 14.49 269.92 14.90L269.92 14.90L269.92 14.90Q269.92 15.30 269.63 15.59L269.63 15.59L269.63 15.59Q269.35 15.88 268.94 15.88L268.94 15.88L268.94 15.88Q268.53 15.88 268.25 15.59L268.25 15.59L268.25 15.59Q267.96 15.30 267.96 14.90Z"></path></g></svg>