<svg data-v-423bf9ae="" xmlns="http://www.w3.org/2000/svg" viewBox="0 0 933.5889786367718 720" class="iconAboveSlogan"><!----><!----><!----><g data-v-423bf9ae="" id="6ee25583-f970-4cf1-8464-64bd75fb541b" fill="white" transform="matrix(4.024144910398108,0,0,4.024144910398108,327.0560575212336,628.3657707638856)"><path d="M6.01 13.58L0.53 13.58L0.53 13.05L0.53 13.05Q1.06 13.03 1.39 12.97L1.39 12.97L1.39 12.97Q1.72 12.91 1.90 12.73L1.90 12.73L1.90 12.73Q2.09 12.56 2.15 12.26L2.15 12.26L2.15 12.26Q2.21 11.96 2.21 11.45L2.21 11.45L2.21 4.93L2.21 4.93Q2.21 4.44 2.16 4.14L2.16 4.14L2.16 4.14Q2.11 3.84 1.97 3.66L1.97 3.66L1.97 3.66Q1.82 3.49 1.54 3.42L1.54 3.42L1.54 3.42Q1.26 3.36 0.81 3.33L0.81 3.33L0.81 2.80L5.73 2.80L5.73 2.80Q6.99 2.80 8.06 3.22L8.06 3.22L8.06 3.22Q9.13 3.64 9.90 4.38L9.90 4.38L9.90 4.38Q10.68 5.12 11.12 6.15L11.12 6.15L11.12 6.15Q11.55 7.17 11.55 8.37L11.55 8.37L11.55 8.37Q11.55 9.52 11.14 10.48L11.14 10.48L11.14 10.48Q10.74 11.44 10.00 12.12L10.00 12.12L10.00 12.12Q9.27 12.81 8.25 13.20L8.25 13.20L8.25 13.20Q7.22 13.58 6.01 13.58L6.01 13.58ZM5.70 3.49L3.92 3.49L3.92 3.49Q3.68 3.49 3.68 3.72L3.68 3.72L3.68 11.30L3.68 11.30Q3.68 12.89 5.77 12.89L5.77 12.89L5.77 12.89Q7.69 12.89 8.71 11.75L8.71 11.75L8.71 11.75Q9.73 10.61 9.73 8.40L9.73 8.40L9.73 8.40Q9.73 7.24 9.45 6.33L9.45 6.33L9.45 6.33Q9.17 5.42 8.64 4.79L8.64 4.79L8.64 4.79Q8.12 4.16 7.38 3.82L7.38 3.82L7.38 3.82Q6.64 3.49 5.70 3.49L5.70 3.49ZM15.57 6.02L15.57 11.35L15.57 11.35Q15.57 11.90 15.62 12.23L15.62 12.23L15.62 12.23Q15.67 12.56 15.81 12.75L15.81 12.75L15.81 12.75Q15.95 12.94 16.20 13.01L16.20 13.01L16.20 13.01Q16.45 13.08 16.87 13.09L16.87 13.09L16.87 13.58L12.85 13.58L12.85 13.09L12.85 13.09Q13.27 13.08 13.54 13.00L13.54 13.00L13.54 13.00Q13.80 12.92 13.95 12.75L13.95 12.75L13.95 12.75Q14.10 12.57 14.15 12.26L14.15 12.26L14.15 12.26Q14.20 11.94 14.20 11.45L14.20 11.45L14.20 9.66L14.20 9.66Q14.20 8.85 14.17 8.32L14.17 8.32L14.17 8.32Q14.15 7.80 14.10 7.60L14.10 7.60L14.10 7.60Q14.03 7.28 13.78 7.16L13.78 7.16L13.78 7.16Q13.52 7.04 12.82 7.04L12.82 7.04L12.82 6.55L15.57 6.02ZM13.96 3.18L13.96 3.18L13.96 3.18Q13.96 2.81 14.21 2.56L14.21 2.56L14.21 2.56Q14.46 2.31 14.83 2.31L14.83 2.31L14.83 2.31Q15.19 2.31 15.44 2.56L15.44 2.56L15.44 2.56Q15.69 2.81 15.69 3.18L15.69 3.18L15.69 3.18Q15.69 3.54 15.44 3.79L15.44 3.79L15.44 3.79Q15.19 4.05 14.83 4.05L14.83 4.05L14.83 4.05Q14.46 4.05 14.21 3.79L14.21 3.79L14.21 3.79Q13.96 3.54 13.96 3.18ZM22.04 10.54L22.04 9.44L22.04 9.44Q21.24 9.74 20.68 10.04L20.68 10.04L20.68 10.04Q20.13 10.33 19.80 10.63L19.80 10.63L19.80 10.63Q19.46 10.92 19.31 11.21L19.31 11.21L19.31 11.21Q19.17 11.51 19.17 11.82L19.17 11.82L19.17 11.82Q19.17 12.28 19.47 12.57L19.47 12.57L19.47 12.57Q19.78 12.87 20.29 12.87L20.29 12.87L20.29 12.87Q20.65 12.87 20.96 12.68L20.96 12.68L20.96 12.68Q21.28 12.50 21.52 12.19L21.52 12.19L21.52 12.19Q21.76 11.87 21.90 11.45L21.90 11.45L21.90 11.45Q22.04 11.02 22.04 10.54L22.04 10.54ZM20.02 9.72L22.04 8.83L22.04 8.26L22.04 8.26Q22.04 6.55 20.58 6.55L20.58 6.55L20.58 6.55Q20.34 6.55 20.17 6.59L20.17 6.59L20.17 6.59Q20.01 6.64 19.89 6.73L19.89 6.73L19.89 6.73Q19.78 6.83 19.69 7.01L19.69 7.01L19.69 7.01Q19.60 7.20 19.52 7.46L19.52 7.46L19.52 7.46Q19.36 7.87 19.21 8.00L19.21 8.00L19.21 8.00Q19.07 8.13 18.79 8.13L18.79 8.13L18.79 8.13Q18.09 8.13 18.09 7.43L18.09 7.43L18.09 7.43Q18.09 6.76 18.80 6.39L18.80 6.39L18.80 6.39Q19.52 6.02 20.83 6.02L20.83 6.02L20.83 6.02Q22.23 6.02 22.82 6.52L22.82 6.52L22.82 6.52Q23.41 7.01 23.41 8.20L23.41 8.20L23.41 11.34L23.41 11.34Q23.41 12.94 24.04 12.94L24.04 12.94L24.04 12.94Q24.23 12.94 24.42 12.89L24.42 12.89L24.42 12.89Q24.60 12.84 24.72 12.63L24.72 12.63L24.92 12.96L24.92 12.96Q24.75 13.29 24.30 13.50L24.30 13.50L24.30 13.50Q23.86 13.72 23.37 13.72L23.37 13.72L23.37 13.72Q22.75 13.72 22.45 13.33L22.45 13.33L22.45 13.33Q22.15 12.94 22.15 12.22L22.15 12.22L22.08 12.22L22.08 12.22Q21.71 12.91 21.07 13.31L21.07 13.31L21.07 13.31Q20.43 13.71 19.64 13.71L19.64 13.71L19.64 13.71Q18.76 13.71 18.26 13.26L18.26 13.26L18.26 13.26Q17.75 12.81 17.75 12.05L17.75 12.05L17.75 12.05Q17.75 11.72 17.87 11.41L17.87 11.41L17.87 11.41Q17.99 11.10 18.26 10.82L18.26 10.82L18.26 10.82Q18.52 10.54 18.96 10.27L18.96 10.27L18.96 10.27Q19.39 10.00 20.02 9.72L20.02 9.72ZM28.74 10.57L28.74 10.57L28.74 10.57Q29.33 10.57 29.66 10.04L29.66 10.04L29.66 10.04Q29.99 9.51 29.99 8.54L29.99 8.54L29.99 8.54Q29.99 7.59 29.66 7.06L29.66 7.06L29.66 7.06Q29.33 6.54 28.73 6.54L28.73 6.54L28.73 6.54Q28.13 6.54 27.77 7.07L27.77 7.07L27.77 7.07Q27.41 7.60 27.41 8.53L27.41 8.53L27.41 8.53Q27.41 9.45 27.78 10.01L27.78 10.01L27.78 10.01Q28.14 10.57 28.74 10.57ZM27.97 12.21L27.97 12.21L27.97 12.21Q28.31 12.24 28.59 12.26L28.59 12.26L28.59 12.26Q28.87 12.29 29.14 12.32L29.14 12.32L29.14 12.32Q29.41 12.35 29.69 12.39L29.69 12.39L29.69 12.39Q29.96 12.43 30.28 12.47L30.28 12.47L30.28 12.47Q31.29 12.63 31.90 13.25L31.90 13.25L31.90 13.25Q32.51 13.87 32.51 14.81L32.51 14.81L32.51 14.81Q32.51 15.99 31.58 16.60L31.58 16.60L31.58 16.60Q30.65 17.22 28.88 17.22L28.88 17.22L28.88 17.22Q28.10 17.22 27.45 17.08L27.45 17.08L27.45 17.08Q26.80 16.94 26.33 16.68L26.33 16.68L26.33 16.68Q25.87 16.42 25.61 16.06L25.61 16.06L25.61 16.06Q25.35 15.69 25.35 15.26L25.35 15.26L25.35 15.26Q25.35 14.97 25.45 14.71L25.45 14.71L25.45 14.71Q25.55 14.46 25.72 14.27L25.72 14.27L25.72 14.27Q25.89 14.08 26.12 13.97L26.12 13.97L26.12 13.97Q26.35 13.86 26.60 13.86L26.60 13.86L26.60 13.86Q27.08 13.86 27.45 14.15L27.45 14.15L27.45 14.15Q27.08 14.24 26.84 14.57L26.84 14.57L26.84 14.57Q26.60 14.90 26.60 15.32L26.60 15.32L26.60 15.32Q26.60 15.93 27.21 16.27L27.21 16.27L27.21 16.27Q27.82 16.60 28.94 16.60L28.94 16.60L28.94 16.60Q31.33 16.60 31.33 15.13L31.33 15.13L31.33 15.13Q31.33 14.57 30.95 14.20L30.95 14.20L30.95 14.20Q30.58 13.83 30.06 13.76L30.06 13.76L30.06 13.76Q29.72 13.72 29.36 13.67L29.36 13.67L29.36 13.67Q29.01 13.62 28.66 13.58L28.66 13.58L28.66 13.58Q28.32 13.54 28.03 13.51L28.03 13.51L28.03 13.51Q27.73 13.48 27.55 13.45L27.55 13.45L27.55 13.45Q26.77 13.37 26.36 13.03L26.36 13.03L26.36 13.03Q25.96 12.70 25.96 12.11L25.96 12.11L25.96 12.11Q25.96 11.62 26.36 11.24L26.36 11.24L26.36 11.24Q26.77 10.86 27.38 10.77L27.38 10.77L27.38 10.71L27.38 10.71Q27.08 10.58 26.81 10.35L26.81 10.35L26.81 10.35Q26.54 10.12 26.36 9.83L26.36 9.83L26.36 9.83Q26.17 9.53 26.05 9.19L26.05 9.19L26.05 9.19Q25.94 8.85 25.94 8.48L25.94 8.48L25.94 8.48Q25.94 7.95 26.14 7.50L26.14 7.50L26.14 7.50Q26.35 7.06 26.72 6.73L26.72 6.73L26.72 6.73Q27.09 6.40 27.59 6.21L27.59 6.21L27.59 6.21Q28.10 6.02 28.70 6.02L28.70 6.02L28.70 6.02Q29.32 6.02 29.86 6.21L29.86 6.21L29.86 6.21Q30.41 6.40 30.80 6.76L30.80 6.76L30.80 6.76Q31.28 6.37 31.64 6.20L31.64 6.20L31.64 6.20Q32.00 6.02 32.33 6.02L32.33 6.02L32.33 6.02Q32.83 6.02 33.13 6.25L33.13 6.25L33.13 6.25Q33.43 6.48 33.43 6.87L33.43 6.87L33.43 6.87Q33.43 7.11 33.27 7.25L33.27 7.25L33.27 7.25Q33.11 7.39 32.87 7.39L32.87 7.39L32.87 7.39Q32.68 7.39 32.55 7.32L32.55 7.32L32.55 7.32Q32.42 7.25 32.32 7.17L32.32 7.17L32.32 7.17Q32.21 7.10 32.10 7.03L32.10 7.03L32.10 7.03Q31.99 6.96 31.82 6.96L31.82 6.96L31.82 6.96Q31.49 6.96 31.14 7.20L31.14 7.20L31.14 7.20Q31.47 7.71 31.47 8.50L31.47 8.50L31.47 8.50Q31.47 9.69 30.73 10.37L30.73 10.37L30.73 10.37Q29.99 11.05 28.50 11.16L28.50 11.16L28.50 11.16Q27.65 11.23 27.31 11.34L27.31 11.34L27.31 11.34Q26.98 11.45 26.98 11.75L26.98 11.75L26.98 11.75Q26.98 11.97 27.23 12.07L27.23 12.07L27.23 12.07Q27.48 12.18 27.97 12.21ZM36.32 9.51L36.32 11.38L36.32 11.38Q36.32 11.96 36.34 12.29L36.34 12.29L36.34 12.29Q36.37 12.61 36.49 12.79L36.49 12.79L36.49 12.79Q36.61 12.96 36.84 13.02L36.84 13.02L36.84 13.02Q37.07 13.08 37.48 13.10L37.48 13.10L37.48 13.58L33.81 13.58L33.81 13.10L33.81 13.10Q34.20 13.08 34.43 13.02L34.43 13.02L34.43 13.02Q34.66 12.96 34.79 12.80L34.79 12.80L34.79 12.80Q34.92 12.63 34.95 12.32L34.95 12.32L34.95 12.32Q34.99 12.01 34.99 11.48L34.99 11.48L34.99 9.62L34.99 9.62Q34.99 7.95 34.90 7.59L34.90 7.59L34.90 7.59Q34.86 7.41 34.80 7.29L34.80 7.29L34.80 7.29Q34.73 7.17 34.61 7.10L34.61 7.10L34.61 7.10Q34.48 7.04 34.29 7.02L34.29 7.02L34.29 7.02Q34.09 7 33.78 7L33.78 7L33.78 6.55L36.02 6.02L36.19 7.41L36.25 7.41L36.25 7.41Q36.78 6.75 37.49 6.38L37.49 6.38L37.49 6.38Q38.21 6.02 39.05 6.02L39.05 6.02L39.05 6.02Q39.69 6.02 40.22 6.23L40.22 6.23L40.22 6.23Q40.75 6.44 41.03 6.80L41.03 6.80L41.03 6.80Q41.27 7.13 41.37 7.64L41.37 7.64L41.37 7.64Q41.47 8.15 41.47 9.04L41.47 9.04L41.47 11.38L41.47 11.38Q41.47 11.96 41.50 12.29L41.50 12.29L41.50 12.29Q41.54 12.61 41.65 12.79L41.65 12.79L41.65 12.79Q41.76 12.96 41.99 13.02L41.99 13.02L41.99 13.02Q42.22 13.08 42.60 13.10L42.60 13.10L42.60 13.58L38.98 13.58L38.98 13.10L38.98 13.10Q39.37 13.09 39.60 13.03L39.60 13.03L39.60 13.03Q39.83 12.96 39.95 12.80L39.95 12.80L39.95 12.80Q40.07 12.63 40.10 12.31L40.10 12.31L40.10 12.31Q40.14 12.00 40.14 11.48L40.14 11.48L40.14 9.63L40.14 9.63Q40.14 8.83 40.05 8.29L40.05 8.29L40.05 8.29Q39.97 7.74 39.78 7.41L39.78 7.41L39.78 7.41Q39.59 7.07 39.28 6.92L39.28 6.92L39.28 6.92Q38.98 6.78 38.54 6.78L38.54 6.78L38.54 6.78Q37.91 6.78 37.39 7.10L37.39 7.10L37.39 7.10Q36.86 7.43 36.57 8.01L36.57 8.01L36.57 8.01Q36.50 8.15 36.45 8.27L36.45 8.27L36.45 8.27Q36.40 8.40 36.37 8.57L36.37 8.57L36.37 8.57Q36.34 8.74 36.33 8.95L36.33 8.95L36.33 8.95Q36.32 9.17 36.32 9.51L36.32 9.51ZM47.49 6.02L47.49 6.02L47.49 6.02Q48.29 6.02 49 6.31L49 6.31L49 6.31Q49.71 6.59 50.25 7.10L50.25 7.10L50.25 7.10Q50.79 7.60 51.11 8.29L51.11 8.29L51.11 8.29Q51.42 8.99 51.42 9.81L51.42 9.81L51.42 9.81Q51.42 10.67 51.11 11.38L51.11 11.38L51.11 11.38Q50.79 12.10 50.25 12.61L50.25 12.61L50.25 12.61Q49.71 13.13 49 13.43L49 13.43L49 13.43Q48.29 13.72 47.49 13.72L47.49 13.72L47.49 13.72Q46.70 13.72 46.00 13.43L46.00 13.43L46.00 13.43Q45.29 13.15 44.76 12.63L44.76 12.63L44.76 12.63Q44.23 12.11 43.92 11.39L43.92 11.39L43.92 11.39Q43.61 10.67 43.61 9.81L43.61 9.81L43.61 9.81Q43.61 8.99 43.92 8.29L43.92 8.29L43.92 8.29Q44.23 7.59 44.76 7.08L44.76 7.08L44.76 7.08Q45.29 6.58 46.00 6.30L46.00 6.30L46.00 6.30Q46.70 6.02 47.49 6.02ZM47.49 6.69L47.49 6.69L47.49 6.69Q46.97 6.69 46.54 6.92L46.54 6.92L46.54 6.92Q46.12 7.14 45.82 7.55L45.82 7.55L45.82 7.55Q45.51 7.97 45.35 8.55L45.35 8.55L45.35 8.55Q45.19 9.13 45.19 9.83L45.19 9.83L45.19 9.83Q45.19 10.56 45.35 11.14L45.35 11.14L45.35 11.14Q45.51 11.73 45.82 12.14L45.82 12.14L45.82 12.14Q46.12 12.56 46.54 12.78L46.54 12.78L46.54 12.78Q46.96 13.01 47.49 13.01L47.49 13.01L47.49 13.01Q48.02 13.01 48.45 12.78L48.45 12.78L48.45 12.78Q48.89 12.56 49.20 12.14L49.20 12.14L49.20 12.14Q49.50 11.72 49.67 11.13L49.67 11.13L49.67 11.13Q49.84 10.54 49.84 9.83L49.84 9.83L49.84 9.83Q49.84 9.13 49.67 8.55L49.67 8.55L49.67 8.55Q49.50 7.98 49.20 7.57L49.20 7.57L49.20 7.57Q48.89 7.15 48.45 6.92L48.45 6.92L48.45 6.92Q48.02 6.69 47.49 6.69ZM53.58 13.09L53.30 13.58L52.99 13.58L52.99 11.17L53.34 11.17L53.34 11.17Q53.89 13.15 55.33 13.15L55.33 13.15L55.33 13.15Q55.89 13.15 56.22 12.87L56.22 12.87L56.22 12.87Q56.55 12.60 56.55 12.04L56.55 12.04L56.55 12.04Q56.55 11.83 56.48 11.68L56.48 11.68L56.48 11.68Q56.42 11.54 56.25 11.38L56.25 11.38L56.25 11.38Q56.07 11.21 55.76 11.00L55.76 11.00L55.76 11.00Q55.44 10.79 54.92 10.47L54.92 10.47L54.92 10.47Q54.45 10.18 54.10 9.93L54.10 9.93L54.10 9.93Q53.75 9.67 53.51 9.41L53.51 9.41L53.51 9.41Q53.27 9.16 53.15 8.86L53.15 8.86L53.15 8.86Q53.03 8.57 53.03 8.18L53.03 8.18L53.03 8.18Q53.03 7.70 53.19 7.30L53.19 7.30L53.19 7.30Q53.35 6.90 53.63 6.62L53.63 6.62L53.63 6.62Q53.91 6.34 54.29 6.18L54.29 6.18L54.29 6.18Q54.67 6.02 55.12 6.02L55.12 6.02L55.12 6.02Q55.50 6.02 55.90 6.14L55.90 6.14L55.90 6.14Q56.31 6.26 56.62 6.45L56.62 6.45L56.90 6.16L57.16 6.16L57.16 8.18L56.80 8.18L56.80 8.18Q56.49 7.32 56.13 6.96L56.13 6.96L56.13 6.96Q55.76 6.59 55.23 6.59L55.23 6.59L55.23 6.59Q54.75 6.59 54.47 6.85L54.47 6.85L54.47 6.85Q54.18 7.10 54.18 7.55L54.18 7.55L54.18 7.55Q54.18 7.78 54.26 7.96L54.26 7.96L54.26 7.96Q54.33 8.13 54.50 8.30L54.50 8.30L54.50 8.30Q54.67 8.47 54.93 8.64L54.93 8.64L54.93 8.64Q55.19 8.82 55.55 9.04L55.55 9.04L55.55 9.04Q56.15 9.42 56.58 9.72L56.58 9.72L56.58 9.72Q57.01 10.01 57.27 10.30L57.27 10.30L57.27 10.30Q57.54 10.58 57.67 10.89L57.67 10.89L57.67 10.89Q57.79 11.20 57.79 11.59L57.79 11.59L57.79 11.59Q57.79 12.59 57.15 13.15L57.15 13.15L57.15 13.15Q56.50 13.72 55.45 13.72L55.45 13.72L55.45 13.72Q54.36 13.72 53.58 13.09L53.58 13.09ZM61.64 6.02L61.64 11.35L61.64 11.35Q61.64 11.90 61.69 12.23L61.69 12.23L61.69 12.23Q61.74 12.56 61.88 12.75L61.88 12.75L61.88 12.75Q62.02 12.94 62.27 13.01L62.27 13.01L62.27 13.01Q62.52 13.08 62.94 13.09L62.94 13.09L62.94 13.58L58.93 13.58L58.93 13.09L58.93 13.09Q59.35 13.08 59.61 13.00L59.61 13.00L59.61 13.00Q59.88 12.92 60.03 12.75L60.03 12.75L60.03 12.75Q60.17 12.57 60.22 12.26L60.22 12.26L60.22 12.26Q60.27 11.94 60.27 11.45L60.27 11.45L60.27 9.66L60.27 9.66Q60.27 8.85 60.25 8.32L60.25 8.32L60.25 8.32Q60.23 7.80 60.17 7.60L60.17 7.60L60.17 7.60Q60.10 7.28 59.85 7.16L59.85 7.16L59.85 7.16Q59.60 7.04 58.90 7.04L58.90 7.04L58.90 6.55L61.64 6.02ZM60.03 3.18L60.03 3.18L60.03 3.18Q60.03 2.81 60.28 2.56L60.28 2.56L60.28 2.56Q60.54 2.31 60.90 2.31L60.90 2.31L60.90 2.31Q61.26 2.31 61.52 2.56L61.52 2.56L61.52 2.56Q61.77 2.81 61.77 3.18L61.77 3.18L61.77 3.18Q61.77 3.54 61.52 3.79L61.52 3.79L61.52 3.79Q61.26 4.05 60.90 4.05L60.90 4.05L60.90 4.05Q60.54 4.05 60.28 3.79L60.28 3.79L60.28 3.79Q60.03 3.54 60.03 3.18ZM64.71 13.09L64.43 13.58L64.12 13.58L64.12 11.17L64.47 11.17L64.47 11.17Q65.02 13.15 66.46 13.15L66.46 13.15L66.46 13.15Q67.02 13.15 67.35 12.87L67.35 12.87L67.35 12.87Q67.68 12.60 67.68 12.04L67.68 12.04L67.68 12.04Q67.68 11.83 67.61 11.68L67.61 11.68L67.61 11.68Q67.55 11.54 67.38 11.38L67.38 11.38L67.38 11.38Q67.20 11.21 66.89 11.00L66.89 11.00L66.89 11.00Q66.57 10.79 66.05 10.47L66.05 10.47L66.05 10.47Q65.58 10.18 65.23 9.93L65.23 9.93L65.23 9.93Q64.88 9.67 64.64 9.41L64.64 9.41L64.64 9.41Q64.40 9.16 64.28 8.86L64.28 8.86L64.28 8.86Q64.16 8.57 64.16 8.18L64.16 8.18L64.16 8.18Q64.16 7.70 64.32 7.30L64.32 7.30L64.32 7.30Q64.48 6.90 64.76 6.62L64.76 6.62L64.76 6.62Q65.04 6.34 65.42 6.18L65.42 6.18L65.42 6.18Q65.80 6.02 66.25 6.02L66.25 6.02L66.25 6.02Q66.63 6.02 67.03 6.14L67.03 6.14L67.03 6.14Q67.44 6.26 67.75 6.45L67.75 6.45L68.03 6.16L68.29 6.16L68.29 8.18L67.93 8.18L67.93 8.18Q67.62 7.32 67.26 6.96L67.26 6.96L67.26 6.96Q66.89 6.59 66.36 6.59L66.36 6.59L66.36 6.59Q65.88 6.59 65.60 6.85L65.60 6.85L65.60 6.85Q65.31 7.10 65.31 7.55L65.31 7.55L65.31 7.55Q65.31 7.78 65.39 7.96L65.39 7.96L65.39 7.96Q65.46 8.13 65.63 8.30L65.63 8.30L65.63 8.30Q65.80 8.47 66.06 8.64L66.06 8.64L66.06 8.64Q66.32 8.82 66.68 9.04L66.68 9.04L66.68 9.04Q67.28 9.42 67.71 9.72L67.71 9.72L67.71 9.72Q68.14 10.01 68.40 10.30L68.40 10.30L68.40 10.30Q68.67 10.58 68.80 10.89L68.80 10.89L68.80 10.89Q68.92 11.20 68.92 11.59L68.92 11.59L68.92 11.59Q68.92 12.59 68.28 13.15L68.28 13.15L68.28 13.15Q67.63 13.72 66.58 13.72L66.58 13.72L66.58 13.72Q65.49 13.72 64.71 13.09L64.71 13.09Z"></path></g><!----><g data-v-423bf9ae="" id="338eac91-8961-4c05-9ac5-0237510c0ad9" transform="matrix(2.6345177544487846,0,0,2.6345177544487846,0.20564767061273415,0.6685357432900219)" stroke="none" fill="white"><path d="M122.121 227.824a9.278 9.278 0 0 0 9.295 9.283h18.565c5.14 0 9.298-4.152 9.298-9.283v-19.656H307.92v19.656a9.279 9.279 0 0 0 9.288 9.283h18.574c5.14 0 9.297-4.152 9.297-9.283v-19.656h9.289v-26.797H112.831v26.797h9.29v19.656zM354.367 128.898s-3.502-1.162-9.759-2.906l-29.864-79.693s-62.02-10.318-81.133-10.318c-19.126 0-81.14 10.318-81.14 10.318l-29.873 79.693c-6.267 1.744-9.768 2.906-9.768 2.906v47.316h241.536v-47.316zm-205.95 36.973c-8.653 0-15.657-7.008-15.657-15.654 0-8.648 7.004-15.658 15.657-15.658 8.64 0 15.653 7.01 15.653 15.658 0 8.646-7.013 15.654-15.653 15.654zm-3.621-46.291l21.294-56.693c14.22-2.287 53.173-8.314 67.521-8.314 14.335 0 53.296 6.027 67.506 8.299l21.256 56.709s-56.331-9.254-88.774-9.254c-32.455-.001-88.803 9.253-88.803 9.253zm173.985 46.291c-8.64 0-15.649-7.008-15.649-15.654 0-8.648 7.01-15.658 15.649-15.658 8.653 0 15.655 7.01 15.655 15.658.001 8.646-7.001 15.654-15.655 15.654zM.966 104.045v-.002l.003.005v.003a.016.016 0 0 1 .004.007c1.157 2.695 2.883 4.502 4.601 5.94 2.209 1.8 4.586 3.125 7.066 4.256.942.43 1.899.835 2.869 1.224 10.455 4.076 22.665 5.962 22.943 6.031.431.07.859.104 1.282.104a8 8 0 0 0 1.264-15.899c-.002 0-.347-.056-1.062-.186-2.495-.443-9.049-1.74-14.947-3.652-2.218-.711-4.341-1.525-6.029-2.322a23.137 23.137 0 0 1-1.49-.764 14.256 14.256 0 0 1-1.18-.733c.87-4.629 1.896-8.58 3.005-11.943l5.024 13.428c.421.146.845.291 1.281.431a82.9 82.9 0 0 0 2.352.721L21.537 83.55l33.529-12.546 3.859 10.314H72.88v3H60.049l12.532 33.496-33.529 12.545-2.69-7.189c-2.99-.545-7.1-1.39-11.526-2.58v104.107c0 6.83 5.537 12.363 12.363 12.363 6.828 0 12.365-5.533 12.365-12.363v-90.271h4.635v90.271c0 6.83 5.537 12.363 12.363 12.363 6.828 0 12.365-5.533 12.365-12.363V112.911a48.02 48.02 0 0 1-4.571 1.084l-.713-1.906c6.562-1.156 12.334-3.741 16.926-6.17a73.614 73.614 0 0 0 1.608-.89c5.167-2.93 8.476-5.57 8.71-5.749.018-.014.032-.03.05-.045.137-.111.266-.229.393-.348.07-.065.145-.128.211-.195.104-.103.199-.213.297-.321.082-.091.166-.179.243-.272.069-.085.132-.176.198-.264.092-.122.186-.242.27-.368.049-.072.09-.148.136-.223.09-.145.181-.289.261-.438.053-.098.096-.2.145-.3.062-.128.127-.254.182-.385.078-.185.144-.374.207-.565.016-.048.037-.095.052-.144.15-.48.255-.977.312-1.486l.002-.01a8.14 8.14 0 0 0 .04-.628c.002-.053.007-.105.009-.158.002-.161-.008-.323-.016-.486-.006-.106-.007-.211-.016-.317-.012-.124-.031-.249-.049-.374-.02-.144-.037-.287-.064-.43-.006-.028-.007-.057-.013-.085-.085-.342-1.883-9.385-6.328-19.03-2.255-4.83-5.144-9.862-9.301-14.115-4.071-4.206-10.005-7.802-17.187-7.784-.332 0-.657.026-.979.066h-14.33l-2.482 14.41h-2.5l-2.48-14.409H33.818a7.989 7.989 0 0 0-1.463-.05c-1.367.044-8.041.968-14.947 7.643C10.484 64.819 3.689 76.637.174 97.265c-.11.643-.176 1.331-.174 2.04-.006 1.628.351 3.21.904 4.572.023.056.038.112.062.168zm23.869-24.932l-3.337 1.248c1.105-2.487 2.238-4.521 3.337-6.182v4.934zM86.766 89.63a58.66 58.66 0 0 1-4.21 2.428c-4.431 2.366-10.021 4.405-14.683 4.611l-.732-1.959c3.225-.006 7.484-1.149 11.786-3.103V72.186c2.51 3.509 4.777 8.348 6.272 12.625a84.23 84.23 0 0 1 1.567 4.819zM49.803 44.714c11.252 1.821 21.896-5.042 25.114-15.657a62.402 62.402 0 0 1-6.182-1.673c-11.087-3.61-19.134-9.486-18.262-13.26.95 3.66 9.329 7.711 19.996 9.438 8.05 1.303 15.293.943 19.247-.676 1.805-.739 2.925-1.739 3.123-2.963.633-3.907-8.358-8.613-20.08-10.511-.4-.065-.794-.116-1.191-.172A22.412 22.412 0 0 0 56.993.293c-12.266-1.986-23.82 6.349-25.806 18.615-1.986 12.268 6.349 23.82 18.616 25.806z"></path></g><!----><g data-v-423bf9ae="" id="77f5cc67-c245-4c40-b0e7-c97d166f6c24" fill="white" transform="matrix(0.5913435272684042,0,0,0.5913435272684042,364.14313252432123,736.445433105113)"><path d="M2.04 16.24L2.04 16.24L2.04 16.24Q1.37 16.04 1.11 15.85L1.11 15.85L1.11 15.85Q0.85 15.65 0.85 15.36L0.85 15.36L0.85 15.36Q0.85 15.13 0.98 14.73L0.98 14.73L0.98 14.73Q1.11 14.32 1.35 13.77L1.35 13.77L1.35 13.77Q1.60 13.22 1.94 12.54L1.94 12.54L1.94 12.54Q2.28 11.87 2.72 11.10L2.72 11.10L2.72 11.10Q2.35 11.09 2.06 11.08L2.06 11.08L2.06 11.08Q1.78 11.07 1.60 11.07L1.60 11.07L1.60 11.07Q1.68 10.86 2.07 10.71L2.07 10.71L2.07 10.71Q2.46 10.56 3.11 10.44L3.11 10.44L3.11 10.44Q3.65 9.53 4.28 8.71L4.28 8.71L4.28 8.71Q4.90 7.88 5.53 7.19L5.53 7.19L5.53 7.19Q6.16 6.50 6.79 5.97L6.79 5.97L6.79 5.97Q7.42 5.45 7.99 5.14L7.99 5.14L7.99 5.14Q8.01 5.04 8.02 4.97L8.02 4.97L8.02 4.97Q8.02 4.90 8.02 4.87L8.02 4.87L8.02 4.87Q8.22 4.87 8.55 4.97L8.55 4.97L8.55 4.97Q8.88 5.07 9.19 5.21L9.19 5.21L9.19 5.21Q9.51 5.35 9.75 5.49L9.75 5.49L9.75 5.49Q10.00 5.64 10.02 5.74L10.02 5.74L10.02 5.74Q9.56 6.55 9.11 8.17L9.11 8.17L9.11 8.17Q8.67 9.79 8.37 12.04L8.37 12.04L8.37 12.04Q8.30 12.60 8.25 13.31L8.25 13.31L8.25 13.31Q8.20 14.03 8.20 14.91L8.20 14.91L8.20 14.91Q8.20 15.22 8.20 15.54L8.20 15.54L8.20 15.54Q8.20 15.86 8.23 16.21L8.23 16.21L8.23 16.21Q8.20 16.23 8.18 16.23L8.18 16.23L8.18 16.23Q8.15 16.23 8.06 16.23L8.06 16.23L8.06 16.23Q7.87 16.23 7.61 16.16L7.61 16.16L7.61 16.16Q7.35 16.10 7.11 16.01L7.11 16.01L7.11 16.01Q6.86 15.92 6.69 15.81L6.69 15.81L6.69 15.81Q6.51 15.69 6.47 15.61L6.47 15.61L6.47 15.61Q6.45 15.43 6.45 15.25L6.45 15.25L6.45 15.25Q6.45 15.08 6.45 14.88L6.45 14.88L6.45 14.88Q6.45 14.01 6.52 13.12L6.52 13.12L6.52 13.12Q6.58 12.22 6.73 11.27L6.73 11.27L6.73 11.27Q6.54 11.26 6.22 11.23L6.22 11.23L6.22 11.23Q5.89 11.21 5.50 11.20L5.50 11.20L5.50 11.20Q5.10 11.19 4.64 11.16L4.64 11.16L4.64 11.16Q4.19 11.14 3.75 11.13L3.75 11.13L3.75 11.13Q3.42 11.76 3.12 12.38L3.12 12.38L3.12 12.38Q2.83 13.01 2.62 13.64L2.62 13.64L2.62 13.64Q2.38 14.31 2.23 14.98L2.23 14.98L2.23 14.98Q2.09 15.65 2.04 16.24ZM7.45 7.83L7.45 7.83L7.45 7.83Q7.50 7.63 7.58 7.29L7.58 7.29L7.58 7.29Q7.66 6.94 7.73 6.57L7.73 6.57L7.73 6.57Q7.38 6.69 6.95 7.03L6.95 7.03L6.95 7.03Q6.52 7.36 6.07 7.86L6.07 7.86L6.07 7.86Q5.61 8.36 5.15 8.98L5.15 8.98L5.15 8.98Q4.68 9.60 4.24 10.30L4.24 10.30L4.24 10.30Q5.42 10.21 6.92 10.18L6.92 10.18L6.92 10.18Q7.03 9.59 7.16 9.01L7.16 9.01L7.16 9.01Q7.29 8.43 7.45 7.83ZM16.95 14.28L16.95 14.28L16.95 14.28Q16.95 13.66 17.25 12.55L17.25 12.55L17.25 12.55Q17.54 11.44 18.07 9.95L18.07 9.95L18.07 9.95Q18.94 7.59 19.70 6.01L19.70 6.01L19.70 6.01Q20.47 4.44 21.20 3.56L21.20 3.56L21.20 3.56Q21.36 3.58 21.61 3.70L21.61 3.70L21.61 3.70Q21.85 3.81 22.09 3.94L22.09 3.94L22.09 3.94Q22.33 4.07 22.52 4.21L22.52 4.21L22.52 4.21Q22.71 4.35 22.76 4.44L22.76 4.44L22.76 4.44Q21.67 5.73 20.85 7.21L20.85 7.21L20.85 7.21Q20.02 8.69 19.33 10.61L19.33 10.61L19.33 10.61Q18.75 12.26 18.44 13.59L18.44 13.59L18.44 13.59Q18.13 14.91 18.13 15.79L18.13 15.79L18.13 15.79Q18.13 16.03 18.13 16.09L18.13 16.09L18.13 16.09Q18.13 16.14 18.14 16.20L18.14 16.20L18.14 16.20Q17.95 16.17 17.81 16.10L17.81 16.10L17.81 16.10Q17.67 16.03 17.63 15.93L17.63 15.93L17.63 15.93Q17.60 15.86 17.47 15.73L17.47 15.73L17.47 15.73Q17.35 15.60 17.25 15.53L17.25 15.53L17.25 15.53Q17.12 15.44 17.04 15.09L17.04 15.09L17.04 15.09Q16.95 14.73 16.95 14.28ZM27.26 14.28L27.26 14.28L27.26 14.28Q27.26 13.66 27.55 12.55L27.55 12.55L27.55 12.55Q27.85 11.44 28.38 9.95L28.38 9.95L28.38 9.95Q29.25 7.59 30.01 6.01L30.01 6.01L30.01 6.01Q30.77 4.44 31.50 3.56L31.50 3.56L31.50 3.56Q31.67 3.58 31.91 3.70L31.91 3.70L31.91 3.70Q32.16 3.81 32.40 3.94L32.40 3.94L32.40 3.94Q32.63 4.07 32.82 4.21L32.82 4.21L32.82 4.21Q33.01 4.35 33.07 4.44L33.07 4.44L33.07 4.44Q31.98 5.73 31.15 7.21L31.15 7.21L31.15 7.21Q30.32 8.69 29.64 10.61L29.64 10.61L29.64 10.61Q29.05 12.26 28.74 13.59L28.74 13.59L28.74 13.59Q28.43 14.91 28.43 15.79L28.43 15.79L28.43 15.79Q28.43 16.03 28.43 16.09L28.43 16.09L28.43 16.09Q28.43 16.14 28.45 16.20L28.45 16.20L28.45 16.20Q28.25 16.17 28.11 16.10L28.11 16.10L28.11 16.10Q27.97 16.03 27.93 15.93L27.93 15.93L27.93 15.93Q27.90 15.86 27.78 15.73L27.78 15.73L27.78 15.73Q27.65 15.60 27.55 15.53L27.55 15.53L27.55 15.53Q27.43 15.44 27.34 15.09L27.34 15.09L27.34 15.09Q27.26 14.73 27.26 14.28ZM50.74 6.69L50.74 6.69L50.74 6.69Q50.18 6.69 49.88 6.38L49.88 6.38L49.88 6.38Q49.57 6.06 49.57 5.61L49.57 5.61L49.57 5.61Q49.57 5.50 49.61 5.35L49.61 5.35L49.61 5.35Q49.64 5.19 49.70 5.08L49.70 5.08L49.70 5.08Q49.88 5.17 50.24 5.20L50.24 5.20L50.24 5.20Q50.60 5.24 51.07 5.24L51.07 5.24L51.07 5.24Q51.79 5.24 52.69 5.17L52.69 5.17L52.69 5.17Q53.59 5.11 54.42 5.04L54.42 5.04L54.42 5.04Q55.24 4.97 55.87 4.91L55.87 4.91L55.87 4.91Q56.50 4.84 56.69 4.84L56.69 4.84L56.69 4.84Q57.20 4.84 57.44 5.23L57.44 5.23L57.44 5.23Q57.67 5.61 57.78 6.26L57.78 6.26L57.78 6.26Q57.41 6.23 57.06 6.21L57.06 6.21L57.06 6.21Q56.70 6.19 56.45 6.19L56.45 6.19L56.45 6.19Q56.00 6.19 55.55 6.22L55.55 6.22L55.55 6.22Q55.09 6.24 54.63 6.30L54.63 6.30L54.63 6.30Q54.43 6.71 54.19 7.26L54.19 7.26L54.19 7.26Q53.96 7.81 53.73 8.41L53.73 8.41L53.73 8.41Q53.49 9.02 53.28 9.61L53.28 9.61L53.28 9.61Q53.07 10.21 52.92 10.68L52.92 10.68L52.92 10.68Q52.61 11.61 52.38 12.39L52.38 12.39L52.38 12.39Q52.15 13.17 51.98 13.85L51.98 13.85L51.98 13.85Q51.80 14.53 51.67 15.15L51.67 15.15L51.67 15.15Q51.55 15.76 51.45 16.35L51.45 16.35L51.45 16.35Q50.51 16.21 49.88 15.18L49.88 15.18L49.88 15.18Q49.99 14.74 50.16 14.23L50.16 14.23L50.16 14.23Q50.32 13.72 50.53 13.07L50.53 13.07L50.53 13.07Q50.75 12.42 51.04 11.59L51.04 11.59L51.04 11.59Q51.34 10.77 51.72 9.72L51.72 9.72L51.72 9.72Q51.86 9.32 52.01 8.90L52.01 8.90L52.01 8.90Q52.16 8.47 52.31 8.05L52.31 8.05L52.31 8.05Q52.46 7.63 52.58 7.24L52.58 7.24L52.58 7.24Q52.70 6.85 52.78 6.52L52.78 6.52L52.78 6.52Q52.19 6.59 51.67 6.64L51.67 6.64L51.67 6.64Q51.14 6.69 50.74 6.69ZM66.84 13.01L66.84 13.01L66.84 13.01Q66.51 14.03 66.19 14.87L66.19 14.87L66.19 14.87Q65.87 15.71 65.51 16.41L65.51 16.41L65.51 16.41Q65.14 17.12 64.72 17.72L64.72 17.72L64.72 17.72Q64.30 18.31 63.80 18.84L63.80 18.84L63.80 18.84Q63.15 19.52 62.47 19.87L62.47 19.87L62.47 19.87Q61.78 20.23 61.10 20.23L61.10 20.23L61.10 20.23Q60.75 20.23 60.40 20.15L60.40 20.15L60.40 20.15Q60.06 20.08 59.76 19.94L59.76 19.94L59.76 19.94Q59.46 19.81 59.23 19.64L59.23 19.64L59.23 19.64Q59.00 19.46 58.90 19.26L58.90 19.26L58.90 19.26Q58.90 19.10 59.09 18.97L59.09 18.97L59.09 18.97Q59.26 19.12 59.37 19.21L59.37 19.21L59.37 19.21Q59.49 19.29 59.59 19.35L59.59 19.35L59.59 19.35Q59.70 19.40 59.82 19.42L59.82 19.42L59.82 19.42Q59.93 19.43 60.09 19.43L60.09 19.43L60.09 19.43Q60.89 19.43 61.65 18.96L61.65 18.96L61.65 18.96Q62.41 18.49 63.09 17.63L63.09 17.63L63.09 17.63Q63.77 16.77 64.33 15.55L64.33 15.55L64.33 15.55Q64.89 14.32 65.28 12.81L65.28 12.81L65.28 12.81Q65.10 13.09 64.83 13.50L64.83 13.50L64.83 13.50Q64.57 13.90 64.25 14.30L64.25 14.30L64.25 14.30Q63.92 14.70 63.58 15.02L63.58 15.02L63.58 15.02Q63.24 15.34 62.92 15.46L62.92 15.46L62.92 15.46Q62.69 15.44 62.45 15.37L62.45 15.37L62.45 15.37Q62.20 15.29 61.99 15.15L61.99 15.15L61.99 15.15Q61.77 15.01 61.60 14.81L61.60 14.81L61.60 14.81Q61.43 14.62 61.38 14.36L61.38 14.36L61.38 14.36Q61.38 13.96 61.40 13.71L61.40 13.71L61.40 13.71Q61.43 13.47 61.50 13.17L61.50 13.17L61.50 13.17Q61.63 12.64 61.87 11.97L61.87 11.97L61.87 11.97Q62.12 11.30 62.45 10.65L62.45 10.65L62.45 10.65Q62.78 10.00 63.18 9.43L63.18 9.43L63.18 9.43Q63.57 8.86 64.01 8.54L64.01 8.54L64.01 8.54Q64.12 8.54 64.29 8.56L64.29 8.56L64.29 8.56Q64.46 8.58 64.64 8.64L64.64 8.64L64.64 8.64Q64.82 8.69 64.99 8.77L64.99 8.77L64.99 8.77Q65.16 8.85 65.28 8.97L65.28 8.97L65.28 8.97Q65.13 9.11 64.61 9.91L64.61 9.91L64.61 9.91Q64.09 10.71 63.46 12.21L63.46 12.21L63.46 12.21Q63.39 12.36 63.29 12.66L63.29 12.66L63.29 12.66Q63.20 12.95 63.11 13.27L63.11 13.27L63.11 13.27Q63.01 13.59 62.94 13.90L62.94 13.90L62.94 13.90Q62.87 14.21 62.87 14.39L62.87 14.39L62.87 14.39Q62.87 14.50 62.91 14.56L62.91 14.56L62.91 14.56Q62.94 14.62 62.97 14.64L62.97 14.64L62.97 14.64Q63.22 14.60 63.64 14.23L63.64 14.23L63.64 14.23Q64.06 13.86 64.60 13.08L64.60 13.08L64.60 13.08Q64.93 12.57 65.21 12.07L65.21 12.07L65.21 12.07Q65.49 11.58 65.77 11.07L65.77 11.07L65.77 11.07Q66.04 10.57 66.33 10.04L66.33 10.04L66.33 10.04Q66.63 9.51 66.96 8.95L66.96 8.95L66.96 8.95Q67.14 8.95 67.35 8.99L67.35 8.99L67.35 8.99Q67.56 9.03 67.76 9.09L67.76 9.09L67.76 9.09Q67.96 9.16 68.10 9.23L68.10 9.23L68.10 9.23Q68.25 9.31 68.32 9.39L68.32 9.39L68.32 9.39Q67.89 10.32 67.51 11.20L67.51 11.20L67.51 11.20Q67.13 12.08 66.84 13.01ZM74.40 19.81L74.40 19.81L74.40 19.81Q74.20 19.75 74.17 19.39L74.17 19.39L74.17 19.39Q74.12 19.21 74.09 18.96L74.09 18.96L74.09 18.96Q74.07 18.70 74.07 18.38L74.07 18.38L74.07 18.38Q74.07 18.09 74.17 17.58L74.17 17.58L74.17 17.58Q74.27 17.07 74.45 16.42L74.45 16.42L74.45 16.42Q74.62 15.78 74.87 15.03L74.87 15.03L74.87 15.03Q75.12 14.28 75.43 13.51L75.43 13.51L75.43 13.51Q75.81 12.54 76.09 11.84L76.09 11.84L76.09 11.84Q76.37 11.13 76.56 10.61L76.56 10.61L76.56 10.61Q76.75 10.09 76.87 9.76L76.87 9.76L76.87 9.76Q76.99 9.42 77.06 9.18L77.06 9.18L77.06 9.18Q77.11 9.02 77.22 8.78L77.22 8.78L77.22 8.78Q77.34 8.54 77.48 8.29L77.48 8.29L77.48 8.29Q77.63 8.05 77.78 7.83L77.78 7.83L77.78 7.83Q77.94 7.62 78.06 7.50L78.06 7.50L78.06 7.50Q78.55 7.57 78.99 7.76L78.99 7.76L78.99 7.76Q79.42 7.94 79.52 8.11L79.52 8.11L79.52 8.11Q79.32 8.29 79.07 8.67L79.07 8.67L79.07 8.67Q78.82 9.06 78.58 9.51L78.58 9.51L78.58 9.51Q78.34 9.97 78.15 10.44L78.15 10.44L78.15 10.44Q77.95 10.92 77.85 11.28L77.85 11.28L77.85 11.28Q77.99 11.05 78.22 10.77L78.22 10.77L78.22 10.77Q78.44 10.49 78.90 10.00L78.90 10.00L78.90 10.00Q79.42 9.46 79.88 9.18L79.88 9.18L79.88 9.18Q80.33 8.89 80.67 8.89L80.67 8.89L80.67 8.89Q81.20 8.89 81.54 9.18L81.54 9.18L81.54 9.18Q81.89 9.48 81.89 9.94L81.89 9.94L81.89 9.94Q81.89 10.95 81.55 11.94L81.55 11.94L81.55 11.94Q81.21 12.92 80.58 13.72L80.58 13.72L80.58 13.72Q80.35 14.03 80.02 14.31L80.02 14.31L80.02 14.31Q79.70 14.59 79.35 14.80L79.35 14.80L79.35 14.80Q79.00 15.02 78.67 15.15L78.67 15.15L78.67 15.15Q78.33 15.27 78.06 15.27L78.06 15.27L78.06 15.27Q77.81 15.27 77.62 15.17L77.62 15.17L77.62 15.17Q77.43 15.06 77.36 14.91L77.36 14.91L77.36 14.91Q77.91 14.59 78.43 14.01L78.43 14.01L78.43 14.01Q78.95 13.44 79.39 12.69L79.39 12.69L79.39 12.69Q79.83 11.94 80.16 11.07L80.16 11.07L80.16 11.07Q80.49 10.21 80.65 9.31L80.65 9.31L80.65 9.31Q80.12 9.59 79.70 9.92L79.70 9.92L79.70 9.92Q79.27 10.25 78.85 10.78L78.85 10.78L78.85 10.78Q78.34 11.40 78.05 11.77L78.05 11.77L78.05 11.77Q77.76 12.15 77.57 12.42L77.57 12.42L77.57 12.42Q77.38 12.68 77.26 12.91L77.26 12.91L77.26 12.91Q77.14 13.15 77 13.48L77 13.48L77 13.48Q76.80 13.93 76.55 14.67L76.55 14.67L76.55 14.67Q76.29 15.40 76.01 16.31L76.01 16.31L76.01 16.31Q75.74 17.22 75.47 18.25L75.47 18.25L75.47 18.25Q75.19 19.28 74.94 20.30L74.94 20.30L74.94 20.30Q74.79 20.27 74.68 20.08L74.68 20.08L74.68 20.08Q74.56 19.95 74.52 19.89L74.52 19.89L74.52 19.89Q74.47 19.84 74.40 19.81ZM94.40 9.38L94.40 9.38L94.40 9.38Q94.35 10.25 94.09 10.87L94.09 10.87L94.09 10.87Q93.84 11.49 93.37 11.96L93.37 11.96L93.37 11.96Q92.90 12.43 92.23 12.81L92.23 12.81L92.23 12.81Q91.56 13.19 90.66 13.54L90.66 13.54L90.66 13.54Q90.66 13.62 90.66 13.71L90.66 13.71L90.66 13.71Q90.65 13.80 90.65 13.90L90.65 13.90L90.65 13.90Q90.65 14.08 90.68 14.28L90.68 14.28L90.68 14.28Q90.71 14.48 90.78 14.64L90.78 14.64L90.78 14.64Q90.85 14.81 90.97 14.92L90.97 14.92L90.97 14.92Q91.10 15.02 91.29 15.02L91.29 15.02L91.29 15.02Q91.67 15.02 92.04 14.85L92.04 14.85L92.04 14.85Q92.40 14.69 92.73 14.44L92.73 14.44L92.73 14.44Q93.06 14.20 93.34 13.91L93.34 13.91L93.34 13.91Q93.63 13.62 93.86 13.38L93.86 13.38L93.86 13.38Q94.00 13.51 94.09 13.62L94.09 13.62L94.09 13.62Q93.46 14.46 92.72 15.02L92.72 15.02L92.72 15.02Q91.97 15.57 91.29 15.72L91.29 15.72L91.29 15.72Q90.33 15.61 89.79 15.02L89.79 15.02L89.79 15.02Q89.25 14.42 89.25 13.58L89.25 13.58L89.25 13.58Q89.25 13.01 89.41 12.41L89.41 12.41L89.41 12.41Q89.57 11.82 89.86 11.26L89.86 11.26L89.86 11.26Q90.15 10.71 90.53 10.22L90.53 10.22L90.53 10.22Q90.92 9.73 91.36 9.37L91.36 9.37L91.36 9.37Q91.80 9.00 92.27 8.79L92.27 8.79L92.27 8.79Q92.74 8.58 93.20 8.58L93.20 8.58L93.20 8.58Q93.84 8.67 94.40 9.38ZM93.44 9.84L93.44 9.84L93.44 9.84Q93.06 9.90 92.65 10.15L92.65 10.15L92.65 10.15Q92.25 10.40 91.89 10.82L91.89 10.82L91.89 10.82Q91.53 11.24 91.24 11.80L91.24 11.80L91.24 11.80Q90.94 12.36 90.78 13.01L90.78 13.01L90.78 13.01Q91.90 12.45 92.64 11.63L92.64 11.63L92.64 11.63Q93.38 10.81 93.44 9.84ZM114.03 15.67L114.03 15.67L114.03 15.67Q113.23 15.58 112.76 14.97L112.76 14.97L112.76 14.97Q112.28 14.35 112.28 13.40L112.28 13.40L112.28 13.40Q112.28 12.84 112.45 12.24L112.45 12.24L112.45 12.24Q112.62 11.63 112.92 11.07L112.92 11.07L112.92 11.07Q113.23 10.50 113.65 10.00L113.65 10.00L113.65 10.00Q114.07 9.49 114.56 9.13L114.56 9.13L114.56 9.13Q115.33 8.55 116.00 8.55L116.00 8.55L116.00 8.55Q116.45 8.79 116.89 9.55L116.89 9.55L116.89 9.55Q116.96 9.55 117.01 9.54L117.01 9.54L117.01 9.54Q117.07 9.53 117.14 9.53L117.14 9.53L117.14 9.53Q117.88 9.53 117.88 10.85L117.88 10.85L117.88 10.85Q117.88 11.73 117.59 12.52L117.59 12.52L117.59 12.52Q117.31 13.31 116.80 13.96L116.80 13.96L116.80 13.96Q116.28 14.60 115.58 15.04L115.58 15.04L115.58 15.04Q114.87 15.48 114.03 15.67ZM114.74 11.26L114.74 11.26L114.74 11.26Q114.51 11.58 114.30 11.96L114.30 11.96L114.30 11.96Q114.09 12.33 113.93 12.72L113.93 12.72L113.93 12.72Q113.78 13.10 113.69 13.46L113.69 13.46L113.69 13.46Q113.61 13.82 113.61 14.10L113.61 14.10L113.61 14.10Q113.61 14.43 113.72 14.74L113.72 14.74L113.72 14.74Q113.83 15.05 113.97 15.09L113.97 15.09L113.97 15.09Q114.60 14.95 115.13 14.57L115.13 14.57L115.13 14.57Q115.65 14.18 116.04 13.61L116.04 13.61L116.04 13.61Q116.42 13.03 116.64 12.31L116.64 12.31L116.64 12.31Q116.86 11.58 116.86 10.75L116.86 10.75L116.86 10.75Q116.86 10.39 116.82 10.18L116.82 10.18L116.82 10.18Q116.77 9.97 116.68 9.81L116.68 9.81L116.68 9.81Q116.06 10.00 115.58 10.40L115.58 10.40L115.58 10.40Q115.09 10.81 114.74 11.26ZM126.11 19.22L126.11 19.22L126.11 19.22Q125.76 19.08 125.69 18.69L125.69 18.69L125.69 18.69Q125.64 18.31 125.22 18.07L125.22 18.07L125.22 18.07Q125.33 17.36 125.47 16.63L125.47 16.63L125.47 16.63Q125.61 15.90 125.83 14.97L125.83 14.97L125.83 14.97Q126.04 14.04 126.37 12.80L126.37 12.80L126.37 12.80Q126.70 11.56 127.20 9.80L127.20 9.80L127.20 9.80Q126.74 9.80 126.48 9.81L126.48 9.81L126.48 9.81Q126.21 9.83 125.96 9.87L125.96 9.87L125.96 9.87Q125.90 9.81 125.87 9.72L125.87 9.72L125.87 9.72Q125.83 9.62 125.83 9.53L125.83 9.53L125.83 9.53Q125.97 9.48 126.41 9.39L126.41 9.39L126.41 9.39Q126.84 9.30 127.36 9.23L127.36 9.23L127.36 9.23Q127.69 8.16 128.13 7.32L128.13 7.32L128.13 7.32Q128.56 6.47 129.07 5.87L129.07 5.87L129.07 5.87Q129.57 5.26 130.13 4.94L130.13 4.94L130.13 4.94Q130.69 4.62 131.26 4.62L131.26 4.62L131.26 4.62Q131.43 4.62 131.59 4.64L131.59 4.64L131.59 4.64Q131.74 4.66 131.82 4.66L131.82 4.66L131.82 4.66Q131.95 4.56 132.16 4.49L132.16 4.49L132.16 4.49Q132.37 4.41 132.52 4.41L132.52 4.41L132.52 4.41Q132.69 4.41 132.96 4.59L132.96 4.59L132.96 4.59Q132.85 4.79 132.72 5.12L132.72 5.12L132.72 5.12Q132.59 5.46 132.51 5.78L132.51 5.78L132.51 5.78Q132.16 6.82 131.77 7.13L131.77 7.13L131.77 7.13Q131.61 7.13 131.60 6.72L131.60 6.72L131.60 6.72Q131.59 6.43 131.52 6.15L131.52 6.15L131.52 6.15Q131.46 6.02 131.44 5.92L131.44 5.92L131.44 5.92Q131.42 5.82 131.42 5.67L131.42 5.67L131.42 5.67Q131.42 5.59 131.43 5.47L131.43 5.47L131.43 5.47Q131.45 5.35 131.49 5.07L131.49 5.07L131.49 5.07Q131.25 5.07 130.96 5.36L130.96 5.36L130.96 5.36Q130.68 5.66 130.36 6.20L130.36 6.20L130.36 6.20Q130.05 6.73 129.72 7.48L129.72 7.48L129.72 7.48Q129.40 8.22 129.11 9.11L129.11 9.11L130.28 9.07L130.28 9.07Q130.35 9.14 130.40 9.39L130.40 9.39L130.40 9.39Q130.45 9.63 130.47 9.90L130.47 9.90L128.93 9.81L128.93 9.81Q128.39 11.40 127.93 12.84L127.93 12.84L127.93 12.84Q127.47 14.28 127.11 15.50L127.11 15.50L127.11 15.50Q126.74 16.72 126.48 17.68L126.48 17.68L126.48 17.68Q126.22 18.63 126.11 19.22ZM148.23 10.22L148.23 10.22L148.23 10.22Q148.23 9.97 148.27 9.74L148.27 9.74L148.27 9.74Q148.30 9.52 148.41 9.36L148.41 9.36L148.41 9.36Q148.53 9.20 148.72 9.11L148.72 9.11L148.72 9.11Q148.92 9.02 149.24 9.02L149.24 9.02L149.24 9.02Q149.44 9.02 149.68 9.06L149.68 9.06L149.68 9.06Q149.93 9.10 150.04 9.21L150.04 9.21L150.04 9.21Q149.98 9.45 149.95 9.63L149.95 9.63L149.95 9.63Q149.91 9.81 149.89 10.03L149.89 10.03L149.89 10.03Q149.87 10.25 149.86 10.55L149.86 10.55L149.86 10.55Q149.84 10.85 149.83 11.33L149.83 11.33L149.83 11.33Q149.80 12.28 149.74 13.03L149.74 13.03L149.74 13.03Q149.67 13.78 149.45 14.52L149.45 14.52L149.45 14.52Q149.45 14.57 149.49 14.57L149.49 14.57L149.49 14.57Q149.70 14.42 149.97 14.13L149.97 14.13L149.97 14.13Q150.23 13.83 150.53 13.46L150.53 13.46L150.53 13.46Q150.82 13.09 151.12 12.67L151.12 12.67L151.12 12.67Q151.41 12.25 151.66 11.84L151.66 11.84L151.66 11.84Q152.00 11.26 152.40 10.37L152.40 10.37L152.40 10.37Q152.81 9.49 153.08 8.48L153.08 8.48L153.08 8.48Q153.16 8.48 153.29 8.52L153.29 8.52L153.29 8.52Q153.43 8.55 153.56 8.60L153.56 8.60L153.56 8.60Q153.69 8.65 153.80 8.71L153.80 8.71L153.80 8.71Q153.90 8.76 153.94 8.81L153.94 8.81L153.94 8.81Q153.92 9.41 153.66 10.04L153.66 10.04L153.66 10.04Q153.40 10.67 153.03 11.26L153.03 11.26L153.03 11.26Q152.67 11.84 152.26 12.36L152.26 12.36L152.26 12.36Q151.86 12.88 151.52 13.26L151.52 13.26L151.52 13.26Q150.85 14.04 150.17 14.66L150.17 14.66L150.17 14.66Q149.49 15.27 148.55 15.85L148.55 15.85L148.55 15.85Q148.19 15.71 147.98 15.48L147.98 15.48L147.98 15.48Q147.77 15.25 147.77 14.99L147.77 14.99L147.77 14.99Q147.77 14.83 147.85 14.61L147.85 14.61L147.85 14.61Q147.92 14.39 148.02 14.05L148.02 14.05L148.02 14.05Q148.12 13.71 148.20 13.19L148.20 13.19L148.20 13.19Q148.27 12.67 148.27 11.87L148.27 11.87L148.27 11.87Q148.27 11.41 148.25 10.94L148.25 10.94L148.25 10.94Q148.23 10.47 148.23 10.22ZM165.75 9.38L165.75 9.38L165.75 9.38Q165.69 10.25 165.44 10.87L165.44 10.87L165.44 10.87Q165.19 11.49 164.72 11.96L164.72 11.96L164.72 11.96Q164.25 12.43 163.58 12.81L163.58 12.81L163.58 12.81Q162.90 13.19 162.01 13.54L162.01 13.54L162.01 13.54Q162.01 13.62 162.00 13.71L162.00 13.71L162.00 13.71Q161.99 13.80 161.99 13.90L161.99 13.90L161.99 13.90Q161.99 14.08 162.02 14.28L162.02 14.28L162.02 14.28Q162.05 14.48 162.12 14.64L162.12 14.64L162.12 14.64Q162.19 14.81 162.32 14.92L162.32 14.92L162.32 14.92Q162.44 15.02 162.64 15.02L162.64 15.02L162.64 15.02Q163.02 15.02 163.38 14.85L163.38 14.85L163.38 14.85Q163.74 14.69 164.07 14.44L164.07 14.44L164.07 14.44Q164.40 14.20 164.69 13.91L164.69 13.91L164.69 13.91Q164.98 13.62 165.20 13.38L165.20 13.38L165.20 13.38Q165.34 13.51 165.44 13.62L165.44 13.62L165.44 13.62Q164.81 14.46 164.06 15.02L164.06 15.02L164.06 15.02Q163.31 15.57 162.64 15.72L162.64 15.72L162.64 15.72Q161.67 15.61 161.13 15.02L161.13 15.02L161.13 15.02Q160.59 14.42 160.59 13.58L160.59 13.58L160.59 13.58Q160.59 13.01 160.75 12.41L160.75 12.41L160.75 12.41Q160.92 11.82 161.20 11.26L161.20 11.26L161.20 11.26Q161.49 10.71 161.88 10.22L161.88 10.22L161.88 10.22Q162.26 9.73 162.70 9.37L162.70 9.37L162.70 9.37Q163.14 9.00 163.61 8.79L163.61 8.79L163.61 8.79Q164.08 8.58 164.54 8.58L164.54 8.58L164.54 8.58Q165.19 8.67 165.75 9.38ZM164.78 9.84L164.78 9.84L164.78 9.84Q164.40 9.90 164.00 10.15L164.00 10.15L164.00 10.15Q163.59 10.40 163.23 10.82L163.23 10.82L163.23 10.82Q162.88 11.24 162.58 11.80L162.58 11.80L162.58 11.80Q162.29 12.36 162.12 13.01L162.12 13.01L162.12 13.01Q163.24 12.45 163.98 11.63L163.98 11.63L163.98 11.63Q164.72 10.81 164.78 9.84ZM173.38 14.94L173.38 14.94L173.38 14.94Q173.38 14.45 173.47 13.78L173.47 13.78L173.47 13.78Q173.57 13.12 173.76 12.36L173.76 12.36L173.76 12.36Q173.95 11.61 174.21 10.78L174.21 10.78L174.21 10.78Q174.47 9.95 174.79 9.13L174.79 9.13L174.79 9.13Q175.07 8.39 175.44 7.63L175.44 7.63L175.44 7.63Q175.81 6.87 176.25 6.15L176.25 6.15L176.25 6.15Q176.68 5.42 177.15 4.76L177.15 4.76L177.15 4.76Q177.62 4.10 178.09 3.56L178.09 3.56L178.09 3.56Q178.32 3.56 178.58 3.61L178.58 3.61L178.58 3.61Q178.84 3.67 179.08 3.76L179.08 3.76L179.08 3.76Q179.33 3.85 179.53 3.98L179.53 3.98L179.53 3.98Q179.73 4.10 179.86 4.23L179.86 4.23L179.86 4.23Q178.81 5.31 177.97 6.40L177.97 6.40L177.97 6.40Q177.13 7.50 176.64 8.47L176.64 8.47L176.64 8.47Q176.37 9.00 176.16 9.46L176.16 9.46L176.16 9.46Q175.94 9.93 175.76 10.38L175.76 10.38L175.76 10.38Q175.57 10.84 175.43 11.29L175.43 11.29L175.43 11.29Q175.28 11.75 175.15 12.25L175.15 12.25L175.15 12.25Q177.84 8.82 179.14 8.82L179.14 8.82L179.14 8.82Q179.51 8.82 179.93 9.06L179.93 9.06L179.93 9.06Q180.35 9.30 180.67 9.70L180.67 9.70L180.67 9.70Q180.24 10.18 179.77 10.85L179.77 10.85L179.77 10.85Q179.31 11.52 178.93 12.20L178.93 12.20L178.93 12.20Q178.54 12.88 178.30 13.46L178.30 13.46L178.30 13.46Q178.05 14.04 178.05 14.32L178.05 14.32L178.05 14.32Q178.05 14.46 178.09 14.51L178.09 14.51L178.09 14.51Q178.14 14.56 178.28 14.56L178.28 14.56L178.28 14.56Q178.49 14.56 178.61 14.50L178.61 14.50L178.61 14.50Q178.74 14.45 178.77 14.45L178.77 14.45L178.77 14.45Q178.84 14.56 178.85 14.60L178.85 14.60L178.85 14.60Q178.86 14.64 178.86 14.67L178.86 14.67L178.86 14.67Q178.86 14.73 178.70 14.83L178.70 14.83L178.70 14.83Q178.53 14.94 178.30 15.04L178.30 15.04L178.30 15.04Q178.07 15.15 177.84 15.23L177.84 15.23L177.84 15.23Q177.62 15.32 177.51 15.32L177.51 15.32L177.51 15.32Q177.37 15.32 177.23 15.24L177.23 15.24L177.23 15.24Q177.09 15.16 176.98 15.04L176.98 15.04L176.98 15.04Q176.88 14.91 176.81 14.76L176.81 14.76L176.81 14.76Q176.75 14.60 176.75 14.43L176.75 14.43L176.75 14.43Q176.75 14.22 176.87 13.81L176.87 13.81L176.87 13.81Q176.99 13.40 177.20 12.85L177.20 12.85L177.20 12.85Q177.41 12.29 177.70 11.63L177.70 11.63L177.70 11.63Q178.00 10.98 178.33 10.29L178.33 10.29L178.33 10.29Q178.33 10.23 178.28 10.23L178.28 10.23L178.28 10.23Q178.23 10.23 178.06 10.35L178.06 10.35L178.06 10.35Q177.88 10.46 177.73 10.57L177.73 10.57L177.73 10.57Q177.23 10.95 176.72 11.50L176.72 11.50L176.72 11.50Q176.20 12.05 175.72 12.71L175.72 12.71L175.72 12.71Q175.24 13.37 174.81 14.11L174.81 14.11L174.81 14.11Q174.38 14.84 174.08 15.58L174.08 15.58L174.08 15.58Q174.03 15.68 173.95 15.76L173.95 15.76L173.95 15.76Q173.87 15.85 173.81 15.85L173.81 15.85L173.81 15.85Q173.77 15.85 173.69 15.75L173.69 15.75L173.69 15.75Q173.61 15.65 173.55 15.51L173.55 15.51L173.55 15.51Q173.49 15.36 173.43 15.20L173.43 15.20L173.43 15.20Q173.38 15.05 173.38 14.94ZM187.64 14.24L187.64 14.24L187.64 14.24Q187.64 14.11 187.66 13.92L187.66 13.92L187.66 13.92Q187.68 13.73 187.74 13.42L187.74 13.42L187.74 13.42Q187.80 13.10 187.89 12.66L187.89 12.66L187.89 12.66Q187.98 12.21 188.12 11.58L188.12 11.58L188.12 11.58Q188.15 11.44 188.24 11.13L188.24 11.13L188.24 11.13Q188.34 10.82 188.50 10.48L188.50 10.48L188.50 10.48Q188.66 10.14 188.90 9.81L188.90 9.81L188.90 9.81Q189.13 9.49 189.45 9.34L189.45 9.34L189.45 9.34Q189.69 9.39 190.08 9.63L190.08 9.63L190.08 9.63Q190.47 9.86 190.75 10.26L190.75 10.26L190.75 10.26Q190.43 10.63 190.21 10.99L190.21 10.99L190.21 10.99Q189.99 11.35 189.82 11.75L189.82 11.75L189.82 11.75Q189.64 12.14 189.50 12.56L189.50 12.56L189.50 12.56Q189.35 12.98 189.17 13.44L189.17 13.44L189.17 13.44Q189.01 13.83 188.89 14.25L188.89 14.25L188.89 14.25Q188.76 14.66 188.75 14.97L188.75 14.97L188.75 14.97Q188.75 15.22 188.74 15.32L188.74 15.32L188.74 15.32Q188.73 15.43 188.66 15.43L188.66 15.43L188.66 15.43Q188.61 15.43 188.44 15.36L188.44 15.36L188.44 15.36Q188.27 15.29 188.10 15.14L188.10 15.14L188.10 15.14Q187.92 14.99 187.78 14.77L187.78 14.77L187.78 14.77Q187.64 14.55 187.64 14.24ZM190.32 8.16L190.32 8.16L190.32 8.16Q190.32 8.08 190.36 7.91L190.36 7.91L190.36 7.91Q190.29 7.84 190.24 7.70L190.24 7.70L190.24 7.70Q190.19 7.56 190.19 7.45L190.19 7.45L190.19 7.45Q190.19 7.32 190.23 7.11L190.23 7.11L190.23 7.11Q190.26 6.89 190.32 6.64L190.32 6.64L190.32 6.64Q190.37 6.38 190.46 6.11L190.46 6.11L190.46 6.11Q190.54 5.84 190.62 5.61L190.62 5.61L190.62 5.61Q190.79 5.61 191.04 5.71L191.04 5.71L191.04 5.71Q191.28 5.80 191.53 5.94L191.53 5.94L191.53 5.94Q191.79 6.09 192.00 6.27L192.00 6.27L192.00 6.27Q192.21 6.44 192.32 6.59L192.32 6.59L192.32 6.59Q192.16 6.75 191.91 7.02L191.91 7.02L191.91 7.02Q191.66 7.29 191.42 7.59L191.42 7.59L191.42 7.59Q191.18 7.90 190.99 8.16L190.99 8.16L190.99 8.16Q190.79 8.43 190.74 8.54L190.74 8.54L190.74 8.54Q190.57 8.51 190.44 8.39L190.44 8.39L190.44 8.39Q190.32 8.27 190.32 8.16ZM198.02 12.71L198.02 12.71L198.02 12.71Q198.02 11.91 198.34 11.16L198.34 11.16L198.34 11.16Q198.67 10.42 199.21 9.84L199.21 9.84L199.21 9.84Q199.75 9.25 200.45 8.90L200.45 8.90L200.45 8.90Q201.14 8.54 201.88 8.54L201.88 8.54L201.88 8.54Q202.61 8.54 203 8.90L203 8.90L203 8.90Q203.39 9.27 203.39 9.94L203.39 9.94L203.39 9.94Q203.39 10.26 203.30 10.56L203.30 10.56L203.30 10.56Q203.21 10.86 203.06 11.10L203.06 11.10L203.06 11.10Q202.92 11.34 202.72 11.49L202.72 11.49L202.72 11.49Q202.52 11.63 202.33 11.63L202.33 11.63L202.33 11.63Q202.16 11.63 201.99 11.53L201.99 11.53L201.99 11.53Q201.81 11.42 201.70 11.26L201.70 11.26L201.70 11.26Q202.64 10.40 202.64 9.70L202.64 9.70L202.64 9.70Q202.64 9.30 202.31 9.30L202.31 9.30L202.31 9.30Q202.03 9.30 201.61 9.56L201.61 9.56L201.61 9.56Q201.19 9.83 200.80 10.26L200.80 10.26L200.80 10.26Q200.20 10.93 199.89 11.75L199.89 11.75L199.89 11.75Q199.57 12.57 199.57 13.47L199.57 13.47L199.57 13.47Q199.57 14.60 200.07 14.83L200.07 14.83L200.07 14.83Q200.28 14.80 200.56 14.70L200.56 14.70L200.56 14.70Q200.84 14.60 201.17 14.44L201.17 14.44L201.17 14.44Q201.49 14.28 201.83 14.07L201.83 14.07L201.83 14.07Q202.17 13.86 202.50 13.62L202.50 13.62L202.50 13.62Q202.55 13.66 202.59 13.75L202.59 13.75L202.59 13.75Q202.64 13.83 202.64 13.90L202.64 13.90L202.64 13.90Q202.40 14.20 202.09 14.48L202.09 14.48L202.09 14.48Q201.78 14.76 201.45 14.99L201.45 14.99L201.45 14.99Q201.11 15.22 200.80 15.38L200.80 15.38L200.80 15.38Q200.48 15.54 200.24 15.58L200.24 15.58L200.24 15.58Q199.78 15.54 199.37 15.29L199.37 15.29L199.37 15.29Q198.97 15.05 198.67 14.66L198.67 14.66L198.67 14.66Q198.37 14.27 198.19 13.76L198.19 13.76L198.19 13.76Q198.02 13.26 198.02 12.71ZM215.64 9.52L215.64 9.52L215.64 9.52Q215.78 9.52 215.97 9.57L215.97 9.57L215.97 9.57Q216.16 9.62 216.31 9.70L216.31 9.70L216.31 9.70Q216.47 9.77 216.57 9.86L216.57 9.86L216.57 9.86Q216.68 9.94 216.68 10.01L216.68 10.01L216.68 10.01Q216.40 10.60 216.16 11.19L216.16 11.19L216.16 11.19Q215.92 11.79 215.75 12.33L215.75 12.33L215.75 12.33Q215.59 12.88 215.50 13.36L215.50 13.36L215.50 13.36Q215.40 13.83 215.40 14.18L215.40 14.18L215.40 14.18Q215.40 14.57 215.49 14.83L215.49 14.83L215.49 14.83Q215.57 15.09 215.77 15.20L215.77 15.20L215.77 15.20Q215.60 15.32 215.33 15.39L215.33 15.39L215.33 15.39Q215.07 15.46 214.86 15.46L214.86 15.46L214.86 15.46Q214.10 15.46 214.10 14.42L214.10 14.42L214.10 14.42Q214.10 13.62 214.63 12.24L214.63 12.24L214.63 12.24Q214.35 12.88 213.99 13.45L213.99 13.45L213.99 13.45Q213.63 14.01 213.25 14.45L213.25 14.45L213.25 14.45Q212.87 14.88 212.49 15.15L212.49 15.15L212.49 15.15Q212.10 15.43 211.78 15.48L211.78 15.48L211.78 15.48Q211.26 15.46 210.94 14.99L210.94 14.99L210.94 14.99Q210.62 14.52 210.62 13.79L210.62 13.79L210.62 13.79Q210.62 13.01 210.95 12.14L210.95 12.14L210.95 12.14Q211.29 11.27 211.81 10.53L211.81 10.53L211.81 10.53Q212.34 9.79 212.95 9.29L212.95 9.29L212.95 9.29Q213.57 8.79 214.14 8.76L214.14 8.76L214.14 8.76Q214.28 8.81 214.46 8.93L214.46 8.93L214.46 8.93Q214.63 9.06 214.80 9.23L214.80 9.23L214.80 9.23Q214.96 9.39 215.07 9.57L215.07 9.57L215.07 9.57Q215.18 9.74 215.19 9.87L215.19 9.87L215.19 9.87Q214.63 9.95 214.04 10.42L214.04 10.42L214.04 10.42Q213.44 10.88 212.96 11.53L212.96 11.53L212.96 11.53Q212.48 12.18 212.17 12.92L212.17 12.92L212.17 12.92Q211.86 13.66 211.86 14.31L211.86 14.31L211.86 14.31Q211.86 14.57 212.06 14.64L212.06 14.64L212.06 14.64Q212.46 14.56 213.00 13.95L213.00 13.95L213.00 13.95Q213.53 13.34 214.28 12.07L214.28 12.07L214.28 12.07Q214.42 11.82 214.60 11.51L214.60 11.51L214.60 11.51Q214.77 11.20 214.96 10.86L214.96 10.86L214.96 10.86Q215.14 10.53 215.31 10.18L215.31 10.18L215.31 10.18Q215.49 9.84 215.64 9.52ZM224.38 14.28L224.38 14.28L224.38 14.28Q224.38 13.66 224.67 12.55L224.67 12.55L224.67 12.55Q224.97 11.44 225.50 9.95L225.50 9.95L225.50 9.95Q226.37 7.59 227.13 6.01L227.13 6.01L227.13 6.01Q227.89 4.44 228.62 3.56L228.62 3.56L228.62 3.56Q228.79 3.58 229.03 3.70L229.03 3.70L229.03 3.70Q229.28 3.81 229.52 3.94L229.52 3.94L229.52 3.94Q229.75 4.07 229.94 4.21L229.94 4.21L229.94 4.21Q230.13 4.35 230.19 4.44L230.19 4.44L230.19 4.44Q229.10 5.73 228.27 7.21L228.27 7.21L228.27 7.21Q227.44 8.69 226.76 10.61L226.76 10.61L226.76 10.61Q226.17 12.26 225.86 13.59L225.86 13.59L225.86 13.59Q225.55 14.91 225.55 15.79L225.55 15.79L225.55 15.79Q225.55 16.03 225.55 16.09L225.55 16.09L225.55 16.09Q225.55 16.14 225.57 16.20L225.57 16.20L225.57 16.20Q225.37 16.17 225.23 16.10L225.23 16.10L225.23 16.10Q225.09 16.03 225.05 15.93L225.05 15.93L225.05 15.93Q225.02 15.86 224.90 15.73L224.90 15.73L224.90 15.73Q224.77 15.60 224.67 15.53L224.67 15.53L224.67 15.53Q224.55 15.44 224.46 15.09L224.46 15.09L224.46 15.09Q224.38 14.73 224.38 14.28ZM248.08 8.64L248.08 8.64L248.08 8.64Q248.36 8.64 248.72 8.81L248.72 8.81L248.72 8.81Q249.09 8.97 249.37 9.24L249.37 9.24L249.37 9.24Q249.30 8.68 249.19 8.18L249.19 8.18L249.19 8.18Q249.09 7.69 248.89 7.15L248.89 7.15L248.89 7.15Q248.68 6.62 248.35 5.99L248.35 5.99L248.35 5.99Q248.01 5.36 247.51 4.55L247.51 4.55L247.51 4.55Q247.55 4.42 247.70 4.26L247.70 4.26L247.70 4.26Q247.84 4.09 248.03 3.94L248.03 3.94L248.03 3.94Q248.22 3.79 248.42 3.68L248.42 3.68L248.42 3.68Q248.63 3.57 248.81 3.54L248.81 3.54L248.81 3.54Q249.20 3.98 249.55 4.63L249.55 4.63L249.55 4.63Q249.90 5.28 250.17 6.03L250.17 6.03L250.17 6.03Q250.43 6.78 250.58 7.57L250.58 7.57L250.58 7.57Q250.73 8.37 250.73 9.10L250.73 9.10L250.73 9.10Q250.73 9.83 250.57 10.60L250.57 10.60L250.57 10.60Q250.40 11.37 250.12 12.10L250.12 12.10L250.12 12.10Q249.83 12.84 249.45 13.50L249.45 13.50L249.45 13.50Q249.07 14.15 248.63 14.67L248.63 14.67L248.63 14.67Q248.19 15.19 247.72 15.52L247.72 15.52L247.72 15.52Q247.24 15.85 246.76 15.93L246.76 15.93L246.76 15.93Q245.80 15.82 245.29 15.31L245.29 15.31L245.29 15.31Q244.78 14.80 244.78 13.90L244.78 13.90L244.78 13.90Q244.78 13.43 244.92 12.87L244.92 12.87L244.92 12.87Q245.07 12.31 245.32 11.75L245.32 11.75L245.32 11.75Q245.56 11.20 245.89 10.68L245.89 10.68L245.89 10.68Q246.22 10.15 246.59 9.73L246.59 9.73L246.59 9.73Q246.96 9.31 247.34 9.02L247.34 9.02L247.34 9.02Q247.72 8.72 248.08 8.64ZM246.65 15.37L246.65 15.37L246.65 15.37Q247.14 15.20 247.63 14.63L247.63 14.63L247.63 14.63Q248.12 14.06 248.51 13.28L248.51 13.28L248.51 13.28Q248.91 12.50 249.15 11.61L249.15 11.61L249.15 11.61Q249.40 10.72 249.40 9.90L249.40 9.90L249.40 9.90Q249.40 9.66 249.40 9.60L249.40 9.60L249.40 9.60Q249.40 9.55 249.38 9.49L249.38 9.49L249.38 9.49Q249.05 9.63 248.67 9.97L248.67 9.97L248.67 9.97Q248.29 10.30 247.91 10.75L247.91 10.75L247.91 10.75Q247.53 11.19 247.20 11.70L247.20 11.70L247.20 11.70Q246.86 12.22 246.60 12.74L246.60 12.74L246.60 12.74Q246.33 13.26 246.18 13.73L246.18 13.73L246.18 13.73Q246.02 14.21 246.02 14.57L246.02 14.57L246.02 14.57Q246.02 15.27 246.65 15.37ZM258.10 14.24L258.10 14.24L258.10 14.24Q258.10 14.11 258.13 13.92L258.13 13.92L258.13 13.92Q258.15 13.73 258.20 13.42L258.20 13.42L258.20 13.42Q258.26 13.10 258.35 12.66L258.35 12.66L258.35 12.66Q258.44 12.21 258.58 11.58L258.58 11.58L258.58 11.58Q258.61 11.44 258.71 11.13L258.71 11.13L258.71 11.13Q258.80 10.82 258.97 10.48L258.97 10.48L258.97 10.48Q259.13 10.14 259.36 9.81L259.36 9.81L259.36 9.81Q259.59 9.49 259.91 9.34L259.91 9.34L259.91 9.34Q260.15 9.39 260.54 9.63L260.54 9.63L260.54 9.63Q260.93 9.86 261.21 10.26L261.21 10.26L261.21 10.26Q260.89 10.63 260.67 10.99L260.67 10.99L260.67 10.99Q260.46 11.35 260.28 11.75L260.28 11.75L260.28 11.75Q260.11 12.14 259.96 12.56L259.96 12.56L259.96 12.56Q259.81 12.98 259.63 13.44L259.63 13.44L259.63 13.44Q259.48 13.83 259.35 14.25L259.35 14.25L259.35 14.25Q259.22 14.66 259.21 14.97L259.21 14.97L259.21 14.97Q259.21 15.22 259.20 15.32L259.20 15.32L259.20 15.32Q259.20 15.43 259.13 15.43L259.13 15.43L259.13 15.43Q259.07 15.43 258.90 15.36L258.90 15.36L258.90 15.36Q258.73 15.29 258.56 15.14L258.56 15.14L258.56 15.14Q258.38 14.99 258.24 14.77L258.24 14.77L258.24 14.77Q258.10 14.55 258.10 14.24ZM260.78 8.16L260.78 8.16L260.78 8.16Q260.78 8.08 260.82 7.91L260.82 7.91L260.82 7.91Q260.75 7.84 260.70 7.70L260.70 7.70L260.70 7.70Q260.65 7.56 260.65 7.45L260.65 7.45L260.65 7.45Q260.65 7.32 260.69 7.11L260.69 7.11L260.69 7.11Q260.72 6.89 260.78 6.64L260.78 6.64L260.78 6.64Q260.83 6.38 260.92 6.11L260.92 6.11L260.92 6.11Q261.00 5.84 261.09 5.61L261.09 5.61L261.09 5.61Q261.25 5.61 261.50 5.71L261.50 5.71L261.50 5.71Q261.74 5.80 262.00 5.94L262.00 5.94L262.00 5.94Q262.25 6.09 262.46 6.27L262.46 6.27L262.46 6.27Q262.67 6.44 262.78 6.59L262.78 6.59L262.78 6.59Q262.63 6.75 262.37 7.02L262.37 7.02L262.37 7.02Q262.12 7.29 261.88 7.59L261.88 7.59L261.88 7.59Q261.65 7.90 261.45 8.16L261.45 8.16L261.45 8.16Q261.25 8.43 261.20 8.54L261.20 8.54L261.20 8.54Q261.03 8.51 260.90 8.39L260.90 8.39L260.90 8.39Q260.78 8.27 260.78 8.16ZM273.22 9.52L273.22 9.52L273.22 9.52Q273.36 9.52 273.55 9.57L273.55 9.57L273.55 9.57Q273.74 9.62 273.90 9.70L273.90 9.70L273.90 9.70Q274.05 9.77 274.15 9.86L274.15 9.86L274.15 9.86Q274.26 9.94 274.26 10.01L274.26 10.01L274.26 10.01Q273.98 10.60 273.74 11.19L273.74 11.19L273.74 11.19Q273.50 11.79 273.34 12.33L273.34 12.33L273.34 12.33Q273.17 12.88 273.08 13.36L273.08 13.36L273.08 13.36Q272.99 13.83 272.99 14.18L272.99 14.18L272.99 14.18Q272.99 14.57 273.07 14.83L273.07 14.83L273.07 14.83Q273.15 15.09 273.35 15.20L273.35 15.20L273.35 15.20Q273.18 15.32 272.92 15.39L272.92 15.39L272.92 15.39Q272.65 15.46 272.44 15.46L272.44 15.46L272.44 15.46Q271.68 15.46 271.68 14.42L271.68 14.42L271.68 14.42Q271.68 13.62 272.22 12.24L272.22 12.24L272.22 12.24Q271.94 12.88 271.57 13.45L271.57 13.45L271.57 13.45Q271.21 14.01 270.83 14.45L270.83 14.45L270.83 14.45Q270.45 14.88 270.07 15.15L270.07 15.15L270.07 15.15Q269.68 15.43 269.36 15.48L269.36 15.48L269.36 15.48Q268.84 15.46 268.52 14.99L268.52 14.99L268.52 14.99Q268.20 14.52 268.20 13.79L268.20 13.79L268.20 13.79Q268.20 13.01 268.53 12.14L268.53 12.14L268.53 12.14Q268.87 11.27 269.39 10.53L269.39 10.53L269.39 10.53Q269.92 9.79 270.54 9.29L270.54 9.29L270.54 9.29Q271.15 8.79 271.73 8.76L271.73 8.76L271.73 8.76Q271.87 8.81 272.04 8.93L272.04 8.93L272.04 8.93Q272.22 9.06 272.38 9.23L272.38 9.23L272.38 9.23Q272.54 9.39 272.65 9.57L272.65 9.57L272.65 9.57Q272.76 9.74 272.78 9.87L272.78 9.87L272.78 9.87Q272.22 9.95 271.62 10.42L271.62 10.42L271.62 10.42Q271.03 10.88 270.54 11.53L270.54 11.53L270.54 11.53Q270.06 12.18 269.75 12.92L269.75 12.92L269.75 12.92Q269.44 13.66 269.44 14.31L269.44 14.31L269.44 14.31Q269.44 14.57 269.64 14.64L269.64 14.64L269.64 14.64Q270.05 14.56 270.58 13.95L270.58 13.95L270.58 13.95Q271.11 13.34 271.87 12.07L271.87 12.07L271.87 12.07Q272.01 11.82 272.18 11.51L272.18 11.51L272.18 11.51Q272.36 11.20 272.54 10.86L272.54 10.86L272.54 10.86Q272.72 10.53 272.89 10.18L272.89 10.18L272.89 10.18Q273.07 9.84 273.22 9.52ZM279.06 19.35L279.06 19.35L279.06 19.35Q279.06 19.26 279.12 19.19L279.12 19.19L279.12 19.19Q279.17 19.12 279.24 19.05L279.24 19.05L279.24 19.05Q279.41 19.21 279.53 19.29L279.53 19.29L279.53 19.29Q279.65 19.38 279.75 19.43L279.75 19.43L279.75 19.43Q279.86 19.49 279.97 19.50L279.97 19.50L279.97 19.50Q280.08 19.52 280.24 19.52L280.24 19.52L280.24 19.52Q280.97 19.52 281.62 19.13L281.62 19.13L281.62 19.13Q282.28 18.75 282.86 18.02L282.86 18.02L282.86 18.02Q283.44 17.29 283.92 16.24L283.92 16.24L283.92 16.24Q284.40 15.19 284.76 13.86L284.76 13.86L284.76 13.86Q284.59 14.03 284.35 14.23L284.35 14.23L284.35 14.23Q284.10 14.43 283.84 14.62L283.84 14.62L283.84 14.62Q283.57 14.80 283.31 14.95L283.31 14.95L283.31 14.95Q283.05 15.11 282.87 15.18L282.87 15.18L282.87 15.18Q282.63 15.13 282.43 14.97L282.43 14.97L282.43 14.97Q282.23 14.81 282.07 14.57L282.07 14.57L282.07 14.57Q281.92 14.34 281.83 14.04L281.83 14.04L281.83 14.04Q281.75 13.73 281.75 13.40L281.75 13.40L281.75 13.40Q281.75 12.85 281.95 12.28L281.95 12.28L281.95 12.28Q282.16 11.70 282.49 11.15L282.49 11.15L282.49 11.15Q282.83 10.60 283.28 10.11L283.28 10.11L283.28 10.11Q283.74 9.62 284.25 9.25L284.25 9.25L284.25 9.25Q284.76 8.89 285.28 8.67L285.28 8.67L285.28 8.67Q285.81 8.46 286.31 8.46L286.31 8.46L286.31 8.46Q286.80 8.46 287.05 8.66L287.05 8.66L287.05 8.66Q287.29 8.86 287.41 9.35L287.41 9.35L287.41 9.35Q287.25 9.27 287.01 9.27L287.01 9.27L287.01 9.27Q286.68 9.27 286.24 9.53L286.24 9.53L286.24 9.53Q285.80 9.80 285.34 10.23L285.34 10.23L285.34 10.23Q284.89 10.65 284.44 11.21L284.44 11.21L284.44 11.21Q283.99 11.76 283.65 12.33L283.65 12.33L283.65 12.33Q283.30 12.91 283.09 13.45L283.09 13.45L283.09 13.45Q282.87 14 282.87 14.43L282.87 14.43L282.87 14.43Q282.87 14.53 282.88 14.55L282.88 14.55L282.88 14.55Q282.90 14.57 282.93 14.57L282.93 14.57L282.93 14.57Q283.05 14.57 283.27 14.43L283.27 14.43L283.27 14.43Q283.49 14.29 283.76 14.08L283.76 14.08L283.76 14.08Q284.03 13.86 284.33 13.57L284.33 13.57L284.33 13.57Q284.62 13.29 284.89 12.99L284.89 12.99L284.89 12.99Q285.49 12.32 285.98 11.49L285.98 11.49L285.98 11.49Q286.48 10.65 286.78 9.87L286.78 9.87L286.78 9.87Q287.15 9.90 287.45 10.00L287.45 10.00L287.45 10.00Q287.74 10.09 287.85 10.21L287.85 10.21L287.85 10.21Q287.38 11.30 287.09 12.04L287.09 12.04L287.09 12.04Q286.80 12.78 286.59 13.36L286.59 13.36L286.59 13.36Q286.22 14.36 285.89 15.20L285.89 15.20L285.89 15.20Q285.56 16.03 285.21 16.74L285.21 16.74L285.21 16.74Q284.87 17.44 284.47 18.05L284.47 18.05L284.47 18.05Q284.07 18.66 283.57 19.22L283.57 19.22L283.57 19.22Q283.33 19.49 283.03 19.69L283.03 19.69L283.03 19.69Q282.73 19.89 282.41 20.03L282.41 20.03L282.41 20.03Q282.10 20.17 281.80 20.24L281.80 20.24L281.80 20.24Q281.50 20.31 281.25 20.31L281.25 20.31L281.25 20.31Q280.91 20.31 280.56 20.24L280.56 20.24L280.56 20.24Q280.21 20.16 279.91 20.03L279.91 20.03L279.91 20.03Q279.61 19.89 279.38 19.72L279.38 19.72L279.38 19.72Q279.16 19.54 279.06 19.35ZM297.46 8.39L297.46 8.39L297.46 8.39Q297.82 8.50 298.14 8.88L298.14 8.88L298.14 8.88Q298.47 9.27 298.62 9.73L298.62 9.73L298.62 9.73Q298.47 10.11 298.14 10.64L298.14 10.64L298.14 10.64Q297.82 11.17 297.50 11.72L297.50 11.72L297.50 11.72Q297.18 12.28 296.92 12.78L296.92 12.78L296.92 12.78Q296.66 13.27 296.62 13.59L296.62 13.59L296.62 13.59Q296.84 13.36 297.12 13.04L297.12 13.04L297.12 13.04Q297.39 12.73 297.65 12.41L297.65 12.41L297.65 12.41Q297.91 12.10 298.13 11.84L298.13 11.84L298.13 11.84Q298.35 11.58 298.48 11.45L298.48 11.45L298.48 11.45Q298.75 11.17 299.11 10.80L299.11 10.80L299.11 10.80Q299.47 10.43 299.87 10.10L299.87 10.10L299.87 10.10Q300.27 9.77 300.68 9.54L300.68 9.54L300.68 9.54Q301.08 9.31 301.42 9.31L301.42 9.31L301.42 9.31Q301.78 9.31 302.03 9.55L302.03 9.55L302.03 9.55Q302.27 9.80 302.41 10.07L302.41 10.07L302.41 10.07Q302.41 10.09 302.31 10.14L302.31 10.14L302.31 10.14Q302.20 10.19 302.01 10.42L302.01 10.42L302.01 10.42Q301.81 10.67 301.57 11.11L301.57 11.11L301.57 11.11Q301.32 11.55 301.09 12.06L301.09 12.06L301.09 12.06Q300.86 12.57 300.71 13.10L300.71 13.10L300.71 13.10Q300.55 13.64 300.55 14.07L300.55 14.07L300.55 14.07Q300.55 14.42 300.64 14.52L300.64 14.52L300.64 14.52Q300.73 14.62 300.90 14.62L300.90 14.62L300.90 14.62Q301.06 14.62 301.22 14.55L301.22 14.55L301.22 14.55Q301.39 14.48 301.49 14.48L301.49 14.48L301.49 14.48Q301.55 14.50 301.58 14.60L301.58 14.60L301.58 14.60Q301.62 14.69 301.62 14.76L301.62 14.76L301.62 14.76Q301.50 14.85 301.35 14.95L301.35 14.95L301.35 14.95Q301.20 15.05 301.03 15.13L301.03 15.13L301.03 15.13Q300.86 15.22 300.70 15.27L300.70 15.27L300.70 15.27Q300.54 15.33 300.41 15.33L300.41 15.33L300.41 15.33Q300.01 15.33 299.75 15.21L299.75 15.21L299.75 15.21Q299.49 15.09 299.34 14.90L299.34 14.90L299.34 14.90Q299.19 14.70 299.14 14.43L299.14 14.43L299.14 14.43Q299.08 14.15 299.08 13.85L299.08 13.85L299.08 13.85Q299.08 13.68 299.11 13.47L299.11 13.47L299.11 13.47Q299.14 13.26 299.22 12.97L299.22 12.97L299.22 12.97Q299.31 12.68 299.46 12.29L299.46 12.29L299.46 12.29Q299.61 11.89 299.85 11.33L299.85 11.33L299.85 11.33Q299.82 11.33 299.47 11.52L299.47 11.52L299.47 11.52Q299.12 11.72 298.72 12.12L298.72 12.12L298.72 12.12Q298.06 12.75 297.53 13.37L297.53 13.37L297.53 13.37Q297.01 13.99 296.46 14.74L296.46 14.74L296.46 14.74Q296.16 15.18 295.93 15.48L295.93 15.48L295.93 15.48Q295.69 15.78 295.53 15.88L295.53 15.88L295.53 15.88Q295.23 15.71 295.09 15.41L295.09 15.41L295.09 15.41Q294.95 15.11 294.88 14.78L294.88 14.78L294.88 14.78Q294.88 14.52 294.96 14.11L294.96 14.11L294.96 14.11Q295.04 13.71 295.17 13.21L295.17 13.21L295.17 13.21Q295.30 12.71 295.50 12.17L295.50 12.17L295.50 12.17Q295.69 11.62 295.93 11.07L295.93 11.07L295.93 11.07Q296.46 9.84 296.90 9.14L296.90 9.14L296.90 9.14Q297.35 8.44 297.46 8.39ZM311.40 15.67L311.40 15.67L311.40 15.67Q310.60 15.58 310.13 14.97L310.13 14.97L310.13 14.97Q309.65 14.35 309.65 13.40L309.65 13.40L309.65 13.40Q309.65 12.84 309.82 12.24L309.82 12.24L309.82 12.24Q309.99 11.63 310.30 11.07L310.30 11.07L310.30 11.07Q310.60 10.50 311.02 10.00L311.02 10.00L311.02 10.00Q311.44 9.49 311.93 9.13L311.93 9.13L311.93 9.13Q312.70 8.55 313.38 8.55L313.38 8.55L313.38 8.55Q313.82 8.79 314.26 9.55L314.26 9.55L314.26 9.55Q314.33 9.55 314.38 9.54L314.38 9.54L314.38 9.54Q314.44 9.53 314.51 9.53L314.51 9.53L314.51 9.53Q315.25 9.53 315.25 10.85L315.25 10.85L315.25 10.85Q315.25 11.73 314.96 12.52L314.96 12.52L314.96 12.52Q314.68 13.31 314.17 13.96L314.17 13.96L314.17 13.96Q313.66 14.60 312.95 15.04L312.95 15.04L312.95 15.04Q312.24 15.48 311.40 15.67ZM312.12 11.26L312.12 11.26L312.12 11.26Q311.88 11.58 311.67 11.96L311.67 11.96L311.67 11.96Q311.46 12.33 311.30 12.72L311.30 12.72L311.30 12.72Q311.15 13.10 311.07 13.46L311.07 13.46L311.07 13.46Q310.98 13.82 310.98 14.10L310.98 14.10L310.98 14.10Q310.98 14.43 311.09 14.74L311.09 14.74L311.09 14.74Q311.21 15.05 311.35 15.09L311.35 15.09L311.35 15.09Q311.98 14.95 312.50 14.57L312.50 14.57L312.50 14.57Q313.03 14.18 313.41 13.61L313.41 13.61L313.41 13.61Q313.80 13.03 314.01 12.31L314.01 12.31L314.01 12.31Q314.23 11.58 314.23 10.75L314.23 10.75L314.23 10.75Q314.23 10.39 314.19 10.18L314.19 10.18L314.19 10.18Q314.15 9.97 314.05 9.81L314.05 9.81L314.05 9.81Q313.43 10.00 312.95 10.40L312.95 10.40L312.95 10.40Q312.47 10.81 312.12 11.26ZM327.75 9.60L327.75 9.60L327.75 9.60Q327.74 9.87 327.66 10.16L327.66 10.16L327.66 10.16Q327.59 10.44 327.47 10.68L327.47 10.68L327.47 10.68Q327.36 10.91 327.24 11.06L327.24 11.06L327.24 11.06Q327.11 11.21 327.00 11.21L327.00 11.21L327.00 11.21Q326.84 11.20 326.82 11.00L326.82 11.00L326.82 11.00Q326.82 10.96 326.85 10.87L326.85 10.87L326.85 10.87Q326.89 10.78 326.93 10.67L326.93 10.67L326.93 10.67Q326.97 10.56 327.00 10.44L327.00 10.44L327.00 10.44Q327.04 10.33 327.04 10.25L327.04 10.25L327.04 10.25Q327.04 10.05 326.95 9.92L326.95 9.92L326.95 9.92Q326.86 9.79 326.70 9.79L326.70 9.79L326.70 9.79Q326.14 9.79 325.85 10.49L325.85 10.49L325.85 10.49Q325.56 11.19 325.56 12.54L325.56 12.54L325.56 12.54Q325.56 12.68 325.57 12.71L325.57 12.71L325.57 12.71Q325.86 12.70 326.09 12.69L326.09 12.69L326.09 12.69Q326.33 12.68 326.55 12.68L326.55 12.68L326.55 12.68Q326.56 12.71 326.56 12.80L326.56 12.80L326.56 12.80Q326.56 12.92 326.51 12.98L326.51 12.98L326.51 12.98Q326.19 13.05 326.00 13.10L326.00 13.10L326.00 13.10Q325.81 13.15 325.71 13.19L325.71 13.19L325.71 13.19Q325.61 13.23 325.59 13.28L325.59 13.28L325.59 13.28Q325.57 13.33 325.57 13.41L325.57 13.41L325.57 13.41Q325.57 13.52 325.58 13.64L325.58 13.64L325.58 13.64Q325.58 13.75 325.58 13.92L325.58 13.92L325.58 13.92Q325.58 15.09 324.95 15.81L324.95 15.81L324.95 15.81Q324.31 16.52 323.18 16.63L323.18 16.63L323.18 16.63Q322.98 16.62 322.77 16.52L322.77 16.52L322.77 16.52Q322.56 16.42 322.37 16.27L322.37 16.27L322.37 16.27Q322.18 16.11 322.04 15.93L322.04 15.93L322.04 15.93Q321.90 15.74 321.85 15.54L321.85 15.54L321.85 15.54Q321.85 15.01 322.07 14.53L322.07 14.53L322.07 14.53Q322.29 14.04 322.68 13.67L322.68 13.67L322.68 13.67Q323.06 13.30 323.59 13.07L323.59 13.07L323.59 13.07Q324.11 12.84 324.73 12.80L324.73 12.80L324.73 12.80Q324.73 12.45 324.66 12.11L324.66 12.11L324.66 12.11Q324.59 11.77 324.51 11.46L324.51 11.46L324.51 11.46Q324.44 11.14 324.37 10.84L324.37 10.84L324.37 10.84Q324.30 10.54 324.30 10.25L324.30 10.25L324.30 10.25Q324.30 9.87 324.45 9.50L324.45 9.50L324.45 9.50Q324.60 9.13 324.86 8.81L324.86 8.81L324.86 8.81Q325.11 8.50 325.44 8.27L325.44 8.27L325.44 8.27Q325.78 8.05 326.14 7.97L326.14 7.97L326.14 7.97Q326.30 8.01 326.56 8.21L326.56 8.21L326.56 8.21Q326.82 8.41 327.07 8.67L327.07 8.67L327.07 8.67Q327.32 8.92 327.52 9.18L327.52 9.18L327.52 9.18Q327.71 9.44 327.75 9.60ZM323.13 15.99L323.13 15.99L323.13 15.99Q323.47 15.85 323.77 15.58L323.77 15.58L323.77 15.58Q324.07 15.32 324.30 14.98L324.30 14.98L324.30 14.98Q324.52 14.64 324.65 14.27L324.65 14.27L324.65 14.27Q324.79 13.89 324.79 13.52L324.79 13.52L324.79 13.52Q324.51 13.57 324.17 13.78L324.17 13.78L324.17 13.78Q323.83 14 323.54 14.30L323.54 14.30L323.54 14.30Q323.25 14.60 323.05 14.92L323.05 14.92L323.05 14.92Q322.85 15.25 322.85 15.48L322.85 15.48L322.85 15.48Q322.85 15.79 323.13 15.99ZM334.78 14.24L334.78 14.24L334.78 14.24Q334.78 14.11 334.80 13.92L334.80 13.92L334.80 13.92Q334.82 13.73 334.88 13.42L334.88 13.42L334.88 13.42Q334.94 13.10 335.03 12.66L335.03 12.66L335.03 12.66Q335.12 12.21 335.26 11.58L335.26 11.58L335.26 11.58Q335.29 11.44 335.38 11.13L335.38 11.13L335.38 11.13Q335.48 10.82 335.64 10.48L335.64 10.48L335.64 10.48Q335.80 10.14 336.03 9.81L336.03 9.81L336.03 9.81Q336.27 9.49 336.59 9.34L336.59 9.34L336.59 9.34Q336.83 9.39 337.22 9.63L337.22 9.63L337.22 9.63Q337.61 9.86 337.89 10.26L337.89 10.26L337.89 10.26Q337.57 10.63 337.35 10.99L337.35 10.99L337.35 10.99Q337.13 11.35 336.96 11.75L336.96 11.75L336.96 11.75Q336.78 12.14 336.64 12.56L336.64 12.56L336.64 12.56Q336.49 12.98 336.31 13.44L336.31 13.44L336.31 13.44Q336.15 13.83 336.03 14.25L336.03 14.25L336.03 14.25Q335.90 14.66 335.89 14.97L335.89 14.97L335.89 14.97Q335.89 15.22 335.88 15.32L335.88 15.32L335.88 15.32Q335.87 15.43 335.80 15.43L335.80 15.43L335.80 15.43Q335.75 15.43 335.58 15.36L335.58 15.36L335.58 15.36Q335.41 15.29 335.24 15.14L335.24 15.14L335.24 15.14Q335.06 14.99 334.92 14.77L334.92 14.77L334.92 14.77Q334.78 14.55 334.78 14.24ZM337.46 8.16L337.46 8.16L337.46 8.16Q337.46 8.08 337.50 7.91L337.50 7.91L337.50 7.91Q337.43 7.84 337.38 7.70L337.38 7.70L337.38 7.70Q337.33 7.56 337.33 7.45L337.33 7.45L337.33 7.45Q337.33 7.32 337.36 7.11L337.36 7.11L337.36 7.11Q337.40 6.89 337.46 6.64L337.46 6.64L337.46 6.64Q337.51 6.38 337.60 6.11L337.60 6.11L337.60 6.11Q337.68 5.84 337.76 5.61L337.76 5.61L337.76 5.61Q337.93 5.61 338.18 5.71L338.18 5.71L338.18 5.71Q338.42 5.80 338.67 5.94L338.67 5.94L338.67 5.94Q338.93 6.09 339.14 6.27L339.14 6.27L339.14 6.27Q339.35 6.44 339.46 6.59L339.46 6.59L339.46 6.59Q339.30 6.75 339.05 7.02L339.05 7.02L339.05 7.02Q338.80 7.29 338.56 7.59L338.56 7.59L338.56 7.59Q338.32 7.90 338.13 8.16L338.13 8.16L338.13 8.16Q337.93 8.43 337.88 8.54L337.88 8.54L337.88 8.54Q337.71 8.51 337.58 8.39L337.58 8.39L337.58 8.39Q337.46 8.27 337.46 8.16ZM349.90 9.60L349.90 9.60L349.90 9.60Q349.89 9.87 349.81 10.16L349.81 10.16L349.81 10.16Q349.73 10.44 349.62 10.68L349.62 10.68L349.62 10.68Q349.51 10.91 349.38 11.06L349.38 11.06L349.38 11.06Q349.26 11.21 349.15 11.21L349.15 11.21L349.15 11.21Q348.99 11.20 348.96 11.00L348.96 11.00L348.96 11.00Q348.96 10.96 349.00 10.87L349.00 10.87L349.00 10.87Q349.03 10.78 349.08 10.67L349.08 10.67L349.08 10.67Q349.12 10.56 349.15 10.44L349.15 10.44L349.15 10.44Q349.19 10.33 349.19 10.25L349.19 10.25L349.19 10.25Q349.19 10.05 349.10 9.92L349.10 9.92L349.10 9.92Q349.01 9.79 348.85 9.79L348.85 9.79L348.85 9.79Q348.29 9.79 348.00 10.49L348.00 10.49L348.00 10.49Q347.70 11.19 347.70 12.54L347.70 12.54L347.70 12.54Q347.70 12.68 347.72 12.71L347.72 12.71L347.72 12.71Q348.01 12.70 348.24 12.69L348.24 12.69L348.24 12.69Q348.47 12.68 348.70 12.68L348.70 12.68L348.70 12.68Q348.71 12.71 348.71 12.80L348.71 12.80L348.71 12.80Q348.71 12.92 348.66 12.98L348.66 12.98L348.66 12.98Q348.33 13.05 348.14 13.10L348.14 13.10L348.14 13.10Q347.96 13.15 347.86 13.19L347.86 13.19L347.86 13.19Q347.76 13.23 347.74 13.28L347.74 13.28L347.74 13.28Q347.72 13.33 347.72 13.41L347.72 13.41L347.72 13.41Q347.72 13.52 347.72 13.64L347.72 13.64L347.72 13.64Q347.73 13.75 347.73 13.92L347.73 13.92L347.73 13.92Q347.73 15.09 347.09 15.81L347.09 15.81L347.09 15.81Q346.46 16.52 345.32 16.63L345.32 16.63L345.32 16.63Q345.13 16.62 344.92 16.52L344.92 16.52L344.92 16.52Q344.71 16.42 344.52 16.27L344.52 16.27L344.52 16.27Q344.33 16.11 344.19 15.93L344.19 15.93L344.19 15.93Q344.05 15.74 343.99 15.54L343.99 15.54L343.99 15.54Q343.99 15.01 344.22 14.53L344.22 14.53L344.22 14.53Q344.44 14.04 344.83 13.67L344.83 13.67L344.83 13.67Q345.21 13.30 345.74 13.07L345.74 13.07L345.74 13.07Q346.26 12.84 346.88 12.80L346.88 12.80L346.88 12.80Q346.88 12.45 346.81 12.11L346.81 12.11L346.81 12.11Q346.74 11.77 346.66 11.46L346.66 11.46L346.66 11.46Q346.58 11.14 346.51 10.84L346.51 10.84L346.51 10.84Q346.44 10.54 346.44 10.25L346.44 10.25L346.44 10.25Q346.44 9.87 346.60 9.50L346.60 9.50L346.60 9.50Q346.75 9.13 347.00 8.81L347.00 8.81L347.00 8.81Q347.26 8.50 347.59 8.27L347.59 8.27L347.59 8.27Q347.93 8.05 348.29 7.97L348.29 7.97L348.29 7.97Q348.45 8.01 348.70 8.21L348.70 8.21L348.70 8.21Q348.96 8.41 349.22 8.67L349.22 8.67L349.22 8.67Q349.47 8.92 349.66 9.18L349.66 9.18L349.66 9.18Q349.86 9.44 349.90 9.60ZM345.28 15.99L345.28 15.99L345.28 15.99Q345.62 15.85 345.92 15.58L345.92 15.58L345.92 15.58Q346.22 15.32 346.44 14.98L346.44 14.98L346.44 14.98Q346.67 14.64 346.80 14.27L346.80 14.27L346.80 14.27Q346.93 13.89 346.93 13.52L346.93 13.52L346.93 13.52Q346.65 13.57 346.32 13.78L346.32 13.78L346.32 13.78Q345.98 14 345.69 14.30L345.69 14.30L345.69 14.30Q345.39 14.60 345.20 14.92L345.20 14.92L345.20 14.92Q345.00 15.25 345.00 15.48L345.00 15.48L345.00 15.48Q345.00 15.79 345.28 15.99Z"></path></g></svg>