<svg data-v-423bf9ae="" xmlns="http://www.w3.org/2000/svg" viewBox="0 0 275.21126796598344 60" class="font"><!----><!----><!----><g data-v-423bf9ae="" id="c425e0f1-5f55-4434-aeff-2c84169b9f16" fill="black" transform="matrix(4.024144910398108,0,0,4.024144910398108,-2.1327928815984194,-9.295774035919052)"><path d="M6.01 13.58L0.53 13.58L0.53 13.05L0.53 13.05Q1.06 13.03 1.39 12.97L1.39 12.97L1.39 12.97Q1.72 12.91 1.90 12.73L1.90 12.73L1.90 12.73Q2.09 12.56 2.15 12.26L2.15 12.26L2.15 12.26Q2.21 11.96 2.21 11.45L2.21 11.45L2.21 4.93L2.21 4.93Q2.21 4.44 2.16 4.14L2.16 4.14L2.16 4.14Q2.11 3.84 1.97 3.66L1.97 3.66L1.97 3.66Q1.82 3.49 1.54 3.42L1.54 3.42L1.54 3.42Q1.26 3.36 0.81 3.33L0.81 3.33L0.81 2.80L5.73 2.80L5.73 2.80Q6.99 2.80 8.06 3.22L8.06 3.22L8.06 3.22Q9.13 3.64 9.90 4.38L9.90 4.38L9.90 4.38Q10.68 5.12 11.12 6.15L11.12 6.15L11.12 6.15Q11.55 7.17 11.55 8.37L11.55 8.37L11.55 8.37Q11.55 9.52 11.14 10.48L11.14 10.48L11.14 10.48Q10.74 11.44 10.00 12.12L10.00 12.12L10.00 12.12Q9.27 12.81 8.25 13.20L8.25 13.20L8.25 13.20Q7.22 13.58 6.01 13.58L6.01 13.58ZM5.70 3.49L3.92 3.49L3.92 3.49Q3.68 3.49 3.68 3.72L3.68 3.72L3.68 11.30L3.68 11.30Q3.68 12.89 5.77 12.89L5.77 12.89L5.77 12.89Q7.69 12.89 8.71 11.75L8.71 11.75L8.71 11.75Q9.73 10.61 9.73 8.40L9.73 8.40L9.73 8.40Q9.73 7.24 9.45 6.33L9.45 6.33L9.45 6.33Q9.17 5.42 8.64 4.79L8.64 4.79L8.64 4.79Q8.12 4.16 7.38 3.82L7.38 3.82L7.38 3.82Q6.64 3.49 5.70 3.49L5.70 3.49ZM15.57 6.02L15.57 11.35L15.57 11.35Q15.57 11.90 15.62 12.23L15.62 12.23L15.62 12.23Q15.67 12.56 15.81 12.75L15.81 12.75L15.81 12.75Q15.95 12.94 16.20 13.01L16.20 13.01L16.20 13.01Q16.45 13.08 16.87 13.09L16.87 13.09L16.87 13.58L12.85 13.58L12.85 13.09L12.85 13.09Q13.27 13.08 13.54 13.00L13.54 13.00L13.54 13.00Q13.80 12.92 13.95 12.75L13.95 12.75L13.95 12.75Q14.10 12.57 14.15 12.26L14.15 12.26L14.15 12.26Q14.20 11.94 14.20 11.45L14.20 11.45L14.20 9.66L14.20 9.66Q14.20 8.85 14.17 8.32L14.17 8.32L14.17 8.32Q14.15 7.80 14.10 7.60L14.10 7.60L14.10 7.60Q14.03 7.28 13.78 7.16L13.78 7.16L13.78 7.16Q13.52 7.04 12.82 7.04L12.82 7.04L12.82 6.55L15.57 6.02ZM13.96 3.18L13.96 3.18L13.96 3.18Q13.96 2.81 14.21 2.56L14.21 2.56L14.21 2.56Q14.46 2.31 14.83 2.31L14.83 2.31L14.83 2.31Q15.19 2.31 15.44 2.56L15.44 2.56L15.44 2.56Q15.69 2.81 15.69 3.18L15.69 3.18L15.69 3.18Q15.69 3.54 15.44 3.79L15.44 3.79L15.44 3.79Q15.19 4.05 14.83 4.05L14.83 4.05L14.83 4.05Q14.46 4.05 14.21 3.79L14.21 3.79L14.21 3.79Q13.96 3.54 13.96 3.18ZM22.04 10.54L22.04 9.44L22.04 9.44Q21.24 9.74 20.68 10.04L20.68 10.04L20.68 10.04Q20.13 10.33 19.80 10.63L19.80 10.63L19.80 10.63Q19.46 10.92 19.31 11.21L19.31 11.21L19.31 11.21Q19.17 11.51 19.17 11.82L19.17 11.82L19.17 11.82Q19.17 12.28 19.47 12.57L19.47 12.57L19.47 12.57Q19.78 12.87 20.29 12.87L20.29 12.87L20.29 12.87Q20.65 12.87 20.96 12.68L20.96 12.68L20.96 12.68Q21.28 12.50 21.52 12.19L21.52 12.19L21.52 12.19Q21.76 11.87 21.90 11.45L21.90 11.45L21.90 11.45Q22.04 11.02 22.04 10.54L22.04 10.54ZM20.02 9.72L22.04 8.83L22.04 8.26L22.04 8.26Q22.04 6.55 20.58 6.55L20.58 6.55L20.58 6.55Q20.34 6.55 20.17 6.59L20.17 6.59L20.17 6.59Q20.01 6.64 19.89 6.73L19.89 6.73L19.89 6.73Q19.78 6.83 19.69 7.01L19.69 7.01L19.69 7.01Q19.60 7.20 19.52 7.46L19.52 7.46L19.52 7.46Q19.36 7.87 19.21 8.00L19.21 8.00L19.21 8.00Q19.07 8.13 18.79 8.13L18.79 8.13L18.79 8.13Q18.09 8.13 18.09 7.43L18.09 7.43L18.09 7.43Q18.09 6.76 18.80 6.39L18.80 6.39L18.80 6.39Q19.52 6.02 20.83 6.02L20.83 6.02L20.83 6.02Q22.23 6.02 22.82 6.52L22.82 6.52L22.82 6.52Q23.41 7.01 23.41 8.20L23.41 8.20L23.41 11.34L23.41 11.34Q23.41 12.94 24.04 12.94L24.04 12.94L24.04 12.94Q24.23 12.94 24.42 12.89L24.42 12.89L24.42 12.89Q24.60 12.84 24.72 12.63L24.72 12.63L24.92 12.96L24.92 12.96Q24.75 13.29 24.30 13.50L24.30 13.50L24.30 13.50Q23.86 13.72 23.37 13.72L23.37 13.72L23.37 13.72Q22.75 13.72 22.45 13.33L22.45 13.33L22.45 13.33Q22.15 12.94 22.15 12.22L22.15 12.22L22.08 12.22L22.08 12.22Q21.71 12.91 21.07 13.31L21.07 13.31L21.07 13.31Q20.43 13.71 19.64 13.71L19.64 13.71L19.64 13.71Q18.76 13.71 18.26 13.26L18.26 13.26L18.26 13.26Q17.75 12.81 17.75 12.05L17.75 12.05L17.75 12.05Q17.75 11.72 17.87 11.41L17.87 11.41L17.87 11.41Q17.99 11.10 18.26 10.82L18.26 10.82L18.26 10.82Q18.52 10.54 18.96 10.27L18.96 10.27L18.96 10.27Q19.39 10.00 20.02 9.72L20.02 9.72ZM28.74 10.57L28.74 10.57L28.74 10.57Q29.33 10.57 29.66 10.04L29.66 10.04L29.66 10.04Q29.99 9.51 29.99 8.54L29.99 8.54L29.99 8.54Q29.99 7.59 29.66 7.06L29.66 7.06L29.66 7.06Q29.33 6.54 28.73 6.54L28.73 6.54L28.73 6.54Q28.13 6.54 27.77 7.07L27.77 7.07L27.77 7.07Q27.41 7.60 27.41 8.53L27.41 8.53L27.41 8.53Q27.41 9.45 27.78 10.01L27.78 10.01L27.78 10.01Q28.14 10.57 28.74 10.57ZM27.97 12.21L27.97 12.21L27.97 12.21Q28.31 12.24 28.59 12.26L28.59 12.26L28.59 12.26Q28.87 12.29 29.14 12.32L29.14 12.32L29.14 12.32Q29.41 12.35 29.69 12.39L29.69 12.39L29.69 12.39Q29.96 12.43 30.28 12.47L30.28 12.47L30.28 12.47Q31.29 12.63 31.90 13.25L31.90 13.25L31.90 13.25Q32.51 13.87 32.51 14.81L32.51 14.81L32.51 14.81Q32.51 15.99 31.58 16.60L31.58 16.60L31.58 16.60Q30.65 17.22 28.88 17.22L28.88 17.22L28.88 17.22Q28.10 17.22 27.45 17.08L27.45 17.08L27.45 17.08Q26.80 16.94 26.33 16.68L26.33 16.68L26.33 16.68Q25.87 16.42 25.61 16.06L25.61 16.06L25.61 16.06Q25.35 15.69 25.35 15.26L25.35 15.26L25.35 15.26Q25.35 14.97 25.45 14.71L25.45 14.71L25.45 14.71Q25.55 14.46 25.72 14.27L25.72 14.27L25.72 14.27Q25.89 14.08 26.12 13.97L26.12 13.97L26.12 13.97Q26.35 13.86 26.60 13.86L26.60 13.86L26.60 13.86Q27.08 13.86 27.45 14.15L27.45 14.15L27.45 14.15Q27.08 14.24 26.84 14.57L26.84 14.57L26.84 14.57Q26.60 14.90 26.60 15.32L26.60 15.32L26.60 15.32Q26.60 15.93 27.21 16.27L27.21 16.27L27.21 16.27Q27.82 16.60 28.94 16.60L28.94 16.60L28.94 16.60Q31.33 16.60 31.33 15.13L31.33 15.13L31.33 15.13Q31.33 14.57 30.95 14.20L30.95 14.20L30.95 14.20Q30.58 13.83 30.06 13.76L30.06 13.76L30.06 13.76Q29.72 13.72 29.36 13.67L29.36 13.67L29.36 13.67Q29.01 13.62 28.66 13.58L28.66 13.58L28.66 13.58Q28.32 13.54 28.03 13.51L28.03 13.51L28.03 13.51Q27.73 13.48 27.55 13.45L27.55 13.45L27.55 13.45Q26.77 13.37 26.36 13.03L26.36 13.03L26.36 13.03Q25.96 12.70 25.96 12.11L25.96 12.11L25.96 12.11Q25.96 11.62 26.36 11.24L26.36 11.24L26.36 11.24Q26.77 10.86 27.38 10.77L27.38 10.77L27.38 10.71L27.38 10.71Q27.08 10.58 26.81 10.35L26.81 10.35L26.81 10.35Q26.54 10.12 26.36 9.83L26.36 9.83L26.36 9.83Q26.17 9.53 26.05 9.19L26.05 9.19L26.05 9.19Q25.94 8.85 25.94 8.48L25.94 8.48L25.94 8.48Q25.94 7.95 26.14 7.50L26.14 7.50L26.14 7.50Q26.35 7.06 26.72 6.73L26.72 6.73L26.72 6.73Q27.09 6.40 27.59 6.21L27.59 6.21L27.59 6.21Q28.10 6.02 28.70 6.02L28.70 6.02L28.70 6.02Q29.32 6.02 29.86 6.21L29.86 6.21L29.86 6.21Q30.41 6.40 30.80 6.76L30.80 6.76L30.80 6.76Q31.28 6.37 31.64 6.20L31.64 6.20L31.64 6.20Q32.00 6.02 32.33 6.02L32.33 6.02L32.33 6.02Q32.83 6.02 33.13 6.25L33.13 6.25L33.13 6.25Q33.43 6.48 33.43 6.87L33.43 6.87L33.43 6.87Q33.43 7.11 33.27 7.25L33.27 7.25L33.27 7.25Q33.11 7.39 32.87 7.39L32.87 7.39L32.87 7.39Q32.68 7.39 32.55 7.32L32.55 7.32L32.55 7.32Q32.42 7.25 32.32 7.17L32.32 7.17L32.32 7.17Q32.21 7.10 32.10 7.03L32.10 7.03L32.10 7.03Q31.99 6.96 31.82 6.96L31.82 6.96L31.82 6.96Q31.49 6.96 31.14 7.20L31.14 7.20L31.14 7.20Q31.47 7.71 31.47 8.50L31.47 8.50L31.47 8.50Q31.47 9.69 30.73 10.37L30.73 10.37L30.73 10.37Q29.99 11.05 28.50 11.16L28.50 11.16L28.50 11.16Q27.65 11.23 27.31 11.34L27.31 11.34L27.31 11.34Q26.98 11.45 26.98 11.75L26.98 11.75L26.98 11.75Q26.98 11.97 27.23 12.07L27.23 12.07L27.23 12.07Q27.48 12.18 27.97 12.21ZM36.32 9.51L36.32 11.38L36.32 11.38Q36.32 11.96 36.34 12.29L36.34 12.29L36.34 12.29Q36.37 12.61 36.49 12.79L36.49 12.79L36.49 12.79Q36.61 12.96 36.84 13.02L36.84 13.02L36.84 13.02Q37.07 13.08 37.48 13.10L37.48 13.10L37.48 13.58L33.81 13.58L33.81 13.10L33.81 13.10Q34.20 13.08 34.43 13.02L34.43 13.02L34.43 13.02Q34.66 12.96 34.79 12.80L34.79 12.80L34.79 12.80Q34.92 12.63 34.95 12.32L34.95 12.32L34.95 12.32Q34.99 12.01 34.99 11.48L34.99 11.48L34.99 9.62L34.99 9.62Q34.99 7.95 34.90 7.59L34.90 7.59L34.90 7.59Q34.86 7.41 34.80 7.29L34.80 7.29L34.80 7.29Q34.73 7.17 34.61 7.10L34.61 7.10L34.61 7.10Q34.48 7.04 34.29 7.02L34.29 7.02L34.29 7.02Q34.09 7 33.78 7L33.78 7L33.78 6.55L36.02 6.02L36.19 7.41L36.25 7.41L36.25 7.41Q36.78 6.75 37.49 6.38L37.49 6.38L37.49 6.38Q38.21 6.02 39.05 6.02L39.05 6.02L39.05 6.02Q39.69 6.02 40.22 6.23L40.22 6.23L40.22 6.23Q40.75 6.44 41.03 6.80L41.03 6.80L41.03 6.80Q41.27 7.13 41.37 7.64L41.37 7.64L41.37 7.64Q41.47 8.15 41.47 9.04L41.47 9.04L41.47 11.38L41.47 11.38Q41.47 11.96 41.50 12.29L41.50 12.29L41.50 12.29Q41.54 12.61 41.65 12.79L41.65 12.79L41.65 12.79Q41.76 12.96 41.99 13.02L41.99 13.02L41.99 13.02Q42.22 13.08 42.60 13.10L42.60 13.10L42.60 13.58L38.98 13.58L38.98 13.10L38.98 13.10Q39.37 13.09 39.60 13.03L39.60 13.03L39.60 13.03Q39.83 12.96 39.95 12.80L39.95 12.80L39.95 12.80Q40.07 12.63 40.10 12.31L40.10 12.31L40.10 12.31Q40.14 12.00 40.14 11.48L40.14 11.48L40.14 9.63L40.14 9.63Q40.14 8.83 40.05 8.29L40.05 8.29L40.05 8.29Q39.97 7.74 39.78 7.41L39.78 7.41L39.78 7.41Q39.59 7.07 39.28 6.92L39.28 6.92L39.28 6.92Q38.98 6.78 38.54 6.78L38.54 6.78L38.54 6.78Q37.91 6.78 37.39 7.10L37.39 7.10L37.39 7.10Q36.86 7.43 36.57 8.01L36.57 8.01L36.57 8.01Q36.50 8.15 36.45 8.27L36.45 8.27L36.45 8.27Q36.40 8.40 36.37 8.57L36.37 8.57L36.37 8.57Q36.34 8.74 36.33 8.95L36.33 8.95L36.33 8.95Q36.32 9.17 36.32 9.51L36.32 9.51ZM47.49 6.02L47.49 6.02L47.49 6.02Q48.29 6.02 49 6.31L49 6.31L49 6.31Q49.71 6.59 50.25 7.10L50.25 7.10L50.25 7.10Q50.79 7.60 51.11 8.29L51.11 8.29L51.11 8.29Q51.42 8.99 51.42 9.81L51.42 9.81L51.42 9.81Q51.42 10.67 51.11 11.38L51.11 11.38L51.11 11.38Q50.79 12.10 50.25 12.61L50.25 12.61L50.25 12.61Q49.71 13.13 49 13.43L49 13.43L49 13.43Q48.29 13.72 47.49 13.72L47.49 13.72L47.49 13.72Q46.70 13.72 46.00 13.43L46.00 13.43L46.00 13.43Q45.29 13.15 44.76 12.63L44.76 12.63L44.76 12.63Q44.23 12.11 43.92 11.39L43.92 11.39L43.92 11.39Q43.61 10.67 43.61 9.81L43.61 9.81L43.61 9.81Q43.61 8.99 43.92 8.29L43.92 8.29L43.92 8.29Q44.23 7.59 44.76 7.08L44.76 7.08L44.76 7.08Q45.29 6.58 46.00 6.30L46.00 6.30L46.00 6.30Q46.70 6.02 47.49 6.02ZM47.49 6.69L47.49 6.69L47.49 6.69Q46.97 6.69 46.54 6.92L46.54 6.92L46.54 6.92Q46.12 7.14 45.82 7.55L45.82 7.55L45.82 7.55Q45.51 7.97 45.35 8.55L45.35 8.55L45.35 8.55Q45.19 9.13 45.19 9.83L45.19 9.83L45.19 9.83Q45.19 10.56 45.35 11.14L45.35 11.14L45.35 11.14Q45.51 11.73 45.82 12.14L45.82 12.14L45.82 12.14Q46.12 12.56 46.54 12.78L46.54 12.78L46.54 12.78Q46.96 13.01 47.49 13.01L47.49 13.01L47.49 13.01Q48.02 13.01 48.45 12.78L48.45 12.78L48.45 12.78Q48.89 12.56 49.20 12.14L49.20 12.14L49.20 12.14Q49.50 11.72 49.67 11.13L49.67 11.13L49.67 11.13Q49.84 10.54 49.84 9.83L49.84 9.83L49.84 9.83Q49.84 9.13 49.67 8.55L49.67 8.55L49.67 8.55Q49.50 7.98 49.20 7.57L49.20 7.57L49.20 7.57Q48.89 7.15 48.45 6.92L48.45 6.92L48.45 6.92Q48.02 6.69 47.49 6.69ZM53.58 13.09L53.30 13.58L52.99 13.58L52.99 11.17L53.34 11.17L53.34 11.17Q53.89 13.15 55.33 13.15L55.33 13.15L55.33 13.15Q55.89 13.15 56.22 12.87L56.22 12.87L56.22 12.87Q56.55 12.60 56.55 12.04L56.55 12.04L56.55 12.04Q56.55 11.83 56.48 11.68L56.48 11.68L56.48 11.68Q56.42 11.54 56.25 11.38L56.25 11.38L56.25 11.38Q56.07 11.21 55.76 11.00L55.76 11.00L55.76 11.00Q55.44 10.79 54.92 10.47L54.92 10.47L54.92 10.47Q54.45 10.18 54.10 9.93L54.10 9.93L54.10 9.93Q53.75 9.67 53.51 9.41L53.51 9.41L53.51 9.41Q53.27 9.16 53.15 8.86L53.15 8.86L53.15 8.86Q53.03 8.57 53.03 8.18L53.03 8.18L53.03 8.18Q53.03 7.70 53.19 7.30L53.19 7.30L53.19 7.30Q53.35 6.90 53.63 6.62L53.63 6.62L53.63 6.62Q53.91 6.34 54.29 6.18L54.29 6.18L54.29 6.18Q54.67 6.02 55.12 6.02L55.12 6.02L55.12 6.02Q55.50 6.02 55.90 6.14L55.90 6.14L55.90 6.14Q56.31 6.26 56.62 6.45L56.62 6.45L56.90 6.16L57.16 6.16L57.16 8.18L56.80 8.18L56.80 8.18Q56.49 7.32 56.13 6.96L56.13 6.96L56.13 6.96Q55.76 6.59 55.23 6.59L55.23 6.59L55.23 6.59Q54.75 6.59 54.47 6.85L54.47 6.85L54.47 6.85Q54.18 7.10 54.18 7.55L54.18 7.55L54.18 7.55Q54.18 7.78 54.26 7.96L54.26 7.96L54.26 7.96Q54.33 8.13 54.50 8.30L54.50 8.30L54.50 8.30Q54.67 8.47 54.93 8.64L54.93 8.64L54.93 8.64Q55.19 8.82 55.55 9.04L55.55 9.04L55.55 9.04Q56.15 9.42 56.58 9.72L56.58 9.72L56.58 9.72Q57.01 10.01 57.27 10.30L57.27 10.30L57.27 10.30Q57.54 10.58 57.67 10.89L57.67 10.89L57.67 10.89Q57.79 11.20 57.79 11.59L57.79 11.59L57.79 11.59Q57.79 12.59 57.15 13.15L57.15 13.15L57.15 13.15Q56.50 13.72 55.45 13.72L55.45 13.72L55.45 13.72Q54.36 13.72 53.58 13.09L53.58 13.09ZM61.64 6.02L61.64 11.35L61.64 11.35Q61.64 11.90 61.69 12.23L61.69 12.23L61.69 12.23Q61.74 12.56 61.88 12.75L61.88 12.75L61.88 12.75Q62.02 12.94 62.27 13.01L62.27 13.01L62.27 13.01Q62.52 13.08 62.94 13.09L62.94 13.09L62.94 13.58L58.93 13.58L58.93 13.09L58.93 13.09Q59.35 13.08 59.61 13.00L59.61 13.00L59.61 13.00Q59.88 12.92 60.03 12.75L60.03 12.75L60.03 12.75Q60.17 12.57 60.22 12.26L60.22 12.26L60.22 12.26Q60.27 11.94 60.27 11.45L60.27 11.45L60.27 9.66L60.27 9.66Q60.27 8.85 60.25 8.32L60.25 8.32L60.25 8.32Q60.23 7.80 60.17 7.60L60.17 7.60L60.17 7.60Q60.10 7.28 59.85 7.16L59.85 7.16L59.85 7.16Q59.60 7.04 58.90 7.04L58.90 7.04L58.90 6.55L61.64 6.02ZM60.03 3.18L60.03 3.18L60.03 3.18Q60.03 2.81 60.28 2.56L60.28 2.56L60.28 2.56Q60.54 2.31 60.90 2.31L60.90 2.31L60.90 2.31Q61.26 2.31 61.52 2.56L61.52 2.56L61.52 2.56Q61.77 2.81 61.77 3.18L61.77 3.18L61.77 3.18Q61.77 3.54 61.52 3.79L61.52 3.79L61.52 3.79Q61.26 4.05 60.90 4.05L60.90 4.05L60.90 4.05Q60.54 4.05 60.28 3.79L60.28 3.79L60.28 3.79Q60.03 3.54 60.03 3.18ZM64.71 13.09L64.43 13.58L64.12 13.58L64.12 11.17L64.47 11.17L64.47 11.17Q65.02 13.15 66.46 13.15L66.46 13.15L66.46 13.15Q67.02 13.15 67.35 12.87L67.35 12.87L67.35 12.87Q67.68 12.60 67.68 12.04L67.68 12.04L67.68 12.04Q67.68 11.83 67.61 11.68L67.61 11.68L67.61 11.68Q67.55 11.54 67.38 11.38L67.38 11.38L67.38 11.38Q67.20 11.21 66.89 11.00L66.89 11.00L66.89 11.00Q66.57 10.79 66.05 10.47L66.05 10.47L66.05 10.47Q65.58 10.18 65.23 9.93L65.23 9.93L65.23 9.93Q64.88 9.67 64.64 9.41L64.64 9.41L64.64 9.41Q64.40 9.16 64.28 8.86L64.28 8.86L64.28 8.86Q64.16 8.57 64.16 8.18L64.16 8.18L64.16 8.18Q64.16 7.70 64.32 7.30L64.32 7.30L64.32 7.30Q64.48 6.90 64.76 6.62L64.76 6.62L64.76 6.62Q65.04 6.34 65.42 6.18L65.42 6.18L65.42 6.18Q65.80 6.02 66.25 6.02L66.25 6.02L66.25 6.02Q66.63 6.02 67.03 6.14L67.03 6.14L67.03 6.14Q67.44 6.26 67.75 6.45L67.75 6.45L68.03 6.16L68.29 6.16L68.29 8.18L67.93 8.18L67.93 8.18Q67.62 7.32 67.26 6.96L67.26 6.96L67.26 6.96Q66.89 6.59 66.36 6.59L66.36 6.59L66.36 6.59Q65.88 6.59 65.60 6.85L65.60 6.85L65.60 6.85Q65.31 7.10 65.31 7.55L65.31 7.55L65.31 7.55Q65.31 7.78 65.39 7.96L65.39 7.96L65.39 7.96Q65.46 8.13 65.63 8.30L65.63 8.30L65.63 8.30Q65.80 8.47 66.06 8.64L66.06 8.64L66.06 8.64Q66.32 8.82 66.68 9.04L66.68 9.04L66.68 9.04Q67.28 9.42 67.71 9.72L67.71 9.72L67.71 9.72Q68.14 10.01 68.40 10.30L68.40 10.30L68.40 10.30Q68.67 10.58 68.80 10.89L68.80 10.89L68.80 10.89Q68.92 11.20 68.92 11.59L68.92 11.59L68.92 11.59Q68.92 12.59 68.28 13.15L68.28 13.15L68.28 13.15Q67.63 13.72 66.58 13.72L66.58 13.72L66.58 13.72Q65.49 13.72 64.71 13.09L64.71 13.09Z"></path></g><!----><!----></svg>