<svg data-v-423bf9ae="" xmlns="http://www.w3.org/2000/svg" viewBox="0 0 1819.2403767903647 1228" class="iconAbove"><!----><!----><!----><g data-v-423bf9ae="" id="f07f8762-701a-47bd-80f4-f047c7b144de" fill="#120A0A" transform="matrix(5.102040717026833,0,0,5.102040717026833,721.4058802370253,1157.237705230713)"><path d="M5.85 13.58L0.46 13.58L0.46 13.02L0.46 13.02Q0.94 13.01 1.23 12.94L1.23 12.94L1.23 12.94Q1.51 12.87 1.67 12.70L1.67 12.70L1.67 12.70Q1.83 12.53 1.89 12.22L1.89 12.22L1.89 12.22Q1.95 11.91 1.95 11.42L1.95 11.42L1.95 4.96L1.95 4.96Q1.95 4.47 1.90 4.16L1.90 4.16L1.90 4.16Q1.86 3.86 1.73 3.69L1.73 3.69L1.73 3.69Q1.60 3.51 1.36 3.45L1.36 3.45L1.36 3.45Q1.13 3.39 0.76 3.36L0.76 3.36L0.76 2.80L5.25 2.80L5.25 2.80Q7.36 2.80 8.51 3.48L8.51 3.48L8.51 3.48Q9.65 4.16 9.65 5.42L9.65 5.42L9.65 5.42Q9.65 7.08 7.25 7.77L7.25 7.77L7.25 7.83L7.25 7.83Q8.02 7.83 8.64 8.04L8.64 8.04L8.64 8.04Q9.27 8.26 9.70 8.65L9.70 8.65L9.70 8.65Q10.14 9.04 10.37 9.58L10.37 9.58L10.37 9.58Q10.61 10.11 10.61 10.74L10.61 10.74L10.61 10.74Q10.61 11.45 10.27 11.98L10.27 11.98L10.27 11.98Q9.93 12.52 9.28 12.88L9.28 12.88L9.28 12.88Q8.04 13.58 5.85 13.58L5.85 13.58ZM5.95 12.73L5.95 12.73L5.95 12.73Q8.20 12.73 8.20 10.70L8.20 10.70L8.20 10.70Q8.20 9.45 7.39 8.88L7.39 8.88L7.39 8.88Q6.97 8.58 6.31 8.46L6.31 8.46L6.31 8.46Q5.64 8.33 4.68 8.33L4.68 8.33L4.00 8.33L4.00 11.13L4.00 11.13Q4.00 12.00 4.45 12.36L4.45 12.36L4.45 12.36Q4.90 12.73 5.95 12.73ZM4.00 7.49L4.83 7.49L4.83 7.49Q5.46 7.49 5.92 7.37L5.92 7.37L5.92 7.37Q6.38 7.25 6.71 7.03L6.71 7.03L6.71 7.03Q7.38 6.57 7.38 5.59L7.38 5.59L7.38 5.59Q7.38 4.56 6.87 4.11L6.87 4.11L6.87 4.11Q6.37 3.65 5.25 3.65L5.25 3.65L4.26 3.65L4.26 3.65Q4.00 3.65 4.00 3.89L4.00 3.89L4.00 7.49ZM14.76 6.02L14.76 11.28L14.76 11.28Q14.76 11.84 14.80 12.18L14.80 12.18L14.80 12.18Q14.84 12.52 14.97 12.70L14.97 12.70L14.97 12.70Q15.09 12.88 15.33 12.94L15.33 12.94L15.33 12.94Q15.57 13.01 15.97 13.02L15.97 13.02L15.97 13.58L11.56 13.58L11.56 13.02L11.56 13.02Q11.96 13.01 12.20 12.93L12.20 12.93L12.20 12.93Q12.45 12.85 12.58 12.68L12.58 12.68L12.58 12.68Q12.71 12.50 12.76 12.19L12.76 12.19L12.76 12.19Q12.81 11.87 12.81 11.38L12.81 11.38L12.81 9.66L12.81 9.66Q12.81 8.85 12.78 8.32L12.78 8.32L12.78 8.32Q12.75 7.80 12.71 7.60L12.71 7.60L12.71 7.60Q12.64 7.25 12.40 7.14L12.40 7.14L12.40 7.14Q12.15 7.03 11.51 7.03L11.51 7.03L11.51 6.55L14.76 6.02ZM12.70 3.05L12.70 3.05L12.70 3.05Q12.70 2.59 13.01 2.28L13.01 2.28L13.01 2.28Q13.33 1.96 13.78 1.96L13.78 1.96L13.78 1.96Q14.24 1.96 14.55 2.28L14.55 2.28L14.55 2.28Q14.87 2.59 14.87 3.05L14.87 3.05L14.87 3.05Q14.87 3.50 14.55 3.81L14.55 3.81L14.55 3.81Q14.24 4.13 13.78 4.13L13.78 4.13L13.78 4.13Q13.33 4.13 13.01 3.81L13.01 3.81L13.01 3.81Q12.70 3.50 12.70 3.05ZM21.22 13.58L21.22 13.02L21.22 13.02Q21.67 13.02 21.85 12.98L21.85 12.98L21.85 12.98Q22.04 12.95 22.04 12.84L22.04 12.84L22.04 12.84Q22.04 12.75 21.85 12.43L21.85 12.43L21.85 12.43Q21.66 12.10 21.36 11.66L21.36 11.66L20.30 10.07L19.60 10.74L19.60 11.28L19.60 11.28Q19.60 11.83 19.64 12.17L19.64 12.17L19.64 12.17Q19.68 12.50 19.79 12.69L19.79 12.69L19.79 12.69Q19.89 12.88 20.08 12.95L20.08 12.95L20.08 12.95Q20.27 13.02 20.57 13.02L20.57 13.02L20.57 13.58L16.44 13.58L16.44 13.02L16.44 13.02Q16.83 13.01 17.07 12.94L17.07 12.94L17.07 12.94Q17.30 12.87 17.44 12.69L17.44 12.69L17.44 12.69Q17.58 12.52 17.63 12.20L17.63 12.20L17.63 12.20Q17.68 11.89 17.68 11.38L17.68 11.38L17.68 5.45L17.68 5.45Q17.68 4.59 17.65 4.10L17.65 4.10L17.65 4.10Q17.63 3.61 17.51 3.37L17.51 3.37L17.51 3.37Q17.39 3.12 17.14 3.07L17.14 3.07L17.14 3.07Q16.90 3.01 16.48 3.01L16.48 3.01L16.48 2.49L19.60 1.96L19.60 9.74L20.94 8.47L20.94 8.47Q21.67 7.78 21.98 7.44L21.98 7.44L21.98 7.44Q22.29 7.10 22.29 6.94L22.29 6.94L22.29 6.94Q22.29 6.82 22.03 6.77L22.03 6.77L22.03 6.77Q21.77 6.72 21.07 6.72L21.07 6.72L21.07 6.16L24.89 6.16L24.89 6.72L24.89 6.72Q24.36 6.72 23.95 6.90L23.95 6.90L23.95 6.90Q23.55 7.08 23.07 7.53L23.07 7.53L21.71 8.81L24.14 12.24L24.14 12.24Q24.46 12.68 24.77 12.85L24.77 12.85L24.77 12.85Q25.07 13.02 25.58 13.02L25.58 13.02L25.58 13.58L21.22 13.58ZM32.30 11.79L32.69 12.28L32.69 12.28Q31.42 13.72 29.51 13.72L29.51 13.72L29.51 13.72Q28.64 13.72 27.94 13.45L27.94 13.45L27.94 13.45Q27.23 13.17 26.73 12.68L26.73 12.68L26.73 12.68Q26.22 12.18 25.94 11.49L25.94 11.49L25.94 11.49Q25.66 10.81 25.66 9.97L25.66 9.97L25.66 9.97Q25.66 9.10 25.96 8.38L25.96 8.38L25.96 8.38Q26.25 7.66 26.79 7.13L26.79 7.13L26.79 7.13Q27.33 6.61 28.06 6.31L28.06 6.31L28.06 6.31Q28.80 6.02 29.68 6.02L29.68 6.02L29.68 6.02Q31.16 6.02 31.99 6.82L31.99 6.82L31.99 6.82Q32.82 7.62 32.82 9.06L32.82 9.06L32.82 9.06Q32.82 9.28 32.75 9.33L32.75 9.33L32.75 9.33Q32.68 9.38 32.35 9.38L32.35 9.38L27.85 9.38L27.85 9.38Q27.79 9.51 27.79 9.84L27.79 9.84L27.79 9.84Q27.79 11.21 28.38 12.01L28.38 12.01L28.38 12.01Q28.98 12.81 30.00 12.81L30.00 12.81L30.00 12.81Q30.59 12.81 31.17 12.54L31.17 12.54L31.17 12.54Q31.75 12.28 32.30 11.79L32.30 11.79ZM27.94 8.60L29.97 8.60L29.97 8.60Q30.53 8.60 30.70 8.53L30.70 8.53L30.70 8.53Q30.86 8.47 30.86 8.23L30.86 8.23L30.86 8.23Q30.86 7.62 30.51 7.22L30.51 7.22L30.51 7.22Q30.16 6.83 29.62 6.83L29.62 6.83L29.62 6.83Q29.02 6.83 28.55 7.33L28.55 7.33L28.55 7.33Q28.08 7.83 27.94 8.60L27.94 8.60ZM42.91 8.75L41.02 13.72L39.97 13.72L38.05 7.97L38.05 7.97Q37.83 7.29 37.53 7.02L37.53 7.02L37.53 7.02Q37.24 6.75 36.75 6.72L36.75 6.72L36.75 6.16L40.75 6.16L40.75 6.72L40.75 6.72Q40.25 6.73 40.05 6.87L40.05 6.87L40.05 6.87Q39.86 7 39.86 7.32L39.86 7.32L39.86 7.32Q39.86 7.48 39.90 7.66L39.90 7.66L39.90 7.66Q39.94 7.84 40.01 8.08L40.01 8.08L40.89 11.35L40.95 11.35L42.91 6.16L44.06 6.16L45.53 11.35L45.60 11.35L46.72 8.46L46.72 8.46Q46.86 8.11 46.91 7.85L46.91 7.85L46.91 7.85Q46.97 7.59 46.97 7.39L46.97 7.39L46.97 7.39Q46.97 7.03 46.73 6.87L46.73 6.87L46.73 6.87Q46.49 6.72 46.09 6.72L46.09 6.72L46.09 6.16L49.10 6.16L49.10 6.72L49.10 6.72Q48.85 6.72 48.68 6.78L48.68 6.78L48.68 6.78Q48.51 6.83 48.34 7.04L48.34 7.04L48.34 7.04Q48.17 7.25 47.98 7.69L47.98 7.69L47.98 7.69Q47.78 8.12 47.49 8.88L47.49 8.88L45.56 13.72L44.45 13.72L42.97 8.75L42.91 8.75ZM53.76 10.92L53.76 9.59L53.76 9.59Q52.58 10.12 51.99 10.58L51.99 10.58L51.99 10.58Q51.39 11.03 51.39 11.52L51.39 11.52L51.39 11.52Q51.39 11.93 51.62 12.17L51.62 12.17L51.62 12.17Q51.84 12.40 52.18 12.40L52.18 12.40L52.18 12.40Q52.51 12.40 52.81 12.29L52.81 12.29L52.81 12.29Q53.10 12.17 53.31 11.97L53.31 11.97L53.31 11.97Q53.52 11.77 53.64 11.50L53.64 11.50L53.64 11.50Q53.76 11.23 53.76 10.92L53.76 10.92ZM51.79 9.70L53.76 8.85L53.76 8.26L53.76 8.26Q53.76 7.45 53.47 7.08L53.47 7.08L53.47 7.08Q53.19 6.71 52.58 6.71L52.58 6.71L52.58 6.71Q52.18 6.71 51.97 6.92L51.97 6.92L51.97 6.92Q51.76 7.14 51.58 7.64L51.58 7.64L51.58 7.64Q51.45 7.99 51.22 8.19L51.22 8.19L51.22 8.19Q50.99 8.39 50.58 8.39L50.58 8.39L50.58 8.39Q50.19 8.39 49.98 8.15L49.98 8.15L49.98 8.15Q49.77 7.91 49.77 7.48L49.77 7.48L49.77 7.48Q49.77 6.80 50.50 6.41L50.50 6.41L50.50 6.41Q51.24 6.02 52.72 6.02L52.72 6.02L52.72 6.02Q54.29 6.02 54.96 6.59L54.96 6.59L54.96 6.59Q55.64 7.15 55.64 8.48L55.64 8.48L55.64 11.55L55.64 11.55Q55.64 12.74 56.11 12.74L56.11 12.74L56.11 12.74Q56.38 12.74 56.60 12.56L56.60 12.56L56.81 12.96L56.81 12.96Q56.62 13.31 56.20 13.52L56.20 13.52L56.20 13.52Q55.79 13.72 55.27 13.72L55.27 13.72L55.27 13.72Q54.63 13.72 54.29 13.33L54.29 13.33L54.29 13.33Q53.96 12.94 53.96 12.22L53.96 12.22L53.89 12.22L53.89 12.22Q53.48 12.95 52.84 13.33L52.84 13.33L52.84 13.33Q52.19 13.71 51.37 13.71L51.37 13.71L51.37 13.71Q50.48 13.71 49.95 13.21L49.95 13.21L49.95 13.21Q49.42 12.71 49.42 11.91L49.42 11.91L49.42 11.91Q49.42 11.30 49.97 10.76L49.97 10.76L49.97 10.76Q50.51 10.22 51.79 9.70L51.79 9.70ZM58.48 13.09L58.17 13.58L57.74 13.58L57.74 11.03L58.32 11.03L58.32 11.03Q58.56 12.04 59.01 12.50L59.01 12.50L59.01 12.50Q59.46 12.96 60.17 12.96L60.17 12.96L60.17 12.96Q60.69 12.96 60.98 12.75L60.98 12.75L60.98 12.75Q61.26 12.53 61.26 12.15L61.26 12.15L61.26 12.15Q61.26 11.76 60.91 11.39L60.91 11.39L60.91 11.39Q60.56 11.02 59.78 10.60L59.78 10.60L59.78 10.60Q58.72 10.02 58.25 9.46L58.25 9.46L58.25 9.46Q57.79 8.89 57.79 8.18L57.79 8.18L57.79 8.18Q57.79 7.71 57.97 7.31L57.97 7.31L57.97 7.31Q58.14 6.92 58.44 6.62L58.44 6.62L58.44 6.62Q58.74 6.33 59.16 6.17L59.16 6.17L59.16 6.17Q59.58 6.01 60.07 6.01L60.07 6.01L60.07 6.01Q60.51 6.01 60.93 6.13L60.93 6.13L60.93 6.13Q61.36 6.26 61.68 6.48L61.68 6.48L61.94 6.15L62.30 6.15L62.30 8.26L61.75 8.26L61.75 8.26Q61.43 7.46 61.09 7.11L61.09 7.11L61.09 7.11Q60.75 6.76 60.26 6.76L60.26 6.76L60.26 6.76Q59.86 6.76 59.63 6.97L59.63 6.97L59.63 6.97Q59.40 7.18 59.40 7.53L59.40 7.53L59.40 7.53Q59.40 7.92 59.74 8.27L59.74 8.27L59.74 8.27Q60.09 8.62 60.89 9.04L60.89 9.04L60.89 9.04Q61.45 9.35 61.85 9.65L61.85 9.65L61.85 9.65Q62.26 9.94 62.51 10.24L62.51 10.24L62.51 10.24Q62.76 10.54 62.88 10.87L62.88 10.87L62.88 10.87Q63 11.20 63 11.58L63 11.58L63 11.58Q63 12.07 62.82 12.46L62.82 12.46L62.82 12.46Q62.64 12.85 62.30 13.13L62.30 13.13L62.30 13.13Q61.96 13.41 61.49 13.57L61.49 13.57L61.49 13.57Q61.03 13.72 60.45 13.72L60.45 13.72L60.45 13.72Q59.85 13.72 59.33 13.56L59.33 13.56L59.33 13.56Q58.81 13.40 58.48 13.09L58.48 13.09ZM66.92 9.42L66.92 11.28L66.92 11.28Q66.92 11.86 66.95 12.19L66.95 12.19L66.95 12.19Q66.99 12.52 67.11 12.70L67.11 12.70L67.11 12.70Q67.23 12.88 67.47 12.94L67.47 12.94L67.47 12.94Q67.72 12.99 68.14 13.02L68.14 13.02L68.14 13.58L63.73 13.58L63.73 13.02L63.73 13.02Q64.15 12.99 64.40 12.94L64.40 12.94L64.40 12.94Q64.65 12.88 64.78 12.71L64.78 12.71L64.78 12.71Q64.90 12.54 64.94 12.23L64.94 12.23L64.94 12.23Q64.97 11.91 64.97 11.38L64.97 11.38L64.97 5.63L64.97 5.63Q64.97 4.79 64.95 4.30L64.95 4.30L64.95 4.30Q64.93 3.82 64.88 3.57L64.88 3.57L64.88 3.57Q64.83 3.39 64.78 3.28L64.78 3.28L64.78 3.28Q64.72 3.18 64.60 3.12L64.60 3.12L64.60 3.12Q64.48 3.05 64.28 3.03L64.28 3.03L64.28 3.03Q64.08 3.01 63.77 3.01L63.77 3.01L63.77 2.49L66.89 1.96L66.89 7.13L66.95 7.13L66.95 7.13Q67.38 6.55 67.92 6.29L67.92 6.29L67.92 6.29Q68.46 6.02 69.22 6.02L69.22 6.02L69.22 6.02Q70.59 6.02 71.34 6.86L71.34 6.86L71.34 6.86Q71.71 7.28 71.92 7.88L71.92 7.88L71.92 7.88Q72.13 8.47 72.13 9.11L72.13 9.11L72.13 11.28L72.13 11.28Q72.13 11.87 72.16 12.20L72.16 12.20L72.16 12.20Q72.18 12.53 72.30 12.71L72.30 12.71L72.30 12.71Q72.42 12.88 72.66 12.94L72.66 12.94L72.66 12.94Q72.90 12.99 73.32 13.02L73.32 13.02L73.32 13.58L68.94 13.58L68.94 13.02L68.94 13.02Q69.36 13.01 69.60 12.94L69.60 12.94L69.60 12.94Q69.85 12.88 69.98 12.71L69.98 12.71L69.98 12.71Q70.11 12.54 70.15 12.23L70.15 12.23L70.15 12.23Q70.18 11.91 70.18 11.38L70.18 11.38L70.18 9.66L70.18 9.66Q70.18 8.18 69.86 7.56L69.86 7.56L69.86 7.56Q69.54 6.94 68.75 6.94L68.75 6.94L68.75 6.94Q67.91 6.94 67.42 7.56L67.42 7.56L67.42 7.56Q67.19 7.88 67.05 8.36L67.05 8.36L67.05 8.36Q66.92 8.83 66.92 9.42L66.92 9.42Z"></path></g><!----><g data-v-423bf9ae="" id="7b15c789-fefe-4201-b160-6dcab4005bd8" transform="matrix(3.581181844075521,0,0,3.581181844075521,-6.782552083333371,-338.79839266436954)" stroke="none" fill="#0A07D6"><path d="M434.2 265.5c-12.9 0-25.1 3.3-35.8 9l-17.5-21.7 58.6-23.9c5.5-2.3 9-7.7 8.8-13.7-.1-2.9-3.5-71.3-43.3-103.7-17.5-14.2-38.9-19.4-63.6-15.4-6.8 1.1-11.8 7-11.8 13.9v6.7l-8.5-9.3c-2.3-2.5-5.5-4.1-8.9-4.5l-31.5-3.4c-7.6-.8-14.7 4.7-15.6 12.5-.8 7.7 4.7 14.7 12.5 15.6l26.3 2.9 25.7 28.1v27.3l-10 4.6c-9.3-11.3-26.8-28.1-50.5-30.6-20.1-2.1-39.7 6.1-58.2 24.5h-65.5l-20-19.9c-2.6-2.6-6.2-4.1-9.9-4.1H47.9c-5.5 0-10.5 3.2-12.8 8.2l-14.4 31c-2.8 5.8-1.3 15.2 7.7 19.1l130.1 50.6-27.1 18.5c-13.7-13.7-32.7-22.2-53.6-22.2C36 265.5 2 299.5 2 341.3s34 75.8 75.8 75.8c37 0 67.8-26.6 74.5-61.7h159c5.4 0 10.3-3 12.7-7.9l36.9-74.6 15.6 19.3c-11.3 13.2-18.1 30.3-18.1 49.1 0 41.8 34 75.8 75.8 75.8s75.8-34 75.8-75.8-34-75.8-75.8-75.8zM77.8 389c-26.3 0-47.6-21.4-47.6-47.6 0-26.3 21.4-47.6 47.6-47.6 11.2 0 21.4 3.9 29.6 10.4l-37.5 25.6c-5.1 3.5-7.4 9.9-5.5 15.8 1.8 5.9 7.3 9.9 13.5 9.9h45.5c-6.1 19.3-24.2 33.5-45.6 33.5zm274.8-155.1c-3.2 1.3-5.8 3.7-7.3 6.8l-42.8 86.5H152.3c-1.1-5.6-2.7-11.1-5-16.2l49.3-33.6c8.8-5.7 8.3-20.4-2.8-24.8L52.7 197.8l4.3-9.2h52.5l20 19.9c2.6 2.6 6.2 4.1 9.9 4.1h77.3c3.9 0 7.7-1.6 10.4-4.5 13.5-14.6 26.6-21.4 38.8-20.2 21.4 2.2 36.7 27.2 36.8 27.4 3.7 6.2 11.5 8.6 18 5.6l28.7-13.2c5-2.3 8.2-7.3 8.2-12.8V123c11.3.1 21 3.6 29.4 10.3 22.5 18.3 29.8 55.7 32 73.4l-66.4 27.2zM434.2 389c-26.3 0-47.6-21.4-47.6-47.6 0-9.8 3-18.9 8.1-26.5l28.5 35.4c4.9 6.1 13.8 7 19.8 2.1 6.1-4.9 7-13.8 2.1-19.8l-28.5-35.4c5.4-2.2 11.4-3.4 17.6-3.4 26.3 0 47.6 21.4 47.6 47.6 0 26.2-21.4 47.6-47.6 47.6z"></path></g><!----></svg>