<svg data-v-423bf9ae="" xmlns="http://www.w3.org/2000/svg" viewBox="0 0 NaN NaN" class="iconAbove"><!----><!----><!----><g data-v-423bf9ae="" id="8d9ba00e-a9c9-4cc6-affd-00fcc0dac4ce" fill="white" transform="matrix(Infinity,0,0,Infinity,0,0)"><path d=""></path></g><!----><g data-v-423bf9ae="" id="d081f34e-e4f2-42dd-ab05-63b3e188b939" transform="matrix(1.7341039952594854,0,0,1.7341039952594854,-36.59508864430056,-36.856645177451085)" stroke="none" fill="white"><path d="M75.8 27.8l5.3-5.3c1.2-1.2 3.2-1.2 4.4 0l8.3 8.3c1.2 1.2 1.2 3.2 0 4.4l-5.3 5.3-12.7-12.7zm11.1 14.4L71.7 57.4 53 63.3l6-18.7 15.2-15.2 3.4 3.4-11.5 11.5c-.4.4-.4 1 0 1.3.4.4 1 .4 1.3 0l11.5-11.5 3.4 3.4L70.8 49c-.4.4-.4 1 0 1.3.4.4 1 .4 1.3 0l11.5-11.5 3.3 3.4zm-17.7 13l-8.1-8.1-2.7 8.1 2.7 2.7 8.1-2.7zm-13.9 11c-.7.2-1.7.5-2.4.8L49 68.3c-.7.2-1-.2-.8-.8l1.3-3.9c.2-.6.5-1.5.7-2.2H7.5c-1.4 0-2.5 1.1-2.5 2.5V71c0 1.4 1.1 2.5 2.5 2.5h56.8c1.4 0 2.5-1.1 2.5-2.5v-7.2c0-.4-.1-.8-.3-1.2l-11.2 3.6zM7.5 51.3h45.8l2.1-6.5c.2-.7.4-1.4.5-1.6s.3-.5.4-.7l1.2-1.2 2.2-2.2H7.5c-1.4 0-2.5 1.1-2.5 2.5v7.2c0 1.4 1.1 2.5 2.5 2.5z"></path></g><!----></svg>