<svg data-v-fde0c5aa="" xmlns="http://www.w3.org/2000/svg" viewBox="0 0 300 300" class="iconAbove"><!----><defs data-v-fde0c5aa=""><!----></defs><rect data-v-fde0c5aa="" fill="#D2EAF5" x="0" y="0" width="300px" height="300px" class="logo-background-square"></rect><defs data-v-fde0c5aa=""><!----></defs><g data-v-fde0c5aa="" id="bcea4279-899c-4eda-8884-8e8b404b0e33" fill="#022239"><path d=""></path></g><defs data-v-fde0c5aa=""><!----></defs><g data-v-fde0c5aa="" id="9ecd5fb9-a02c-41af-bd8c-086f4297260c" stroke="none" fill="#000000"><path d="M75.8 27.8l5.3-5.3c1.2-1.2 3.2-1.2 4.4 0l8.3 8.3c1.2 1.2 1.2 3.2 0 4.4l-5.3 5.3-12.7-12.7zm11.1 14.4L71.7 57.4 53 63.3l6-18.7 15.2-15.2 3.4 3.4-11.5 11.5c-.4.4-.4 1 0 1.3.4.4 1 .4 1.3 0l11.5-11.5 3.4 3.4L70.8 49c-.4.4-.4 1 0 1.3.4.4 1 .4 1.3 0l11.5-11.5 3.3 3.4zm-17.7 13l-8.1-8.1-2.7 8.1 2.7 2.7 8.1-2.7zm-13.9 11c-.7.2-1.7.5-2.4.8L49 68.3c-.7.2-1-.2-.8-.8l1.3-3.9c.2-.6.5-1.5.7-2.2H7.5c-1.4 0-2.5 1.1-2.5 2.5V71c0 1.4 1.1 2.5 2.5 2.5h56.8c1.4 0 2.5-1.1 2.5-2.5v-7.2c0-.4-.1-.8-.3-1.2l-11.2 3.6zM7.5 51.3h45.8l2.1-6.5c.2-.7.4-1.4.5-1.6s.3-.5.4-.7l1.2-1.2 2.2-2.2H7.5c-1.4 0-2.5 1.1-2.5 2.5v7.2c0 1.4 1.1 2.5 2.5 2.5z"></path></g><!----></svg>