<svg data-v-423bf9ae="" xmlns="http://www.w3.org/2000/svg" viewBox="0 0 777.7588739993059 60" class="font"><!----><!----><!----><g data-v-423bf9ae="" id="9ab9acbb-f00b-496b-8fc2-a3d43bb6e779" fill="white" transform="matrix(3.931848155293183,0,0,3.931848155293183,-2.4770506399137844,-7.706423011199902)"><path d="M3.64 3.64L3.64 7.66L3.64 7.66Q4.40 7.66 4.91 7.57L4.91 7.57L4.91 7.57Q5.42 7.48 5.72 7.28L5.72 7.28L5.72 7.28Q6.02 7.08 6.15 6.78L6.15 6.78L6.15 6.78Q6.29 6.47 6.29 6.05L6.29 6.05L6.78 6.05L6.78 9.87L6.29 9.87L6.29 9.87Q6.29 9.45 6.17 9.14L6.17 9.14L6.17 9.14Q6.05 8.83 5.75 8.63L5.75 8.63L5.75 8.63Q5.45 8.43 4.94 8.32L4.94 8.32L4.94 8.32Q4.42 8.22 3.64 8.22L3.64 8.22L3.64 11.38L3.64 11.38Q3.64 11.84 3.75 12.14L3.75 12.14L3.75 12.14Q3.86 12.45 4.14 12.63L4.14 12.63L4.14 12.63Q4.41 12.82 4.86 12.90L4.86 12.90L4.86 12.90Q5.31 12.98 5.96 12.98L5.96 12.98L5.96 12.98Q6.71 12.98 7.22 12.87L7.22 12.87L7.22 12.87Q7.74 12.77 8.09 12.52L8.09 12.52L8.09 12.52Q8.44 12.26 8.65 11.85L8.65 11.85L8.65 11.85Q8.86 11.44 9.00 10.82L9.00 10.82L9.53 10.82L9.32 13.58L0.63 13.58L0.63 13.05L0.63 13.05Q1.12 13.03 1.42 12.96L1.42 12.96L1.42 12.96Q1.72 12.89 1.89 12.73L1.89 12.73L1.89 12.73Q2.06 12.56 2.11 12.25L2.11 12.25L2.11 12.25Q2.17 11.94 2.17 11.45L2.17 11.45L2.17 4.93L2.17 4.93Q2.17 4.44 2.12 4.14L2.12 4.14L2.12 4.14Q2.07 3.84 1.93 3.66L1.93 3.66L1.93 3.66Q1.78 3.49 1.50 3.42L1.50 3.42L1.50 3.42Q1.22 3.36 0.77 3.33L0.77 3.33L0.77 2.80L8.86 2.80L8.99 5.26L8.50 5.26L8.50 5.26Q8.41 4.70 8.22 4.35L8.22 4.35L8.22 4.35Q8.04 3.99 7.71 3.78L7.71 3.78L7.71 3.78Q7.38 3.57 6.87 3.49L6.87 3.49L6.87 3.49Q6.37 3.40 5.66 3.40L5.66 3.40L3.88 3.40L3.88 3.40Q3.64 3.40 3.64 3.64L3.64 3.64ZM13.26 9.56L13.26 11.34L13.26 11.34Q13.26 11.93 13.29 12.26L13.29 12.26L13.29 12.26Q13.31 12.60 13.43 12.78L13.43 12.78L13.43 12.78Q13.55 12.95 13.78 13.01L13.78 13.01L13.78 13.01Q14 13.06 14.41 13.09L14.41 13.09L14.41 13.58L10.68 13.58L10.68 13.09L10.68 13.09Q11.09 13.06 11.33 13.01L11.33 13.01L11.33 13.01Q11.56 12.95 11.69 12.78L11.69 12.78L11.69 12.78Q11.82 12.61 11.85 12.30L11.85 12.30L11.85 12.30Q11.89 11.98 11.89 11.45L11.89 11.45L11.89 9.66L11.89 9.66Q11.89 8.86 11.87 8.33L11.87 8.33L11.87 8.33Q11.84 7.80 11.79 7.60L11.79 7.60L11.79 7.60Q11.75 7.42 11.69 7.31L11.69 7.31L11.69 7.31Q11.63 7.21 11.51 7.15L11.51 7.15L11.51 7.15Q11.38 7.08 11.18 7.06L11.18 7.06L11.18 7.06Q10.98 7.04 10.65 7.04L10.65 7.04L10.65 6.55L12.94 6.02L13.12 7.42L13.19 7.42L13.19 7.42Q13.82 6.71 14.51 6.36L14.51 6.36L14.51 6.36Q15.20 6.02 16.04 6.02L16.04 6.02L16.04 6.02Q16.93 6.02 17.53 6.38L17.53 6.38L17.53 6.38Q18.13 6.73 18.37 7.41L18.37 7.41L18.42 7.41L18.42 7.41Q18.94 6.75 19.68 6.38L19.68 6.38L19.68 6.38Q20.43 6.02 21.27 6.02L21.27 6.02L21.27 6.02Q21.92 6.02 22.46 6.24L22.46 6.24L22.46 6.24Q23.00 6.45 23.28 6.83L23.28 6.83L23.28 6.83Q23.53 7.15 23.64 7.68L23.64 7.68L23.64 7.68Q23.74 8.20 23.74 9.11L23.74 9.11L23.74 11.34L23.74 11.34Q23.74 11.91 23.78 12.25L23.78 12.25L23.78 12.25Q23.81 12.59 23.93 12.77L23.93 12.77L23.93 12.77Q24.04 12.95 24.27 13.01L24.27 13.01L24.27 13.01Q24.50 13.06 24.91 13.09L24.91 13.09L24.91 13.58L21.18 13.58L21.18 13.09L21.18 13.09Q21.57 13.08 21.81 13.01L21.81 13.01L21.81 13.01Q22.05 12.95 22.18 12.78L22.18 12.78L22.18 12.78Q22.30 12.60 22.34 12.29L22.34 12.29L22.34 12.29Q22.37 11.98 22.37 11.45L22.37 11.45L22.37 9.69L22.37 9.69Q22.37 8.89 22.29 8.34L22.29 8.34L22.29 8.34Q22.20 7.78 22.01 7.44L22.01 7.44L22.01 7.44Q21.81 7.10 21.50 6.94L21.50 6.94L21.50 6.94Q21.18 6.79 20.73 6.79L20.73 6.79L20.73 6.79Q20.12 6.79 19.58 7.13L19.58 7.13L19.58 7.13Q19.04 7.48 18.73 8.05L18.73 8.05L18.73 8.05Q18.66 8.19 18.61 8.32L18.61 8.32L18.61 8.32Q18.56 8.46 18.54 8.62L18.54 8.62L18.54 8.62Q18.51 8.78 18.50 9.00L18.50 9.00L18.50 9.00Q18.49 9.23 18.49 9.56L18.49 9.56L18.49 11.34L18.49 11.34Q18.49 11.91 18.52 12.25L18.52 12.25L18.52 12.25Q18.55 12.59 18.67 12.77L18.67 12.77L18.67 12.77Q18.79 12.95 19.03 13.01L19.03 13.01L19.03 13.01Q19.26 13.06 19.67 13.09L19.67 13.09L19.67 13.58L15.95 13.58L15.95 13.09L15.95 13.09Q16.34 13.06 16.58 13.01L16.58 13.01L16.58 13.01Q16.81 12.95 16.93 12.78L16.93 12.78L16.93 12.78Q17.05 12.61 17.09 12.30L17.09 12.30L17.09 12.30Q17.12 11.98 17.12 11.45L17.12 11.45L17.12 9.69L17.12 9.69Q17.12 8.88 17.04 8.32L17.04 8.32L17.04 8.32Q16.95 7.77 16.77 7.43L16.77 7.43L16.77 7.43Q16.58 7.08 16.27 6.94L16.27 6.94L16.27 6.94Q15.96 6.79 15.51 6.79L15.51 6.79L15.51 6.79Q14.88 6.79 14.33 7.13L14.33 7.13L14.33 7.13Q13.78 7.48 13.50 8.05L13.50 8.05L13.50 8.05Q13.43 8.19 13.38 8.32L13.38 8.32L13.38 8.32Q13.33 8.46 13.30 8.62L13.30 8.62L13.30 8.62Q13.27 8.78 13.27 9.00L13.27 9.00L13.27 9.00Q13.26 9.23 13.26 9.56L13.26 9.56ZM32.06 11.89L32.49 12.28L32.49 12.28Q31.30 13.72 29.54 13.72L29.54 13.72L29.54 13.72Q28.71 13.72 28.04 13.45L28.04 13.45L28.04 13.45Q27.37 13.17 26.89 12.68L26.89 12.68L26.89 12.68Q26.40 12.18 26.14 11.49L26.14 11.49L26.14 11.49Q25.87 10.79 25.87 9.95L25.87 9.95L25.87 9.95Q25.87 9.10 26.15 8.37L26.15 8.37L26.15 8.37Q26.43 7.64 26.94 7.13L26.94 7.13L26.94 7.13Q27.45 6.61 28.16 6.31L28.16 6.31L28.16 6.31Q28.87 6.02 29.71 6.02L29.71 6.02L29.71 6.02Q31.07 6.02 31.81 6.75L31.81 6.75L31.81 6.75Q32.55 7.49 32.55 8.86L32.55 8.86L32.55 8.86Q32.55 9.06 32.47 9.10L32.47 9.10L32.47 9.10Q32.40 9.14 32.12 9.14L32.12 9.14L27.51 9.14L27.51 9.14Q27.48 9.25 27.47 9.41L27.47 9.41L27.47 9.41Q27.45 9.58 27.45 9.77L27.45 9.77L27.45 9.77Q27.45 10.50 27.63 11.10L27.63 11.10L27.63 11.10Q27.80 11.69 28.13 12.11L28.13 12.11L28.13 12.11Q28.46 12.53 28.92 12.76L28.92 12.76L28.92 12.76Q29.37 12.99 29.93 12.99L29.93 12.99L29.93 12.99Q30.52 12.99 31.02 12.73L31.02 12.73L31.02 12.73Q31.53 12.47 32.06 11.89L32.06 11.89ZM27.61 8.50L30.18 8.50L30.18 8.50Q30.46 8.50 30.63 8.48L30.63 8.48L30.63 8.48Q30.80 8.47 30.88 8.43L30.88 8.43L30.88 8.43Q30.97 8.39 31.00 8.31L31.00 8.31L31.00 8.31Q31.02 8.23 31.02 8.11L31.02 8.11L31.02 8.11Q31.02 7.46 30.61 7.08L30.61 7.08L30.61 7.08Q30.20 6.69 29.48 6.69L29.48 6.69L29.48 6.69Q27.97 6.69 27.61 8.50L27.61 8.50ZM36.32 10.88L36.32 11.35L36.32 11.35Q36.32 11.93 36.34 12.26L36.34 12.26L36.34 12.26Q36.37 12.60 36.49 12.78L36.49 12.78L36.49 12.78Q36.61 12.95 36.83 13.01L36.83 13.01L36.83 13.01Q37.06 13.06 37.46 13.09L37.46 13.09L37.46 13.58L33.74 13.58L33.74 13.09L33.74 13.09Q34.15 13.08 34.38 13.01L34.38 13.01L34.38 13.01Q34.62 12.95 34.75 12.78L34.75 12.78L34.75 12.78Q34.87 12.61 34.91 12.30L34.91 12.30L34.91 12.30Q34.94 11.98 34.94 11.45L34.94 11.45L34.94 9.81L34.94 9.81Q34.94 8.86 34.92 8.33L34.92 8.33L34.92 8.33Q34.90 7.80 34.78 7.55L34.78 7.55L34.78 7.55Q34.66 7.29 34.41 7.25L34.41 7.25L34.41 7.25Q34.16 7.20 33.71 7.20L33.71 7.20L33.71 6.71L36.16 6.17L36.36 7.91L36.41 7.91L36.41 7.91Q36.60 7.49 36.87 7.14L36.87 7.14L36.87 7.14Q37.14 6.79 37.46 6.54L37.46 6.54L37.46 6.54Q37.79 6.30 38.14 6.16L38.14 6.16L38.14 6.16Q38.49 6.02 38.85 6.02L38.85 6.02L38.85 6.02Q39.30 6.02 39.56 6.24L39.56 6.24L39.56 6.24Q39.82 6.45 39.82 6.82L39.82 6.82L39.82 6.82Q39.82 7.15 39.61 7.34L39.61 7.34L39.61 7.34Q39.40 7.53 39.00 7.53L39.00 7.53L39.00 7.53Q38.78 7.53 38.63 7.48L38.63 7.48L38.63 7.48Q38.47 7.42 38.35 7.36L38.35 7.36L38.35 7.36Q38.23 7.29 38.13 7.24L38.13 7.24L38.13 7.24Q38.02 7.18 37.90 7.18L37.90 7.18L37.90 7.18Q37.52 7.18 37.14 7.67L37.14 7.67L37.14 7.67Q36.76 8.15 36.55 8.89L36.55 8.89L36.55 8.89Q36.44 9.30 36.38 9.81L36.38 9.81L36.38 9.81Q36.32 10.32 36.32 10.88L36.32 10.88ZM43.72 10.57L43.72 10.57L43.72 10.57Q44.31 10.57 44.64 10.04L44.64 10.04L44.64 10.04Q44.97 9.51 44.97 8.54L44.97 8.54L44.97 8.54Q44.97 7.59 44.64 7.06L44.64 7.06L44.64 7.06Q44.31 6.54 43.71 6.54L43.71 6.54L43.71 6.54Q43.11 6.54 42.75 7.07L42.75 7.07L42.75 7.07Q42.39 7.60 42.39 8.53L42.39 8.53L42.39 8.53Q42.39 9.45 42.76 10.01L42.76 10.01L42.76 10.01Q43.12 10.57 43.72 10.57ZM42.95 12.21L42.95 12.21L42.95 12.21Q43.29 12.24 43.57 12.26L43.57 12.26L43.57 12.26Q43.85 12.29 44.12 12.32L44.12 12.32L44.12 12.32Q44.39 12.35 44.67 12.39L44.67 12.39L44.67 12.39Q44.94 12.43 45.26 12.47L45.26 12.47L45.26 12.47Q46.27 12.63 46.88 13.25L46.88 13.25L46.88 13.25Q47.49 13.87 47.49 14.81L47.49 14.81L47.49 14.81Q47.49 15.99 46.56 16.60L46.56 16.60L46.56 16.60Q45.63 17.22 43.86 17.22L43.86 17.22L43.86 17.22Q43.08 17.22 42.43 17.08L42.43 17.08L42.43 17.08Q41.78 16.94 41.31 16.68L41.31 16.68L41.31 16.68Q40.85 16.42 40.59 16.06L40.59 16.06L40.59 16.06Q40.33 15.69 40.33 15.26L40.33 15.26L40.33 15.26Q40.33 14.97 40.43 14.71L40.43 14.71L40.43 14.71Q40.53 14.46 40.70 14.27L40.70 14.27L40.70 14.27Q40.87 14.08 41.10 13.97L41.10 13.97L41.10 13.97Q41.33 13.86 41.58 13.86L41.58 13.86L41.58 13.86Q42.06 13.86 42.43 14.15L42.43 14.15L42.43 14.15Q42.06 14.24 41.82 14.57L41.82 14.57L41.82 14.57Q41.58 14.90 41.58 15.32L41.58 15.32L41.58 15.32Q41.58 15.93 42.19 16.27L42.19 16.27L42.19 16.27Q42.80 16.60 43.92 16.60L43.92 16.60L43.92 16.60Q46.31 16.60 46.31 15.13L46.31 15.13L46.31 15.13Q46.31 14.57 45.93 14.20L45.93 14.20L45.93 14.20Q45.56 13.83 45.04 13.76L45.04 13.76L45.04 13.76Q44.70 13.72 44.34 13.67L44.34 13.67L44.34 13.67Q43.99 13.62 43.64 13.58L43.64 13.58L43.64 13.58Q43.30 13.54 43.01 13.51L43.01 13.51L43.01 13.51Q42.71 13.48 42.53 13.45L42.53 13.45L42.53 13.45Q41.75 13.37 41.34 13.03L41.34 13.03L41.34 13.03Q40.94 12.70 40.94 12.11L40.94 12.11L40.94 12.11Q40.94 11.62 41.34 11.24L41.34 11.24L41.34 11.24Q41.75 10.86 42.36 10.77L42.36 10.77L42.36 10.71L42.36 10.71Q42.06 10.58 41.79 10.35L41.79 10.35L41.79 10.35Q41.52 10.12 41.33 9.83L41.33 9.83L41.33 9.83Q41.15 9.53 41.03 9.19L41.03 9.19L41.03 9.19Q40.92 8.85 40.92 8.48L40.92 8.48L40.92 8.48Q40.92 7.95 41.12 7.50L41.12 7.50L41.12 7.50Q41.33 7.06 41.70 6.73L41.70 6.73L41.70 6.73Q42.07 6.40 42.57 6.21L42.57 6.21L42.57 6.21Q43.08 6.02 43.68 6.02L43.68 6.02L43.68 6.02Q44.30 6.02 44.84 6.21L44.84 6.21L44.84 6.21Q45.39 6.40 45.78 6.76L45.78 6.76L45.78 6.76Q46.26 6.37 46.62 6.20L46.62 6.20L46.62 6.20Q46.98 6.02 47.31 6.02L47.31 6.02L47.31 6.02Q47.81 6.02 48.11 6.25L48.11 6.25L48.11 6.25Q48.41 6.48 48.41 6.87L48.41 6.87L48.41 6.87Q48.41 7.11 48.25 7.25L48.25 7.25L48.25 7.25Q48.09 7.39 47.85 7.39L47.85 7.39L47.85 7.39Q47.66 7.39 47.53 7.32L47.53 7.32L47.53 7.32Q47.40 7.25 47.30 7.17L47.30 7.17L47.30 7.17Q47.19 7.10 47.08 7.03L47.08 7.03L47.08 7.03Q46.97 6.96 46.80 6.96L46.80 6.96L46.80 6.96Q46.47 6.96 46.12 7.20L46.12 7.20L46.12 7.20Q46.45 7.71 46.45 8.50L46.45 8.50L46.45 8.50Q46.45 9.69 45.71 10.37L45.71 10.37L45.71 10.37Q44.97 11.05 43.48 11.16L43.48 11.16L43.48 11.16Q42.63 11.23 42.29 11.34L42.29 11.34L42.29 11.34Q41.96 11.45 41.96 11.75L41.96 11.75L41.96 11.75Q41.96 11.97 42.21 12.07L42.21 12.07L42.21 12.07Q42.46 12.18 42.95 12.21ZM53.16 10.54L53.16 9.44L53.16 9.44Q52.36 9.74 51.81 10.04L51.81 10.04L51.81 10.04Q51.25 10.33 50.92 10.63L50.92 10.63L50.92 10.63Q50.58 10.92 50.44 11.21L50.44 11.21L50.44 11.21Q50.29 11.51 50.29 11.82L50.29 11.82L50.29 11.82Q50.29 12.28 50.60 12.57L50.60 12.57L50.60 12.57Q50.90 12.87 51.41 12.87L51.41 12.87L51.41 12.87Q51.77 12.87 52.09 12.68L52.09 12.68L52.09 12.68Q52.40 12.50 52.64 12.19L52.64 12.19L52.64 12.19Q52.88 11.87 53.02 11.45L53.02 11.45L53.02 11.45Q53.16 11.02 53.16 10.54L53.16 10.54ZM51.14 9.72L53.16 8.83L53.16 8.26L53.16 8.26Q53.16 6.55 51.70 6.55L51.70 6.55L51.70 6.55Q51.46 6.55 51.30 6.59L51.30 6.59L51.30 6.59Q51.13 6.64 51.02 6.73L51.02 6.73L51.02 6.73Q50.90 6.83 50.81 7.01L50.81 7.01L50.81 7.01Q50.72 7.20 50.64 7.46L50.64 7.46L50.64 7.46Q50.48 7.87 50.34 8.00L50.34 8.00L50.34 8.00Q50.19 8.13 49.91 8.13L49.91 8.13L49.91 8.13Q49.21 8.13 49.21 7.43L49.21 7.43L49.21 7.43Q49.21 6.76 49.92 6.39L49.92 6.39L49.92 6.39Q50.64 6.02 51.95 6.02L51.95 6.02L51.95 6.02Q53.35 6.02 53.94 6.52L53.94 6.52L53.94 6.52Q54.53 7.01 54.53 8.20L54.53 8.20L54.53 11.34L54.53 11.34Q54.53 12.94 55.16 12.94L55.16 12.94L55.16 12.94Q55.36 12.94 55.54 12.89L55.54 12.89L55.54 12.89Q55.72 12.84 55.85 12.63L55.85 12.63L56.04 12.96L56.04 12.96Q55.87 13.29 55.43 13.50L55.43 13.50L55.43 13.50Q54.98 13.72 54.49 13.72L54.49 13.72L54.49 13.72Q53.87 13.72 53.57 13.33L53.57 13.33L53.57 13.33Q53.27 12.94 53.27 12.22L53.27 12.22L53.20 12.22L53.20 12.22Q52.84 12.91 52.19 13.31L52.19 13.31L52.19 13.31Q51.55 13.71 50.76 13.71L50.76 13.71L50.76 13.71Q49.88 13.71 49.38 13.26L49.38 13.26L49.38 13.26Q48.87 12.81 48.87 12.05L48.87 12.05L48.87 12.05Q48.87 11.72 48.99 11.41L48.99 11.41L48.99 11.41Q49.11 11.10 49.38 10.82L49.38 10.82L49.38 10.82Q49.64 10.54 50.08 10.27L50.08 10.27L50.08 10.27Q50.51 10.00 51.14 9.72L51.14 9.72ZM59.05 9.51L59.05 11.38L59.05 11.38Q59.05 11.96 59.08 12.29L59.08 12.29L59.08 12.29Q59.11 12.61 59.23 12.79L59.23 12.79L59.23 12.79Q59.35 12.96 59.58 13.02L59.58 13.02L59.58 13.02Q59.81 13.08 60.21 13.10L60.21 13.10L60.21 13.58L56.55 13.58L56.55 13.10L56.55 13.10Q56.94 13.08 57.17 13.02L57.17 13.02L57.17 13.02Q57.40 12.96 57.53 12.80L57.53 12.80L57.53 12.80Q57.65 12.63 57.69 12.32L57.69 12.32L57.69 12.32Q57.72 12.01 57.72 11.48L57.72 11.48L57.72 9.62L57.72 9.62Q57.72 7.95 57.64 7.59L57.64 7.59L57.64 7.59Q57.60 7.41 57.53 7.29L57.53 7.29L57.53 7.29Q57.47 7.17 57.34 7.10L57.34 7.10L57.34 7.10Q57.22 7.04 57.02 7.02L57.02 7.02L57.02 7.02Q56.83 7 56.52 7L56.52 7L56.52 6.55L58.76 6.02L58.93 7.41L58.98 7.41L58.98 7.41Q59.51 6.75 60.23 6.38L60.23 6.38L60.23 6.38Q60.94 6.02 61.78 6.02L61.78 6.02L61.78 6.02Q62.43 6.02 62.96 6.23L62.96 6.23L62.96 6.23Q63.49 6.44 63.77 6.80L63.77 6.80L63.77 6.80Q64.01 7.13 64.11 7.64L64.11 7.64L64.11 7.64Q64.20 8.15 64.20 9.04L64.20 9.04L64.20 11.38L64.20 11.38Q64.20 11.96 64.24 12.29L64.24 12.29L64.24 12.29Q64.27 12.61 64.39 12.79L64.39 12.79L64.39 12.79Q64.50 12.96 64.73 13.02L64.73 13.02L64.73 13.02Q64.96 13.08 65.34 13.10L65.34 13.10L65.34 13.58L61.71 13.58L61.71 13.10L61.71 13.10Q62.10 13.09 62.34 13.03L62.34 13.03L62.34 13.03Q62.57 12.96 62.69 12.80L62.69 12.80L62.69 12.80Q62.80 12.63 62.84 12.31L62.84 12.31L62.84 12.31Q62.87 12.00 62.87 11.48L62.87 11.48L62.87 9.63L62.87 9.63Q62.87 8.83 62.79 8.29L62.79 8.29L62.79 8.29Q62.71 7.74 62.52 7.41L62.52 7.41L62.52 7.41Q62.33 7.07 62.02 6.92L62.02 6.92L62.02 6.92Q61.71 6.78 61.28 6.78L61.28 6.78L61.28 6.78Q60.65 6.78 60.12 7.10L60.12 7.10L60.12 7.10Q59.60 7.43 59.30 8.01L59.30 8.01L59.30 8.01Q59.23 8.15 59.19 8.27L59.19 8.27L59.19 8.27Q59.14 8.40 59.11 8.57L59.11 8.57L59.11 8.57Q59.08 8.74 59.07 8.95L59.07 8.95L59.07 8.95Q59.05 9.17 59.05 9.51L59.05 9.51ZM72.34 12.01L72.76 12.42L72.76 12.42Q72.25 13.03 71.46 13.38L71.46 13.38L71.46 13.38Q70.66 13.72 69.73 13.72L69.73 13.72L69.73 13.72Q68.99 13.72 68.37 13.45L68.37 13.45L68.37 13.45Q67.75 13.17 67.30 12.68L67.30 12.68L67.30 12.68Q66.85 12.18 66.61 11.48L66.61 11.48L66.61 11.48Q66.36 10.78 66.36 9.93L66.36 9.93L66.36 9.93Q66.36 9.03 66.64 8.31L66.64 8.31L66.64 8.31Q66.92 7.59 67.43 7.08L67.43 7.08L67.43 7.08Q67.94 6.57 68.66 6.29L68.66 6.29L68.66 6.29Q69.38 6.02 70.25 6.02L70.25 6.02L70.25 6.02Q70.80 6.02 71.25 6.11L71.25 6.11L71.25 6.11Q71.69 6.20 72.02 6.36L72.02 6.36L72.02 6.36Q72.35 6.52 72.53 6.75L72.53 6.75L72.53 6.75Q72.72 6.99 72.72 7.25L72.72 7.25L72.72 7.25Q72.72 7.53 72.53 7.69L72.53 7.69L72.53 7.69Q72.35 7.84 72.03 7.84L72.03 7.84L72.03 7.84Q71.78 7.84 71.61 7.74L71.61 7.74L71.61 7.74Q71.44 7.63 71.18 7.27L71.18 7.27L71.18 7.27Q70.90 6.94 70.64 6.81L70.64 6.81L70.64 6.81Q70.38 6.68 69.97 6.68L69.97 6.68L69.97 6.68Q68.98 6.68 68.47 7.45L68.47 7.45L68.47 7.45Q67.96 8.22 67.96 9.72L67.96 9.72L67.96 9.72Q67.96 11.33 68.52 12.16L68.52 12.16L68.52 12.16Q69.09 12.99 70.18 12.99L70.18 12.99L70.18 12.99Q70.77 12.99 71.29 12.76L71.29 12.76L71.29 12.76Q71.81 12.53 72.34 12.01L72.34 12.01ZM80.16 8.99L77.11 15.78L77.11 15.78Q76.47 17.22 75.11 17.22L75.11 17.22L75.11 17.22Q74.23 17.22 74.23 16.56L74.23 16.56L74.23 16.56Q74.23 16.21 74.47 16.05L74.47 16.05L74.47 16.05Q74.72 15.89 75.38 15.78L75.38 15.78L75.38 15.78Q75.67 15.74 75.88 15.66L75.88 15.66L75.88 15.66Q76.09 15.58 76.26 15.46L76.26 15.46L76.26 15.46Q76.43 15.34 76.56 15.16L76.56 15.16L76.56 15.16Q76.69 14.98 76.82 14.71L76.82 14.71L77.31 13.73L74.62 7.90L74.62 7.90Q74.44 7.50 74.31 7.27L74.31 7.27L74.31 7.27Q74.17 7.04 74.03 6.91L74.03 6.91L74.03 6.91Q73.88 6.78 73.70 6.73L73.70 6.73L73.70 6.73Q73.51 6.68 73.23 6.65L73.23 6.65L73.23 6.16L76.94 6.16L76.94 6.65L76.94 6.65Q76.01 6.65 76.01 7.11L76.01 7.11L76.01 7.11Q76.01 7.29 76.12 7.69L76.12 7.69L76.12 7.69Q76.23 8.08 76.40 8.48L76.40 8.48L77.94 12.21L78.01 12.21L79.28 9.06L79.28 9.06Q79.46 8.60 79.58 8.30L79.58 8.30L79.58 8.30Q79.70 8.01 79.77 7.82L79.77 7.82L79.77 7.82Q79.83 7.63 79.85 7.50L79.85 7.50L79.85 7.50Q79.87 7.38 79.87 7.27L79.87 7.27L79.87 7.27Q79.87 6.90 79.67 6.78L79.67 6.78L79.67 6.78Q79.46 6.65 78.89 6.65L78.89 6.65L78.89 6.16L81.97 6.16L81.97 6.65L81.97 6.65Q81.70 6.65 81.52 6.72L81.52 6.72L81.52 6.72Q81.34 6.79 81.15 7.04L81.15 7.04L81.15 7.04Q80.96 7.28 80.73 7.74L80.73 7.74L80.73 7.74Q80.50 8.20 80.16 8.99L80.16 8.99ZM88.83 10.88L88.83 11.35L88.83 11.35Q88.83 11.93 88.86 12.26L88.86 12.26L88.86 12.26Q88.89 12.60 89.01 12.78L89.01 12.78L89.01 12.78Q89.12 12.95 89.35 13.01L89.35 13.01L89.35 13.01Q89.57 13.06 89.98 13.09L89.98 13.09L89.98 13.58L86.25 13.58L86.25 13.09L86.25 13.09Q86.66 13.08 86.90 13.01L86.90 13.01L86.90 13.01Q87.14 12.95 87.26 12.78L87.26 12.78L87.26 12.78Q87.39 12.61 87.42 12.30L87.42 12.30L87.42 12.30Q87.46 11.98 87.46 11.45L87.46 11.45L87.46 9.81L87.46 9.81Q87.46 8.86 87.44 8.33L87.44 8.33L87.44 8.33Q87.42 7.80 87.30 7.55L87.30 7.55L87.30 7.55Q87.18 7.29 86.93 7.25L86.93 7.25L86.93 7.25Q86.67 7.20 86.23 7.20L86.23 7.20L86.23 6.71L88.68 6.17L88.87 7.91L88.93 7.91L88.93 7.91Q89.11 7.49 89.38 7.14L89.38 7.14L89.38 7.14Q89.66 6.79 89.98 6.54L89.98 6.54L89.98 6.54Q90.30 6.30 90.65 6.16L90.65 6.16L90.65 6.16Q91.00 6.02 91.36 6.02L91.36 6.02L91.36 6.02Q91.81 6.02 92.07 6.24L92.07 6.24L92.07 6.24Q92.33 6.45 92.33 6.82L92.33 6.82L92.33 6.82Q92.33 7.15 92.12 7.34L92.12 7.34L92.12 7.34Q91.91 7.53 91.52 7.53L91.52 7.53L91.52 7.53Q91.29 7.53 91.14 7.48L91.14 7.48L91.14 7.48Q90.99 7.42 90.87 7.36L90.87 7.36L90.87 7.36Q90.75 7.29 90.64 7.24L90.64 7.24L90.64 7.24Q90.54 7.18 90.41 7.18L90.41 7.18L90.41 7.18Q90.03 7.18 89.66 7.67L89.66 7.67L89.66 7.67Q89.28 8.15 89.07 8.89L89.07 8.89L89.07 8.89Q88.96 9.30 88.89 9.81L88.89 9.81L88.89 9.81Q88.83 10.32 88.83 10.88L88.83 10.88ZM96.80 6.02L96.80 6.02L96.80 6.02Q97.59 6.02 98.31 6.31L98.31 6.31L98.31 6.31Q99.02 6.59 99.56 7.10L99.56 7.10L99.56 7.10Q100.10 7.60 100.42 8.29L100.42 8.29L100.42 8.29Q100.73 8.99 100.73 9.81L100.73 9.81L100.73 9.81Q100.73 10.67 100.42 11.38L100.42 11.38L100.42 11.38Q100.10 12.10 99.56 12.61L99.56 12.61L99.56 12.61Q99.02 13.13 98.31 13.43L98.31 13.43L98.31 13.43Q97.59 13.72 96.80 13.72L96.80 13.72L96.80 13.72Q96.01 13.72 95.31 13.43L95.31 13.43L95.31 13.43Q94.60 13.15 94.07 12.63L94.07 12.63L94.07 12.63Q93.53 12.11 93.23 11.39L93.23 11.39L93.23 11.39Q92.92 10.67 92.92 9.81L92.92 9.81L92.92 9.81Q92.92 8.99 93.23 8.29L93.23 8.29L93.23 8.29Q93.53 7.59 94.07 7.08L94.07 7.08L94.07 7.08Q94.60 6.58 95.31 6.30L95.31 6.30L95.31 6.30Q96.01 6.02 96.80 6.02ZM96.80 6.69L96.80 6.69L96.80 6.69Q96.28 6.69 95.85 6.92L95.85 6.92L95.85 6.92Q95.42 7.14 95.12 7.55L95.12 7.55L95.12 7.55Q94.82 7.97 94.66 8.55L94.66 8.55L94.66 8.55Q94.50 9.13 94.50 9.83L94.50 9.83L94.50 9.83Q94.50 10.56 94.66 11.14L94.66 11.14L94.66 11.14Q94.82 11.73 95.12 12.14L95.12 12.14L95.12 12.14Q95.42 12.56 95.84 12.78L95.84 12.78L95.84 12.78Q96.26 13.01 96.80 13.01L96.80 13.01L96.80 13.01Q97.33 13.01 97.76 12.78L97.76 12.78L97.76 12.78Q98.20 12.56 98.50 12.14L98.50 12.14L98.50 12.14Q98.81 11.72 98.98 11.13L98.98 11.13L98.98 11.13Q99.15 10.54 99.15 9.83L99.15 9.83L99.15 9.83Q99.15 9.13 98.98 8.55L98.98 8.55L98.98 8.55Q98.81 7.98 98.50 7.57L98.50 7.57L98.50 7.57Q98.20 7.15 97.76 6.92L97.76 6.92L97.76 6.92Q97.33 6.69 96.80 6.69ZM106.29 10.54L106.29 9.44L106.29 9.44Q105.49 9.74 104.94 10.04L104.94 10.04L104.94 10.04Q104.38 10.33 104.05 10.63L104.05 10.63L104.05 10.63Q103.71 10.92 103.57 11.21L103.57 11.21L103.57 11.21Q103.42 11.51 103.42 11.82L103.42 11.82L103.42 11.82Q103.42 12.28 103.73 12.57L103.73 12.57L103.73 12.57Q104.03 12.87 104.54 12.87L104.54 12.87L104.54 12.87Q104.90 12.87 105.22 12.68L105.22 12.68L105.22 12.68Q105.53 12.50 105.77 12.19L105.77 12.19L105.77 12.19Q106.01 11.87 106.15 11.45L106.15 11.45L106.15 11.45Q106.29 11.02 106.29 10.54L106.29 10.54ZM104.27 9.72L106.29 8.83L106.29 8.26L106.29 8.26Q106.29 6.55 104.83 6.55L104.83 6.55L104.83 6.55Q104.59 6.55 104.43 6.59L104.43 6.59L104.43 6.59Q104.26 6.64 104.15 6.73L104.15 6.73L104.15 6.73Q104.03 6.83 103.94 7.01L103.94 7.01L103.94 7.01Q103.85 7.20 103.77 7.46L103.77 7.46L103.77 7.46Q103.61 7.87 103.47 8.00L103.47 8.00L103.47 8.00Q103.32 8.13 103.04 8.13L103.04 8.13L103.04 8.13Q102.34 8.13 102.34 7.43L102.34 7.43L102.34 7.43Q102.34 6.76 103.05 6.39L103.05 6.39L103.05 6.39Q103.77 6.02 105.08 6.02L105.08 6.02L105.08 6.02Q106.48 6.02 107.07 6.52L107.07 6.52L107.07 6.52Q107.66 7.01 107.66 8.20L107.66 8.20L107.66 11.34L107.66 11.34Q107.66 12.94 108.29 12.94L108.29 12.94L108.29 12.94Q108.49 12.94 108.67 12.89L108.67 12.89L108.67 12.89Q108.85 12.84 108.98 12.63L108.98 12.63L109.17 12.96L109.17 12.96Q109.00 13.29 108.56 13.50L108.56 13.50L108.56 13.50Q108.11 13.72 107.62 13.72L107.62 13.72L107.62 13.72Q107.00 13.72 106.70 13.33L106.70 13.33L106.70 13.33Q106.40 12.94 106.40 12.22L106.40 12.22L106.33 12.22L106.33 12.22Q105.97 12.91 105.32 13.31L105.32 13.31L105.32 13.31Q104.68 13.71 103.89 13.71L103.89 13.71L103.89 13.71Q103.01 13.71 102.51 13.26L102.51 13.26L102.51 13.26Q102.00 12.81 102.00 12.05L102.00 12.05L102.00 12.05Q102.00 11.72 102.12 11.41L102.12 11.41L102.12 11.41Q102.24 11.10 102.51 10.82L102.51 10.82L102.51 10.82Q102.77 10.54 103.21 10.27L103.21 10.27L103.21 10.27Q103.64 10.00 104.27 9.72L104.27 9.72ZM115.93 13.72L115.93 12.40L115.88 12.40L115.88 12.40Q115.37 13.12 114.81 13.42L114.81 13.42L114.81 13.42Q114.24 13.72 113.47 13.72L113.47 13.72L113.47 13.72Q112.67 13.72 112.01 13.43L112.01 13.43L112.01 13.43Q111.34 13.15 110.86 12.63L110.86 12.63L110.86 12.63Q110.38 12.12 110.10 11.41L110.10 11.41L110.10 11.41Q109.83 10.70 109.83 9.86L109.83 9.86L109.83 9.86Q109.83 9.03 110.10 8.32L110.10 8.32L110.10 8.32Q110.38 7.62 110.86 7.10L110.86 7.10L110.86 7.10Q111.34 6.59 112.01 6.31L112.01 6.31L112.01 6.31Q112.69 6.02 113.47 6.02L113.47 6.02L113.47 6.02Q114.14 6.02 114.67 6.24L114.67 6.24L114.67 6.24Q115.19 6.47 115.68 6.96L115.68 6.96L115.68 5.53L115.68 5.53Q115.68 4.73 115.66 4.20L115.66 4.20L115.66 4.20Q115.64 3.67 115.60 3.47L115.60 3.47L115.60 3.47Q115.53 3.16 115.21 3.04L115.21 3.04L115.21 3.04Q114.88 2.91 114.16 2.91L114.16 2.91L114.16 2.49L117.03 1.96L117.03 10.04L117.03 10.04Q117.03 11.00 117.04 11.63L117.04 11.63L117.04 11.63Q117.05 12.25 117.12 12.52L117.12 12.52L117.12 12.52Q117.17 12.68 117.23 12.80L117.23 12.80L117.23 12.80Q117.29 12.91 117.41 12.97L117.41 12.97L117.41 12.97Q117.53 13.03 117.73 13.06L117.73 13.06L117.73 13.06Q117.94 13.09 118.26 13.09L118.26 13.09L118.26 13.57L115.93 13.72ZM115.65 10.23L115.65 9.31L115.65 9.31Q115.65 8.58 115.58 8.20L115.58 8.20L115.58 8.20Q115.50 7.83 115.28 7.55L115.28 7.55L115.28 7.55Q114.95 7.13 114.46 6.91L114.46 6.91L114.46 6.91Q113.96 6.69 113.47 6.69L113.47 6.69L113.47 6.69Q112.46 6.69 111.94 7.53L111.94 7.53L111.94 7.53Q111.41 8.36 111.41 9.79L111.41 9.79L111.41 9.79Q111.41 10.53 111.55 11.13L111.55 11.13L111.55 11.13Q111.68 11.73 111.94 12.16L111.94 12.16L111.94 12.16Q112.20 12.59 112.58 12.82L112.58 12.82L112.58 12.82Q112.97 13.05 113.47 13.05L113.47 13.05L113.47 13.05Q113.72 13.05 113.98 12.99L113.98 12.99L113.98 12.99Q114.24 12.94 114.49 12.82L114.49 12.82L114.49 12.82Q114.73 12.70 114.94 12.54L114.94 12.54L114.94 12.54Q115.15 12.38 115.29 12.17L115.29 12.17L115.29 12.17Q115.49 11.86 115.57 11.42L115.57 11.42L115.57 11.42Q115.65 10.99 115.65 10.23L115.65 10.23ZM124.11 13.09L123.83 13.58L123.52 13.58L123.52 11.17L123.87 11.17L123.87 11.17Q124.42 13.15 125.86 13.15L125.86 13.15L125.86 13.15Q126.42 13.15 126.75 12.87L126.75 12.87L126.75 12.87Q127.08 12.60 127.08 12.04L127.08 12.04L127.08 12.04Q127.08 11.83 127.02 11.68L127.02 11.68L127.02 11.68Q126.95 11.54 126.78 11.38L126.78 11.38L126.78 11.38Q126.60 11.21 126.29 11.00L126.29 11.00L126.29 11.00Q125.97 10.79 125.45 10.47L125.45 10.47L125.45 10.47Q124.98 10.18 124.63 9.93L124.63 9.93L124.63 9.93Q124.28 9.67 124.04 9.41L124.04 9.41L124.04 9.41Q123.80 9.16 123.68 8.86L123.68 8.86L123.68 8.86Q123.56 8.57 123.56 8.18L123.56 8.18L123.56 8.18Q123.56 7.70 123.73 7.30L123.73 7.30L123.73 7.30Q123.89 6.90 124.17 6.62L124.17 6.62L124.17 6.62Q124.45 6.34 124.82 6.18L124.82 6.18L124.82 6.18Q125.20 6.02 125.65 6.02L125.65 6.02L125.65 6.02Q126.03 6.02 126.43 6.14L126.43 6.14L126.43 6.14Q126.84 6.26 127.15 6.45L127.15 6.45L127.43 6.16L127.69 6.16L127.69 8.18L127.33 8.18L127.33 8.18Q127.02 7.32 126.66 6.96L126.66 6.96L126.66 6.96Q126.29 6.59 125.76 6.59L125.76 6.59L125.76 6.59Q125.29 6.59 125.00 6.85L125.00 6.85L125.00 6.85Q124.71 7.10 124.71 7.55L124.71 7.55L124.71 7.55Q124.71 7.78 124.79 7.96L124.79 7.96L124.79 7.96Q124.87 8.13 125.03 8.30L125.03 8.30L125.03 8.30Q125.20 8.47 125.46 8.64L125.46 8.64L125.46 8.64Q125.72 8.82 126.08 9.04L126.08 9.04L126.08 9.04Q126.69 9.42 127.11 9.72L127.11 9.72L127.11 9.72Q127.54 10.01 127.81 10.30L127.81 10.30L127.81 10.30Q128.07 10.58 128.20 10.89L128.20 10.89L128.20 10.89Q128.32 11.20 128.32 11.59L128.32 11.59L128.32 11.59Q128.32 12.59 127.68 13.15L127.68 13.15L127.68 13.15Q127.04 13.72 125.99 13.72L125.99 13.72L125.99 13.72Q124.89 13.72 124.11 13.09L124.11 13.09ZM132.17 6.02L132.17 11.35L132.17 11.35Q132.17 11.90 132.22 12.23L132.22 12.23L132.22 12.23Q132.27 12.56 132.41 12.75L132.41 12.75L132.41 12.75Q132.55 12.94 132.80 13.01L132.80 13.01L132.80 13.01Q133.06 13.08 133.48 13.09L133.48 13.09L133.48 13.58L129.46 13.58L129.46 13.09L129.46 13.09Q129.88 13.08 130.14 13.00L130.14 13.00L130.14 13.00Q130.41 12.92 130.56 12.75L130.56 12.75L130.56 12.75Q130.70 12.57 130.75 12.26L130.75 12.26L130.75 12.26Q130.80 11.94 130.80 11.45L130.80 11.45L130.80 9.66L130.80 9.66Q130.80 8.85 130.78 8.32L130.78 8.32L130.78 8.32Q130.76 7.80 130.70 7.60L130.70 7.60L130.70 7.60Q130.63 7.28 130.38 7.16L130.38 7.16L130.38 7.16Q130.13 7.04 129.43 7.04L129.43 7.04L129.43 6.55L132.17 6.02ZM130.56 3.18L130.56 3.18L130.56 3.18Q130.56 2.81 130.82 2.56L130.82 2.56L130.82 2.56Q131.07 2.31 131.43 2.31L131.43 2.31L131.43 2.31Q131.80 2.31 132.05 2.56L132.05 2.56L132.05 2.56Q132.30 2.81 132.30 3.18L132.30 3.18L132.30 3.18Q132.30 3.54 132.05 3.79L132.05 3.79L132.05 3.79Q131.80 4.05 131.43 4.05L131.43 4.05L131.43 4.05Q131.07 4.05 130.82 3.79L130.82 3.79L130.82 3.79Q130.56 3.54 130.56 3.18ZM140.53 13.72L140.53 12.40L140.48 12.40L140.48 12.40Q139.97 13.12 139.41 13.42L139.41 13.42L139.41 13.42Q138.84 13.72 138.07 13.72L138.07 13.72L138.07 13.72Q137.27 13.72 136.61 13.43L136.61 13.43L136.61 13.43Q135.94 13.15 135.46 12.63L135.46 12.63L135.46 12.63Q134.97 12.12 134.70 11.41L134.70 11.41L134.70 11.41Q134.43 10.70 134.43 9.86L134.43 9.86L134.43 9.86Q134.43 9.03 134.70 8.32L134.70 8.32L134.70 8.32Q134.97 7.62 135.46 7.10L135.46 7.10L135.46 7.10Q135.94 6.59 136.61 6.31L136.61 6.31L136.61 6.31Q137.28 6.02 138.07 6.02L138.07 6.02L138.07 6.02Q138.74 6.02 139.27 6.24L139.27 6.24L139.27 6.24Q139.79 6.47 140.28 6.96L140.28 6.96L140.28 5.53L140.28 5.53Q140.28 4.73 140.26 4.20L140.26 4.20L140.26 4.20Q140.24 3.67 140.20 3.47L140.20 3.47L140.20 3.47Q140.13 3.16 139.80 3.04L139.80 3.04L139.80 3.04Q139.48 2.91 138.75 2.91L138.75 2.91L138.75 2.49L141.62 1.96L141.62 10.04L141.62 10.04Q141.62 11.00 141.64 11.63L141.64 11.63L141.64 11.63Q141.65 12.25 141.72 12.52L141.72 12.52L141.72 12.52Q141.76 12.68 141.83 12.80L141.83 12.80L141.83 12.80Q141.89 12.91 142.01 12.97L142.01 12.97L142.01 12.97Q142.13 13.03 142.33 13.06L142.33 13.06L142.33 13.06Q142.53 13.09 142.86 13.09L142.86 13.09L142.86 13.57L140.53 13.72ZM140.25 10.23L140.25 9.31L140.25 9.31Q140.25 8.58 140.18 8.20L140.18 8.20L140.18 8.20Q140.10 7.83 139.87 7.55L139.87 7.55L139.87 7.55Q139.55 7.13 139.06 6.91L139.06 6.91L139.06 6.91Q138.56 6.69 138.07 6.69L138.07 6.69L138.07 6.69Q137.06 6.69 136.54 7.53L136.54 7.53L136.54 7.53Q136.01 8.36 136.01 9.79L136.01 9.79L136.01 9.79Q136.01 10.53 136.14 11.13L136.14 11.13L136.14 11.13Q136.28 11.73 136.54 12.16L136.54 12.16L136.54 12.16Q136.79 12.59 137.18 12.82L137.18 12.82L137.18 12.82Q137.56 13.05 138.07 13.05L138.07 13.05L138.07 13.05Q138.32 13.05 138.58 12.99L138.58 12.99L138.58 12.99Q138.84 12.94 139.08 12.82L139.08 12.82L139.08 12.82Q139.33 12.70 139.54 12.54L139.54 12.54L139.54 12.54Q139.75 12.38 139.89 12.17L139.89 12.17L139.89 12.17Q140.08 11.86 140.17 11.42L140.17 11.42L140.17 11.42Q140.25 10.99 140.25 10.23L140.25 10.23ZM150.08 11.89L150.51 12.28L150.51 12.28Q149.32 13.72 147.56 13.72L147.56 13.72L147.56 13.72Q146.73 13.72 146.06 13.45L146.06 13.45L146.06 13.45Q145.39 13.17 144.91 12.68L144.91 12.68L144.91 12.68Q144.42 12.18 144.16 11.49L144.16 11.49L144.16 11.49Q143.89 10.79 143.89 9.95L143.89 9.95L143.89 9.95Q143.89 9.10 144.17 8.37L144.17 8.37L144.17 8.37Q144.45 7.64 144.96 7.13L144.96 7.13L144.96 7.13Q145.47 6.61 146.18 6.31L146.18 6.31L146.18 6.31Q146.89 6.02 147.73 6.02L147.73 6.02L147.73 6.02Q149.09 6.02 149.83 6.75L149.83 6.75L149.83 6.75Q150.57 7.49 150.57 8.86L150.57 8.86L150.57 8.86Q150.57 9.06 150.49 9.10L150.49 9.10L150.49 9.10Q150.42 9.14 150.14 9.14L150.14 9.14L145.53 9.14L145.53 9.14Q145.50 9.25 145.49 9.41L145.49 9.41L145.49 9.41Q145.47 9.58 145.47 9.77L145.47 9.77L145.47 9.77Q145.47 10.50 145.65 11.10L145.65 11.10L145.65 11.10Q145.82 11.69 146.15 12.11L146.15 12.11L146.15 12.11Q146.48 12.53 146.94 12.76L146.94 12.76L146.94 12.76Q147.39 12.99 147.95 12.99L147.95 12.99L147.95 12.99Q148.54 12.99 149.04 12.73L149.04 12.73L149.04 12.73Q149.55 12.47 150.08 11.89L150.08 11.89ZM145.63 8.50L148.20 8.50L148.20 8.50Q148.48 8.50 148.65 8.48L148.65 8.48L148.65 8.48Q148.82 8.47 148.90 8.43L148.90 8.43L148.90 8.43Q148.99 8.39 149.02 8.31L149.02 8.31L149.02 8.31Q149.04 8.23 149.04 8.11L149.04 8.11L149.04 8.11Q149.04 7.46 148.63 7.08L148.63 7.08L148.63 7.08Q148.22 6.69 147.50 6.69L147.50 6.69L147.50 6.69Q145.99 6.69 145.63 8.50L145.63 8.50ZM158.35 10.88L158.35 11.35L158.35 11.35Q158.35 11.93 158.38 12.26L158.38 12.26L158.38 12.26Q158.41 12.60 158.53 12.78L158.53 12.78L158.53 12.78Q158.65 12.95 158.87 13.01L158.87 13.01L158.87 13.01Q159.10 13.06 159.50 13.09L159.50 13.09L159.50 13.58L155.78 13.58L155.78 13.09L155.78 13.09Q156.18 13.08 156.42 13.01L156.42 13.01L156.42 13.01Q156.66 12.95 156.79 12.78L156.79 12.78L156.79 12.78Q156.91 12.61 156.95 12.30L156.95 12.30L156.95 12.30Q156.98 11.98 156.98 11.45L156.98 11.45L156.98 9.81L156.98 9.81Q156.98 8.86 156.96 8.33L156.96 8.33L156.96 8.33Q156.94 7.80 156.82 7.55L156.82 7.55L156.82 7.55Q156.70 7.29 156.45 7.25L156.45 7.25L156.45 7.25Q156.20 7.20 155.75 7.20L155.75 7.20L155.75 6.71L158.20 6.17L158.40 7.91L158.45 7.91L158.45 7.91Q158.63 7.49 158.91 7.14L158.91 7.14L158.91 7.14Q159.18 6.79 159.50 6.54L159.50 6.54L159.50 6.54Q159.82 6.30 160.17 6.16L160.17 6.16L160.17 6.16Q160.52 6.02 160.89 6.02L160.89 6.02L160.89 6.02Q161.34 6.02 161.59 6.24L161.59 6.24L161.59 6.24Q161.85 6.45 161.85 6.82L161.85 6.82L161.85 6.82Q161.85 7.15 161.64 7.34L161.64 7.34L161.64 7.34Q161.43 7.53 161.04 7.53L161.04 7.53L161.04 7.53Q160.82 7.53 160.66 7.48L160.66 7.48L160.66 7.48Q160.51 7.42 160.39 7.36L160.39 7.36L160.39 7.36Q160.27 7.29 160.17 7.24L160.17 7.24L160.17 7.24Q160.06 7.18 159.94 7.18L159.94 7.18L159.94 7.18Q159.56 7.18 159.18 7.67L159.18 7.67L159.18 7.67Q158.80 8.15 158.59 8.89L158.59 8.89L158.59 8.89Q158.48 9.30 158.42 9.81L158.42 9.81L158.42 9.81Q158.35 10.32 158.35 10.88L158.35 10.88ZM168.64 11.89L169.08 12.28L169.08 12.28Q167.89 13.72 166.12 13.72L166.12 13.72L166.12 13.72Q165.30 13.72 164.63 13.45L164.63 13.45L164.63 13.45Q163.95 13.17 163.47 12.68L163.47 12.68L163.47 12.68Q162.99 12.18 162.72 11.49L162.72 11.49L162.72 11.49Q162.46 10.79 162.46 9.95L162.46 9.95L162.46 9.95Q162.46 9.10 162.74 8.37L162.74 8.37L162.74 8.37Q163.02 7.64 163.53 7.13L163.53 7.13L163.53 7.13Q164.04 6.61 164.75 6.31L164.75 6.31L164.75 6.31Q165.45 6.02 166.29 6.02L166.29 6.02L166.29 6.02Q167.65 6.02 168.39 6.75L168.39 6.75L168.39 6.75Q169.13 7.49 169.13 8.86L169.13 8.86L169.13 8.86Q169.13 9.06 169.06 9.10L169.06 9.10L169.06 9.10Q168.98 9.14 168.70 9.14L168.70 9.14L164.09 9.14L164.09 9.14Q164.07 9.25 164.05 9.41L164.05 9.41L164.05 9.41Q164.04 9.58 164.04 9.77L164.04 9.77L164.04 9.77Q164.04 10.50 164.21 11.10L164.21 11.10L164.21 11.10Q164.39 11.69 164.72 12.11L164.72 12.11L164.72 12.11Q165.05 12.53 165.50 12.76L165.50 12.76L165.50 12.76Q165.96 12.99 166.52 12.99L166.52 12.99L166.52 12.99Q167.10 12.99 167.61 12.73L167.61 12.73L167.61 12.73Q168.11 12.47 168.64 11.89L168.64 11.89ZM164.19 8.50L166.77 8.50L166.77 8.50Q167.05 8.50 167.22 8.48L167.22 8.48L167.22 8.48Q167.38 8.47 167.47 8.43L167.47 8.43L167.47 8.43Q167.55 8.39 167.58 8.31L167.58 8.31L167.58 8.31Q167.61 8.23 167.61 8.11L167.61 8.11L167.61 8.11Q167.61 7.46 167.20 7.08L167.20 7.08L167.20 7.08Q166.78 6.69 166.07 6.69L166.07 6.69L166.07 6.69Q164.56 6.69 164.19 8.50L164.19 8.50ZM172.73 6.08L172.73 7.17L172.79 7.17L172.79 7.17Q173.24 6.64 173.75 6.33L173.75 6.33L173.75 6.33Q174.27 6.02 174.96 6.02L174.96 6.02L174.96 6.02Q175.76 6.02 176.42 6.31L176.42 6.31L176.42 6.31Q177.09 6.59 177.58 7.11L177.58 7.11L177.58 7.11Q178.07 7.63 178.34 8.34L178.34 8.34L178.34 8.34Q178.61 9.04 178.61 9.88L178.61 9.88L178.61 9.88Q178.61 10.74 178.33 11.45L178.33 11.45L178.33 11.45Q178.05 12.15 177.56 12.66L177.56 12.66L177.56 12.66Q177.07 13.16 176.40 13.44L176.40 13.44L176.40 13.44Q175.73 13.72 174.94 13.72L174.94 13.72L174.94 13.72Q174.30 13.72 173.78 13.50L173.78 13.50L173.78 13.50Q173.25 13.29 172.79 12.80L172.79 12.80L172.79 14.84L172.79 14.84Q172.79 15.40 172.84 15.74L172.84 15.74L172.84 15.74Q172.90 16.07 173.07 16.25L173.07 16.25L173.07 16.25Q173.24 16.44 173.55 16.51L173.55 16.51L173.55 16.51Q173.87 16.58 174.38 16.59L174.38 16.59L174.38 17.08L170.07 17.08L170.07 16.59L170.07 16.59Q170.49 16.58 170.75 16.51L170.75 16.51L170.75 16.51Q171.01 16.44 171.16 16.25L171.16 16.25L171.16 16.25Q171.30 16.07 171.36 15.76L171.36 15.76L171.36 15.76Q171.42 15.44 171.42 14.94L171.42 14.94L171.42 9.70L171.42 9.70Q171.42 8.89 171.40 8.37L171.40 8.37L171.40 8.37Q171.37 7.85 171.32 7.66L171.32 7.66L171.32 7.66Q171.25 7.32 171.00 7.20L171.00 7.20L171.00 7.20Q170.74 7.08 170.04 7.08L170.04 7.08L170.04 6.61L172.73 6.08ZM173.15 7.57L173.15 7.57L173.15 7.57Q172.97 7.85 172.88 8.24L172.88 8.24L172.88 8.24Q172.79 8.62 172.79 9.24L172.79 9.24L172.79 10.33L172.79 10.33Q172.79 10.71 172.81 10.98L172.81 10.98L172.81 10.98Q172.83 11.26 172.87 11.45L172.87 11.45L172.87 11.45Q172.91 11.65 172.98 11.80L172.98 11.80L172.98 11.80Q173.05 11.96 173.17 12.10L173.17 12.10L173.17 12.10Q173.49 12.54 173.94 12.79L173.94 12.79L173.94 12.79Q174.38 13.03 174.87 13.03L174.87 13.03L174.87 13.03Q175.84 13.03 176.44 12.22L176.44 12.22L176.44 12.22Q177.03 11.41 177.03 9.94L177.03 9.94L177.03 9.94Q177.03 9.21 176.87 8.62L176.87 8.62L176.87 8.62Q176.71 8.02 176.41 7.59L176.41 7.59L176.41 7.59Q176.12 7.17 175.71 6.93L175.71 6.93L175.71 6.93Q175.29 6.69 174.79 6.69L174.79 6.69L174.79 6.69Q174.29 6.69 173.86 6.92L173.86 6.92L173.86 6.92Q173.43 7.15 173.15 7.57ZM184.18 10.54L184.18 9.44L184.18 9.44Q183.39 9.74 182.83 10.04L182.83 10.04L182.83 10.04Q182.28 10.33 181.94 10.63L181.94 10.63L181.94 10.63Q181.61 10.92 181.46 11.21L181.46 11.21L181.46 11.21Q181.31 11.51 181.31 11.82L181.31 11.82L181.31 11.82Q181.31 12.28 181.62 12.57L181.62 12.57L181.62 12.57Q181.93 12.87 182.43 12.87L182.43 12.87L182.43 12.87Q182.80 12.87 183.11 12.68L183.11 12.68L183.11 12.68Q183.43 12.50 183.67 12.19L183.67 12.19L183.67 12.19Q183.90 11.87 184.04 11.45L184.04 11.45L184.04 11.45Q184.18 11.02 184.18 10.54L184.18 10.54ZM182.17 9.72L184.18 8.83L184.18 8.26L184.18 8.26Q184.18 6.55 182.73 6.55L182.73 6.55L182.73 6.55Q182.49 6.55 182.32 6.59L182.32 6.59L182.32 6.59Q182.15 6.64 182.04 6.73L182.04 6.73L182.04 6.73Q181.93 6.83 181.84 7.01L181.84 7.01L181.84 7.01Q181.75 7.20 181.66 7.46L181.66 7.46L181.66 7.46Q181.51 7.87 181.36 8.00L181.36 8.00L181.36 8.00Q181.22 8.13 180.94 8.13L180.94 8.13L180.94 8.13Q180.24 8.13 180.24 7.43L180.24 7.43L180.24 7.43Q180.24 6.76 180.95 6.39L180.95 6.39L180.95 6.39Q181.66 6.02 182.98 6.02L182.98 6.02L182.98 6.02Q184.38 6.02 184.97 6.52L184.97 6.52L184.97 6.52Q185.56 7.01 185.56 8.20L185.56 8.20L185.56 11.34L185.56 11.34Q185.56 12.94 186.19 12.94L186.19 12.94L186.19 12.94Q186.38 12.94 186.56 12.89L186.56 12.89L186.56 12.89Q186.75 12.84 186.87 12.63L186.87 12.63L187.07 12.96L187.07 12.96Q186.90 13.29 186.45 13.50L186.45 13.50L186.45 13.50Q186.00 13.72 185.51 13.72L185.51 13.72L185.51 13.72Q184.90 13.72 184.60 13.33L184.60 13.33L184.60 13.33Q184.30 12.94 184.30 12.22L184.30 12.22L184.23 12.22L184.23 12.22Q183.86 12.91 183.22 13.31L183.22 13.31L183.22 13.31Q182.57 13.71 181.79 13.71L181.79 13.71L181.79 13.71Q180.91 13.71 180.40 13.26L180.40 13.26L180.40 13.26Q179.90 12.81 179.90 12.05L179.90 12.05L179.90 12.05Q179.90 11.72 180.02 11.41L180.02 11.41L180.02 11.41Q180.14 11.10 180.40 10.82L180.40 10.82L180.40 10.82Q180.67 10.54 181.10 10.27L181.10 10.27L181.10 10.27Q181.54 10.00 182.17 9.72L182.17 9.72ZM190.25 6.02L190.25 11.35L190.25 11.35Q190.25 11.90 190.30 12.23L190.30 12.23L190.30 12.23Q190.34 12.56 190.48 12.75L190.48 12.75L190.48 12.75Q190.62 12.94 190.88 13.01L190.88 13.01L190.88 13.01Q191.13 13.08 191.55 13.09L191.55 13.09L191.55 13.58L187.53 13.58L187.53 13.09L187.53 13.09Q187.95 13.08 188.22 13.00L188.22 13.00L188.22 13.00Q188.48 12.92 188.63 12.75L188.63 12.75L188.63 12.75Q188.78 12.57 188.82 12.26L188.82 12.26L188.82 12.26Q188.87 11.94 188.87 11.45L188.87 11.45L188.87 9.66L188.87 9.66Q188.87 8.85 188.85 8.32L188.85 8.32L188.85 8.32Q188.83 7.80 188.78 7.60L188.78 7.60L188.78 7.60Q188.71 7.28 188.45 7.16L188.45 7.16L188.45 7.16Q188.20 7.04 187.50 7.04L187.50 7.04L187.50 6.55L190.25 6.02ZM188.64 3.18L188.64 3.18L188.64 3.18Q188.64 2.81 188.89 2.56L188.89 2.56L188.89 2.56Q189.14 2.31 189.50 2.31L189.50 2.31L189.50 2.31Q189.87 2.31 190.12 2.56L190.12 2.56L190.12 2.56Q190.37 2.81 190.37 3.18L190.37 3.18L190.37 3.18Q190.37 3.54 190.12 3.79L190.12 3.79L190.12 3.79Q189.87 4.05 189.50 4.05L189.50 4.05L189.50 4.05Q189.14 4.05 188.89 3.79L188.89 3.79L188.89 3.79Q188.64 3.54 188.64 3.18ZM194.94 10.88L194.94 11.35L194.94 11.35Q194.94 11.93 194.96 12.26L194.96 12.26L194.96 12.26Q194.99 12.60 195.11 12.78L195.11 12.78L195.11 12.78Q195.23 12.95 195.45 13.01L195.45 13.01L195.45 13.01Q195.68 13.06 196.08 13.09L196.08 13.09L196.08 13.58L192.36 13.58L192.36 13.09L192.36 13.09Q192.77 13.08 193.00 13.01L193.00 13.01L193.00 13.01Q193.24 12.95 193.37 12.78L193.37 12.78L193.37 12.78Q193.49 12.61 193.53 12.30L193.53 12.30L193.53 12.30Q193.56 11.98 193.56 11.45L193.56 11.45L193.56 9.81L193.56 9.81Q193.56 8.86 193.54 8.33L193.54 8.33L193.54 8.33Q193.52 7.80 193.40 7.55L193.40 7.55L193.40 7.55Q193.28 7.29 193.03 7.25L193.03 7.25L193.03 7.25Q192.78 7.20 192.33 7.20L192.33 7.20L192.33 6.71L194.78 6.17L194.98 7.91L195.03 7.91L195.03 7.91Q195.22 7.49 195.49 7.14L195.49 7.14L195.49 7.14Q195.76 6.79 196.08 6.54L196.08 6.54L196.08 6.54Q196.41 6.30 196.76 6.16L196.76 6.16L196.76 6.16Q197.11 6.02 197.47 6.02L197.47 6.02L197.47 6.02Q197.92 6.02 198.18 6.24L198.18 6.24L198.18 6.24Q198.44 6.45 198.44 6.82L198.44 6.82L198.44 6.82Q198.44 7.15 198.23 7.34L198.23 7.34L198.23 7.34Q198.02 7.53 197.62 7.53L197.62 7.53L197.62 7.53Q197.40 7.53 197.25 7.48L197.25 7.48L197.25 7.48Q197.09 7.42 196.97 7.36L196.97 7.36L196.97 7.36Q196.85 7.29 196.75 7.24L196.75 7.24L196.75 7.24Q196.64 7.18 196.52 7.18L196.52 7.18L196.52 7.18Q196.14 7.18 195.76 7.67L195.76 7.67L195.76 7.67Q195.38 8.15 195.17 8.89L195.17 8.89L195.17 8.89Q195.06 9.30 195.00 9.81L195.00 9.81L195.00 9.81Q194.94 10.32 194.94 10.88L194.94 10.88Z"></path></g><!----><!----></svg>